<?xml version="1.0" encoding="UTF-8"?>
<svg width="100px" height="24px" viewBox="0 0 100 24" version="1.1" xmlns="http://www.w3.org/2000/svg" xmlns:xlink="http://www.w3.org/1999/xlink">
    <!-- Generator: Sketch 42 (36781) - http://www.bohemiancoding.com/sketch -->
    <title>Group 38</title>
    <desc>Created with Sketch.</desc>
    <defs></defs>
    <g id="template(outline)" stroke="none" stroke-width="1" fill="none" fill-rule="evenodd">
        <g id="card-temp" transform="translate(-1512.000000, -733.000000)">
            <g id="Group-25" transform="translate(1267.000000, 722.000000)">
                <g id="Group-23">
                    <g id="選擇假別/時間-+-Shape-Copy-8-+-Shape-Copy-9">
                        <g id="選擇假別/時間">
                            <g id="Dynamic-group" transform="translate(245.000000, 11.000000)">
                                <g id="Group-21">
                                    <g id="Group-38">
                                        <rect id="BG" fill="#04CBD9" x="0.5" y="0.5" width="99" height="23" rx="11.5"></rect>
                                        <path d="M18.6508789,14.1196289 L14.7788086,14.1196289 L13.902832,16.5 L12.6269531,16.5 L16.2006836,7.2578125 L17.2734375,7.2578125 L20.7900391,16.5 L19.5141602,16.5 L18.6508789,14.1196289 Z M15.1660156,13.0722656 L18.2763672,13.0722656 L16.7529297,8.86376953 L16.7148438,8.86376953 L15.1660156,13.0722656 Z M22.9418945,9.63183594 L23.0307617,10.6538086 C23.2592785,10.2898745 23.5459781,10.0074066 23.8908691,9.80639648 C24.2357602,9.60538636 24.628253,9.50488281 25.0683594,9.50488281 C25.808923,9.50488281 26.3823222,9.7217589 26.7885742,10.1555176 C27.1948262,10.5892763 27.3979492,11.2589473 27.3979492,12.1645508 L27.3979492,16.5 L26.1474609,16.5 L26.1474609,12.1899414 C26.1474609,11.5847952 26.0279146,11.1552747 25.7888184,10.9013672 C25.5497221,10.6474597 25.1847355,10.5205078 24.6938477,10.5205078 C24.3341453,10.5205078 24.0157078,10.6072582 23.7385254,10.7807617 C23.461343,10.9542652 23.2402352,11.191242 23.0751953,11.4916992 L23.0751953,16.5 L21.824707,16.5 L21.824707,9.63183594 L22.9418945,9.63183594 Z M30.3305664,9.63183594 L30.4194336,10.6538086 C30.6479504,10.2898745 30.93465,10.0074066 31.279541,9.80639648 C31.6244321,9.60538636 32.0169249,9.50488281 32.4570312,9.50488281 C33.1975948,9.50488281 33.7709941,9.7217589 34.1772461,10.1555176 C34.5834981,10.5892763 34.7866211,11.2589473 34.7866211,12.1645508 L34.7866211,16.5 L33.5361328,16.5 L33.5361328,12.1899414 C33.5361328,11.5847952 33.4165865,11.1552747 33.1774902,10.9013672 C32.938394,10.6474597 32.5734074,10.5205078 32.0825195,10.5205078 C31.7228172,10.5205078 31.4043796,10.6072582 31.1271973,10.7807617 C30.8500149,10.9542652 30.6289071,11.191242 30.4638672,11.4916992 L30.4638672,16.5 L29.2133789,16.5 L29.2133789,9.63183594 L30.3305664,9.63183594 Z M40.9628906,15.484375 C40.7470692,15.8525409 40.469891,16.1360667 40.1313477,16.3349609 C39.7928043,16.5338552 39.4013694,16.6333008 38.9570312,16.6333008 C38.2080041,16.6333008 37.6240255,16.3942081 37.2050781,15.9160156 C36.7861307,15.4378231 36.5766602,14.6930389 36.5766602,13.6816406 L36.5766602,9.63183594 L37.8271484,9.63183594 L37.8271484,13.6943359 C37.8271484,14.426436 37.9350575,14.9300116 38.1508789,15.2050781 C38.3667003,15.4801446 38.7031227,15.6176758 39.1601562,15.6176758 C39.6044944,15.6176758 39.9715969,15.5277516 40.2614746,15.3479004 C40.5513524,15.1680492 40.7703443,14.9130876 40.918457,14.5830078 L40.918457,9.63183594 L42.1689453,9.63183594 L42.1689453,16.5 L41.0454102,16.5 L40.9628906,15.484375 Z M48.2119141,16.5 C48.1695961,16.2926422 48.1368002,16.1096199 48.1135254,15.9509277 C48.0902505,15.7922355 48.0764974,15.6324878 48.0722656,15.4716797 C47.8395171,15.8017595 47.5358905,16.0778797 47.161377,16.3000488 C46.7868634,16.5222179 46.3837912,16.6333008 45.9521484,16.6333008 C45.2369756,16.6333008 44.6921405,16.4502785 44.317627,16.0842285 C43.9431134,15.7181785 43.7558594,15.2135449 43.7558594,14.5703125 C43.7558594,13.9143847 44.0214003,13.4012877 44.5524902,13.0310059 C45.0835801,12.6607241 45.8040319,12.4755859 46.7138672,12.4755859 L48.0722656,12.4755859 L48.0722656,11.7963867 C48.0722656,11.3943665 47.9495455,11.0759289 47.7041016,10.8410645 C47.4586576,10.6062 47.1116559,10.4887695 46.6630859,10.4887695 C46.2610657,10.4887695 45.9341647,10.5913889 45.682373,10.7966309 C45.4305814,11.0018728 45.3046875,11.248371 45.3046875,11.5361328 L44.1113281,11.5361328 L44.0986328,11.4980469 C44.0732421,10.9986954 44.3091609,10.5416687 44.8063965,10.1269531 C45.303632,9.71223751 45.9457968,9.50488281 46.7329102,9.50488281 C47.5115599,9.50488281 48.1378557,9.70271612 48.6118164,10.0983887 C49.0857771,10.4940612 49.3227539,11.0642866 49.3227539,11.809082 L49.3227539,15.1162109 C49.3227539,15.3616549 49.3354491,15.5986317 49.3608398,15.8271484 C49.3862306,16.0556652 49.4327796,16.2799468 49.5004883,16.5 L48.2119141,16.5 Z M46.1362305,15.5859375 C46.5890322,15.5859375 46.997394,15.469565 47.3613281,15.2368164 C47.7252622,15.0040678 47.962239,14.737469 48.0722656,14.4370117 L48.0722656,13.3198242 L46.6694336,13.3198242 C46.1658503,13.3198242 45.7627782,13.4467761 45.4602051,13.7006836 C45.157632,13.9545911 45.0063477,14.252928 45.0063477,14.5957031 C45.0063477,14.9003921 45.1015615,15.1416007 45.2919922,15.3193359 C45.4824228,15.4970712 45.7638328,15.5859375 46.1362305,15.5859375 Z M52.4902344,16.5 L51.2397461,16.5 L51.2397461,6.59765625 L52.4902344,6.59765625 L52.4902344,16.5 Z M58.996582,16.5 L57.7460938,16.5 L57.7460938,6.59765625 L58.996582,6.59765625 L58.996582,16.5 Z M63.7700195,16.6333008 C62.8136345,16.6333008 62.0529813,16.3148632 61.4880371,15.6779785 C60.9230929,15.0410938 60.640625,14.2148488 60.640625,13.1992188 L60.640625,12.9199219 C60.640625,11.9423779 60.9315563,11.1288281 61.5134277,10.479248 C62.0952991,9.82966798 62.7840129,9.50488281 63.5795898,9.50488281 C64.5063523,9.50488281 65.2067034,9.78417689 65.6806641,10.3427734 C66.1546248,10.90137 66.3916016,11.6461542 66.3916016,12.5771484 L66.3916016,13.3579102 L61.9355469,13.3579102 L61.9165039,13.3896484 C61.9291993,14.049808 62.0963526,14.5925272 62.4179688,15.0178223 C62.7395849,15.4431174 63.190264,15.6557617 63.7700195,15.6557617 C64.1931987,15.6557617 64.5645329,15.5954596 64.8840332,15.4748535 C65.2035335,15.3542474 65.4796538,15.1881521 65.7124023,14.9765625 L66.2011719,15.7890625 C65.9557279,16.0302746 65.6320007,16.2312817 65.2299805,16.3920898 C64.8279602,16.5528979 64.3413115,16.6333008 63.7700195,16.6333008 Z M63.5795898,10.4887695 C63.1606424,10.4887695 62.8030614,10.6654442 62.5068359,11.0187988 C62.2106105,11.3721535 62.0286462,11.815427 61.9609375,12.3486328 L61.9736328,12.3803711 L65.1411133,12.3803711 L65.1411133,12.215332 C65.1411133,11.7244442 65.0099297,11.3139665 64.7475586,10.9838867 C64.4851875,10.6538069 64.0958685,10.4887695 63.5795898,10.4887695 Z M72.015625,16.5 C71.9733071,16.2926422 71.9405112,16.1096199 71.9172363,15.9509277 C71.8939615,15.7922355 71.8802084,15.6324878 71.8759766,15.4716797 C71.643228,15.8017595 71.3396015,16.0778797 70.9650879,16.3000488 C70.5905743,16.5222179 70.1875022,16.6333008 69.7558594,16.6333008 C69.0406865,16.6333008 68.4958515,16.4502785 68.1213379,16.0842285 C67.7468243,15.7181785 67.5595703,15.2135449 67.5595703,14.5703125 C67.5595703,13.9143847 67.8251113,13.4012877 68.3562012,13.0310059 C68.8872911,12.6607241 69.6077428,12.4755859 70.5175781,12.4755859 L71.8759766,12.4755859 L71.8759766,11.7963867 C71.8759766,11.3943665 71.7532564,11.0759289 71.5078125,10.8410645 C71.2623686,10.6062 70.9153668,10.4887695 70.4667969,10.4887695 C70.0647766,10.4887695 69.7378756,10.5913889 69.486084,10.7966309 C69.2342924,11.0018728 69.1083984,11.248371 69.1083984,11.5361328 L67.9150391,11.5361328 L67.9023438,11.4980469 C67.876953,10.9986954 68.1128719,10.5416687 68.6101074,10.1269531 C69.107343,9.71223751 69.7495078,9.50488281 70.5366211,9.50488281 C71.3152708,9.50488281 71.9415666,9.70271612 72.4155273,10.0983887 C72.889488,10.4940612 73.1264648,11.0642866 73.1264648,11.809082 L73.1264648,15.1162109 C73.1264648,15.3616549 73.13916,15.5986317 73.1645508,15.8271484 C73.1899415,16.0556652 73.2364905,16.2799468 73.3041992,16.5 L72.015625,16.5 Z M69.9399414,15.5859375 C70.3927431,15.5859375 70.801105,15.469565 71.1650391,15.2368164 C71.5289732,15.0040678 71.76595,14.737469 71.8759766,14.4370117 L71.8759766,13.3198242 L70.4731445,13.3198242 C69.9695613,13.3198242 69.5664891,13.4467761 69.263916,13.7006836 C68.9613429,13.9545911 68.8100586,14.252928 68.8100586,14.5957031 C68.8100586,14.9003921 68.9052725,15.1416007 69.0957031,15.3193359 C69.2861338,15.4970712 69.5675437,15.5859375 69.9399414,15.5859375 Z M77.2333984,14.4750977 L77.3413086,14.9575195 L77.3793945,14.9575195 L77.5,14.4750977 L79.0805664,9.63183594 L80.3564453,9.63183594 L77.8300781,16.5 L76.8842773,16.5 L74.3261719,9.63183594 L75.6083984,9.63183594 L77.2333984,14.4750977 Z M84.3300781,16.6333008 C83.3736931,16.6333008 82.6130399,16.3148632 82.0480957,15.6779785 C81.4831515,15.0410938 81.2006836,14.2148488 81.2006836,13.1992188 L81.2006836,12.9199219 C81.2006836,11.9423779 81.4916149,11.1288281 82.0734863,10.479248 C82.6553577,9.82966798 83.3440715,9.50488281 84.1396484,9.50488281 C85.0664109,9.50488281 85.766762,9.78417689 86.2407227,10.3427734 C86.7146834,10.90137 86.9516602,11.6461542 86.9516602,12.5771484 L86.9516602,13.3579102 L82.4956055,13.3579102 L82.4765625,13.3896484 C82.4892579,14.049808 82.6564112,14.5925272 82.9780273,15.0178223 C83.2996435,15.4431174 83.7503226,15.6557617 84.3300781,15.6557617 C84.7532573,15.6557617 85.1245915,15.5954596 85.4440918,15.4748535 C85.7635921,15.3542474 86.0397124,15.1881521 86.2724609,14.9765625 L86.7612305,15.7890625 C86.5157865,16.0302746 86.1920593,16.2312817 85.7900391,16.3920898 C85.3880188,16.5528979 84.90137,16.6333008 84.3300781,16.6333008 Z M84.1396484,10.4887695 C83.720701,10.4887695 83.36312,10.6654442 83.0668945,11.0187988 C82.7706691,11.3721535 82.5887048,11.815427 82.5209961,12.3486328 L82.5336914,12.3803711 L85.7011719,12.3803711 L85.7011719,12.215332 C85.7011719,11.7244442 85.5699883,11.3139665 85.3076172,10.9838867 C85.0452461,10.6538069 84.6559271,10.4887695 84.1396484,10.4887695 Z" id="5:12" fill="#FFFFFF"></path>
                                    </g>
                                </g>
                            </g>
                        </g>
                    </g>
                </g>
            </g>
        </g>
    </g>
</svg>