<svg xmlns="http://www.w3.org/2000/svg" xmlns:xlink="http://www.w3.org/1999/xlink" viewBox="0 0 47.32 43.6"><defs><style>.cls-1{fill:url(#未命名漸層_2);}.cls-2,.cls-3{fill:#314461;}.cls-3{fill-rule:evenodd;}</style><linearGradient id="未命名漸層_2" y1="21.8" x2="47.32" y2="21.8" gradientUnits="userSpaceOnUse"><stop offset="0" stop-color="#dbdbdb"/><stop offset="1" stop-color="#cacddb"/></linearGradient></defs><title>資產 3</title><g id="圖層_2" data-name="圖層 2"><g id="圖層_1-2" data-name="圖層 1"><path class="cls-1" d="M46.1,28.88,31.34,42.48a4.44,4.44,0,0,1-5.89,0L1.22,20.15a3.64,3.64,0,0,1,0-5.43L16,1.12a4.44,4.44,0,0,1,5.89,0L46.1,23.45A3.64,3.64,0,0,1,46.1,28.88Z"/><path class="cls-2" d="M9.53,19.41l-.72-.28L7.24,20.85l.36.7a2.58,2.58,0,0,1,.24.59.44.44,0,0,1-.14.38.55.55,0,0,1-.38.18.49.49,0,0,1-.38-.12.81.81,0,0,1-.15-.19q-.07-.11-.17-.33l-1.76-3.6-.18-.37a2,2,0,0,1-.15-.39.76.76,0,0,1,0-.36.8.8,0,0,1,.2-.36.81.81,0,0,1,.34-.24.78.78,0,0,1,.35,0,1.67,1.67,0,0,1,.34.09L6.2,17,10,18.35a1.86,1.86,0,0,1,.57.28.51.51,0,0,1,.16.37.55.55,0,0,1-.15.41.52.52,0,0,1-.19.14.48.48,0,0,1-.21,0,1.23,1.23,0,0,1-.29-.07ZM6.8,20,8,18.77l-2.33-1Z"/><path class="cls-2" d="M11.5,21.77a1.18,1.18,0,0,0-1.35,1.48l.82,2.6a1.12,1.12,0,0,0,1.41.73h0a1.13,1.13,0,0,0,.73-1.41l-.24-.77.79.17A1.13,1.13,0,0,0,15,23.71v0a1.12,1.12,0,0,0-.85-1.34Z"/><polygon class="cls-3" points="13.66 25.1 14.8 25.13 13.79 26.24 13.66 25.1"/></g></g></svg>