<?xml version="1.0" encoding="UTF-8"?>
<svg width="331px" height="520px" viewBox="0 0 331 520" version="1.1" xmlns="http://www.w3.org/2000/svg" xmlns:xlink="http://www.w3.org/1999/xlink">
    <!-- Generator: Sketch 40 (33762) - http://www.bohemiancoding.com/sketch -->
    <title>Group 77</title>
    <desc>Created with Sketch.</desc>
    <defs>
        <rect id="path-1" x="0" y="0.75" width="230" height="28" rx="4"></rect>
        <mask id="mask-2" maskContentUnits="userSpaceOnUse" maskUnits="objectBoundingBox" x="0" y="0" width="230" height="28" fill="white">
            <use xlink:href="#path-1"></use>
        </mask>
        <rect id="path-3" x="0" y="0" width="166" height="216" rx="7.2"></rect>
        <mask id="mask-4" maskContentUnits="userSpaceOnUse" maskUnits="objectBoundingBox" x="0" y="0" width="166" height="216" fill="white">
            <use xlink:href="#path-3"></use>
        </mask>
        <ellipse id="path-5" cx="86.6086957" cy="21.6" rx="14.4347826" ry="14.4"></ellipse>
        <mask id="mask-6" maskContentUnits="userSpaceOnUse" maskUnits="objectBoundingBox" x="0" y="0" width="28.8695652" height="28.8" fill="white">
            <use xlink:href="#path-5"></use>
        </mask>
        <ellipse id="path-7" cx="86.6086957" cy="72" rx="14.4347826" ry="14.4"></ellipse>
        <mask id="mask-8" maskContentUnits="userSpaceOnUse" maskUnits="objectBoundingBox" x="0" y="0" width="28.8695652" height="28.8" fill="white">
            <use xlink:href="#path-7"></use>
        </mask>
        <rect id="path-9" x="0.731692677" y="0.597222222" width="136.536615" height="42.1041667" rx="8.1"></rect>
        <mask id="mask-10" maskContentUnits="userSpaceOnUse" maskUnits="objectBoundingBox" x="0" y="0" width="136.536615" height="42.1041667" fill="white">
            <use xlink:href="#path-9"></use>
        </mask>
    </defs>
    <g id="Page-1" stroke="none" stroke-width="1" fill="none" fill-rule="evenodd">
        <g id="Group-77">
            <g id="Group-100-Copy-2">
                <rect id="bg" fill="#FFFFFF" x="1" y="0" width="330" height="520" rx="4"></rect>
                <path d="M152.539551,92.2685547 C152.199705,92.7548852 151.641605,93.1957988 150.865234,93.5913086 C150.088863,93.9868184 149.091315,94.1845703 147.872559,94.1845703 C146.331535,94.1845703 145.062993,93.6967822 144.066895,92.7211914 C143.070796,91.7456006 142.572754,90.4843827 142.572754,88.9375 L142.572754,86.265625 C142.572754,84.7187423 143.042964,83.4575244 143.983398,82.4819336 C144.923833,81.5063428 146.138176,81.0185547 147.626465,81.0185547 C149.132332,81.0185547 150.30273,81.3891565 151.137695,82.1303711 C151.97266,82.8715857 152.398926,83.8369081 152.416504,85.0263672 L152.398926,85.0791016 L150.377441,85.0791016 C150.330566,84.375973 150.08008,83.8090842 149.625977,83.378418 C149.171873,82.9477518 148.514164,82.7324219 147.652832,82.7324219 C146.768062,82.7324219 146.05469,83.0634733 145.512695,83.7255859 C144.9707,84.3876986 144.699707,85.2285105 144.699707,86.2480469 L144.699707,88.9375 C144.699707,89.9687552 144.994138,90.8168912 145.583008,91.4819336 C146.171878,92.146976 146.935054,92.4794922 147.872559,92.4794922 C148.540531,92.4794922 149.082517,92.4018562 149.498535,92.246582 C149.914553,92.0913078 150.216308,91.9082042 150.403809,91.6972656 L150.403809,89.0957031 L147.86377,89.0957031 L147.86377,87.4960938 L152.539551,87.4960938 L152.539551,92.2685547 Z M159.623535,86.4150391 L158.709473,86.3798828 C158.293455,86.3798828 157.94629,86.4677726 157.667969,86.6435547 C157.389647,86.8193368 157.174317,87.0683578 157.021973,87.390625 L157.021973,94 L154.88623,94 L154.88623,84.4902344 L156.837402,84.4902344 L156.978027,85.8701172 C157.218263,85.3837866 157.527342,85.0029311 157.905273,84.7275391 C158.283205,84.4521471 158.718259,84.3144531 159.210449,84.3144531 C159.339356,84.3144531 159.459472,84.3247069 159.570801,84.3452148 C159.682129,84.3657228 159.784668,84.3906249 159.878418,84.4199219 L159.623535,86.4150391 Z M165.195801,94.1845703 C163.848138,94.1845703 162.774418,93.7436568 161.974609,92.8618164 C161.174801,91.9799761 160.774902,90.8476632 160.774902,89.4648438 L160.774902,89.1132812 C160.774902,87.7304618 161.171871,86.5835006 161.96582,85.6723633 C162.75977,84.7612259 163.754389,84.3085937 164.949707,84.3144531 C166.232917,84.3144531 167.215817,84.7026328 167.898438,85.4790039 C168.581058,86.255375 168.922363,87.2968685 168.922363,88.6035156 L168.922363,89.8603516 L162.989746,89.8603516 L162.972168,89.9042969 C163.007324,90.66016 163.228514,91.2783179 163.635742,91.7587891 C164.042971,92.2392602 164.60693,92.4794922 165.327637,92.4794922 C165.901858,92.4794922 166.394041,92.4091804 166.804199,92.2685547 C167.214358,92.127929 167.609861,91.9257826 167.990723,91.6621094 L168.67627,93.0595703 C168.318846,93.3759781 167.844241,93.642577 167.252441,93.859375 C166.660642,94.076173 165.975102,94.1845703 165.195801,94.1845703 Z M164.949707,86.0283203 C164.422361,86.0283203 163.988771,86.2377909 163.648926,86.6567383 C163.30908,87.0756857 163.098145,87.6074187 163.016113,88.2519531 L163.033691,88.2958984 L166.804199,88.2958984 L166.804199,88.0761719 C166.804199,87.4726532 166.650392,86.9804707 166.342773,86.5996094 C166.035155,86.2187481 165.570804,86.0283203 164.949707,86.0283203 Z M176.366699,94 C176.290527,93.7597644 176.227539,93.5253918 176.177734,93.296875 C176.127929,93.0683582 176.094238,92.8398449 176.07666,92.6113281 C175.78369,93.0566429 175.39844,93.4301743 174.920898,93.7319336 C174.443357,94.0336929 173.908694,94.1845703 173.316895,94.1845703 C172.326655,94.1845703 171.566409,93.92969 171.036133,93.4199219 C170.505857,92.9101537 170.240723,92.2099654 170.240723,91.3193359 C170.240723,90.3994095 170.604,89.683108 171.330566,89.1704102 C172.057133,88.6577123 173.079583,88.4013672 174.397949,88.4013672 L176.059082,88.4013672 L176.059082,87.5664062 C176.059082,87.0683569 175.912599,86.6787123 175.619629,86.3974609 C175.326659,86.1162095 174.907718,85.9755859 174.362793,85.9755859 C173.876462,85.9755859 173.489748,86.0927723 173.202637,86.3271484 C172.915526,86.5615246 172.771973,86.8632794 172.771973,87.2324219 L170.715332,87.2324219 L170.706543,87.1796875 C170.665527,86.4296837 171.000973,85.7646513 171.712891,85.1845703 C172.424808,84.6044893 173.352045,84.3144531 174.494629,84.3144531 C175.602056,84.3144531 176.495602,84.5957003 177.175293,85.1582031 C177.854984,85.7207059 178.194824,86.5292916 178.194824,87.5839844 L178.194824,91.8115234 C178.194824,92.2041035 178.221191,92.5805646 178.273926,92.940918 C178.32666,93.3012713 178.411621,93.6542951 178.528809,94 L176.366699,94 Z M173.747559,92.4707031 C174.286624,92.4707031 174.771482,92.3359388 175.202148,92.0664062 C175.632815,91.7968737 175.918456,91.4892595 176.059082,91.1435547 L176.059082,89.7373047 L174.362793,89.7373047 C173.741696,89.7373047 173.255373,89.8911117 172.903809,90.1987305 C172.552244,90.5063492 172.376465,90.868162 172.376465,91.2841797 C172.376465,91.6474628 172.495116,91.9360341 172.732422,92.1499023 C172.969728,92.3637706 173.308103,92.4707031 173.747559,92.4707031 Z M183.090332,82.1787109 L183.090332,84.4902344 L184.79541,84.4902344 L184.79541,86.0722656 L183.090332,86.0722656 L183.090332,91.328125 C183.090332,91.7207051 183.175292,92.0004874 183.345215,92.1674805 C183.515138,92.3344735 183.740721,92.4179688 184.021973,92.4179688 C184.139161,92.4179688 184.253417,92.4077149 184.364746,92.387207 C184.476075,92.3666991 184.581542,92.3388674 184.681152,92.3037109 L184.909668,93.8681641 C184.728026,93.9677739 184.511232,94.0454099 184.259277,94.1010742 C184.007323,94.1567386 183.746583,94.1845703 183.477051,94.1845703 C182.691891,94.1845703 182.076662,93.9545921 181.631348,93.4946289 C181.186033,93.0346657 180.963379,92.3125049 180.963379,91.328125 L180.963379,86.0722656 L179.513184,86.0722656 L179.513184,84.4902344 L180.963379,84.4902344 L180.963379,82.1787109 L183.090332,82.1787109 Z M189.058105,89.6845703 L186.922363,89.6845703 L186.922363,81.203125 L189.058105,81.203125 L189.058105,89.6845703 Z M189.058105,94 L186.922363,94 L186.922363,91.9433594 L189.058105,91.9433594 L189.058105,94 Z" id="Great!" fill="#456297"></path>
                <g id="Group-93-Copy" transform="translate(52.000000, 480.000000)">
                    <use id="Rectangle-35-Copy-39" stroke="#C3D1EB" mask="url(#mask-2)" stroke-width="2" fill="#FFFFFF" xlink:href="#path-1"></use>
                    <path d="M220.571439,14.035706 C220.571439,13.7427369 220.328693,13.4999911 220.035724,13.4999911 L212.535715,13.4999911 C212.242746,13.4999911 212,13.7427369 212,14.035706 C212,14.1780053 212.058594,14.311934 212.15904,14.4123805 L215.909045,18.162385 C216.009491,18.2628316 216.14342,18.3214254 216.285719,18.3214254 C216.428019,18.3214254 216.561947,18.2628316 216.662394,18.162385 L220.412398,14.4123805 C220.512845,14.311934 220.571439,14.1780053 220.571439,14.035706 Z" id="Caret-Down---FontAwesome" fill="#456297"></path>
                    <path d="M11.8452148,16.8095703 L8.25634766,16.8095703 L8.25634766,15.6816406 L11.8452148,15.6816406 L11.8452148,16.8095703 Z M24.3769531,11.2211914 L20.9492188,11.2211914 L20.9492188,20.75 L19.5063477,20.75 L19.5063477,11.2211914 L16.0859375,11.2211914 L16.0859375,10.0859375 L24.3769531,10.0859375 L24.3769531,11.2211914 Z M29.9360352,20.75 C29.8872068,20.510741 29.8493654,20.2995615 29.8225098,20.1164551 C29.7956542,19.9333487 29.7797852,19.7490244 29.7749023,19.5634766 C29.5063463,19.9443378 29.156008,20.2629382 28.723877,20.5192871 C28.2917459,20.775636 27.8266626,20.9038086 27.3286133,20.9038086 C26.5034138,20.9038086 25.874758,20.6926291 25.442627,20.2702637 C25.0104959,19.8478983 24.7944336,19.2656287 24.7944336,18.5234375 C24.7944336,17.7665978 25.100827,17.1745627 25.713623,16.7473145 C26.3264191,16.3200662 27.1577096,16.1064453 28.2075195,16.1064453 L29.7749023,16.1064453 L29.7749023,15.3227539 C29.7749023,14.8588844 29.6333022,14.4914564 29.3500977,14.220459 C29.0668931,13.9494615 28.6665065,13.8139648 28.1489258,13.8139648 C27.6850563,13.8139648 27.3078628,13.9323719 27.017334,14.1691895 C26.7268052,14.406007 26.581543,14.690428 26.581543,15.0224609 L25.2045898,15.0224609 L25.1899414,14.9785156 C25.1606444,14.4023409 25.4328585,13.8750024 26.0065918,13.3964844 C26.5803251,12.9179664 27.3212845,12.6787109 28.2294922,12.6787109 C29.1279342,12.6787109 29.8505832,12.9069801 30.3974609,13.3635254 C30.9443387,13.8200706 31.2177734,14.478023 31.2177734,15.3374023 L31.2177734,19.1533203 C31.2177734,19.4365249 31.2324217,19.7099596 31.2617188,19.9736328 C31.2910158,20.237306 31.3447262,20.4960925 31.4228516,20.75 L29.9360352,20.75 Z M27.5410156,19.6953125 C28.0634792,19.6953125 28.5346659,19.5610365 28.9545898,19.2924805 C29.3745138,19.0239244 29.6479486,18.7163103 29.7749023,18.3696289 L29.7749023,17.0805664 L28.15625,17.0805664 C27.5751924,17.0805664 27.1101092,17.2270493 26.7609863,17.5200195 C26.4118635,17.8129897 26.2373047,18.1572246 26.2373047,18.5527344 C26.2373047,18.9042986 26.3471669,19.1826162 26.5668945,19.3876953 C26.7866222,19.5927745 27.111326,19.6953125 27.5410156,19.6953125 Z M34.8725586,20.75 L33.4296875,20.75 L33.4296875,12.8251953 L34.8725586,12.8251953 L34.8725586,20.75 Z M34.8725586,10.7963867 L33.4296875,10.7963867 L33.4296875,9.32421875 L34.8725586,9.32421875 L34.8725586,10.7963867 Z M39.1206055,17.8642578 L39.2890625,18.8237305 L39.3330078,18.8237305 L39.5380859,17.8642578 L41.1201172,12.8251953 L42.2773438,12.8251953 L43.8666992,17.8642578 L44.09375,18.9335938 L44.1376953,18.9335938 L44.3500977,17.8642578 L45.5952148,12.8251953 L47.0307617,12.8251953 L44.730957,20.75 L43.5664062,20.75 L42.0356445,15.9233398 L41.7060547,14.5756836 L41.6621094,14.5830078 L41.347168,15.9233398 L39.8383789,20.75 L38.6738281,20.75 L36.3740234,12.8251953 L37.8095703,12.8251953 L39.1206055,17.8642578 Z M53.3149414,20.75 C53.266113,20.510741 53.2282716,20.2995615 53.201416,20.1164551 C53.1745604,19.9333487 53.1586914,19.7490244 53.1538086,19.5634766 C52.8852526,19.9443378 52.5349143,20.2629382 52.1027832,20.5192871 C51.6706521,20.775636 51.2055689,20.9038086 50.7075195,20.9038086 C49.8823201,20.9038086 49.2536643,20.6926291 48.8215332,20.2702637 C48.3894021,19.8478983 48.1733398,19.2656287 48.1733398,18.5234375 C48.1733398,17.7665978 48.4797333,17.1745627 49.0925293,16.7473145 C49.7053253,16.3200662 50.5366158,16.1064453 51.5864258,16.1064453 L53.1538086,16.1064453 L53.1538086,15.3227539 C53.1538086,14.8588844 53.0122084,14.4914564 52.7290039,14.220459 C52.4457994,13.9494615 52.0454127,13.8139648 51.527832,13.8139648 C51.0639625,13.8139648 50.686769,13.9323719 50.3962402,14.1691895 C50.1057114,14.406007 49.9604492,14.690428 49.9604492,15.0224609 L48.5834961,15.0224609 L48.5688477,14.9785156 C48.5395506,14.4023409 48.8117647,13.8750024 49.385498,13.3964844 C49.9592314,12.9179664 50.7001908,12.6787109 51.6083984,12.6787109 C52.5068404,12.6787109 53.2294895,12.9069801 53.7763672,13.3635254 C54.3232449,13.8200706 54.5966797,14.478023 54.5966797,15.3374023 L54.5966797,19.1533203 C54.5966797,19.4365249 54.611328,19.7099596 54.640625,19.9736328 C54.669922,20.237306 54.7236324,20.4960925 54.8017578,20.75 L53.3149414,20.75 Z M50.9199219,19.6953125 C51.4423854,19.6953125 51.9135721,19.5610365 52.3334961,19.2924805 C52.7534201,19.0239244 53.0268548,18.7163103 53.1538086,18.3696289 L53.1538086,17.0805664 L51.5351562,17.0805664 C50.9540987,17.0805664 50.4890154,17.2270493 50.1398926,17.5200195 C49.7907697,17.8129897 49.6162109,18.1572246 49.6162109,18.5527344 C49.6162109,18.9042986 49.7260731,19.1826162 49.9458008,19.3876953 C50.1655284,19.5927745 50.4902322,19.6953125 50.9199219,19.6953125 Z M57.9804688,12.8251953 L58.0830078,14.0043945 C58.346681,13.5844706 58.6774882,13.2585461 59.0754395,13.0266113 C59.4733907,12.7946766 59.926267,12.6787109 60.434082,12.6787109 C61.2885785,12.6787109 61.950193,12.9289526 62.4189453,13.4294434 C62.8876977,13.9299341 63.1220703,14.7026315 63.1220703,15.7475586 L63.1220703,20.75 L61.6791992,20.75 L61.6791992,15.7768555 C61.6791992,15.0786098 61.5412611,14.5830093 61.2653809,14.2900391 C60.9895006,13.9970688 60.5683622,13.8505859 60.0019531,13.8505859 C59.586912,13.8505859 59.219484,13.9506826 58.8996582,14.1508789 C58.5798324,14.3510752 58.324708,14.62451 58.1342773,14.9711914 L58.1342773,20.75 L56.6914062,20.75 L56.6914062,12.8251953 L57.9804688,12.8251953 Z M71.7426758,16.8095703 L68.1538086,16.8095703 L68.1538086,15.6816406 L71.7426758,15.6816406 L71.7426758,16.8095703 Z" id="--Taiwan--" fill="#95ACD4"></path>
                </g>
                <rect id="Mask" fill="#FFFFFF" x="1" y="0" width="330" height="60" rx="4"></rect>
                <path d="M0.5,58.5 L329.5,58.5" id="Line" stroke="#D8E3F6" stroke-linecap="square"></path>
                <path d="M79,29 L149,29" id="Line" stroke="#C3D1EB" stroke-width="2" stroke-linecap="round"></path>
                <path d="M183,29 L253,29" id="Line-Copy" stroke="#0E86FE" stroke-width="2" stroke-linecap="round"></path>
                <ellipse id="Oval-34-Copy" fill="#C3D1EB" cx="165.5" cy="29.5" rx="11.5" ry="11.5"></ellipse>
                <ellipse id="Oval-34" fill="#C3D1EB" cx="61.5" cy="29.5" rx="11.5" ry="11.5"></ellipse>
                <polygon id="1" fill="#FFFFFF" points="62.5576172 34 61.0151367 34 61.0151367 26.2241211 59.1362305 26.2241211 59.1362305 25.0878906 62.5576172 24.7578125"></polygon>
                <path d="M168.830078,34 L162.691895,34 L162.691895,32.9399414 L165.700684,29.6582031 C166.191571,29.1207655 166.53011,28.6796078 166.716309,28.3347168 C166.902507,27.9898257 166.995605,27.6523454 166.995605,27.3222656 C166.995605,26.90755 166.875001,26.5605483 166.633789,26.28125 C166.392577,26.0019517 166.066734,25.8623047 165.65625,25.8623047 C165.114581,25.8623047 164.712566,26.0146469 164.450195,26.3193359 C164.187824,26.624025 164.056641,27.0429661 164.056641,27.5761719 L162.564941,27.5761719 L162.552246,27.5380859 C162.531087,26.7171183 162.799802,26.0262886 163.358398,25.4655762 C163.916995,24.9048637 164.682938,24.6245117 165.65625,24.6245117 C166.544926,24.6245117 167.247393,24.869952 167.763672,25.3608398 C168.27995,25.8517277 168.538086,26.4928346 168.538086,27.2841797 C168.538086,27.8131537 168.388918,28.3188452 168.090576,28.8012695 C167.792235,29.2836938 167.329918,29.8697882 166.703613,30.5595703 L164.646973,32.7304688 L164.666016,32.7685547 L168.830078,32.7685547 L168.830078,34 Z" id="2" fill="#FFFFFF"></path>
                <ellipse id="Oval-34-Copy-2" fill="#0E86FE" cx="270.5" cy="29.5" rx="11.5" ry="11.5"></ellipse>
                <path d="M266.321431,24.7142746 C266.321431,24.1992071 265.907926,23.7857021 265.392859,23.7857021 C264.877791,23.7857021 264.464286,24.1992071 264.464286,24.7142746 C264.464286,25.0479804 264.645648,25.3454138 264.928573,25.5122667 L264.928573,34.6964294 C264.928573,34.8197554 265.03739,34.9285725 265.160716,34.9285725 L265.625002,34.9285725 C265.748328,34.9285725 265.857145,34.8197554 265.857145,34.6964294 L265.857145,25.5122667 C266.14007,25.3454138 266.321431,25.0479804 266.321431,24.7142746 Z M277.000015,25.1785609 C277.000015,24.9246544 276.789636,24.7142746 276.535729,24.7142746 C276.216532,24.7142746 274.990526,25.700883 273.851574,25.700883 C273.626686,25.700883 273.416306,25.6646106 273.213181,25.563048 C272.204809,25.0915072 271.312509,24.7142746 270.173556,24.7142746 C269.143421,24.7142746 268.033487,25.1205251 267.119423,25.5848114 C266.930807,25.6791195 266.720427,25.7806822 266.54632,25.8967537 C266.408485,25.9983164 266.321431,26.1216424 266.321431,26.2957497 L266.321431,31.6785687 C266.321431,31.9324752 266.531811,32.1428549 266.785718,32.1428549 C266.872771,32.1428549 266.945316,32.1210915 267.025115,32.0775647 C268.026232,31.5407337 269.237729,31.0184116 270.391191,31.0184116 C271.972666,31.0184116 272.611059,32.0340378 273.945882,32.0340378 C274.896218,32.0340378 275.803027,31.6350418 276.622783,31.192519 C276.833163,31.0837019 277.000015,30.9821393 277.000015,30.7137238 L277.000015,25.1785609 Z" id="flag" fill="#FFFFFF"></path>
                <rect id="Mask" fill="#FFFFFF" x="1" y="470" width="330" height="50"></rect>
                <path d="M144.625977,497.904297 L144.643555,497.957031 C144.666992,499.158209 144.245122,500.163082 143.37793,500.97168 C142.510738,501.780277 141.365241,502.18457 139.941406,502.18457 C138.494133,502.18457 137.314946,501.67188 136.403809,500.646484 C135.492671,499.621089 135.037109,498.32032 135.037109,496.744141 L135.037109,494.467773 C135.037109,492.891594 135.492671,491.589361 136.403809,490.561035 C137.314946,489.53271 138.494133,489.018555 139.941406,489.018555 C141.388679,489.018555 142.540035,489.403805 143.395508,490.174316 C144.250981,490.944828 144.666992,491.965814 144.643555,493.237305 L144.625977,493.290039 L142.964844,493.290039 C142.964844,492.39355 142.701175,491.684573 142.173828,491.163086 C141.646482,490.641599 140.902349,490.380859 139.941406,490.380859 C138.974605,490.380859 138.204104,490.770504 137.629883,491.549805 C137.055661,492.329105 136.768555,493.295893 136.768555,494.450195 L136.768555,496.744141 C136.768555,497.910162 137.055661,498.882809 137.629883,499.662109 C138.204104,500.44141 138.974605,500.831055 139.941406,500.831055 C140.902349,500.831055 141.646482,500.57178 142.173828,500.053223 C142.701175,499.534665 142.964844,498.818364 142.964844,497.904297 L144.625977,497.904297 Z M146.251953,497.157227 C146.251953,495.75097 146.632809,494.59229 147.394531,493.681152 C148.156254,492.770015 149.190423,492.314453 150.49707,492.314453 C151.815436,492.314453 152.85693,492.76855 153.621582,493.676758 C154.386234,494.584965 154.768555,495.74511 154.768555,497.157227 L154.768555,497.350586 C154.768555,498.768562 154.387699,499.928706 153.625977,500.831055 C152.864254,501.733403 151.827155,502.18457 150.514648,502.18457 C149.202142,502.18457 148.163578,501.731938 147.398926,500.82666 C146.634274,499.921382 146.251953,498.762702 146.251953,497.350586 L146.251953,497.157227 Z M147.983398,497.350586 C147.983398,498.358403 148.195799,499.190426 148.620605,499.84668 C149.045412,500.502933 149.676754,500.831055 150.514648,500.831055 C151.340824,500.831055 151.967771,500.502933 152.395508,499.84668 C152.823244,499.190426 153.037109,498.358403 153.037109,497.350586 L153.037109,497.157227 C153.037109,496.161128 152.821779,495.332035 152.391113,494.669922 C151.960447,494.007809 151.329106,493.676758 150.49707,493.676758 C149.670894,493.676758 149.045412,494.007809 148.620605,494.669922 C148.195799,495.332035 147.983398,496.161128 147.983398,497.157227 L147.983398,497.350586 Z M158.433594,492.490234 L158.556641,493.905273 C158.873048,493.401365 159.270017,493.010255 159.747559,492.731934 C160.2251,492.453612 160.768552,492.314453 161.37793,492.314453 C162.403325,492.314453 163.197263,492.614743 163.759766,493.215332 C164.322268,493.815921 164.603516,494.743158 164.603516,495.99707 L164.603516,502 L162.87207,502 L162.87207,496.032227 C162.87207,495.194332 162.706545,494.599611 162.375488,494.248047 C162.044432,493.896483 161.539066,493.720703 160.859375,493.720703 C160.361326,493.720703 159.920412,493.840819 159.536621,494.081055 C159.15283,494.32129 158.846681,494.649412 158.618164,495.06543 L158.618164,502 L156.886719,502 L156.886719,492.490234 L158.433594,492.490234 Z M167.600586,502 L167.600586,493.773438 L166.106445,493.773438 L166.106445,492.490234 L167.600586,492.490234 L167.600586,491.461914 C167.600586,490.395502 167.912595,489.569339 168.536621,488.983398 C169.160648,488.397458 170.026362,488.104492 171.133789,488.104492 C171.526369,488.104492 171.913084,488.149902 172.293945,488.240723 C172.674807,488.331543 173.123044,488.464843 173.638672,488.640625 L173.339844,490.046875 C173.029295,489.923828 172.698244,489.81836 172.34668,489.730469 C171.995115,489.642578 171.634767,489.598633 171.265625,489.598633 C170.580075,489.598633 170.086427,489.750975 169.784668,490.055664 C169.482909,490.360353 169.332031,490.829098 169.332031,491.461914 L169.332031,492.490234 L171.22168,492.490234 L171.22168,493.773438 L169.332031,493.773438 L169.332031,502 L167.600586,502 Z M174.482422,502 L172.742188,502 L172.742188,492.490234 L174.482422,492.490234 L174.482422,502 Z M181.636719,494.019531 L180.749023,493.966797 C180.29199,493.966797 179.90674,494.075194 179.593262,494.291992 C179.279784,494.50879 179.038087,494.813475 178.868164,495.206055 L178.868164,502 L177.136719,502 L177.136719,492.490234 L178.683594,492.490234 L178.850586,493.878906 C179.120119,493.386716 179.452635,493.002931 179.848145,492.727539 C180.243654,492.452147 180.699216,492.314453 181.214844,492.314453 C181.343751,492.314453 181.466796,492.324707 181.583984,492.345215 C181.701172,492.365723 181.797851,492.387695 181.874023,492.411133 L181.636719,494.019531 Z M184.853516,492.490234 L184.976562,493.738281 C185.287111,493.287107 185.68115,492.937013 186.158691,492.687988 C186.636233,492.438964 187.191403,492.314453 187.824219,492.314453 C188.457034,492.314453 189.000486,492.460936 189.45459,492.753906 C189.908694,493.046876 190.249999,493.486325 190.478516,494.072266 C190.777345,493.5332 191.172849,493.10547 191.665039,492.789062 C192.157229,492.472655 192.731442,492.314453 193.387695,492.314453 C194.354497,492.314453 195.119138,492.646969 195.681641,493.312012 C196.244143,493.977054 196.525391,494.977532 196.525391,496.313477 L196.525391,502 L194.793945,502 L194.793945,496.295898 C194.793945,495.358394 194.632814,494.694826 194.310547,494.305176 C193.98828,493.915525 193.507816,493.720703 192.869141,493.720703 C192.277341,493.720703 191.798342,493.925779 191.432129,494.335938 C191.065916,494.746096 190.850586,495.264645 190.786133,495.891602 L190.786133,502 L189.045898,502 L189.045898,496.295898 C189.045898,495.405269 188.880373,494.75342 188.549316,494.340332 C188.21826,493.927244 187.742191,493.720703 187.121094,493.720703 C186.593747,493.720703 186.160158,493.8291 185.820312,494.045898 C185.480467,494.262696 185.219727,494.567381 185.038086,494.959961 L185.038086,502 L183.306641,502 L183.306641,492.490234 L184.853516,492.490234 Z" id="Confirm" fill="#0E86FE"></path>
                <path d="M0.5,470.5 L329.5,470.5" id="Line" stroke="#D8E3F6" stroke-linecap="square"></path>
            </g>
            <path d="M50.9140625,394.707031 L54.2539062,388.203125 L56.2314453,388.203125 L51.7402344,396.5 L51.7402344,401 L50.0175781,401 L50.0175781,396.385742 L45.5966797,388.203125 L47.5742188,388.203125 L50.9140625,394.707031 Z M57.2597656,396.157227 C57.2597656,394.75097 57.6406212,393.59229 58.4023438,392.681152 C59.1640663,391.770015 60.1982357,391.314453 61.5048828,391.314453 C62.8232488,391.314453 63.8647423,391.76855 64.6293945,392.676758 C65.3940468,393.584965 65.7763672,394.74511 65.7763672,396.157227 L65.7763672,396.350586 C65.7763672,397.768562 65.3955116,398.928706 64.6337891,399.831055 C63.8720665,400.733403 62.8349675,401.18457 61.5224609,401.18457 C60.2099544,401.18457 59.1713905,400.731938 58.4067383,399.82666 C57.642086,398.921382 57.2597656,397.762702 57.2597656,396.350586 L57.2597656,396.157227 Z M58.9912109,396.350586 C58.9912109,397.358403 59.2036112,398.190426 59.628418,398.84668 C60.0532248,399.502933 60.6845661,399.831055 61.5224609,399.831055 C62.3486369,399.831055 62.9755838,399.502933 63.4033203,398.84668 C63.8310568,398.190426 64.0449219,397.358403 64.0449219,396.350586 L64.0449219,396.157227 C64.0449219,395.161128 63.829592,394.332035 63.3989258,393.669922 C62.9682596,393.007809 62.3369182,392.676758 61.5048828,392.676758 C60.6787068,392.676758 60.0532248,393.007809 59.628418,393.669922 C59.2036112,394.332035 58.9912109,395.161128 58.9912109,396.157227 L58.9912109,396.350586 Z M73.9326172,399.59375 C73.6337876,400.103518 73.2500023,400.496092 72.78125,400.771484 C72.3124977,401.046876 71.7705109,401.18457 71.1552734,401.18457 C70.1181589,401.18457 69.3095732,400.853519 68.7294922,400.191406 C68.1494112,399.529294 67.859375,398.498054 67.859375,397.097656 L67.859375,391.490234 L69.5908203,391.490234 L69.5908203,397.115234 C69.5908203,398.128911 69.7402329,398.82617 70.0390625,399.207031 C70.3378921,399.587893 70.8037078,399.77832 71.4365234,399.77832 C72.0517609,399.77832 72.5600566,399.65381 72.9614258,399.404785 C73.362795,399.15576 73.6660146,398.802737 73.8710938,398.345703 L73.8710938,391.490234 L75.6025391,391.490234 L75.6025391,401 L74.046875,401 L73.9326172,399.59375 Z M82.625,393.019531 L81.7373047,392.966797 C81.2802712,392.966797 80.8950211,393.075194 80.581543,393.291992 C80.2680648,393.50879 80.026368,393.813475 79.8564453,394.206055 L79.8564453,401 L78.125,401 L78.125,391.490234 L79.671875,391.490234 L79.8388672,392.878906 C80.1083998,392.386716 80.440916,392.002931 80.8364258,391.727539 C81.2319356,391.452147 81.6874974,391.314453 82.203125,391.314453 C82.3320319,391.314453 82.4550775,391.324707 82.5722656,391.345215 C82.6894537,391.365723 82.7861324,391.387695 82.8623047,391.411133 L82.625,393.019531 Z M94.6132812,401 C94.5546872,400.712889 94.5092775,400.459474 94.4770508,400.239746 C94.4448241,400.020018 94.4257813,399.798829 94.4199219,399.576172 C94.0976546,400.033205 93.6772487,400.415526 93.1586914,400.723145 C92.6401341,401.030763 92.0820342,401.18457 91.484375,401.18457 C90.4941357,401.18457 89.7397487,400.931155 89.2211914,400.424316 C88.7026341,399.917478 88.4433594,399.218754 88.4433594,398.328125 C88.4433594,397.419917 88.8110315,396.709475 89.5463867,396.196777 C90.281742,395.684079 91.2792906,395.427734 92.5390625,395.427734 L94.4199219,395.427734 L94.4199219,394.487305 C94.4199219,393.930661 94.2500017,393.489748 93.9101562,393.164551 C93.5703108,392.839354 93.0898469,392.676758 92.46875,392.676758 C91.9121066,392.676758 91.4594744,392.818846 91.1108398,393.103027 C90.7622053,393.387208 90.5878906,393.728514 90.5878906,394.126953 L88.9355469,394.126953 L88.9179688,394.074219 C88.8828123,393.382809 89.2094692,392.750003 89.8979492,392.175781 C90.5864292,391.60156 91.4755805,391.314453 92.5654297,391.314453 C93.6435601,391.314453 94.5107389,391.588376 95.1669922,392.13623 C95.8232455,392.684085 96.1513672,393.473628 96.1513672,394.504883 L96.1513672,399.083984 C96.1513672,399.42383 96.1689451,399.751952 96.2041016,400.068359 C96.239258,400.384767 96.3037105,400.695311 96.3974609,401 L94.6132812,401 Z M91.7392578,399.734375 C92.3662141,399.734375 92.9316381,399.573244 93.4355469,399.250977 C93.9394556,398.928709 94.2675774,398.559572 94.4199219,398.143555 L94.4199219,396.59668 L92.4775391,396.59668 C91.78027,396.59668 91.2221701,396.772459 90.8032227,397.124023 C90.3842752,397.475588 90.1748047,397.88867 90.1748047,398.363281 C90.1748047,398.785158 90.3066393,399.119139 90.5703125,399.365234 C90.8339857,399.611329 91.2236302,399.734375 91.7392578,399.734375 Z M106.768555,396.605469 C106.768555,397.976569 106.440433,399.082515 105.78418,399.92334 C105.127926,400.764164 104.222662,401.18457 103.068359,401.18457 C102.482419,401.18457 101.968264,401.086427 101.525879,400.890137 C101.083494,400.693847 100.707033,400.399416 100.396484,400.006836 L100.396484,404.65625 L98.6650391,404.65625 L98.6650391,391.490234 L99.9921875,391.490234 L100.264648,392.720703 C100.575197,392.26367 100.961912,391.91504 101.424805,391.674805 C101.887698,391.434569 102.426755,391.314453 103.041992,391.314453 C104.219732,391.314453 105.135251,391.781734 105.788574,392.716309 C106.441898,393.650884 106.768555,394.885735 106.768555,396.420898 L106.768555,396.605469 Z M105.037109,396.420898 C105.037109,395.342768 104.824709,394.456546 104.399902,393.762207 C103.975096,393.067868 103.349614,392.720703 102.523438,392.720703 C102.025388,392.720703 101.600588,392.833495 101.249023,393.059082 C100.897459,393.284669 100.613282,393.593748 100.396484,393.986328 L100.396484,398.583008 C100.613282,398.975588 100.897459,399.281737 101.249023,399.501465 C101.600588,399.721193 102.031247,399.831055 102.541016,399.831055 C103.361332,399.831055 103.98242,399.530765 104.404297,398.930176 C104.826174,398.329587 105.037109,397.554692 105.037109,396.605469 L105.037109,396.420898 Z M116.999023,396.605469 C116.999023,397.976569 116.670902,399.082515 116.014648,399.92334 C115.358395,400.764164 114.453131,401.18457 113.298828,401.18457 C112.712888,401.18457 112.198733,401.086427 111.756348,400.890137 C111.313963,400.693847 110.937502,400.399416 110.626953,400.006836 L110.626953,404.65625 L108.895508,404.65625 L108.895508,391.490234 L110.222656,391.490234 L110.495117,392.720703 C110.805666,392.26367 111.19238,391.91504 111.655273,391.674805 C112.118166,391.434569 112.657223,391.314453 113.272461,391.314453 C114.450201,391.314453 115.365719,391.781734 116.019043,392.716309 C116.672367,393.650884 116.999023,394.885735 116.999023,396.420898 L116.999023,396.605469 Z M115.267578,396.420898 C115.267578,395.342768 115.055178,394.456546 114.630371,393.762207 C114.205564,393.067868 113.580082,392.720703 112.753906,392.720703 C112.255857,392.720703 111.831056,392.833495 111.479492,393.059082 C111.127928,393.284669 110.843751,393.593748 110.626953,393.986328 L110.626953,398.583008 C110.843751,398.975588 111.127928,399.281737 111.479492,399.501465 C111.831056,399.721193 112.261716,399.831055 112.771484,399.831055 C113.591801,399.831055 114.212889,399.530765 114.634766,398.930176 C115.056643,398.329587 115.267578,397.554692 115.267578,396.605469 L115.267578,396.420898 Z M120.998047,401 L119.266602,401 L119.266602,387.289062 L120.998047,387.289062 L120.998047,401 Z M125.533203,401 L123.801758,401 L123.801758,391.490234 L125.533203,391.490234 L125.533203,401 Z M125.533203,389.055664 L123.801758,389.055664 L123.801758,387.289062 L125.533203,387.289062 L125.533203,389.055664 Z M132.063477,399.831055 C132.637698,399.831055 133.143064,399.65381 133.57959,399.299316 C134.016115,398.944822 134.234375,398.509768 134.234375,397.994141 L135.790039,397.994141 L135.807617,398.046875 C135.836914,398.867192 135.472172,399.595212 134.713379,400.230957 C133.954586,400.866702 133.071294,401.18457 132.063477,401.18457 C130.680657,401.18457 129.623051,400.733403 128.890625,399.831055 C128.158199,398.928706 127.791992,397.794929 127.791992,396.429688 L127.791992,396.060547 C127.791992,394.707024 128.159664,393.577641 128.89502,392.672363 C129.630375,391.767085 130.686517,391.314453 132.063477,391.314453 C133.176763,391.314453 134.086422,391.642575 134.79248,392.298828 C135.498539,392.955081 135.839844,393.760737 135.816406,394.71582 L135.798828,394.768555 L134.234375,394.768555 C134.234375,394.188474 134.029299,393.694826 133.619141,393.287598 C133.208982,392.880369 132.690433,392.676758 132.063477,392.676758 C131.155269,392.676758 130.50635,393.003415 130.116699,393.656738 C129.727049,394.310062 129.532227,395.111323 129.532227,396.060547 L129.532227,396.429688 C129.532227,397.402349 129.725584,398.212399 130.112305,398.859863 C130.499025,399.507327 131.149409,399.831055 132.063477,399.831055 Z M143.594727,401 C143.536133,400.712889 143.490723,400.459474 143.458496,400.239746 C143.426269,400.020018 143.407227,399.798829 143.401367,399.576172 C143.0791,400.033205 142.658694,400.415526 142.140137,400.723145 C141.621579,401.030763 141.06348,401.18457 140.46582,401.18457 C139.475581,401.18457 138.721194,400.931155 138.202637,400.424316 C137.684079,399.917478 137.424805,399.218754 137.424805,398.328125 C137.424805,397.419917 137.792477,396.709475 138.527832,396.196777 C139.263187,395.684079 140.260736,395.427734 141.520508,395.427734 L143.401367,395.427734 L143.401367,394.487305 C143.401367,393.930661 143.231447,393.489748 142.891602,393.164551 C142.551756,392.839354 142.071292,392.676758 141.450195,392.676758 C140.893552,392.676758 140.44092,392.818846 140.092285,393.103027 C139.743651,393.387208 139.569336,393.728514 139.569336,394.126953 L137.916992,394.126953 L137.899414,394.074219 C137.864258,393.382809 138.190915,392.750003 138.879395,392.175781 C139.567875,391.60156 140.457026,391.314453 141.546875,391.314453 C142.625005,391.314453 143.492184,391.588376 144.148438,392.13623 C144.804691,392.684085 145.132812,393.473628 145.132812,394.504883 L145.132812,399.083984 C145.132812,399.42383 145.15039,399.751952 145.185547,400.068359 C145.220703,400.384767 145.285156,400.695311 145.378906,401 L143.594727,401 Z M140.720703,399.734375 C141.347659,399.734375 141.913083,399.573244 142.416992,399.250977 C142.920901,398.928709 143.249023,398.559572 143.401367,398.143555 L143.401367,396.59668 L141.458984,396.59668 C140.761715,396.59668 140.203615,396.772459 139.784668,397.124023 C139.365721,397.475588 139.15625,397.88867 139.15625,398.363281 C139.15625,398.785158 139.288085,399.119139 139.551758,399.365234 C139.815431,399.611329 140.205076,399.734375 140.720703,399.734375 Z M149.931641,389.196289 L149.931641,391.490234 L151.733398,391.490234 L151.733398,392.773438 L149.931641,392.773438 L149.931641,398.547852 C149.931641,398.993166 150.023925,399.30664 150.208496,399.488281 C150.393067,399.669923 150.637694,399.760742 150.942383,399.760742 C151.041993,399.760742 151.151855,399.749024 151.271973,399.725586 C151.39209,399.702148 151.499023,399.672852 151.592773,399.637695 L151.821289,400.824219 C151.692382,400.929688 151.503419,401.016113 151.254395,401.083496 C151.00537,401.150879 150.754884,401.18457 150.50293,401.18457 C149.799801,401.18457 149.240236,400.97217 148.824219,400.547363 C148.408201,400.122556 148.200195,399.456059 148.200195,398.547852 L148.200195,392.773438 L146.688477,392.773438 L146.688477,391.490234 L148.200195,391.490234 L148.200195,389.196289 L149.931641,389.196289 Z M155.741211,401 L154.009766,401 L154.009766,391.490234 L155.741211,391.490234 L155.741211,401 Z M155.741211,389.055664 L154.009766,389.055664 L154.009766,387.289062 L155.741211,387.289062 L155.741211,389.055664 Z M158,396.157227 C158,394.75097 158.380856,393.59229 159.142578,392.681152 C159.904301,391.770015 160.93847,391.314453 162.245117,391.314453 C163.563483,391.314453 164.604977,391.76855 165.369629,392.676758 C166.134281,393.584965 166.516602,394.74511 166.516602,396.157227 L166.516602,396.350586 C166.516602,397.768562 166.135746,398.928706 165.374023,399.831055 C164.612301,400.733403 163.575202,401.18457 162.262695,401.18457 C160.950189,401.18457 159.911625,400.731938 159.146973,399.82666 C158.38232,398.921382 158,397.762702 158,396.350586 L158,396.157227 Z M159.731445,396.350586 C159.731445,397.358403 159.943846,398.190426 160.368652,398.84668 C160.793459,399.502933 161.4248,399.831055 162.262695,399.831055 C163.088871,399.831055 163.715818,399.502933 164.143555,398.84668 C164.571291,398.190426 164.785156,397.358403 164.785156,396.350586 L164.785156,396.157227 C164.785156,395.161128 164.569826,394.332035 164.13916,393.669922 C163.708494,393.007809 163.077153,392.676758 162.245117,392.676758 C161.418941,392.676758 160.793459,393.007809 160.368652,393.669922 C159.943846,394.332035 159.731445,395.161128 159.731445,396.157227 L159.731445,396.350586 Z M170.181641,391.490234 L170.304688,392.905273 C170.621095,392.401365 171.018064,392.010255 171.495605,391.731934 C171.973147,391.453612 172.516599,391.314453 173.125977,391.314453 C174.151372,391.314453 174.94531,391.614743 175.507812,392.215332 C176.070315,392.815921 176.351562,393.743158 176.351562,394.99707 L176.351562,401 L174.620117,401 L174.620117,395.032227 C174.620117,394.194332 174.454591,393.599611 174.123535,393.248047 C173.792479,392.896483 173.287113,392.720703 172.607422,392.720703 C172.109373,392.720703 171.668459,392.840819 171.284668,393.081055 C170.900877,393.32129 170.594728,393.649412 170.366211,394.06543 L170.366211,401 L168.634766,401 L168.634766,391.490234 L170.181641,391.490234 Z M185.210938,401 L183.479492,401 L183.479492,391.490234 L185.210938,391.490234 L185.210938,401 Z M185.210938,389.055664 L183.479492,389.055664 L183.479492,387.289062 L185.210938,387.289062 L185.210938,389.055664 Z M193.402344,398.477539 C193.402344,398.096678 193.257326,397.783204 192.967285,397.537109 C192.677245,397.291014 192.127934,397.077149 191.319336,396.895508 C190.165033,396.643553 189.29639,396.302248 188.713379,395.871582 C188.130368,395.440916 187.838867,394.853519 187.838867,394.109375 C187.838867,393.335934 188.166989,392.676761 188.823242,392.131836 C189.479495,391.586911 190.334956,391.314453 191.389648,391.314453 C192.497076,391.314453 193.377438,391.59863 194.030762,392.166992 C194.684085,392.735354 194.996094,393.426754 194.966797,394.241211 L194.949219,394.293945 L193.296875,394.293945 C193.296875,393.877928 193.12256,393.504396 192.773926,393.17334 C192.425291,392.842284 191.96387,392.676758 191.389648,392.676758 C190.774411,392.676758 190.317384,392.811522 190.018555,393.081055 C189.719725,393.350587 189.570313,393.675779 189.570313,394.056641 C189.570313,394.431642 189.702147,394.727538 189.96582,394.944336 C190.229494,395.161134 190.765621,395.354491 191.574219,395.524414 C192.775397,395.782228 193.668942,396.132322 194.254883,396.574707 C194.840823,397.017092 195.133789,397.610348 195.133789,398.354492 C195.133789,399.198246 194.792484,399.880857 194.109863,400.402344 C193.427243,400.923831 192.535162,401.18457 191.433594,401.18457 C190.220697,401.18457 189.265628,400.876956 188.568359,400.261719 C187.87109,399.646481 187.540039,398.928715 187.575195,398.108398 L187.592773,398.055664 L189.245117,398.055664 C189.274414,398.670902 189.502928,399.120604 189.930664,399.404785 C190.358401,399.688966 190.859372,399.831055 191.433594,399.831055 C192.048831,399.831055 192.53076,399.706544 192.879395,399.45752 C193.228029,399.208495 193.402344,398.881838 193.402344,398.477539 Z M207.289063,398.477539 C207.289063,398.096678 207.144044,397.783204 206.854004,397.537109 C206.563963,397.291014 206.014652,397.077149 205.206055,396.895508 C204.051752,396.643553 203.183108,396.302248 202.600098,395.871582 C202.017087,395.440916 201.725586,394.853519 201.725586,394.109375 C201.725586,393.335934 202.053708,392.676761 202.709961,392.131836 C203.366214,391.586911 204.221674,391.314453 205.276367,391.314453 C206.383795,391.314453 207.264157,391.59863 207.91748,392.166992 C208.570804,392.735354 208.882813,393.426754 208.853516,394.241211 L208.835938,394.293945 L207.183594,394.293945 C207.183594,393.877928 207.009279,393.504396 206.660645,393.17334 C206.31201,392.842284 205.850589,392.676758 205.276367,392.676758 C204.66113,392.676758 204.204103,392.811522 203.905273,393.081055 C203.606444,393.350587 203.457031,393.675779 203.457031,394.056641 C203.457031,394.431642 203.588866,394.727538 203.852539,394.944336 C204.116212,395.161134 204.65234,395.354491 205.460938,395.524414 C206.662115,395.782228 207.555661,396.132322 208.141602,396.574707 C208.727542,397.017092 209.020508,397.610348 209.020508,398.354492 C209.020508,399.198246 208.679203,399.880857 207.996582,400.402344 C207.313961,400.923831 206.421881,401.18457 205.320313,401.18457 C204.107416,401.18457 203.152347,400.876956 202.455078,400.261719 C201.757809,399.646481 201.426758,398.928715 201.461914,398.108398 L201.479492,398.055664 L203.131836,398.055664 C203.161133,398.670902 203.389646,399.120604 203.817383,399.404785 C204.245119,399.688966 204.746091,399.831055 205.320313,399.831055 C205.93555,399.831055 206.417479,399.706544 206.766113,399.45752 C207.114748,399.208495 207.289063,398.881838 207.289063,398.477539 Z M217.211914,399.59375 C216.913084,400.103518 216.529299,400.496092 216.060547,400.771484 C215.591795,401.046876 215.049808,401.18457 214.43457,401.18457 C213.397456,401.18457 212.58887,400.853519 212.008789,400.191406 C211.428708,399.529294 211.138672,398.498054 211.138672,397.097656 L211.138672,391.490234 L212.870117,391.490234 L212.870117,397.115234 C212.870117,398.128911 213.01953,398.82617 213.318359,399.207031 C213.617189,399.587893 214.083005,399.77832 214.71582,399.77832 C215.331058,399.77832 215.839353,399.65381 216.240723,399.404785 C216.642092,399.15576 216.945311,398.802737 217.150391,398.345703 L217.150391,391.490234 L218.881836,391.490234 L218.881836,401 L217.326172,401 L217.211914,399.59375 Z M225.271484,399.831055 C225.845706,399.831055 226.351072,399.65381 226.787598,399.299316 C227.224123,398.944822 227.442383,398.509768 227.442383,397.994141 L228.998047,397.994141 L229.015625,398.046875 C229.044922,398.867192 228.68018,399.595212 227.921387,400.230957 C227.162594,400.866702 226.279302,401.18457 225.271484,401.18457 C223.888665,401.18457 222.831058,400.733403 222.098633,399.831055 C221.366207,398.928706 221,397.794929 221,396.429688 L221,396.060547 C221,394.707024 221.367672,393.577641 222.103027,392.672363 C222.838383,391.767085 223.894524,391.314453 225.271484,391.314453 C226.384771,391.314453 227.29443,391.642575 228.000488,392.298828 C228.706546,392.955081 229.047852,393.760737 229.024414,394.71582 L229.006836,394.768555 L227.442383,394.768555 C227.442383,394.188474 227.237307,393.694826 226.827148,393.287598 C226.41699,392.880369 225.898441,392.676758 225.271484,392.676758 C224.363277,392.676758 223.714357,393.003415 223.324707,393.656738 C222.935057,394.310062 222.740234,395.111323 222.740234,396.060547 L222.740234,396.429688 C222.740234,397.402349 222.933592,398.212399 223.320312,398.859863 C223.707033,399.507327 224.357417,399.831055 225.271484,399.831055 Z M234.825195,399.831055 C235.399417,399.831055 235.904783,399.65381 236.341309,399.299316 C236.777834,398.944822 236.996094,398.509768 236.996094,397.994141 L238.551758,397.994141 L238.569336,398.046875 C238.598633,398.867192 238.233891,399.595212 237.475098,400.230957 C236.716305,400.866702 235.833013,401.18457 234.825195,401.18457 C233.442376,401.18457 232.384769,400.733403 231.652344,399.831055 C230.919918,398.928706 230.553711,397.794929 230.553711,396.429688 L230.553711,396.060547 C230.553711,394.707024 230.921383,393.577641 231.656738,392.672363 C232.392094,391.767085 233.448235,391.314453 234.825195,391.314453 C235.938482,391.314453 236.848141,391.642575 237.554199,392.298828 C238.260257,392.955081 238.601563,393.760737 238.578125,394.71582 L238.560547,394.768555 L236.996094,394.768555 C236.996094,394.188474 236.791018,393.694826 236.380859,393.287598 C235.970701,392.880369 235.452152,392.676758 234.825195,392.676758 C233.916988,392.676758 233.268068,393.003415 232.878418,393.656738 C232.488768,394.310062 232.293945,395.111323 232.293945,396.060547 L232.293945,396.429688 C232.293945,397.402349 232.487303,398.212399 232.874023,398.859863 C233.260744,399.507327 233.911128,399.831055 234.825195,399.831055 Z M244.458008,401.18457 C243.133782,401.18457 242.08057,400.743657 241.29834,399.861816 C240.516109,398.979976 240.125,397.835945 240.125,396.429688 L240.125,396.042969 C240.125,394.689446 240.527828,393.562993 241.333496,392.663574 C242.139164,391.764156 243.092768,391.314453 244.194336,391.314453 C245.477545,391.314453 246.447262,391.701168 247.103516,392.474609 C247.759769,393.248051 248.087891,394.27929 248.087891,395.568359 L248.087891,396.649414 L241.917969,396.649414 L241.891602,396.693359 C241.90918,397.607426 242.140623,398.358884 242.585938,398.947754 C243.031252,399.536624 243.655269,399.831055 244.458008,399.831055 C245.043948,399.831055 245.558103,399.747559 246.000488,399.580566 C246.442873,399.413573 246.825194,399.183595 247.147461,398.890625 L247.824219,400.015625 C247.484373,400.349611 247.036136,400.627929 246.479492,400.850586 C245.922849,401.073243 245.249027,401.18457 244.458008,401.18457 Z M244.194336,392.676758 C243.614255,392.676758 243.119143,392.921384 242.708984,393.410645 C242.298826,393.899905 242.046875,394.513668 241.953125,395.251953 L241.970703,395.295898 L246.356445,395.295898 L246.356445,395.067383 C246.356445,394.387692 246.174807,393.819338 245.811523,393.362305 C245.44824,392.905271 244.909183,392.676758 244.194336,392.676758 Z M255.558594,398.477539 C255.558594,398.096678 255.413576,397.783204 255.123535,397.537109 C254.833495,397.291014 254.284184,397.077149 253.475586,396.895508 C252.321283,396.643553 251.45264,396.302248 250.869629,395.871582 C250.286618,395.440916 249.995117,394.853519 249.995117,394.109375 C249.995117,393.335934 250.323239,392.676761 250.979492,392.131836 C251.635745,391.586911 252.491206,391.314453 253.545898,391.314453 C254.653326,391.314453 255.533688,391.59863 256.187012,392.166992 C256.840335,392.735354 257.152344,393.426754 257.123047,394.241211 L257.105469,394.293945 L255.453125,394.293945 C255.453125,393.877928 255.27881,393.504396 254.930176,393.17334 C254.581541,392.842284 254.12012,392.676758 253.545898,392.676758 C252.930661,392.676758 252.473634,392.811522 252.174805,393.081055 C251.875975,393.350587 251.726563,393.675779 251.726563,394.056641 C251.726563,394.431642 251.858397,394.727538 252.12207,394.944336 C252.385744,395.161134 252.921871,395.354491 253.730469,395.524414 C254.931647,395.782228 255.825192,396.132322 256.411133,396.574707 C256.997073,397.017092 257.290039,397.610348 257.290039,398.354492 C257.290039,399.198246 256.948734,399.880857 256.266113,400.402344 C255.583493,400.923831 254.691412,401.18457 253.589844,401.18457 C252.376947,401.18457 251.421878,400.876956 250.724609,400.261719 C250.02734,399.646481 249.696289,398.928715 249.731445,398.108398 L249.749023,398.055664 L251.401367,398.055664 C251.430664,398.670902 251.659178,399.120604 252.086914,399.404785 C252.514651,399.688966 253.015622,399.831055 253.589844,399.831055 C254.205081,399.831055 254.68701,399.706544 255.035645,399.45752 C255.384279,399.208495 255.558594,398.881838 255.558594,398.477539 Z M264.97168,398.477539 C264.97168,398.096678 264.826662,397.783204 264.536621,397.537109 C264.246581,397.291014 263.69727,397.077149 262.888672,396.895508 C261.734369,396.643553 260.865726,396.302248 260.282715,395.871582 C259.699704,395.440916 259.408203,394.853519 259.408203,394.109375 C259.408203,393.335934 259.736325,392.676761 260.392578,392.131836 C261.048831,391.586911 261.904292,391.314453 262.958984,391.314453 C264.066412,391.314453 264.946774,391.59863 265.600098,392.166992 C266.253421,392.735354 266.56543,393.426754 266.536133,394.241211 L266.518555,394.293945 L264.866211,394.293945 C264.866211,393.877928 264.691896,393.504396 264.343262,393.17334 C263.994627,392.842284 263.533206,392.676758 262.958984,392.676758 C262.343747,392.676758 261.88672,392.811522 261.587891,393.081055 C261.289061,393.350587 261.139648,393.675779 261.139648,394.056641 C261.139648,394.431642 261.271483,394.727538 261.535156,394.944336 C261.798829,395.161134 262.334957,395.354491 263.143555,395.524414 C264.344733,395.782228 265.238278,396.132322 265.824219,396.574707 C266.410159,397.017092 266.703125,397.610348 266.703125,398.354492 C266.703125,399.198246 266.36182,399.880857 265.679199,400.402344 C264.996579,400.923831 264.104498,401.18457 263.00293,401.18457 C261.790033,401.18457 260.834964,400.876956 260.137695,400.261719 C259.440426,399.646481 259.109375,398.928715 259.144531,398.108398 L259.162109,398.055664 L260.814453,398.055664 C260.84375,398.670902 261.072263,399.120604 261.5,399.404785 C261.927737,399.688966 262.428708,399.831055 263.00293,399.831055 C263.618167,399.831055 264.100096,399.706544 264.44873,399.45752 C264.797365,399.208495 264.97168,398.881838 264.97168,398.477539 Z M269.577148,401 L269.577148,392.773438 L268.091797,392.773438 L268.091797,391.490234 L269.577148,391.490234 L269.577148,390.286133 C269.577148,389.272456 269.842283,388.488772 270.372559,387.935059 C270.902835,387.381345 271.642573,387.104492 272.591797,387.104492 C272.791017,387.104492 272.991698,387.120605 273.193848,387.152832 C273.395997,387.185059 273.620116,387.230468 273.866211,387.289062 L273.655273,388.607422 C273.549804,388.583984 273.422364,388.563477 273.272949,388.545898 C273.123534,388.52832 272.966798,388.519531 272.802734,388.519531 C272.298826,388.519531 271.923829,388.670409 271.677734,388.972168 C271.431639,389.273927 271.308594,389.711911 271.308594,390.286133 L271.308594,391.490234 L273.286133,391.490234 L273.286133,392.773438 L271.308594,392.773438 L271.308594,401 L269.577148,401 Z M281.108398,399.59375 C280.809569,400.103518 280.425784,400.496092 279.957031,400.771484 C279.488279,401.046876 278.946292,401.18457 278.331055,401.18457 C277.29394,401.18457 276.485354,400.853519 275.905273,400.191406 C275.325192,399.529294 275.035156,398.498054 275.035156,397.097656 L275.035156,391.490234 L276.766602,391.490234 L276.766602,397.115234 C276.766602,398.128911 276.916014,398.82617 277.214844,399.207031 C277.513673,399.587893 277.979489,399.77832 278.612305,399.77832 C279.227542,399.77832 279.735838,399.65381 280.137207,399.404785 C280.538576,399.15576 280.841796,398.802737 281.046875,398.345703 L281.046875,391.490234 L282.77832,391.490234 L282.77832,401 L281.222656,401 L281.108398,399.59375 Z M287.172852,401 L285.441406,401 L285.441406,387.289062 L287.172852,387.289062 L287.172852,401 Z" id="Your-application-is" fill="#456297"></path>
            <g id="Group-107" transform="translate(80.000000, 138.000000)">
                <use id="Rectangle-7" stroke="#FFC352" mask="url(#mask-4)" stroke-width="14.4" fill="#FFDFA1" xlink:href="#path-3"></use>
                <path d="M5.41304348,0 L27.5938728,33.7936098 C30.2374628,37.8208976 34.7155406,40.2435805 39.5141215,40.2435805 L126.479155,40.2435805 C131.282218,40.2435805 135.763658,37.8186439 138.409489,33.7879756 L160.586957,0 L5.41304348,0 Z" id="Fill-1" fill="#FFC352"></path>
                <path d="M7.2173913,187.2 L29.140304,205.882239 C31.7531546,208.108659 36.1791617,209.447999 40.9219452,209.447999 L126.875757,209.447999 C131.622971,209.447999 136.052301,208.107413 138.667367,205.879125 L160.586957,187.2 L7.2173913,187.2 Z" id="Fill-1-Copy-2" fill="#FFD48C" transform="translate(83.902174, 198.324000) scale(1, -1) translate(-83.902174, -198.324000) "></path>
                <g id="Group-104" transform="translate(75.782609, 28.800000)" stroke-linecap="square" stroke-width="3.6" stroke="#FFA700">
                    <g id="Group-105">
                        <path d="M21.2334004,0 L0.72173913,38.88" id="Line"></path>
                        <path d="M21.2334004,0 L0.72173913,38.88" id="Line" transform="translate(10.977570, 19.440000) scale(-1, 1) translate(-10.977570, -19.440000) "></path>
                    </g>
                </g>
                <use id="Oval-6" stroke="#FFF3DC" mask="url(#mask-6)" stroke-width="14.4" fill="#FFD481" xlink:href="#path-5"></use>
                <use id="Oval-6-Copy" stroke="#FFF3DC" mask="url(#mask-8)" stroke-width="14.4" fill="#FFD481" xlink:href="#path-7"></use>
            </g>
            <g id="Group-108" transform="translate(107.000000, 263.000000)">
                <rect id="Rectangle-8" fill="#FFFFFF" x="0" y="0" width="52" height="50" rx="2"></rect>
                <path d="M7.5,7.5 L44.5,7.5" id="Line" stroke="#FFD37E" stroke-width="3" stroke-linecap="round"></path>
                <path d="M7.5,16.5 L44.5,16.5" id="Line-Copy-16" stroke="#FFD37E" stroke-width="3" stroke-linecap="round"></path>
                <path d="M7.5,25.5 L21.5,25.5" id="Line-Copy-22" stroke="#FFD37E" stroke-width="3" stroke-linecap="round"></path>
            </g>
            <g id="Dynamic-group" transform="translate(231.213491, 242.625919) rotate(-15.000000) translate(-231.213491, -242.625919) translate(162.213491, 221.125919)">
                <use id="BG" stroke="#2ACD86" mask="url(#mask-10)" stroke-width="5.4" fill-opacity="0.1" fill="#2BCD86" xlink:href="#path-9"></use>
                <path d="M23.9477051,23.688954 L23.9477051,30.8555556 L21.0644531,30.8555556 L21.0644531,13.5797743 L27.4479492,13.5797743 C29.378037,13.5797743 30.8690865,14.0148285 31.9211426,14.8849501 C32.9731986,15.7550716 33.4992187,16.9969537 33.4992187,18.6106337 C33.4992187,19.5044858 33.267849,20.2737408 32.8051025,20.9184218 C32.3423561,21.5631027 31.668022,22.0792353 30.7820801,22.4668349 C31.7550342,22.7753325 32.455076,23.2795999 32.8822266,23.9796522 C33.3093771,24.6797046 33.5229492,25.5399255 33.5229492,26.5603407 L33.5229492,27.9960341 C33.5229492,28.5022866 33.5862298,28.9966664 33.712793,29.4791884 C33.8393561,29.9617103 34.0529282,30.3295289 34.3535156,30.5826552 L34.3535156,30.8555556 L31.387207,30.8555556 C31.0707992,30.5945191 30.8671147,30.1831951 30.7761475,29.6215712 C30.6851802,29.0599473 30.6396973,28.5101969 30.6396973,27.9723036 L30.6396973,26.5840712 C30.6396973,25.6981293 30.3865748,24.9941324 29.8803223,24.4720595 C29.3740697,23.9499865 28.6779829,23.688954 27.792041,23.688954 L23.9477051,23.688954 Z M23.9477051,21.3752333 L27.2937012,21.3752333 C28.4485898,21.3752333 29.291013,21.1537511 29.8209961,20.7107802 C30.3509792,20.2678092 30.6159668,19.5914976 30.6159668,18.6818251 C30.6159668,17.8117035 30.3549343,17.1294594 29.8328613,16.6350722 C29.3107884,16.1406849 28.5158257,15.893495 27.4479492,15.893495 L23.9477051,15.893495 L23.9477051,21.3752333 Z M42.2913574,31.1047255 C40.4720124,31.1047255 39.0224908,30.5094922 37.942749,29.3190077 C36.8630073,28.1285232 36.3231445,26.5999008 36.3231445,24.7330946 L36.3231445,24.2584852 C36.3231445,22.391679 36.8590523,20.8432814 37.9308838,19.613246 C39.0027153,18.3832105 40.3454509,17.7721571 41.9591309,17.7800673 C43.6914637,17.7800673 45.0183792,18.3041099 45.939917,19.3522108 C46.8614548,20.4003118 47.3222168,21.806328 47.3222168,23.5703016 L47.3222168,25.2670302 L39.3131836,25.2670302 L39.2894531,25.3263563 C39.3369143,26.3467716 39.6355197,27.1812847 40.1852783,27.8299208 C40.7350369,28.4785568 41.4963819,28.80287 42.4693359,28.80287 C43.2445351,28.80287 43.9089816,28.7079491 44.4626953,28.5181044 C45.016409,28.3282597 45.5503392,28.055362 46.064502,27.6994032 L46.9899902,29.5859755 C46.5074683,30.0131261 45.866752,30.3730346 45.0678223,30.6657118 C44.2688925,30.9583891 43.3434135,31.1047255 42.2913574,31.1047255 Z M41.9591309,20.093788 C41.2472132,20.093788 40.6618675,20.3765732 40.2030762,20.9421522 C39.7442848,21.5077312 39.459522,22.2255707 39.3487793,23.0956923 L39.3725098,23.1550184 L44.4626953,23.1550184 L44.4626953,22.8583876 C44.4626953,22.0436374 44.2550558,21.3791909 43.8397705,20.8650282 C43.4244852,20.3508655 42.7976116,20.093788 41.9591309,20.093788 Z M54.9515625,28.80287 C55.6555699,28.80287 56.2488257,28.5952305 56.7313477,28.1799452 C57.2138696,27.7646599 57.455127,27.2445724 57.455127,26.6196669 L60.0654785,26.6196669 L60.089209,26.6908583 C60.12876,27.8932081 59.6403127,28.9294282 58.6238525,29.7995497 C57.6073924,30.6696712 56.3833079,31.1047255 54.9515625,31.1047255 C53.0610257,31.1047255 51.6115041,30.4956495 50.6029541,29.2774794 C49.5944041,28.0593092 49.0901367,26.5168442 49.0901367,24.650038 L49.0901367,24.2347548 C49.0901367,22.3758588 49.5944041,20.8353712 50.6029541,19.613246 C51.6115041,18.3911207 53.0610257,17.7800673 54.9515625,17.7800673 C56.4940507,17.7800673 57.7458204,18.2289642 58.7069092,19.1267714 C59.667998,20.0245786 60.132715,21.1656072 60.1010742,22.5498915 L60.0773437,22.6210829 L57.455127,22.6210829 C57.455127,21.9170755 57.2237572,21.3198646 56.7610107,20.8294325 C56.2982643,20.3390004 55.6951209,20.093788 54.9515625,20.093788 C53.8678657,20.093788 53.1005882,20.4873143 52.649707,21.2743788 C52.1988259,22.0614433 51.9733887,23.0482254 51.9733887,24.2347548 L51.9733887,24.650038 C51.9733887,25.8602979 52.1988259,26.8549901 52.649707,27.6341444 C53.1005882,28.4132987 53.8678657,28.80287 54.9515625,28.80287 Z M67.9083984,31.1047255 C66.0890534,31.1047255 64.6395318,30.5094922 63.55979,29.3190077 C62.4800483,28.1285232 61.9401855,26.5999008 61.9401855,24.7330946 L61.9401855,24.2584852 C61.9401855,22.391679 62.4760933,20.8432814 63.5479248,19.613246 C64.6197563,18.3832105 65.9624919,17.7721571 67.5761719,17.7800673 C69.3085048,17.7800673 70.6354202,18.3041099 71.556958,19.3522108 C72.4784958,20.4003118 72.9392578,21.806328 72.9392578,23.5703016 L72.9392578,25.2670302 L64.9302246,25.2670302 L64.9064941,25.3263563 C64.9539553,26.3467716 65.2525607,27.1812847 65.8023193,27.8299208 C66.3520779,28.4785568 67.1134229,28.80287 68.086377,28.80287 C68.8615761,28.80287 69.5260226,28.7079491 70.0797363,28.5181044 C70.63345,28.3282597 71.1673802,28.055362 71.681543,27.6994032 L72.6070312,29.5859755 C72.1245093,30.0131261 71.4837931,30.3730346 70.6848633,30.6657118 C69.8859335,30.9583891 68.9604545,31.1047255 67.9083984,31.1047255 Z M67.5761719,20.093788 C66.8642543,20.093788 66.2789085,20.3765732 65.8201172,20.9421522 C65.3613258,21.5077312 65.0765631,22.2255707 64.9658203,23.0956923 L64.9895508,23.1550184 L70.0797363,23.1550184 L70.0797363,22.8583876 C70.0797363,22.0436374 69.8720968,21.3791909 69.4568115,20.8650282 C69.0415262,20.3508655 68.4146526,20.093788 67.5761719,20.093788 Z M78.3379395,30.8555556 L75.4546875,30.8555556 L75.4546875,18.017372 L78.3379395,18.017372 L78.3379395,30.8555556 Z M78.3379395,14.8730849 L75.4546875,14.8730849 L75.4546875,12.3457899 L78.3379395,12.3457899 L78.3379395,14.8730849 Z M86.0266113,26.5128798 L86.2401855,27.5570204 L86.311377,27.5570204 L86.5368164,26.5128798 L89.0878418,18.017372 L92.0660156,18.017372 L87.5097656,30.8555556 L85.0062012,30.8555556 L80.4262207,18.017372 L83.4043945,18.017372 L86.0266113,26.5128798 Z M99.220752,31.1047255 C97.4014069,31.1047255 95.9518853,30.5094922 94.8721436,29.3190077 C93.7924018,28.1285232 93.2525391,26.5999008 93.2525391,24.7330946 L93.2525391,24.2584852 C93.2525391,22.391679 93.7884468,20.8432814 94.8602783,19.613246 C95.9321099,18.3832105 97.2748454,17.7721571 98.8885254,17.7800673 C100.620858,17.7800673 101.947774,18.3041099 102.869312,19.3522108 C103.790849,20.4003118 104.251611,21.806328 104.251611,23.5703016 L104.251611,25.2670302 L96.2425781,25.2670302 L96.2188477,25.3263563 C96.2663088,26.3467716 96.5649142,27.1812847 97.1146729,27.8299208 C97.6644315,28.4785568 98.4257764,28.80287 99.3987305,28.80287 C100.17393,28.80287 100.838376,28.7079491 101.39209,28.5181044 C101.945804,28.3282597 102.479734,28.055362 102.993896,27.6994032 L103.919385,29.5859755 C103.436863,30.0131261 102.796147,30.3730346 101.997217,30.6657118 C101.198287,30.9583891 100.272808,31.1047255 99.220752,31.1047255 Z M98.8885254,20.093788 C98.1766078,20.093788 97.5912621,20.3765732 97.1324707,20.9421522 C96.6736793,21.5077312 96.3889166,22.2255707 96.2781738,23.0956923 L96.3019043,23.1550184 L101.39209,23.1550184 L101.39209,22.8583876 C101.39209,22.0436374 101.18445,21.3791909 100.769165,20.8650282 C100.35388,20.3508655 99.7270061,20.093788 98.8885254,20.093788 Z M106.043262,24.6144423 C106.043262,22.5657016 106.482271,20.914473 107.360303,19.6607069 C108.238334,18.4069409 109.472307,17.7800673 111.062256,17.7800673 C111.758353,17.7800673 112.381272,17.9204711 112.93103,18.2012831 C113.480789,18.482095 113.957371,18.8835315 114.360791,19.4056044 L114.360791,12.3457899 L117.244043,12.3457899 L117.244043,30.8555556 L114.823535,30.8555556 L114.53877,29.2656141 C114.127439,29.866789 113.63306,30.323596 113.055615,30.6360487 C112.478171,30.9485015 111.805814,31.1047255 111.038525,31.1047255 C109.464396,31.1047255 108.238334,30.5312449 107.360303,29.3842665 C106.482271,28.2372881 106.043262,26.7304184 106.043262,24.8636122 L106.043262,24.6144423 Z M108.926514,24.8636122 C108.926514,26.0501416 109.153928,26.9953958 109.608765,27.6994032 C110.063601,28.4034106 110.785395,28.7554091 111.77417,28.7554091 C112.383255,28.7554091 112.899388,28.6248928 113.322583,28.3638563 C113.745778,28.1028199 114.091844,27.7310462 114.360791,27.2485243 L114.360791,21.6481337 C114.091844,21.1735219 113.743801,20.8037258 113.31665,20.5387343 C112.8895,20.2737427 112.383255,20.1412489 111.7979,20.1412489 C110.817036,20.1412489 110.093264,20.5545504 109.626562,21.3811659 C109.159861,22.2077814 108.926514,23.2855294 108.926514,24.6144423 L108.926514,24.8636122 Z" id="10:20" fill="#2ACD86"></path>
            </g>
        </g>
    </g>
</svg>