<?xml version="1.0" encoding="UTF-8"?>
<svg width="333px" height="36px" viewBox="0 0 333 36" version="1.1" xmlns="http://www.w3.org/2000/svg" xmlns:xlink="http://www.w3.org/1999/xlink">
    <!-- Generator: Sketch 42 (36781) - http://www.bohemiancoding.com/sketch -->
    <title>Group 38</title>
    <desc>Created with Sketch.</desc>
    <defs></defs>
    <g id="template(outline)" stroke="none" stroke-width="1" fill="none" fill-rule="evenodd">
        <g id="card-temp" transform="translate(-1280.000000, -935.000000)">
            <g id="Group-25" transform="translate(1267.000000, 722.000000)">
                <g id="Group-23">
                    <g id="選擇假別/時間-+-Shape-Copy-8-+-Shape-Copy-9">
                        <g id="選擇假別/時間">
                            <g id="Group-38" transform="translate(13.000000, 213.000000)">
                                <path d="M0,18 C0,8.33501688 7.84094106,0.5 17.49312,0.5 L318,0.5 L318,35.5 L17.49312,35.5 C7.83193662,35.5 0,27.6671082 0,18 L0,18 Z" id="Rectangle-2" fill="#04CBD9" opacity="0.602378731"></path>
                                <circle id="Oval-490-Copy-6" fill="#00D3E3" cx="315.5" cy="18" r="17.5"></circle>
                                <path d="M14.707793,22.2328605 L13.2649219,22.2328605 L13.2649219,12.975048 L11.0823047,13.0043449 L11.0823047,11.9643058 L14.707793,11.568798 L14.707793,22.2328605 Z M25.7820117,18.1679191 C25.7820117,19.5302306 25.4805011,20.5739213 24.8774707,21.2990226 C24.2744403,22.0241239 23.4480326,22.3866691 22.3982227,22.3866691 C21.3484127,22.3866691 20.5183429,22.0229032 19.9079883,21.2953605 C19.2976337,20.5678178 18.9924609,19.5253478 18.9924609,18.1679191 L18.9924609,15.6410636 C18.9924609,14.283635 19.296413,13.2399442 19.9043262,12.5099601 C20.5122394,11.779976 21.3386471,11.4149894 22.3835742,11.4149894 C23.4333842,11.4149894 24.2622333,11.779976 24.8701465,12.5099601 C25.4780597,13.2399442 25.7820117,14.283635 25.7820117,15.6410636 L25.7820117,18.1679191 Z M24.3391406,15.3334465 C24.3391406,14.4105903 24.171906,13.7160171 23.8374316,13.2497062 C23.5029573,12.7833953 23.018343,12.5502433 22.3835742,12.5502433 C21.7488054,12.5502433 21.2654118,12.7833953 20.9333789,13.2497062 C20.601346,13.7160171 20.435332,14.4105903 20.435332,15.3334465 L20.435332,18.4608879 C20.435332,19.383744 20.6037874,20.0807586 20.9407031,20.5519523 C21.2776189,21.0231461 21.7634539,21.2587394 22.3982227,21.2587394 C23.0329915,21.2587394 23.5151644,21.0243668 23.8447559,20.5556144 C24.1743474,20.0868621 24.3391406,19.3886269 24.3391406,18.4608879 L24.3391406,15.3334465 Z" id="10" fill="#FFFFFF"></path>
                                <path d="M62.987793,22.2328605 L61.5449219,22.2328605 L61.5449219,12.975048 L59.3623047,13.0043449 L59.3623047,11.9643058 L62.987793,11.568798 L62.987793,22.2328605 Z M71.4326172,22.2328605 L69.9897461,22.2328605 L69.9897461,12.975048 L67.8071289,13.0043449 L67.8071289,11.9643058 L71.4326172,11.568798 L71.4326172,22.2328605 Z" id="11" fill="#FFFFFF"></path>
                                <path d="M114.107793,22.2328605 L112.664922,22.2328605 L112.664922,12.975048 L110.482305,13.0043449 L110.482305,11.9643058 L114.107793,11.568798 L114.107793,22.2328605 Z M125.343145,22.2328605 L118.429082,22.2328605 L118.429082,21.244091 L121.922734,17.3622551 C122.547738,16.6640094 122.971317,16.1098157 123.193486,15.6996574 C123.415655,15.2894991 123.526738,14.8695814 123.526738,14.4398918 C123.526738,13.9076625 123.371711,13.459669 123.06165,13.0958976 C122.75159,12.7321263 122.340217,12.5502433 121.82752,12.5502433 C121.090211,12.5502433 120.547004,12.7394504 120.197881,13.1178703 C119.848758,13.4962901 119.674199,14.0272907 119.674199,14.7108879 L118.289922,14.7108879 L118.275273,14.6669426 C118.250859,13.7489692 118.556032,12.9774926 119.190801,12.3524894 C119.82557,11.7274863 120.704467,11.4149894 121.82752,11.4149894 C122.784556,11.4149894 123.547487,11.6945276 124.116338,12.2536125 C124.685188,12.8126973 124.969609,13.5243601 124.969609,14.3886222 C124.969609,14.9696798 124.797492,15.5519494 124.453252,16.1354484 C124.109012,16.7189474 123.626839,17.3451619 123.006719,18.0141105 L120.201543,21.0683097 L120.216191,21.1049308 L125.343145,21.1049308 L125.343145,22.2328605 Z" id="12" fill="#FFFFFF"></path>
                                <path d="M163.33446,22.2328605 L161.891589,22.2328605 L161.891589,12.975048 L159.708971,13.0043449 L159.708971,11.9643058 L163.33446,11.568798 L163.33446,22.2328605 Z M169.633288,16.2343254 L170.893053,16.2343254 C171.532705,16.2343254 171.985581,16.0744149 172.251696,15.754589 C172.517811,15.4347632 172.650866,14.989211 172.650866,14.4179191 C172.650866,13.8075645 172.4995,13.343702 172.196764,13.0263176 C171.894028,12.7089332 171.447256,12.5502433 170.856432,12.5502433 C170.294906,12.5502433 169.844471,12.7150366 169.505114,13.0446281 C169.165757,13.3742196 168.996081,13.8124476 168.996081,14.3593254 L167.611803,14.3593254 L167.597155,14.3153801 C167.572741,13.509712 167.864486,12.8249044 168.472399,12.2609367 C169.080312,11.696969 169.874982,11.4149894 170.856432,11.4149894 C171.842765,11.4149894 172.62889,11.677438 173.214831,12.2023429 C173.800771,12.7272479 174.093737,13.4755314 174.093737,14.447216 C174.093737,14.8866713 173.960682,15.3248994 173.694567,15.7619133 C173.428452,16.1989272 173.029287,16.5321758 172.497057,16.7616691 C173.136709,16.9716311 173.589585,17.3012176 173.8557,17.7504386 C174.121814,18.1996596 174.25487,18.7025843 174.25487,19.2592277 C174.25487,20.2309123 173.936269,20.9950648 173.299059,21.5517082 C172.661849,22.1083516 171.847648,22.3866691 170.856432,22.3866691 C169.884748,22.3866691 169.080312,22.1242206 168.443102,21.5993156 C167.805892,21.0744106 167.499499,20.3627478 167.523913,19.4643058 L167.545885,19.4203605 L168.922839,19.4203605 C168.922839,19.9818868 169.094956,20.4286596 169.439196,20.7606926 C169.783436,21.0927255 170.255843,21.2587394 170.856432,21.2587394 C171.466787,21.2587394 171.945298,21.0927255 172.291979,20.7606926 C172.638661,20.4286596 172.811999,19.9379419 172.811999,19.2885246 C172.811999,18.6293416 172.658192,18.1435066 172.350573,17.8310051 C172.042954,17.5185035 171.557119,17.3622551 170.893053,17.3622551 L169.633288,17.3622551 L169.633288,16.2343254 Z" id="13" fill="#FFFFFF"></path>
                                <path d="M213.507793,22.2328605 L212.064922,22.2328605 L212.064922,12.975048 L209.882305,13.0043449 L209.882305,11.9643058 L213.507793,11.568798 L213.507793,22.2328605 Z M223.593242,18.6439933 L225.06541,18.6439933 L225.06541,19.771923 L223.593242,19.771923 L223.593242,22.2328605 L222.157695,22.2328605 L222.157695,19.771923 L217.367656,19.771923 L217.367656,18.9589347 L222.069805,11.568798 L223.593242,11.568798 L223.593242,18.6439933 Z M218.905742,18.6439933 L222.157695,18.6439933 L222.157695,13.6415519 L222.11375,13.6342277 L221.97459,14.0004386 L218.905742,18.6439933 Z" id="14" fill="#FFFFFF"></path>
                                <path d="M263.681126,22.2328605 L262.238255,22.2328605 L262.238255,12.975048 L260.055638,13.0043449 L260.055638,11.9643058 L263.681126,11.568798 L263.681126,22.2328605 Z M268.419896,17.4208488 L269.03513,11.568798 L274.374486,11.568798 L274.374486,12.8505363 L270.258275,12.8505363 L269.906712,15.8461418 C270.131323,15.6801253 270.381564,15.5421872 270.657445,15.4323234 C270.933325,15.3224596 271.251925,15.2626457 271.613255,15.2528801 C272.594705,15.2431144 273.367403,15.5629354 273.93137,16.2123527 C274.495338,16.86177 274.777318,17.7357847 274.777318,18.834423 C274.777318,19.9037643 274.490455,20.7631307 273.916722,21.412548 C273.342989,22.0619653 272.506815,22.3866691 271.408177,22.3866691 C270.504852,22.3866691 269.752907,22.1400895 269.152318,21.646923 C268.551729,21.1537565 268.263646,20.4286661 268.28806,19.4716301 L268.302708,19.4276847 L269.606419,19.4276847 C269.606419,20.0087423 269.773654,20.4591773 270.108128,20.7790031 C270.442603,21.0988289 270.875948,21.2587394 271.408177,21.2587394 C272.018532,21.2587394 272.49216,21.0438978 272.829076,20.6142082 C273.165991,20.1845185 273.334447,19.5961455 273.334447,18.8490715 C273.334447,18.1654743 273.16355,17.6039565 272.821751,17.1645011 C272.479953,16.7250458 272.008766,16.5053215 271.408177,16.5053215 C270.841768,16.5053215 270.431616,16.5907698 270.177708,16.7616691 C269.923801,16.9325684 269.738256,17.1937963 269.621068,17.5453605 L268.419896,17.4208488 Z" id="15" fill="#FFFFFF"></path>
                                <path d="M310.958685,24.2328605 L309.22724,24.2328605 L309.22724,13.1234855 L306.608099,13.1586418 L306.608099,11.9105949 L310.958685,11.4359855 L310.958685,24.2328605 Z M321.03974,11.2514152 C321.479195,11.2514152 321.914249,11.3012194 322.344915,11.4008293 C322.775582,11.5004391 323.131535,11.6264144 323.412786,11.778759 L323.043646,13.1059074 C322.756535,12.9594223 322.456245,12.8407711 322.142767,12.7499504 C321.829289,12.6591296 321.461617,12.6137199 321.03974,12.6137199 C320.125673,12.6137199 319.388863,12.9799272 318.82929,13.7123527 C318.269717,14.4447782 317.989935,15.3998468 317.989935,16.5775871 L317.989935,16.7797355 C318.364937,16.4516089 318.794132,16.1952638 319.277533,16.0106926 C319.760933,15.8261213 320.280948,15.7338371 320.837591,15.7338371 C321.980175,15.7338371 322.891299,16.1293409 323.57099,16.9203605 C324.25068,17.7113801 324.590521,18.7133232 324.590521,19.9262199 C324.590521,21.2504453 324.228708,22.3300243 323.505072,23.1649894 C322.781435,23.9999545 321.816113,24.4174308 320.609076,24.4174308 C319.355163,24.4174308 318.318064,23.9633338 317.497747,23.0551261 C316.677431,22.1469185 316.267279,20.8666578 316.267279,19.2143058 L316.267279,16.7709465 C316.267279,15.1303133 316.724305,13.8002484 317.638372,12.7807121 C318.552439,11.7611757 319.686217,11.2514152 321.03974,11.2514152 Z M320.450872,17.0258293 C319.859073,17.0258293 319.355171,17.1459453 318.939154,17.3861808 C318.523136,17.6264164 318.206733,17.9457492 317.989935,18.3441886 L317.989935,19.381298 C317.989935,20.5590383 318.238956,21.4672323 318.737005,22.1059074 C319.235055,22.7445825 319.859072,23.0639152 320.609076,23.0639152 C321.318063,23.0639152 321.870304,22.7636252 322.265814,22.1630363 C322.661324,21.5624474 322.859076,20.8168493 322.859076,19.9262199 C322.859076,19.0824657 322.646675,18.3881367 322.221868,17.8432121 C321.797062,17.2982875 321.206736,17.0258293 320.450872,17.0258293 Z" id="16" fill="#FFFFFF"></path>
                            </g>
                        </g>
                    </g>
                </g>
            </g>
        </g>
    </g>
</svg>