<?xml version="1.0" encoding="UTF-8"?>
<svg width="335px" height="36px" viewBox="0 0 335 36" version="1.1" xmlns="http://www.w3.org/2000/svg" xmlns:xlink="http://www.w3.org/1999/xlink">
    <!-- Generator: Sketch 42 (36781) - http://www.bohemiancoding.com/sketch -->
    <title>Group 39</title>
    <desc>Created with Sketch.</desc>
    <defs></defs>
    <g id="template(outline)" stroke="none" stroke-width="1" fill="none" fill-rule="evenodd">
        <g id="card-temp" transform="translate(-1280.000000, -889.000000)">
            <g id="Group-25" transform="translate(1267.000000, 722.000000)">
                <g id="Group-23">
                    <g id="選擇假別/時間-+-Shape-Copy-8-+-Shape-Copy-9">
                        <g id="選擇假別/時間">
                            <g id="Group-39" transform="translate(13.000000, 167.000000)">
                                <path d="M17,0 L317.50688,0 C327.168063,0 335,7.83289181 335,17.5 L335,17.5 C335,27.1649831 327.159059,35 317.50688,35 L17,35 L17,0 Z" id="Rectangle-2" fill="#04CBD9" opacity="0.602378731"></path>
                                <ellipse id="Oval-490-Copy-2" fill="#00D3E3" cx="17.5" cy="18" rx="17.5" ry="17.5"></ellipse>
                                <path d="M15.9168229,17.6445474 L17.4285417,17.6445474 C18.1961236,17.6445474 18.7395752,17.4526548 19.0589128,17.0688638 C19.3782503,16.6850728 19.5379167,16.1504102 19.5379167,15.4648599 C19.5379167,14.7324344 19.3562779,14.1757993 18.9929948,13.794938 C18.6297117,13.4140768 18.0935843,13.223649 17.3845964,13.223649 C16.7107649,13.223649 16.1702429,13.4214009 15.7630143,13.8169107 C15.3557857,14.2124205 15.1521745,14.7382941 15.1521745,15.3945474 L13.4910417,15.3945474 L13.4734635,15.341813 C13.4441665,14.3750113 13.7942607,13.5532422 14.5237565,12.876481 C15.2532523,12.1997198 16.2068561,11.8613443 17.3845964,11.8613443 C18.568196,11.8613443 19.511546,12.1762825 20.2146745,12.8061685 C20.917803,13.4360545 21.269362,14.3339947 21.269362,15.5000162 C21.269362,16.0273625 21.1096956,16.5532362 20.7903581,17.0776529 C20.4710205,17.6020696 19.9920214,18.0019679 19.3533464,18.2773599 C20.1209283,18.5293143 20.6643799,18.9248182 20.9837174,19.4638833 C21.303055,20.0029485 21.4627214,20.6064581 21.4627214,21.2744302 C21.4627214,22.4404517 21.080401,23.3574347 20.3157487,24.0254068 C19.5510964,24.6933789 18.5740554,25.0273599 17.3845964,25.0273599 C16.2185749,25.0273599 15.2532525,24.7124217 14.4886003,24.0825357 C13.723948,23.4526497 13.3562759,22.5986544 13.3855729,21.520524 L13.4119401,21.4677896 L15.0642839,21.4677896 C15.0642839,22.1416211 15.2708248,22.6777485 15.6839128,23.076188 C16.0970008,23.4746275 16.6638896,23.6738443 17.3845964,23.6738443 C18.1170219,23.6738443 18.6912349,23.4746275 19.1072526,23.076188 C19.5232703,22.6777485 19.731276,22.0888872 19.731276,21.3095865 C19.731276,20.5185669 19.5467076,19.9355649 19.1775651,19.560563 C18.8084226,19.1855612 18.2254207,18.998063 17.4285417,18.998063 L15.9168229,18.998063 L15.9168229,17.6445474 Z" id="3" fill="#FFFFFF"></path>
                                <path d="M68.4150846,19.2539224 L69.8872526,19.2539224 L69.8872526,20.3818521 L68.4150846,20.3818521 L68.4150846,22.8427896 L66.9795378,22.8427896 L66.9795378,20.3818521 L62.1894987,20.3818521 L62.1894987,19.5688638 L66.8916471,12.1787271 L68.4150846,12.1787271 L68.4150846,19.2539224 Z M63.7275846,19.2539224 L66.9795378,19.2539224 L66.9795378,14.251481 L66.9355924,14.2441568 L66.7964323,14.6103677 L63.7275846,19.2539224 Z" id="4" fill="#FFFFFF"></path>
                                <path d="M114.188405,18.0307779 L114.803639,12.1787271 L120.142995,12.1787271 L120.142995,13.4604654 L116.026784,13.4604654 L115.675221,16.4560708 C115.899832,16.2900544 116.150073,16.1521163 116.425954,16.0422525 C116.701834,15.9323887 117.020434,15.8725748 117.381764,15.8628091 C118.363215,15.8530435 119.135912,16.1728645 119.69988,16.8222818 C120.263847,17.4716991 120.545827,18.3457138 120.545827,19.4443521 C120.545827,20.5136934 120.258964,21.3730598 119.685231,22.0224771 C119.111498,22.6718944 118.275325,22.9965982 117.176686,22.9965982 C116.273361,22.9965982 115.521416,22.7500186 114.920827,22.2568521 C114.320238,21.7636856 114.032155,21.0385952 114.056569,20.0815591 L114.071217,20.0376138 L115.374928,20.0376138 C115.374928,20.6186714 115.542163,21.0691064 115.876637,21.3889322 C116.211112,21.708758 116.644457,21.8686685 117.176686,21.8686685 C117.787041,21.8686685 118.260669,21.6538269 118.597585,21.2241373 C118.9345,20.7944476 119.102956,20.2060746 119.102956,19.4590005 C119.102956,18.7754034 118.932059,18.2138855 118.59026,17.7744302 C118.248462,17.3349749 117.777275,17.1152505 117.176686,17.1152505 C116.610277,17.1152505 116.200125,17.2006989 115.946217,17.3715982 C115.69231,17.5424975 115.506765,17.8037253 115.389577,18.1552896 L114.188405,18.0307779 Z" id="5" fill="#FFFFFF"></path>
                                <path d="M167.077181,12.0249185 C167.443394,12.0249185 167.805939,12.066422 168.164827,12.1494302 C168.523716,12.2324385 168.820344,12.3374179 169.05472,12.4643716 L168.747103,13.5703287 C168.507844,13.4482577 168.257602,13.3493818 167.99637,13.2736978 C167.735139,13.1980138 167.428745,13.1601724 167.077181,13.1601724 C166.315458,13.1601724 165.701451,13.4653451 165.23514,14.0756998 C164.768829,14.6860544 164.535677,15.4819448 164.535677,16.4633951 L164.535677,16.6318521 C164.848179,16.3584132 165.205841,16.1447923 165.608675,15.990983 C166.011509,15.8371736 166.444854,15.7602701 166.908724,15.7602701 C167.860877,15.7602701 168.620147,16.0898566 169.186556,16.7490396 C169.752965,17.4082226 170.036165,18.2431752 170.036165,19.2539224 C170.036165,20.3574436 169.734655,21.2570928 169.131624,21.952897 C168.528594,22.6487013 167.724159,22.9965982 166.718294,22.9965982 C165.673367,22.9965982 164.809118,22.618184 164.125521,21.8613443 C163.441924,21.1045046 163.10013,20.0376207 163.10013,18.6606607 L163.10013,16.6245279 C163.10013,15.2573335 163.480986,14.1489462 164.242708,13.2993326 C165.004431,12.4497189 165.949246,12.0249185 167.077181,12.0249185 Z M166.586458,16.8369302 C166.093292,16.8369302 165.673374,16.9370269 165.326693,17.1372232 C164.980011,17.3374195 164.716342,17.6035301 164.535677,17.935563 L164.535677,18.7998208 C164.535677,19.7812711 164.743195,20.5380994 165.158236,21.0703287 C165.573277,21.6025579 166.093291,21.8686685 166.718294,21.8686685 C167.309118,21.8686685 167.769318,21.6184269 168.09891,21.1179361 C168.428501,20.6174453 168.593294,19.9961136 168.593294,19.2539224 C168.593294,18.5507939 168.416294,17.9721864 168.062288,17.5180826 C167.708283,17.0639787 167.216344,16.8369302 166.586458,16.8369302 Z" id="6" fill="#FFFFFF"></path>
                                <path d="M220.084987,13.313981 C218.795918,14.8471918 217.925565,16.2058208 217.473903,17.3899087 C217.022241,18.5739967 216.696316,20.0083085 216.49612,21.6928873 L216.378932,22.8427896 L214.936061,22.8427896 L215.053249,21.6928873 C215.258328,20.0131914 215.656273,18.5117415 216.247096,17.1884927 C216.83792,15.8652439 217.646017,14.5737529 218.671413,13.313981 L212.870632,13.313981 L212.870632,12.1787271 L220.084987,12.1787271 L220.084987,13.313981 Z" id="7" fill="#FFFFFF"></path>
                                <path d="M269.404128,14.9619302 C269.404128,15.5185736 269.247879,16.0056293 268.935378,16.4231119 C268.622876,16.8405944 268.200517,17.1518706 267.668288,17.3569498 C268.283525,17.5717946 268.775464,17.9087053 269.144118,18.3676919 C269.512772,18.8266786 269.697096,19.3564585 269.697096,19.9570474 C269.697096,20.9433805 269.376055,21.6965468 268.733962,22.2165689 C268.091869,22.736591 267.258137,22.9965982 266.232741,22.9965982 C265.187814,22.9965982 264.346758,22.736591 263.709548,22.2165689 C263.072337,21.6965468 262.753737,20.9433805 262.753737,19.9570474 C262.753737,19.3564585 262.934399,18.8266786 263.295729,18.3676919 C263.657059,17.9087053 264.145335,17.5717946 264.760573,17.3569498 C264.228344,17.1518706 263.810867,16.8405944 263.508132,16.4231119 C263.205396,16.0056293 263.05403,15.5185736 263.05403,14.9619302 C263.05403,14.0244255 263.343334,13.3005558 263.92195,12.7902994 C264.500566,12.2800429 265.265939,12.0249185 266.218092,12.0249185 C267.155597,12.0249185 267.92097,12.2800429 268.514235,12.7902994 C269.1075,13.3005558 269.404128,14.0244255 269.404128,14.9619302 Z M268.261549,19.9277505 C268.261549,19.3418101 268.06868,18.8608579 267.682936,18.4848794 C267.297192,18.108901 266.808916,17.9209146 266.218092,17.9209146 C265.617504,17.9209146 265.130448,18.108901 264.756911,18.4848794 C264.383374,18.8608579 264.196608,19.3418101 264.196608,19.9277505 C264.196608,20.5332223 264.382153,21.0080711 264.753249,21.3523111 C265.124344,21.6965511 265.617503,21.8686685 266.232741,21.8686685 C266.83333,21.8686685 267.321606,21.6953304 267.697585,21.348649 C268.073563,21.0019676 268.261549,20.5283395 268.261549,19.9277505 Z M267.961257,14.9912271 C267.961257,14.4638807 267.796463,14.0268734 267.466872,13.6801919 C267.13728,13.3335105 266.721025,13.1601724 266.218092,13.1601724 C265.705395,13.1601724 265.29036,13.3274071 264.972975,13.6618814 C264.655591,13.9963557 264.496901,14.4394665 264.496901,14.9912271 C264.496901,15.533222 264.656812,15.967788 264.976637,16.294938 C265.296463,16.6220881 265.71516,16.7856607 266.232741,16.7856607 C266.740556,16.7856607 267.155591,16.6220881 267.477858,16.294938 C267.800125,15.967788 267.961257,15.533222 267.961257,14.9912271 Z" id="8" fill="#FFFFFF"></path>
                                <path d="M314.502676,21.8686685 C315.205804,21.8686685 315.768543,21.6025579 316.190908,21.0703287 C316.613274,20.5380994 316.824453,19.7470917 316.824453,18.6972818 L316.824453,18.2138833 C316.585194,18.5605648 316.286125,18.8230133 315.927236,19.0012369 C315.568348,19.1794604 315.169182,19.2685708 314.729727,19.2685708 C313.699448,19.2685708 312.881585,18.9499705 312.276113,18.3127603 C311.670642,17.6755501 311.36791,16.7978733 311.36791,15.6797037 C311.36791,14.6103624 311.688952,13.7339063 312.331045,13.0503091 C312.973138,12.366712 313.753159,12.0249185 314.671133,12.0249185 C315.78442,12.0249185 316.662096,12.3728154 317.304189,13.0686197 C317.946283,13.7644239 318.267324,14.7885836 318.267324,16.1411294 L318.267324,18.6826333 C318.267324,20.0742419 317.919427,21.1411257 317.223623,21.8833169 C316.527819,22.6255082 315.620845,22.9965982 314.502676,22.9965982 C314.126697,22.9965982 313.744621,22.9611982 313.356436,22.890397 C312.96825,22.8195959 312.620353,22.7109544 312.312734,22.5644693 L312.532461,21.4585123 C312.820548,21.6098802 313.119618,21.7160803 313.429678,21.7771158 C313.739738,21.8381512 314.0974,21.8686685 314.502676,21.8686685 Z M314.729727,18.1406412 C315.261956,18.1406412 315.705067,18.0258962 316.059072,17.7964029 C316.413078,17.5669095 316.668202,17.2739437 316.824453,16.9174966 L316.824453,15.9946451 C316.824453,15.0620232 316.645012,14.3564639 316.286123,13.8779458 C315.927235,13.3994278 315.403558,13.1601724 314.715078,13.1601724 C314.187732,13.1601724 313.738517,13.3957658 313.367422,13.8669595 C312.996326,14.3381533 312.810781,14.9423953 312.810781,15.6797037 C312.810781,16.4121292 312.982899,17.005385 313.327139,17.4594888 C313.671379,17.9135926 314.138903,18.1406412 314.729727,18.1406412 Z" id="9" fill="#FFFFFF"></path>
                            </g>
                        </g>
                    </g>
                </g>
            </g>
        </g>
    </g>
</svg>