<?xml version="1.0" encoding="UTF-8"?>
<svg width="393px" height="178px" viewBox="0 0 393 178" version="1.1" xmlns="http://www.w3.org/2000/svg" xmlns:xlink="http://www.w3.org/1999/xlink">
    <!-- Generator: Sketch 41.2 (35397) - http://www.bohemiancoding.com/sketch -->
    <title>Group 28</title>
    <desc>Created with Sketch.</desc>
    <defs>
        <rect id="path-1" x="0" y="0" width="385" height="170" rx="4"></rect>
        <filter x="-50%" y="-50%" width="200%" height="200%" filterUnits="objectBoundingBox" id="filter-2">
            <feOffset dx="0" dy="1" in="SourceAlpha" result="shadowOffsetOuter1"></feOffset>
            <feGaussianBlur stdDeviation="2" in="shadowOffsetOuter1" result="shadowBlurOuter1"></feGaussianBlur>
            <feColorMatrix values="0 0 0 0 0   0 0 0 0 0   0 0 0 0 0  0 0 0 0.15 0" type="matrix" in="shadowBlurOuter1" result="shadowMatrixOuter1"></feColorMatrix>
            <feOffset dx="0" dy="2" in="SourceAlpha" result="shadowOffsetOuter2"></feOffset>
            <feGaussianBlur stdDeviation="1" in="shadowOffsetOuter2" result="shadowBlurOuter2"></feGaussianBlur>
            <feColorMatrix values="0 0 0 0 0   0 0 0 0 0   0 0 0 0 0  0 0 0 0.3 0" type="matrix" in="shadowBlurOuter2" result="shadowMatrixOuter2"></feColorMatrix>
            <feMerge>
                <feMergeNode in="shadowMatrixOuter1"></feMergeNode>
                <feMergeNode in="shadowMatrixOuter2"></feMergeNode>
            </feMerge>
        </filter>
    </defs>
    <g id="template(outline)" stroke="none" stroke-width="1" fill="none" fill-rule="evenodd">
        <g id="card-temp" transform="translate(-821.000000, -1146.000000)">
            <g id="Group-28" transform="translate(825.000000, 1149.000000)">
                <g id="Rectangle-147-Copy-5">
                    <use fill="black" fill-opacity="1" filter="url(#filter-2)" xlink:href="#path-1"></use>
                    <use fill="#FFFFFF" fill-rule="evenodd" xlink:href="#path-1"></use>
                </g>
                <path d="M42.7142985,67.2856836 L42.7142985,60.8571045 C42.7142985,56.1361168 46.5647495,52.2856658 51.2857373,52.2856658 C56.006725,52.2856658 59.8571761,56.1361168 59.8571761,60.8571045 L59.8571761,67.2856836 L42.7142985,67.2856836 Z M70.5714746,70.4999732 C70.5714746,68.7254175 69.1317407,67.2856836 67.357185,67.2856836 L66.2857552,67.2856836 L66.2857552,60.8571045 C66.2857552,52.6204876 59.5223542,45.8570867 51.2857373,45.8570867 C43.0491203,45.8570867 36.2857194,52.6204876 36.2857194,60.8571045 L36.2857194,67.2856836 L35.2142895,67.2856836 C33.4397339,67.2856836 32,68.7254175 32,70.4999732 L32,89.7857105 C32,91.5602661 33.4397339,93 35.2142895,93 L67.357185,93 C69.1317407,93 70.5714746,91.5602661 70.5714746,89.7857105 L70.5714746,70.4999732 Z" id="lock-copy" fill="#EB5000"></path>
                <path d="M103.516602,57.7041016 L98.1552734,57.7041016 L96.9423828,61 L95.1757812,61 L100.124023,48.203125 L101.609375,48.203125 L106.478516,61 L104.711914,61 L103.516602,57.7041016 Z M98.6914062,56.2539062 L102.998047,56.2539062 L100.888672,50.4267578 L100.835938,50.4267578 L98.6914062,56.2539062 Z M111.77832,59.8310547 C112.352542,59.8310547 112.857908,59.6538104 113.294434,59.2993164 C113.730959,58.9448224 113.949219,58.5097682 113.949219,57.9941406 L115.504883,57.9941406 L115.522461,58.046875 C115.551758,58.8671916 115.187016,59.5952117 114.428223,60.230957 C113.66943,60.8667024 112.786138,61.1845703 111.77832,61.1845703 C110.395501,61.1845703 109.337894,60.7334029 108.605469,59.8310547 C107.873043,58.9287064 107.506836,57.7949287 107.506836,56.4296875 L107.506836,56.0605469 C107.506836,54.7070245 107.874508,53.5776412 108.609863,52.6723633 C109.345219,51.7670853 110.40136,51.3144531 111.77832,51.3144531 C112.891607,51.3144531 113.801266,51.6425748 114.507324,52.2988281 C115.213382,52.9550814 115.554688,53.7607374 115.53125,54.7158203 L115.513672,54.7685547 L113.949219,54.7685547 C113.949219,54.1884737 113.744143,53.6948263 113.333984,53.2875977 C112.923826,52.8803691 112.405277,52.6767578 111.77832,52.6767578 C110.870113,52.6767578 110.221193,53.0034147 109.831543,53.6567383 C109.441893,54.3100619 109.24707,55.1113234 109.24707,56.0605469 L109.24707,56.4296875 C109.24707,57.4023486 109.440428,58.2123991 109.827148,58.8598633 C110.213869,59.5073275 110.864253,59.8310547 111.77832,59.8310547 Z M121.332031,59.8310547 C121.906253,59.8310547 122.411619,59.6538104 122.848145,59.2993164 C123.28467,58.9448224 123.50293,58.5097682 123.50293,57.9941406 L125.058594,57.9941406 L125.076172,58.046875 C125.105469,58.8671916 124.740726,59.5952117 123.981934,60.230957 C123.223141,60.8667024 122.339849,61.1845703 121.332031,61.1845703 C119.949212,61.1845703 118.891605,60.7334029 118.15918,59.8310547 C117.426754,58.9287064 117.060547,57.7949287 117.060547,56.4296875 L117.060547,56.0605469 C117.060547,54.7070245 117.428219,53.5776412 118.163574,52.6723633 C118.898929,51.7670853 119.955071,51.3144531 121.332031,51.3144531 C122.445318,51.3144531 123.354977,51.6425748 124.061035,52.2988281 C124.767093,52.9550814 125.108399,53.7607374 125.084961,54.7158203 L125.067383,54.7685547 L123.50293,54.7685547 C123.50293,54.1884737 123.297854,53.6948263 122.887695,53.2875977 C122.477537,52.8803691 121.958988,52.6767578 121.332031,52.6767578 C120.423824,52.6767578 119.774904,53.0034147 119.385254,53.6567383 C118.995604,54.3100619 118.800781,55.1113234 118.800781,56.0605469 L118.800781,56.4296875 C118.800781,57.4023486 118.994139,58.2123991 119.380859,58.8598633 C119.76758,59.5073275 120.417964,59.8310547 121.332031,59.8310547 Z M126.614258,56.1572266 C126.614258,54.7509695 126.995113,53.5922897 127.756836,52.6811523 C128.518558,51.770015 129.552728,51.3144531 130.859375,51.3144531 C132.177741,51.3144531 133.219234,51.7685501 133.983887,52.6767578 C134.748539,53.5849655 135.130859,54.7451101 135.130859,56.1572266 L135.130859,56.3505859 C135.130859,57.7685618 134.750004,58.9287064 133.988281,59.8310547 C133.226559,60.7334029 132.18946,61.1845703 130.876953,61.1845703 C129.564447,61.1845703 128.525883,60.7319381 127.76123,59.8266602 C126.996578,58.9213822 126.614258,57.7627024 126.614258,56.3505859 L126.614258,56.1572266 Z M128.345703,56.3505859 C128.345703,57.3584035 128.558103,58.1904264 128.98291,58.8466797 C129.407717,59.502933 130.039058,59.8310547 130.876953,59.8310547 C131.703129,59.8310547 132.330076,59.502933 132.757812,58.8466797 C133.185549,58.1904264 133.399414,57.3584035 133.399414,56.3505859 L133.399414,56.1572266 C133.399414,55.1611278 133.184084,54.3320346 132.753418,53.6699219 C132.322752,53.0078092 131.69141,52.6767578 130.859375,52.6767578 C130.033199,52.6767578 129.407717,53.0078092 128.98291,53.6699219 C128.558103,54.3320346 128.345703,55.1611278 128.345703,56.1572266 L128.345703,56.3505859 Z M143.287109,59.59375 C142.98828,60.1035182 142.604495,60.4960924 142.135742,60.7714844 C141.66699,61.0468764 141.125003,61.1845703 140.509766,61.1845703 C139.472651,61.1845703 138.664065,60.8535189 138.083984,60.1914062 C137.503903,59.5292936 137.213867,58.4980539 137.213867,57.0976562 L137.213867,51.4902344 L138.945312,51.4902344 L138.945312,57.1152344 C138.945312,58.1289113 139.094725,58.82617 139.393555,59.2070312 C139.692384,59.5878925 140.1582,59.7783203 140.791016,59.7783203 C141.406253,59.7783203 141.914549,59.6538098 142.315918,59.4047852 C142.717287,59.1557605 143.020507,58.8027367 143.225586,58.3457031 L143.225586,51.4902344 L144.957031,51.4902344 L144.957031,61 L143.401367,61 L143.287109,59.59375 Z M149.026367,51.4902344 L149.149414,52.9052734 C149.465822,52.4013647 149.862791,52.0102553 150.340332,51.7319336 C150.817873,51.4536119 151.361325,51.3144531 151.970703,51.3144531 C152.996099,51.3144531 153.790036,51.6147431 154.352539,52.215332 C154.915042,52.815921 155.196289,53.7431578 155.196289,54.9970703 L155.196289,61 L153.464844,61 L153.464844,55.0322266 C153.464844,54.1943317 153.299318,53.5996111 152.968262,53.2480469 C152.637205,52.8964826 152.131839,52.7207031 151.452148,52.7207031 C150.954099,52.7207031 150.513186,52.8408191 150.129395,53.0810547 C149.745604,53.3212903 149.439454,53.649412 149.210938,54.0654297 L149.210938,61 L147.479492,61 L147.479492,51.4902344 L149.026367,51.4902344 Z M159.995117,49.1962891 L159.995117,51.4902344 L161.796875,51.4902344 L161.796875,52.7734375 L159.995117,52.7734375 L159.995117,58.5478516 C159.995117,58.9931663 160.087401,59.3066397 160.271973,59.4882812 C160.456544,59.6699228 160.70117,59.7607422 161.005859,59.7607422 C161.105469,59.7607422 161.215331,59.7490236 161.335449,59.7255859 C161.455567,59.7021483 161.5625,59.6728517 161.65625,59.6376953 L161.884766,60.8242188 C161.755859,60.929688 161.566896,61.0161129 161.317871,61.0834961 C161.068846,61.1508792 160.818361,61.1845703 160.566406,61.1845703 C159.863278,61.1845703 159.303713,60.9721701 158.887695,60.5473633 C158.471678,60.1225565 158.263672,59.4560592 158.263672,58.5478516 L158.263672,52.7734375 L156.751953,52.7734375 L156.751953,51.4902344 L158.263672,51.4902344 L158.263672,49.1962891 L159.995117,49.1962891 Z M170.27832,61 L168.546875,61 L168.546875,47.2890625 L170.27832,47.2890625 L170.27832,61 Z M172.537109,56.1572266 C172.537109,54.7509695 172.917965,53.5922897 173.679688,52.6811523 C174.44141,51.770015 175.475579,51.3144531 176.782227,51.3144531 C178.100593,51.3144531 179.142086,51.7685501 179.906738,52.6767578 C180.671391,53.5849655 181.053711,54.7451101 181.053711,56.1572266 L181.053711,56.3505859 C181.053711,57.7685618 180.672855,58.9287064 179.911133,59.8310547 C179.14941,60.7334029 178.112311,61.1845703 176.799805,61.1845703 C175.487298,61.1845703 174.448734,60.7319381 173.684082,59.8266602 C172.91943,58.9213822 172.537109,57.7627024 172.537109,56.3505859 L172.537109,56.1572266 Z M174.268555,56.3505859 C174.268555,57.3584035 174.480955,58.1904264 174.905762,58.8466797 C175.330569,59.502933 175.96191,59.8310547 176.799805,59.8310547 C177.625981,59.8310547 178.252928,59.502933 178.680664,58.8466797 C179.108401,58.1904264 179.322266,57.3584035 179.322266,56.3505859 L179.322266,56.1572266 C179.322266,55.1611278 179.106936,54.3320346 178.67627,53.6699219 C178.245603,53.0078092 177.614262,52.6767578 176.782227,52.6767578 C175.956051,52.6767578 175.330569,53.0078092 174.905762,53.6699219 C174.480955,54.3320346 174.268555,55.1611278 174.268555,56.1572266 L174.268555,56.3505859 Z M187.039062,59.8310547 C187.613284,59.8310547 188.11865,59.6538104 188.555176,59.2993164 C188.991701,58.9448224 189.209961,58.5097682 189.209961,57.9941406 L190.765625,57.9941406 L190.783203,58.046875 C190.8125,58.8671916 190.447758,59.5952117 189.688965,60.230957 C188.930172,60.8667024 188.04688,61.1845703 187.039062,61.1845703 C185.656243,61.1845703 184.598636,60.7334029 183.866211,59.8310547 C183.133785,58.9287064 182.767578,57.7949287 182.767578,56.4296875 L182.767578,56.0605469 C182.767578,54.7070245 183.13525,53.5776412 183.870605,52.6723633 C184.605961,51.7670853 185.662102,51.3144531 187.039062,51.3144531 C188.152349,51.3144531 189.062008,51.6425748 189.768066,52.2988281 C190.474125,52.9550814 190.81543,53.7607374 190.791992,54.7158203 L190.774414,54.7685547 L189.209961,54.7685547 C189.209961,54.1884737 189.004885,53.6948263 188.594727,53.2875977 C188.184568,52.8803691 187.666019,52.6767578 187.039062,52.6767578 C186.130855,52.6767578 185.481936,53.0034147 185.092285,53.6567383 C184.702635,54.3100619 184.507812,55.1113234 184.507812,56.0605469 L184.507812,56.4296875 C184.507812,57.4023486 184.70117,58.2123991 185.087891,58.8598633 C185.474611,59.5073275 186.124995,59.8310547 187.039062,59.8310547 Z M195.59082,56.6142578 L194.46582,56.6142578 L194.46582,61 L192.734375,61 L192.734375,47.2890625 L194.46582,47.2890625 L194.46582,55.234375 L195.573242,55.234375 L198.174805,51.4902344 L200.249023,51.4902344 L196.99707,55.8144531 L200.714844,61 L198.675781,61 L195.59082,56.6142578 Z M205.724609,61.1845703 C204.400384,61.1845703 203.347172,60.7436568 202.564941,59.8618164 C201.782711,58.9799761 201.391602,57.8359445 201.391602,56.4296875 L201.391602,56.0429688 C201.391602,54.6894464 201.79443,53.5629928 202.600098,52.6635742 C203.405766,51.7641557 204.359369,51.3144531 205.460938,51.3144531 C206.744147,51.3144531 207.713864,51.701168 208.370117,52.4746094 C209.02637,53.2480507 209.354492,54.2792904 209.354492,55.5683594 L209.354492,56.6494141 L203.18457,56.6494141 L203.158203,56.6933594 C203.175781,57.6074264 203.407224,58.3588838 203.852539,58.9477539 C204.297854,59.536624 204.921871,59.8310547 205.724609,59.8310547 C206.31055,59.8310547 206.824705,59.7475594 207.26709,59.5805664 C207.709475,59.4135734 208.091795,59.1835952 208.414062,58.890625 L209.09082,60.015625 C208.750975,60.349611 208.302737,60.6279286 207.746094,60.8505859 C207.18945,61.0732433 206.515629,61.1845703 205.724609,61.1845703 Z M205.460938,52.6767578 C204.880856,52.6767578 204.385744,52.9213843 203.975586,53.4106445 C203.565428,53.8999048 203.313477,54.5136682 203.219727,55.2519531 L203.237305,55.2958984 L207.623047,55.2958984 L207.623047,55.0673828 C207.623047,54.3876919 207.441408,53.8193382 207.078125,53.3623047 C206.714842,52.9052712 206.175785,52.6767578 205.460938,52.6767578 Z M210.901367,56.4208984 C210.901367,54.8915939 211.228024,53.6582078 211.881348,52.7207031 C212.534671,51.7831984 213.450189,51.3144531 214.62793,51.3144531 C215.184573,51.3144531 215.678221,51.4169912 216.108887,51.6220703 C216.539553,51.8271495 216.907225,52.1259746 217.211914,52.5185547 L217.211914,47.2890625 L218.943359,47.2890625 L218.943359,61 L217.52832,61 L217.326172,59.8310547 C217.015623,60.2763694 216.634768,60.6132801 216.183594,60.8417969 C215.73242,61.0703136 215.208011,61.1845703 214.610352,61.1845703 C213.45019,61.1845703 212.541995,60.7641644 211.885742,59.9233398 C211.229489,59.0825153 210.901367,57.9765694 210.901367,56.6054688 L210.901367,56.4208984 Z M212.632812,56.6054688 C212.632812,57.5664111 212.8291,58.3354463 213.22168,58.9125977 C213.61426,59.489749 214.223629,59.7783203 215.049805,59.7783203 C215.565432,59.7783203 215.999022,59.661134 216.350586,59.4267578 C216.70215,59.1923816 216.989257,58.8642599 217.211914,58.4423828 L217.211914,54.0039062 C216.989257,53.6113262 216.700685,53.2993176 216.346191,53.0678711 C215.991697,52.8364246 215.565432,52.7207031 215.067383,52.7207031 C214.235347,52.7207031 213.621584,53.0634731 213.226074,53.7490234 C212.830564,54.4345737 212.632812,55.3251898 212.632812,56.4208984 L212.632812,56.6054688 Z M225.59668,56.1572266 C225.59668,54.7509695 225.977535,53.5922897 226.739258,52.6811523 C227.50098,51.770015 228.53515,51.3144531 229.841797,51.3144531 C231.160163,51.3144531 232.201656,51.7685501 232.966309,52.6767578 C233.730961,53.5849655 234.113281,54.7451101 234.113281,56.1572266 L234.113281,56.3505859 C234.113281,57.7685618 233.732426,58.9287064 232.970703,59.8310547 C232.208981,60.7334029 231.171882,61.1845703 229.859375,61.1845703 C228.546868,61.1845703 227.508305,60.7319381 226.743652,59.8266602 C225.979,58.9213822 225.59668,57.7627024 225.59668,56.3505859 L225.59668,56.1572266 Z M227.328125,56.3505859 C227.328125,57.3584035 227.540525,58.1904264 227.965332,58.8466797 C228.390139,59.502933 229.02148,59.8310547 229.859375,59.8310547 C230.685551,59.8310547 231.312498,59.502933 231.740234,58.8466797 C232.167971,58.1904264 232.381836,57.3584035 232.381836,56.3505859 L232.381836,56.1572266 C232.381836,55.1611278 232.166506,54.3320346 231.73584,53.6699219 C231.305174,53.0078092 230.673832,52.6767578 229.841797,52.6767578 C229.015621,52.6767578 228.390139,53.0078092 227.965332,53.6699219 C227.540525,54.3320346 227.328125,55.1611278 227.328125,56.1572266 L227.328125,56.3505859 Z M242.269531,59.59375 C241.970702,60.1035182 241.586916,60.4960924 241.118164,60.7714844 C240.649412,61.0468764 240.107425,61.1845703 239.492188,61.1845703 C238.455073,61.1845703 237.646487,60.8535189 237.066406,60.1914062 C236.486325,59.5292936 236.196289,58.4980539 236.196289,57.0976562 L236.196289,51.4902344 L237.927734,51.4902344 L237.927734,57.1152344 C237.927734,58.1289113 238.077147,58.82617 238.375977,59.2070312 C238.674806,59.5878925 239.140622,59.7783203 239.773438,59.7783203 C240.388675,59.7783203 240.896971,59.6538098 241.29834,59.4047852 C241.699709,59.1557605 242.002929,58.8027367 242.208008,58.3457031 L242.208008,51.4902344 L243.939453,51.4902344 L243.939453,61 L242.383789,61 L242.269531,59.59375 Z M248.74707,49.1962891 L248.74707,51.4902344 L250.548828,51.4902344 L250.548828,52.7734375 L248.74707,52.7734375 L248.74707,58.5478516 C248.74707,58.9931663 248.839355,59.3066397 249.023926,59.4882812 C249.208497,59.6699228 249.453123,59.7607422 249.757812,59.7607422 C249.857422,59.7607422 249.967285,59.7490236 250.087402,59.7255859 C250.20752,59.7021483 250.314453,59.6728517 250.408203,59.6376953 L250.636719,60.8242188 C250.507812,60.929688 250.318849,61.0161129 250.069824,61.0834961 C249.8208,61.1508792 249.570314,61.1845703 249.318359,61.1845703 C248.615231,61.1845703 248.055666,60.9721701 247.639648,60.5473633 C247.223631,60.1225565 247.015625,59.4560592 247.015625,58.5478516 L247.015625,52.7734375 L245.503906,52.7734375 L245.503906,51.4902344 L247.015625,51.4902344 L247.015625,49.1962891 L248.74707,49.1962891 Z" id="Account-locked-out-Copy" fill="#456296"></path>
                <path d="M98.6621094,75.8046875 L100.888672,71.46875 L102.207031,71.46875 L99.2128906,77 L99.2128906,80 L98.0644531,80 L98.0644531,76.9238281 L95.1171875,71.46875 L96.4355469,71.46875 L98.6621094,75.8046875 Z M102.511719,76.7714844 C102.511719,75.8339797 102.765622,75.0615265 103.273438,74.4541016 C103.781253,73.8466767 104.470699,73.5429688 105.341797,73.5429688 C106.220708,73.5429688 106.915037,73.8457001 107.424805,74.4511719 C107.934573,75.0566437 108.189453,75.8300734 108.189453,76.7714844 L108.189453,76.9003906 C108.189453,77.8457079 107.935549,78.6191376 107.427734,79.2207031 C106.919919,79.8222686 106.22852,80.1230469 105.353516,80.1230469 C104.478511,80.1230469 103.786135,79.8212921 103.276367,79.2177734 C102.766599,78.6142548 102.511719,77.8418016 102.511719,76.9003906 L102.511719,76.7714844 Z M103.666016,76.9003906 C103.666016,77.572269 103.807616,78.1269509 104.09082,78.5644531 C104.374025,79.0019553 104.794919,79.2207031 105.353516,79.2207031 C105.9043,79.2207031 106.322264,79.0019553 106.607422,78.5644531 C106.89258,78.1269509 107.035156,77.572269 107.035156,76.9003906 L107.035156,76.7714844 C107.035156,76.1074186 106.891603,75.5546897 106.604492,75.1132812 C106.317381,74.6718728 105.896487,74.4511719 105.341797,74.4511719 C104.791013,74.4511719 104.374025,74.6718728 104.09082,75.1132812 C103.807616,75.5546897 103.666016,76.1074186 103.666016,76.7714844 L103.666016,76.9003906 Z M113.626953,79.0625 C113.427733,79.4023454 113.171877,79.6640616 112.859375,79.8476562 C112.546873,80.0312509 112.185549,80.1230469 111.775391,80.1230469 C111.083981,80.1230469 110.544924,79.902346 110.158203,79.4609375 C109.771482,79.019529 109.578125,78.3320359 109.578125,77.3984375 L109.578125,73.6601562 L110.732422,73.6601562 L110.732422,77.4101562 C110.732422,78.0859409 110.83203,78.55078 111.03125,78.8046875 C111.23047,79.058595 111.541014,79.1855469 111.962891,79.1855469 C112.373049,79.1855469 112.711913,79.1025399 112.979492,78.9365234 C113.247072,78.770507 113.449218,78.5351578 113.585938,78.2304688 L113.585938,73.6601562 L114.740234,73.6601562 L114.740234,80 L113.703125,80 L113.626953,79.0625 Z M120.558594,74.5097656 C120.777345,74.2050766 121.045897,73.9677743 121.364258,73.7978516 C121.682619,73.6279288 122.035154,73.5429688 122.421875,73.5429688 C123.09766,73.5429688 123.624022,73.7460917 124.000977,74.1523438 C124.377932,74.5585958 124.566406,75.1835895 124.566406,76.0273438 L124.566406,80 L123.412109,80 L123.412109,76.015625 C123.412109,75.4921849 123.299806,75.10547 123.075195,74.8554688 C122.850585,74.6054675 122.515627,74.4804688 122.070312,74.4804688 C121.749998,74.4804688 121.459962,74.5556633 121.200195,74.7060547 C120.940428,74.8564461 120.726563,75.0605456 120.558594,75.3183594 L120.558594,80 L119.404297,80 L119.404297,70.859375 L120.558594,70.859375 L120.558594,74.5097656 Z M130.121094,80 C130.082031,79.8085928 130.051758,79.6396492 130.030273,79.4931641 C130.008789,79.346679 129.996094,79.1992195 129.992188,79.0507812 C129.777343,79.3554703 129.497072,79.6103505 129.151367,79.8154297 C128.805662,80.0205088 128.433596,80.1230469 128.035156,80.1230469 C127.374997,80.1230469 126.872072,79.9541033 126.526367,79.6162109 C126.180662,79.2783186 126.007812,78.812503 126.007812,78.21875 C126.007812,77.6132782 126.252927,77.1396501 126.743164,76.7978516 C127.233401,76.456053 127.898433,76.2851562 128.738281,76.2851562 L129.992188,76.2851562 L129.992188,75.6582031 C129.992188,75.2871075 129.878907,74.9931651 129.652344,74.7763672 C129.42578,74.5595692 129.105471,74.4511719 128.691406,74.4511719 C128.320311,74.4511719 128.018556,74.5458975 127.786133,74.7353516 C127.55371,74.9248056 127.4375,75.1523424 127.4375,75.4179688 L126.335938,75.4179688 L126.324219,75.3828125 C126.300781,74.9218727 126.518552,74.5000019 126.977539,74.1171875 C127.436526,73.7343731 128.029293,73.5429688 128.755859,73.5429688 C129.474613,73.5429688 130.052732,73.7255841 130.490234,74.0908203 C130.927737,74.4560565 131.146484,74.9824184 131.146484,75.6699219 L131.146484,78.7226562 C131.146484,78.9492199 131.158203,79.1679677 131.181641,79.3789062 C131.205078,79.5898448 131.248047,79.796874 131.310547,80 L130.121094,80 Z M128.205078,79.15625 C128.623049,79.15625 128.999998,79.0488292 129.335938,78.8339844 C129.671877,78.6191396 129.890624,78.3730483 129.992188,78.0957031 L129.992188,77.0644531 L128.697266,77.0644531 C128.23242,77.0644531 127.860353,77.1816395 127.581055,77.4160156 C127.301756,77.6503918 127.162109,77.9257797 127.162109,78.2421875 C127.162109,78.5234389 127.249999,78.7460929 127.425781,78.9101562 C127.601563,79.0742196 127.861326,79.15625 128.205078,79.15625 Z M134.849609,78.1308594 L134.949219,78.5761719 L134.984375,78.5761719 L135.095703,78.1308594 L136.554688,73.6601562 L137.732422,73.6601562 L135.400391,80 L134.527344,80 L132.166016,73.6601562 L133.349609,73.6601562 L134.849609,78.1308594 Z M141.324219,80.1230469 C140.441402,80.1230469 139.73926,79.8291045 139.217773,79.2412109 C138.696286,78.6533174 138.435547,77.8906297 138.435547,76.953125 L138.435547,76.6953125 C138.435547,75.7929642 138.704099,75.0419952 139.241211,74.4423828 C139.778323,73.8427704 140.414059,73.5429688 141.148438,73.5429688 C142.003911,73.5429688 142.650388,73.8007787 143.087891,74.3164062 C143.525393,74.8320338 143.744141,75.519527 143.744141,76.3789062 L143.744141,77.0996094 L139.630859,77.0996094 L139.613281,77.1289062 C139.625,77.7382843 139.779295,78.2392558 140.076172,78.6318359 C140.373048,79.024416 140.78906,79.2207031 141.324219,79.2207031 C141.714846,79.2207031 142.057616,79.1650396 142.352539,79.0537109 C142.647462,78.9423823 142.902343,78.7890635 143.117188,78.59375 L143.568359,79.34375 C143.341796,79.5664074 143.042971,79.7519524 142.671875,79.9003906 C142.300779,80.0488289 141.851565,80.1230469 141.324219,80.1230469 Z M141.148438,74.4511719 C140.761717,74.4511719 140.431642,74.6142562 140.158203,74.9404297 C139.884764,75.2666032 139.716797,75.6757788 139.654297,76.1679688 L139.666016,76.1972656 L142.589844,76.1972656 L142.589844,76.0449219 C142.589844,75.5917946 142.468751,75.2128921 142.226562,74.9082031 C141.984374,74.6035141 141.625002,74.4511719 141.148438,74.4511719 Z M150.652344,80.1230469 C149.769527,80.1230469 149.067385,79.8291045 148.545898,79.2412109 C148.024411,78.6533174 147.763672,77.8906297 147.763672,76.953125 L147.763672,76.6953125 C147.763672,75.7929642 148.032224,75.0419952 148.569336,74.4423828 C149.106448,73.8427704 149.742184,73.5429688 150.476562,73.5429688 C151.332036,73.5429688 151.978513,73.8007787 152.416016,74.3164062 C152.853518,74.8320338 153.072266,75.519527 153.072266,76.3789062 L153.072266,77.0996094 L148.958984,77.0996094 L148.941406,77.1289062 C148.953125,77.7382843 149.10742,78.2392558 149.404297,78.6318359 C149.701173,79.024416 150.117185,79.2207031 150.652344,79.2207031 C151.042971,79.2207031 151.385741,79.1650396 151.680664,79.0537109 C151.975587,78.9423823 152.230468,78.7890635 152.445312,78.59375 L152.896484,79.34375 C152.669921,79.5664074 152.371096,79.7519524 152,79.9003906 C151.628904,80.0488289 151.17969,80.1230469 150.652344,80.1230469 Z M150.476562,74.4511719 C150.089842,74.4511719 149.759767,74.6142562 149.486328,74.9404297 C149.212889,75.2666032 149.044922,75.6757788 148.982422,76.1679688 L148.994141,76.1972656 L151.917969,76.1972656 L151.917969,76.0449219 C151.917969,75.5917946 151.796876,75.2128921 151.554688,74.9082031 C151.312499,74.6035141 150.953127,74.4511719 150.476562,74.4511719 Z M155.398438,73.6601562 L155.480469,74.6035156 C155.691407,74.2675764 155.956053,74.0068369 156.274414,73.8212891 C156.592775,73.6357413 156.955076,73.5429688 157.361328,73.5429688 C158.044925,73.5429688 158.574217,73.7431621 158.949219,74.1435547 C159.324221,74.5439473 159.511719,75.1621052 159.511719,75.9980469 L159.511719,80 L158.357422,80 L158.357422,76.0214844 C158.357422,75.4628878 158.247071,75.0664074 158.026367,74.8320312 C157.805663,74.5976551 157.468752,74.4804688 157.015625,74.4804688 C156.683592,74.4804688 156.38965,74.5605461 156.133789,74.7207031 C155.877928,74.8808602 155.673829,75.099608 155.521484,75.3769531 L155.521484,80 L154.367188,80 L154.367188,73.6601562 L155.398438,73.6601562 Z M162.710938,72.1308594 L162.710938,73.6601562 L163.912109,73.6601562 L163.912109,74.515625 L162.710938,74.515625 L162.710938,78.3652344 C162.710938,78.6621109 162.77246,78.8710931 162.895508,78.9921875 C163.018555,79.1132819 163.18164,79.1738281 163.384766,79.1738281 C163.451172,79.1738281 163.524414,79.1660157 163.604492,79.1503906 C163.684571,79.1347655 163.755859,79.1152345 163.818359,79.0917969 L163.970703,79.8828125 C163.884765,79.9531254 163.75879,80.010742 163.592773,80.0556641 C163.426757,80.1005862 163.259766,80.1230469 163.091797,80.1230469 C162.623045,80.1230469 162.250001,79.9814467 161.972656,79.6982422 C161.695311,79.4150376 161.556641,78.9707062 161.556641,78.3652344 L161.556641,74.515625 L160.548828,74.515625 L160.548828,73.6601562 L161.556641,73.6601562 L161.556641,72.1308594 L162.710938,72.1308594 Z M167.966797,80.1230469 C167.08398,80.1230469 166.381839,79.8291045 165.860352,79.2412109 C165.338865,78.6533174 165.078125,77.8906297 165.078125,76.953125 L165.078125,76.6953125 C165.078125,75.7929642 165.346677,75.0419952 165.883789,74.4423828 C166.420901,73.8427704 167.056637,73.5429688 167.791016,73.5429688 C168.646489,73.5429688 169.292967,73.8007787 169.730469,74.3164062 C170.167971,74.8320338 170.386719,75.519527 170.386719,76.3789062 L170.386719,77.0996094 L166.273438,77.0996094 L166.255859,77.1289062 C166.267578,77.7382843 166.421874,78.2392558 166.71875,78.6318359 C167.015626,79.024416 167.431638,79.2207031 167.966797,79.2207031 C168.357424,79.2207031 168.700194,79.1650396 168.995117,79.0537109 C169.290041,78.9423823 169.544921,78.7890635 169.759766,78.59375 L170.210938,79.34375 C169.984374,79.5664074 169.685549,79.7519524 169.314453,79.9003906 C168.943358,80.0488289 168.494143,80.1230469 167.966797,80.1230469 Z M167.791016,74.4511719 C167.404295,74.4511719 167.07422,74.6142562 166.800781,74.9404297 C166.527342,75.2666032 166.359375,75.6757788 166.296875,76.1679688 L166.308594,76.1972656 L169.232422,76.1972656 L169.232422,76.0449219 C169.232422,75.5917946 169.111329,75.2128921 168.869141,74.9082031 C168.626952,74.6035141 168.267581,74.4511719 167.791016,74.4511719 Z M174.681641,74.6796875 L174.089844,74.6445312 C173.785155,74.6445312 173.528321,74.7167962 173.319336,74.8613281 C173.110351,75.0058601 172.949219,75.2089831 172.835938,75.4707031 L172.835938,80 L171.681641,80 L171.681641,73.6601562 L172.712891,73.6601562 L172.824219,74.5859375 C173.003907,74.2578109 173.225585,74.001954 173.489258,73.8183594 C173.752931,73.6347647 174.056639,73.5429688 174.400391,73.5429688 C174.486329,73.5429688 174.568359,73.5498046 174.646484,73.5634766 C174.72461,73.5771485 174.789062,73.5917968 174.839844,73.6074219 L174.681641,74.6796875 Z M178.314453,80.1230469 C177.431636,80.1230469 176.729495,79.8291045 176.208008,79.2412109 C175.686521,78.6533174 175.425781,77.8906297 175.425781,76.953125 L175.425781,76.6953125 C175.425781,75.7929642 175.694333,75.0419952 176.231445,74.4423828 C176.768557,73.8427704 177.404293,73.5429688 178.138672,73.5429688 C178.994145,73.5429688 179.640623,73.8007787 180.078125,74.3164062 C180.515627,74.8320338 180.734375,75.519527 180.734375,76.3789062 L180.734375,77.0996094 L176.621094,77.0996094 L176.603516,77.1289062 C176.615234,77.7382843 176.76953,78.2392558 177.066406,78.6318359 C177.363283,79.024416 177.779294,79.2207031 178.314453,79.2207031 C178.70508,79.2207031 179.04785,79.1650396 179.342773,79.0537109 C179.637697,78.9423823 179.892577,78.7890635 180.107422,78.59375 L180.558594,79.34375 C180.33203,79.5664074 180.033205,79.7519524 179.662109,79.9003906 C179.291014,80.0488289 178.8418,80.1230469 178.314453,80.1230469 Z M178.138672,74.4511719 C177.751951,74.4511719 177.421876,74.6142562 177.148438,74.9404297 C176.874999,75.2666032 176.707032,75.6757788 176.644531,76.1679688 L176.65625,76.1972656 L179.580078,76.1972656 L179.580078,76.0449219 C179.580078,75.5917946 179.458986,75.2128921 179.216797,74.9082031 C178.974608,74.6035141 178.615237,74.4511719 178.138672,74.4511719 Z M181.765625,76.9472656 C181.765625,75.9277293 181.983396,75.1054719 182.418945,74.4804688 C182.854494,73.8554656 183.46484,73.5429688 184.25,73.5429688 C184.621096,73.5429688 184.950194,73.6113274 185.237305,73.7480469 C185.524415,73.8847663 185.76953,74.0839831 185.972656,74.3457031 L185.972656,70.859375 L187.126953,70.859375 L187.126953,80 L186.183594,80 L186.048828,79.2207031 C185.841796,79.5175796 185.587892,79.7421867 185.287109,79.8945312 C184.986327,80.0468758 184.636721,80.1230469 184.238281,80.1230469 C183.46484,80.1230469 182.859377,79.8427762 182.421875,79.2822266 C181.984373,78.7216769 181.765625,77.9843796 181.765625,77.0703125 L181.765625,76.9472656 Z M182.919922,77.0703125 C182.919922,77.7109407 183.05078,78.2236309 183.3125,78.6083984 C183.57422,78.993166 183.980466,79.1855469 184.53125,79.1855469 C184.875002,79.1855469 185.164061,79.1074227 185.398438,78.9511719 C185.632814,78.7949211 185.824218,78.5761733 185.972656,78.2949219 L185.972656,75.3359375 C185.824218,75.0742174 185.631837,74.8662117 185.395508,74.7119141 C185.159179,74.5576164 184.875002,74.4804688 184.542969,74.4804688 C183.988278,74.4804688 183.579103,74.7089821 183.31543,75.1660156 C183.051756,75.6230492 182.919922,76.2167932 182.919922,76.9472656 L182.919922,77.0703125 Z M195.728516,80 C195.689453,79.8085928 195.65918,79.6396492 195.637695,79.4931641 C195.616211,79.346679 195.603516,79.1992195 195.599609,79.0507812 C195.384765,79.3554703 195.104494,79.6103505 194.758789,79.8154297 C194.413084,80.0205088 194.041018,80.1230469 193.642578,80.1230469 C192.982419,80.1230469 192.479494,79.9541033 192.133789,79.6162109 C191.788084,79.2783186 191.615234,78.812503 191.615234,78.21875 C191.615234,77.6132782 191.860349,77.1396501 192.350586,76.7978516 C192.840823,76.456053 193.505855,76.2851562 194.345703,76.2851562 L195.599609,76.2851562 L195.599609,75.6582031 C195.599609,75.2871075 195.486329,74.9931651 195.259766,74.7763672 C195.033202,74.5595692 194.712893,74.4511719 194.298828,74.4511719 C193.927733,74.4511719 193.625978,74.5458975 193.393555,74.7353516 C193.161132,74.9248056 193.044922,75.1523424 193.044922,75.4179688 L191.943359,75.4179688 L191.931641,75.3828125 C191.908203,74.9218727 192.125974,74.5000019 192.584961,74.1171875 C193.043948,73.7343731 193.636715,73.5429688 194.363281,73.5429688 C195.082035,73.5429688 195.660154,73.7255841 196.097656,74.0908203 C196.535158,74.4560565 196.753906,74.9824184 196.753906,75.6699219 L196.753906,78.7226562 C196.753906,78.9492199 196.765625,79.1679677 196.789062,79.3789062 C196.8125,79.5898448 196.855468,79.796874 196.917969,80 L195.728516,80 Z M193.8125,79.15625 C194.230471,79.15625 194.60742,79.0488292 194.943359,78.8339844 C195.279299,78.6191396 195.498046,78.3730483 195.599609,78.0957031 L195.599609,77.0644531 L194.304688,77.0644531 C193.839841,77.0644531 193.467775,77.1816395 193.188477,77.4160156 C192.909178,77.6503918 192.769531,77.9257797 192.769531,78.2421875 C192.769531,78.5234389 192.857421,78.7460929 193.033203,78.9101562 C193.208985,79.0742196 193.468748,79.15625 193.8125,79.15625 Z M199.460938,73.6601562 L199.542969,74.6035156 C199.753907,74.2675764 200.018553,74.0068369 200.336914,73.8212891 C200.655275,73.6357413 201.017576,73.5429688 201.423828,73.5429688 C202.107425,73.5429688 202.636717,73.7431621 203.011719,74.1435547 C203.386721,74.5439473 203.574219,75.1621052 203.574219,75.9980469 L203.574219,80 L202.419922,80 L202.419922,76.0214844 C202.419922,75.4628878 202.309571,75.0664074 202.088867,74.8320312 C201.868163,74.5976551 201.531252,74.4804688 201.078125,74.4804688 C200.746092,74.4804688 200.45215,74.5605461 200.196289,74.7207031 C199.940428,74.8808602 199.736329,75.099608 199.583984,75.3769531 L199.583984,80 L198.429688,80 L198.429688,73.6601562 L199.460938,73.6601562 Z M209.480469,80 L208.326172,80 L208.326172,73.6601562 L209.480469,73.6601562 L209.480469,80 Z M209.480469,72.0371094 L208.326172,72.0371094 L208.326172,70.859375 L209.480469,70.859375 L209.480469,72.0371094 Z M212.287109,73.6601562 L212.369141,74.6035156 C212.580079,74.2675764 212.844725,74.0068369 213.163086,73.8212891 C213.481447,73.6357413 213.843748,73.5429688 214.25,73.5429688 C214.933597,73.5429688 215.462889,73.7431621 215.837891,74.1435547 C216.212893,74.5439473 216.400391,75.1621052 216.400391,75.9980469 L216.400391,80 L215.246094,80 L215.246094,76.0214844 C215.246094,75.4628878 215.135743,75.0664074 214.915039,74.8320312 C214.694335,74.5976551 214.357424,74.4804688 213.904297,74.4804688 C213.572264,74.4804688 213.278322,74.5605461 213.022461,74.7207031 C212.7666,74.8808602 212.562501,75.099608 212.410156,75.3769531 L212.410156,80 L211.255859,80 L211.255859,73.6601562 L212.287109,73.6601562 Z M220.654297,79.2207031 C221.037111,79.2207031 221.374022,79.1025402 221.665039,78.8662109 C221.956056,78.6298816 222.101562,78.3398455 222.101562,77.9960938 L223.138672,77.9960938 L223.150391,78.03125 C223.169922,78.5781277 222.92676,79.0634744 222.420898,79.4873047 C221.915037,79.9111349 221.326175,80.1230469 220.654297,80.1230469 C219.732417,80.1230469 219.027346,79.8222686 218.539062,79.2207031 C218.050779,78.6191376 217.806641,77.8632858 217.806641,76.953125 L217.806641,76.7070312 C217.806641,75.804683 218.051755,75.0517608 218.541992,74.4482422 C219.032229,73.8447235 219.736324,73.5429688 220.654297,73.5429688 C221.396488,73.5429688 222.002927,73.7617166 222.473633,74.1992188 C222.944338,74.6367209 223.171875,75.1738249 223.15625,75.8105469 L223.144531,75.8457031 L222.101562,75.8457031 C222.101562,75.4589824 221.964845,75.1298842 221.691406,74.8583984 C221.417967,74.5869127 221.072268,74.4511719 220.654297,74.4511719 C220.048825,74.4511719 219.616212,74.6689431 219.356445,75.1044922 C219.096678,75.5400412 218.966797,76.0742156 218.966797,76.7070312 L218.966797,76.953125 C218.966797,77.6015657 219.095702,78.1415994 219.353516,78.5732422 C219.611329,79.004885 220.044919,79.2207031 220.654297,79.2207031 Z M224.175781,76.7714844 C224.175781,75.8339797 224.429685,75.0615265 224.9375,74.4541016 C225.445315,73.8466767 226.134761,73.5429688 227.005859,73.5429688 C227.88477,73.5429688 228.579099,73.8457001 229.088867,74.4511719 C229.598635,75.0566437 229.853516,75.8300734 229.853516,76.7714844 L229.853516,76.9003906 C229.853516,77.8457079 229.599612,78.6191376 229.091797,79.2207031 C228.583982,79.8222686 227.892583,80.1230469 227.017578,80.1230469 C226.142574,80.1230469 225.450198,79.8212921 224.94043,79.2177734 C224.430662,78.6142548 224.175781,77.8418016 224.175781,76.9003906 L224.175781,76.7714844 Z M225.330078,76.9003906 C225.330078,77.572269 225.471678,78.1269509 225.754883,78.5644531 C226.038087,79.0019553 226.458982,79.2207031 227.017578,79.2207031 C227.568362,79.2207031 227.986327,79.0019553 228.271484,78.5644531 C228.556642,78.1269509 228.699219,77.572269 228.699219,76.9003906 L228.699219,76.7714844 C228.699219,76.1074186 228.555665,75.5546897 228.268555,75.1132812 C227.981444,74.6718728 227.56055,74.4511719 227.005859,74.4511719 C226.455075,74.4511719 226.038087,74.6718728 225.754883,75.1132812 C225.471678,75.5546897 225.330078,76.1074186 225.330078,76.7714844 L225.330078,76.9003906 Z M234.265625,74.6796875 L233.673828,74.6445312 C233.369139,74.6445312 233.112306,74.7167962 232.90332,74.8613281 C232.694335,75.0058601 232.533204,75.2089831 232.419922,75.4707031 L232.419922,80 L231.265625,80 L231.265625,73.6601562 L232.296875,73.6601562 L232.408203,74.5859375 C232.587892,74.2578109 232.809569,74.001954 233.073242,73.8183594 C233.336915,73.6347647 233.640623,73.5429688 233.984375,73.5429688 C234.070313,73.5429688 234.152343,73.5498046 234.230469,73.5634766 C234.308594,73.5771485 234.373047,73.5917968 234.423828,73.6074219 L234.265625,74.6796875 Z M238.378906,74.6796875 L237.787109,74.6445312 C237.48242,74.6445312 237.225587,74.7167962 237.016602,74.8613281 C236.807616,75.0058601 236.646485,75.2089831 236.533203,75.4707031 L236.533203,80 L235.378906,80 L235.378906,73.6601562 L236.410156,73.6601562 L236.521484,74.5859375 C236.701173,74.2578109 236.92285,74.001954 237.186523,73.8183594 C237.450197,73.6347647 237.753905,73.5429688 238.097656,73.5429688 C238.183594,73.5429688 238.265625,73.5498046 238.34375,73.5634766 C238.421875,73.5771485 238.486328,73.5917968 238.537109,73.6074219 L238.378906,74.6796875 Z M242.011719,80.1230469 C241.128902,80.1230469 240.42676,79.8291045 239.905273,79.2412109 C239.383786,78.6533174 239.123047,77.8906297 239.123047,76.953125 L239.123047,76.6953125 C239.123047,75.7929642 239.391599,75.0419952 239.928711,74.4423828 C240.465823,73.8427704 241.101559,73.5429688 241.835938,73.5429688 C242.691411,73.5429688 243.337888,73.8007787 243.775391,74.3164062 C244.212893,74.8320338 244.431641,75.519527 244.431641,76.3789062 L244.431641,77.0996094 L240.318359,77.0996094 L240.300781,77.1289062 C240.3125,77.7382843 240.466795,78.2392558 240.763672,78.6318359 C241.060548,79.024416 241.47656,79.2207031 242.011719,79.2207031 C242.402346,79.2207031 242.745116,79.1650396 243.040039,79.0537109 C243.334962,78.9423823 243.589843,78.7890635 243.804688,78.59375 L244.255859,79.34375 C244.029296,79.5664074 243.730471,79.7519524 243.359375,79.9003906 C242.988279,80.0488289 242.539065,80.1230469 242.011719,80.1230469 Z M241.835938,74.4511719 C241.449217,74.4511719 241.119142,74.6142562 240.845703,74.9404297 C240.572264,75.2666032 240.404297,75.6757788 240.341797,76.1679688 L240.353516,76.1972656 L243.277344,76.1972656 L243.277344,76.0449219 C243.277344,75.5917946 243.156251,75.2128921 242.914062,74.9082031 C242.671874,74.6035141 242.312502,74.4511719 241.835938,74.4511719 Z M248.304688,79.2207031 C248.687502,79.2207031 249.024413,79.1025402 249.31543,78.8662109 C249.606447,78.6298816 249.751953,78.3398455 249.751953,77.9960938 L250.789062,77.9960938 L250.800781,78.03125 C250.820313,78.5781277 250.577151,79.0634744 250.071289,79.4873047 C249.565427,79.9111349 248.976566,80.1230469 248.304688,80.1230469 C247.382808,80.1230469 246.677737,79.8222686 246.189453,79.2207031 C245.701169,78.6191376 245.457031,77.8632858 245.457031,76.953125 L245.457031,76.7070312 C245.457031,75.804683 245.702146,75.0517608 246.192383,74.4482422 C246.68262,73.8447235 247.386714,73.5429688 248.304688,73.5429688 C249.046879,73.5429688 249.653318,73.7617166 250.124023,74.1992188 C250.594729,74.6367209 250.822266,75.1738249 250.806641,75.8105469 L250.794922,75.8457031 L249.751953,75.8457031 C249.751953,75.4589824 249.615236,75.1298842 249.341797,74.8583984 C249.068358,74.5869127 248.722658,74.4511719 248.304688,74.4511719 C247.699216,74.4511719 247.266603,74.6689431 247.006836,75.1044922 C246.747069,75.5400412 246.617188,76.0742156 246.617188,76.7070312 L246.617188,76.953125 C246.617188,77.6015657 246.746092,78.1415994 247.003906,78.5732422 C247.26172,79.004885 247.695309,79.2207031 248.304688,79.2207031 Z M253.619141,72.1308594 L253.619141,73.6601562 L254.820312,73.6601562 L254.820312,74.515625 L253.619141,74.515625 L253.619141,78.3652344 C253.619141,78.6621109 253.680663,78.8710931 253.803711,78.9921875 C253.926758,79.1132819 254.089843,79.1738281 254.292969,79.1738281 C254.359375,79.1738281 254.432617,79.1660157 254.512695,79.1503906 C254.592774,79.1347655 254.664062,79.1152345 254.726562,79.0917969 L254.878906,79.8828125 C254.792968,79.9531254 254.666993,80.010742 254.500977,80.0556641 C254.33496,80.1005862 254.16797,80.1230469 254,80.1230469 C253.531248,80.1230469 253.158205,79.9814467 252.880859,79.6982422 C252.603514,79.4150376 252.464844,78.9707062 252.464844,78.3652344 L252.464844,74.515625 L251.457031,74.515625 L251.457031,73.6601562 L252.464844,73.6601562 L252.464844,72.1308594 L253.619141,72.1308594 Z M264.628906,77.0703125 C264.628906,77.9843796 264.410158,78.7216769 263.972656,79.2822266 C263.535154,79.8427762 262.931644,80.1230469 262.162109,80.1230469 C261.771482,80.1230469 261.428712,80.0576178 261.133789,79.9267578 C260.838866,79.7958978 260.587892,79.5996107 260.380859,79.3378906 L260.380859,82.4375 L259.226562,82.4375 L259.226562,73.6601562 L260.111328,73.6601562 L260.292969,74.4804688 C260.500001,74.1757797 260.757811,73.9433602 261.066406,73.7832031 C261.375002,73.6230461 261.734373,73.5429688 262.144531,73.5429688 C262.929691,73.5429688 263.540037,73.8544891 263.975586,74.4775391 C264.411135,75.1005891 264.628906,75.923823 264.628906,76.9472656 L264.628906,77.0703125 Z M263.474609,76.9472656 C263.474609,76.228512 263.333009,75.6376976 263.049805,75.1748047 C262.7666,74.7119117 262.349612,74.4804688 261.798828,74.4804688 C261.466795,74.4804688 261.183595,74.5556633 260.949219,74.7060547 C260.714843,74.8564461 260.525391,75.0624987 260.380859,75.3242188 L260.380859,78.3886719 C260.525391,78.6503919 260.714843,78.8544915 260.949219,79.0009766 C261.183595,79.1474617 261.470701,79.2207031 261.810547,79.2207031 C262.357425,79.2207031 262.771483,79.0205098 263.052734,78.6201172 C263.333986,78.2197246 263.474609,77.7031282 263.474609,77.0703125 L263.474609,76.9472656 Z M269.943359,80 C269.904297,79.8085928 269.874024,79.6396492 269.852539,79.4931641 C269.831055,79.346679 269.818359,79.1992195 269.814453,79.0507812 C269.599608,79.3554703 269.319338,79.6103505 268.973633,79.8154297 C268.627928,80.0205088 268.255861,80.1230469 267.857422,80.1230469 C267.197262,80.1230469 266.694338,79.9541033 266.348633,79.6162109 C266.002928,79.2783186 265.830078,78.812503 265.830078,78.21875 C265.830078,77.6132782 266.075193,77.1396501 266.56543,76.7978516 C267.055667,76.456053 267.720699,76.2851562 268.560547,76.2851562 L269.814453,76.2851562 L269.814453,75.6582031 C269.814453,75.2871075 269.701173,74.9931651 269.474609,74.7763672 C269.248046,74.5595692 268.927736,74.4511719 268.513672,74.4511719 C268.142576,74.4511719 267.840821,74.5458975 267.608398,74.7353516 C267.375975,74.9248056 267.259766,75.1523424 267.259766,75.4179688 L266.158203,75.4179688 L266.146484,75.3828125 C266.123047,74.9218727 266.340818,74.5000019 266.799805,74.1171875 C267.258791,73.7343731 267.851559,73.5429688 268.578125,73.5429688 C269.296879,73.5429688 269.874998,73.7255841 270.3125,74.0908203 C270.750002,74.4560565 270.96875,74.9824184 270.96875,75.6699219 L270.96875,78.7226562 C270.96875,78.9492199 270.980469,79.1679677 271.003906,79.3789062 C271.027344,79.5898448 271.070312,79.796874 271.132812,80 L269.943359,80 Z M268.027344,79.15625 C268.445315,79.15625 268.822264,79.0488292 269.158203,78.8339844 C269.494142,78.6191396 269.71289,78.3730483 269.814453,78.0957031 L269.814453,77.0644531 L268.519531,77.0644531 C268.054685,77.0644531 267.682619,77.1816395 267.40332,77.4160156 C267.124022,77.6503918 266.984375,77.9257797 266.984375,78.2421875 C266.984375,78.5234389 267.072265,78.7460929 267.248047,78.9101562 C267.423829,79.0742196 267.683592,79.15625 268.027344,79.15625 Z M276.330078,78.3183594 C276.330078,78.0644519 276.233399,77.8554696 276.040039,77.6914062 C275.846679,77.5273429 275.480471,77.3847662 274.941406,77.2636719 C274.171871,77.0957023 273.592775,76.8681655 273.204102,76.5810547 C272.815428,76.2939439 272.621094,75.9023462 272.621094,75.40625 C272.621094,74.8906224 272.839842,74.4511737 273.277344,74.0878906 C273.714846,73.7246076 274.285153,73.5429688 274.988281,73.5429688 C275.726566,73.5429688 276.313474,73.73242 276.749023,74.1113281 C277.184572,74.4902363 277.392578,74.9511692 277.373047,75.4941406 L277.361328,75.5292969 L276.259766,75.5292969 C276.259766,75.2519517 276.143556,75.0029308 275.911133,74.7822266 C275.67871,74.5615223 275.371096,74.4511719 274.988281,74.4511719 C274.578123,74.4511719 274.273438,74.5410147 274.074219,74.7207031 C273.874999,74.9003915 273.775391,75.1171862 273.775391,75.3710938 C273.775391,75.621095 273.86328,75.8183587 274.039062,75.9628906 C274.214845,76.1074226 274.572263,76.2363276 275.111328,76.3496094 C275.912113,76.5214852 276.507811,76.7548813 276.898438,77.0498047 C277.289064,77.344728 277.484375,77.7402319 277.484375,78.2363281 C277.484375,78.7988309 277.256838,79.2539045 276.801758,79.6015625 C276.346677,79.9492205 275.751957,80.1230469 275.017578,80.1230469 C274.20898,80.1230469 273.572268,79.9179708 273.107422,79.5078125 C272.642576,79.0976542 272.421875,78.6191434 272.445312,78.0722656 L272.457031,78.0371094 L273.558594,78.0371094 C273.578125,78.4472677 273.730467,78.7470694 274.015625,78.9365234 C274.300783,79.1259775 274.634764,79.2207031 275.017578,79.2207031 C275.427736,79.2207031 275.749022,79.1376961 275.981445,78.9716797 C276.213868,78.8056632 276.330078,78.587892 276.330078,78.3183594 Z M282.605469,78.3183594 C282.605469,78.0644519 282.50879,77.8554696 282.31543,77.6914062 C282.122069,77.5273429 281.755862,77.3847662 281.216797,77.2636719 C280.447262,77.0957023 279.868166,76.8681655 279.479492,76.5810547 C279.090818,76.2939439 278.896484,75.9023462 278.896484,75.40625 C278.896484,74.8906224 279.115232,74.4511737 279.552734,74.0878906 C279.990237,73.7246076 280.560543,73.5429688 281.263672,73.5429688 C282.001957,73.5429688 282.588865,73.73242 283.024414,74.1113281 C283.459963,74.4902363 283.667969,74.9511692 283.648438,75.4941406 L283.636719,75.5292969 L282.535156,75.5292969 C282.535156,75.2519517 282.418946,75.0029308 282.186523,74.7822266 C281.9541,74.5615223 281.646486,74.4511719 281.263672,74.4511719 C280.853514,74.4511719 280.548829,74.5410147 280.349609,74.7207031 C280.15039,74.9003915 280.050781,75.1171862 280.050781,75.3710938 C280.050781,75.621095 280.138671,75.8183587 280.314453,75.9628906 C280.490235,76.1074226 280.847654,76.2363276 281.386719,76.3496094 C282.187504,76.5214852 282.783201,76.7548813 283.173828,77.0498047 C283.564455,77.344728 283.759766,77.7402319 283.759766,78.2363281 C283.759766,78.7988309 283.532229,79.2539045 283.077148,79.6015625 C282.622068,79.9492205 282.027347,80.1230469 281.292969,80.1230469 C280.484371,80.1230469 279.847659,79.9179708 279.382812,79.5078125 C278.917966,79.0976542 278.697266,78.6191434 278.720703,78.0722656 L278.732422,78.0371094 L279.833984,78.0371094 C279.853516,78.4472677 280.005858,78.7470694 280.291016,78.9365234 C280.576173,79.1259775 280.910154,79.2207031 281.292969,79.2207031 C281.703127,79.2207031 282.024413,79.1376961 282.256836,78.9716797 C282.489259,78.8056632 282.605469,78.587892 282.605469,78.3183594 Z M286.818359,77.6914062 L286.953125,78.4589844 L286.988281,78.4589844 L287.152344,77.6914062 L288.417969,73.6601562 L289.34375,73.6601562 L290.615234,77.6914062 L290.796875,78.546875 L290.832031,78.546875 L291.001953,77.6914062 L291.998047,73.6601562 L293.146484,73.6601562 L291.306641,80 L290.375,80 L289.150391,76.1386719 L288.886719,75.0605469 L288.851562,75.0664062 L288.599609,76.1386719 L287.392578,80 L286.460938,80 L284.621094,73.6601562 L285.769531,73.6601562 L286.818359,77.6914062 Z M294.007812,76.7714844 C294.007812,75.8339797 294.261716,75.0615265 294.769531,74.4541016 C295.277346,73.8466767 295.966793,73.5429688 296.837891,73.5429688 C297.716801,73.5429688 298.41113,73.8457001 298.920898,74.4511719 C299.430667,75.0566437 299.685547,75.8300734 299.685547,76.7714844 L299.685547,76.9003906 C299.685547,77.8457079 299.431643,78.6191376 298.923828,79.2207031 C298.416013,79.8222686 297.724614,80.1230469 296.849609,80.1230469 C295.974605,80.1230469 295.282229,79.8212921 294.772461,79.2177734 C294.262693,78.6142548 294.007812,77.8418016 294.007812,76.9003906 L294.007812,76.7714844 Z M295.162109,76.9003906 C295.162109,77.572269 295.30371,78.1269509 295.586914,78.5644531 C295.870119,79.0019553 296.291013,79.2207031 296.849609,79.2207031 C297.400393,79.2207031 297.818358,79.0019553 298.103516,78.5644531 C298.388673,78.1269509 298.53125,77.572269 298.53125,76.9003906 L298.53125,76.7714844 C298.53125,76.1074186 298.387697,75.5546897 298.100586,75.1132812 C297.813475,74.6718728 297.392581,74.4511719 296.837891,74.4511719 C296.287107,74.4511719 295.870119,74.6718728 295.586914,75.1132812 C295.30371,75.5546897 295.162109,76.1074186 295.162109,76.7714844 L295.162109,76.9003906 Z M304.097656,74.6796875 L303.505859,74.6445312 C303.20117,74.6445312 302.944337,74.7167962 302.735352,74.8613281 C302.526366,75.0058601 302.365235,75.2089831 302.251953,75.4707031 L302.251953,80 L301.097656,80 L301.097656,73.6601562 L302.128906,73.6601562 L302.240234,74.5859375 C302.419923,74.2578109 302.6416,74.001954 302.905273,73.8183594 C303.168947,73.6347647 303.472655,73.5429688 303.816406,73.5429688 C303.902344,73.5429688 303.984375,73.5498046 304.0625,73.5634766 C304.140625,73.5771485 304.205078,73.5917968 304.255859,73.6074219 L304.097656,74.6796875 Z M304.835938,76.9472656 C304.835938,75.9277293 305.053709,75.1054719 305.489258,74.4804688 C305.924807,73.8554656 306.535152,73.5429688 307.320312,73.5429688 C307.691408,73.5429688 308.020506,73.6113274 308.307617,73.7480469 C308.594728,73.8847663 308.839843,74.0839831 309.042969,74.3457031 L309.042969,70.859375 L310.197266,70.859375 L310.197266,80 L309.253906,80 L309.119141,79.2207031 C308.912108,79.5175796 308.658205,79.7421867 308.357422,79.8945312 C308.056639,80.0468758 307.707033,80.1230469 307.308594,80.1230469 C306.535152,80.1230469 305.92969,79.8427762 305.492188,79.2822266 C305.054685,78.7216769 304.835938,77.9843796 304.835938,77.0703125 L304.835938,76.9472656 Z M305.990234,77.0703125 C305.990234,77.7109407 306.121092,78.2236309 306.382812,78.6083984 C306.644533,78.993166 307.050778,79.1855469 307.601562,79.1855469 C307.945314,79.1855469 308.234374,79.1074227 308.46875,78.9511719 C308.703126,78.7949211 308.894531,78.5761733 309.042969,78.2949219 L309.042969,75.3359375 C308.894531,75.0742174 308.70215,74.8662117 308.46582,74.7119141 C308.229491,74.5576164 307.945314,74.4804688 307.613281,74.4804688 C307.058591,74.4804688 306.649415,74.7089821 306.385742,75.1660156 C306.122069,75.6230492 305.990234,76.2167932 305.990234,76.9472656 L305.990234,77.0703125 Z M315.089844,76.1503906 L315.582031,71.46875 L319.853516,71.46875 L319.853516,72.4941406 L316.560547,72.4941406 L316.279297,74.890625 C316.458985,74.7578118 316.659179,74.6474614 316.879883,74.5595703 C317.100587,74.4716792 317.355467,74.4238282 317.644531,74.4160156 C318.429691,74.4082031 319.047849,74.6640599 319.499023,75.1835938 C319.950198,75.7031276 320.175781,76.4023394 320.175781,77.28125 C320.175781,78.136723 319.946291,78.8242162 319.487305,79.34375 C319.028318,79.8632838 318.359379,80.1230469 317.480469,80.1230469 C316.757809,80.1230469 316.156252,79.9257832 315.675781,79.53125 C315.19531,79.1367168 314.964844,78.5566445 314.984375,77.7910156 L314.996094,77.7558594 L316.039062,77.7558594 C316.039062,78.2207054 316.17285,78.5810534 316.44043,78.8369141 C316.708009,79.0927747 317.054685,79.2207031 317.480469,79.2207031 C317.968752,79.2207031 318.347655,79.0488298 318.617188,78.7050781 C318.88672,78.3613264 319.021484,77.890628 319.021484,77.2929688 C319.021484,76.746091 318.884767,76.2968768 318.611328,75.9453125 C318.337889,75.5937482 317.96094,75.4179688 317.480469,75.4179688 C317.027341,75.4179688 316.69922,75.4863274 316.496094,75.6230469 C316.292968,75.7597663 316.144532,75.9687486 316.050781,76.25 L315.089844,76.1503906 Z M326.164062,72.1308594 L326.164062,73.6601562 L327.365234,73.6601562 L327.365234,74.515625 L326.164062,74.515625 L326.164062,78.3652344 C326.164062,78.6621109 326.225585,78.8710931 326.348633,78.9921875 C326.47168,79.1132819 326.634765,79.1738281 326.837891,79.1738281 C326.904297,79.1738281 326.977539,79.1660157 327.057617,79.1503906 C327.137696,79.1347655 327.208984,79.1152345 327.271484,79.0917969 L327.423828,79.8828125 C327.33789,79.9531254 327.211915,80.010742 327.045898,80.0556641 C326.879882,80.1005862 326.712891,80.1230469 326.544922,80.1230469 C326.07617,80.1230469 325.703126,79.9814467 325.425781,79.6982422 C325.148436,79.4150376 325.009766,78.9707062 325.009766,78.3652344 L325.009766,74.515625 L324.001953,74.515625 L324.001953,73.6601562 L325.009766,73.6601562 L325.009766,72.1308594 L326.164062,72.1308594 Z M330.037109,80 L328.882812,80 L328.882812,73.6601562 L330.037109,73.6601562 L330.037109,80 Z M330.037109,72.0371094 L328.882812,72.0371094 L328.882812,70.859375 L330.037109,70.859375 L330.037109,72.0371094 Z M332.84375,73.6601562 L332.925781,74.4921875 C333.132814,74.1914047 333.395506,73.9580086 333.713867,73.7919922 C334.032228,73.6259757 334.402342,73.5429688 334.824219,73.5429688 C335.246096,73.5429688 335.608397,73.640624 335.911133,73.8359375 C336.213869,74.031251 336.441405,74.3242168 336.59375,74.7148438 C336.79297,74.355467 337.056639,74.0703136 337.384766,73.859375 C337.712892,73.6484364 338.095701,73.5429688 338.533203,73.5429688 C339.177738,73.5429688 339.687498,73.7646462 340.0625,74.2080078 C340.437502,74.6513694 340.625,75.3183549 340.625,76.2089844 L340.625,80 L339.470703,80 L339.470703,76.1972656 C339.470703,75.5722625 339.363282,75.1298841 339.148438,74.8701172 C338.933593,74.6103503 338.613283,74.4804688 338.1875,74.4804688 C337.792967,74.4804688 337.473634,74.6171861 337.229492,74.890625 C336.98535,75.1640639 336.841797,75.5097635 336.798828,75.9277344 L336.798828,80 L335.638672,80 L335.638672,76.1972656 C335.638672,75.6035127 335.528321,75.1689467 335.307617,74.8935547 C335.086913,74.6181627 334.769533,74.4804688 334.355469,74.4804688 C334.003904,74.4804688 333.714845,74.5527337 333.488281,74.6972656 C333.261718,74.8417976 333.087891,75.0449206 332.966797,75.3066406 L332.966797,80 L331.8125,80 L331.8125,73.6601562 L332.84375,73.6601562 Z M344.931641,80.1230469 C344.048824,80.1230469 343.346682,79.8291045 342.825195,79.2412109 C342.303708,78.6533174 342.042969,77.8906297 342.042969,76.953125 L342.042969,76.6953125 C342.042969,75.7929642 342.311521,75.0419952 342.848633,74.4423828 C343.385745,73.8427704 344.021481,73.5429688 344.755859,73.5429688 C345.611332,73.5429688 346.25781,73.8007787 346.695312,74.3164062 C347.132815,74.8320338 347.351562,75.519527 347.351562,76.3789062 L347.351562,77.0996094 L343.238281,77.0996094 L343.220703,77.1289062 C343.232422,77.7382843 343.386717,78.2392558 343.683594,78.6318359 C343.98047,79.024416 344.396482,79.2207031 344.931641,79.2207031 C345.322268,79.2207031 345.665038,79.1650396 345.959961,79.0537109 C346.254884,78.9423823 346.509765,78.7890635 346.724609,78.59375 L347.175781,79.34375 C346.949218,79.5664074 346.650392,79.7519524 346.279297,79.9003906 C345.908201,80.0488289 345.458987,80.1230469 344.931641,80.1230469 Z M344.755859,74.4511719 C344.369139,74.4511719 344.039064,74.6142562 343.765625,74.9404297 C343.492186,75.2666032 343.324219,75.6757788 343.261719,76.1679688 L343.273438,76.1972656 L346.197266,76.1972656 L346.197266,76.0449219 C346.197266,75.5917946 346.076173,75.2128921 345.833984,74.9082031 C345.591796,74.6035141 345.232424,74.4511719 344.755859,74.4511719 Z M352.332031,78.3183594 C352.332031,78.0644519 352.235353,77.8554696 352.041992,77.6914062 C351.848632,77.5273429 351.482425,77.3847662 350.943359,77.2636719 C350.173824,77.0957023 349.594729,76.8681655 349.206055,76.5810547 C348.817381,76.2939439 348.623047,75.9023462 348.623047,75.40625 C348.623047,74.8906224 348.841795,74.4511737 349.279297,74.0878906 C349.716799,73.7246076 350.287106,73.5429688 350.990234,73.5429688 C351.728519,73.5429688 352.315428,73.73242 352.750977,74.1113281 C353.186526,74.4902363 353.394531,74.9511692 353.375,75.4941406 L353.363281,75.5292969 L352.261719,75.5292969 C352.261719,75.2519517 352.145509,75.0029308 351.913086,74.7822266 C351.680663,74.5615223 351.373049,74.4511719 350.990234,74.4511719 C350.580076,74.4511719 350.275392,74.5410147 350.076172,74.7207031 C349.876952,74.9003915 349.777344,75.1171862 349.777344,75.3710938 C349.777344,75.621095 349.865233,75.8183587 350.041016,75.9628906 C350.216798,76.1074226 350.574216,76.2363276 351.113281,76.3496094 C351.914067,76.5214852 352.509764,76.7548813 352.900391,77.0498047 C353.291018,77.344728 353.486328,77.7402319 353.486328,78.2363281 C353.486328,78.7988309 353.258791,79.2539045 352.803711,79.6015625 C352.348631,79.9492205 351.75391,80.1230469 351.019531,80.1230469 C350.210933,80.1230469 349.574221,79.9179708 349.109375,79.5078125 C348.644529,79.0976542 348.423828,78.6191434 348.447266,78.0722656 L348.458984,78.0371094 L349.560547,78.0371094 C349.580078,78.4472677 349.73242,78.7470694 350.017578,78.9365234 C350.302736,79.1259775 350.636717,79.2207031 351.019531,79.2207031 C351.42969,79.2207031 351.750975,79.1376961 351.983398,78.9716797 C352.215821,78.8056632 352.332031,78.587892 352.332031,78.3183594 Z M355.929688,79.71875 L355.050781,81.5117188 L354.365234,81.5117188 L354.775391,79.6601562 L354.775391,78.7050781 L355.929688,78.7050781 L355.929688,79.71875 Z M98.4160156,97.2207031 C98.79883,97.2207031 99.1357407,97.1025402 99.4267578,96.8662109 C99.7177749,96.6298816 99.8632812,96.3398455 99.8632812,95.9960938 L100.900391,95.9960938 L100.912109,96.03125 C100.931641,96.5781277 100.688479,97.0634744 100.182617,97.4873047 C99.6767553,97.9111349 99.087894,98.1230469 98.4160156,98.1230469 C97.494136,98.1230469 96.7890649,97.8222686 96.3007812,97.2207031 C95.8124976,96.6191376 95.5683594,95.8632858 95.5683594,94.953125 L95.5683594,94.7070312 C95.5683594,93.804683 95.8134741,93.0517608 96.3037109,92.4482422 C96.7939478,91.8447235 97.4980423,91.5429688 98.4160156,91.5429688 C99.1582068,91.5429688 99.7646461,91.7617166 100.235352,92.1992188 C100.706057,92.6367209 100.933594,93.1738249 100.917969,93.8105469 L100.90625,93.8457031 L99.8632812,93.8457031 C99.8632812,93.4589824 99.7265639,93.1298842 99.453125,92.8583984 C99.1796861,92.5869127 98.8339865,92.4511719 98.4160156,92.4511719 C97.8105438,92.4511719 97.377931,92.6689431 97.1181641,93.1044922 C96.8583971,93.5400412 96.7285156,94.0742156 96.7285156,94.7070312 L96.7285156,94.953125 C96.7285156,95.6015657 96.8574206,96.1415994 97.1152344,96.5732422 C97.3730482,97.004885 97.8066376,97.2207031 98.4160156,97.2207031 Z M106.103516,98 C106.064453,97.8085928 106.03418,97.6396492 106.012695,97.4931641 C105.991211,97.346679 105.978516,97.1992195 105.974609,97.0507812 C105.759765,97.3554703 105.479494,97.6103505 105.133789,97.8154297 C104.788084,98.0205088 104.416018,98.1230469 104.017578,98.1230469 C103.357419,98.1230469 102.854494,97.9541033 102.508789,97.6162109 C102.163084,97.2783186 101.990234,96.812503 101.990234,96.21875 C101.990234,95.6132782 102.235349,95.1396501 102.725586,94.7978516 C103.215823,94.456053 103.880855,94.2851562 104.720703,94.2851562 L105.974609,94.2851562 L105.974609,93.6582031 C105.974609,93.2871075 105.861329,92.9931651 105.634766,92.7763672 C105.408202,92.5595692 105.087893,92.4511719 104.673828,92.4511719 C104.302733,92.4511719 104.000978,92.5458975 103.768555,92.7353516 C103.536132,92.9248056 103.419922,93.1523424 103.419922,93.4179688 L102.318359,93.4179688 L102.306641,93.3828125 C102.283203,92.9218727 102.500974,92.5000019 102.959961,92.1171875 C103.418948,91.7343731 104.011715,91.5429688 104.738281,91.5429688 C105.457035,91.5429688 106.035154,91.7255841 106.472656,92.0908203 C106.910158,92.4560565 107.128906,92.9824184 107.128906,93.6699219 L107.128906,96.7226562 C107.128906,96.9492199 107.140625,97.1679677 107.164062,97.3789062 C107.1875,97.5898448 107.230468,97.796874 107.292969,98 L106.103516,98 Z M104.1875,97.15625 C104.605471,97.15625 104.98242,97.0488292 105.318359,96.8339844 C105.654299,96.6191396 105.873046,96.3730483 105.974609,96.0957031 L105.974609,95.0644531 L104.679688,95.0644531 C104.214841,95.0644531 103.842775,95.1816395 103.563477,95.4160156 C103.284178,95.6503918 103.144531,95.9257797 103.144531,96.2421875 C103.144531,96.5234389 103.232421,96.7460929 103.408203,96.9101562 C103.583985,97.0742196 103.843748,97.15625 104.1875,97.15625 Z M109.835938,91.6601562 L109.917969,92.6035156 C110.128907,92.2675764 110.393553,92.0068369 110.711914,91.8212891 C111.030275,91.6357413 111.392576,91.5429688 111.798828,91.5429688 C112.482425,91.5429688 113.011717,91.7431621 113.386719,92.1435547 C113.761721,92.5439473 113.949219,93.1621052 113.949219,93.9980469 L113.949219,98 L112.794922,98 L112.794922,94.0214844 C112.794922,93.4628878 112.684571,93.0664074 112.463867,92.8320312 C112.243163,92.5976551 111.906252,92.4804688 111.453125,92.4804688 C111.121092,92.4804688 110.82715,92.5605461 110.571289,92.7207031 C110.315428,92.8808602 110.111329,93.099608 109.958984,93.3769531 L109.958984,98 L108.804688,98 L108.804688,91.6601562 L109.835938,91.6601562 Z M116.65625,91.6601562 L116.738281,92.6035156 C116.94922,92.2675764 117.213866,92.0068369 117.532227,91.8212891 C117.850588,91.6357413 118.212889,91.5429688 118.619141,91.5429688 C119.302738,91.5429688 119.832029,91.7431621 120.207031,92.1435547 C120.582033,92.5439473 120.769531,93.1621052 120.769531,93.9980469 L120.769531,98 L119.615234,98 L119.615234,94.0214844 C119.615234,93.4628878 119.504884,93.0664074 119.28418,92.8320312 C119.063475,92.5976551 118.726565,92.4804688 118.273438,92.4804688 C117.941405,92.4804688 117.647462,92.5605461 117.391602,92.7207031 C117.135741,92.8808602 116.931641,93.099608 116.779297,93.3769531 L116.779297,98 L115.625,98 L115.625,91.6601562 L116.65625,91.6601562 Z M122.175781,94.7714844 C122.175781,93.8339797 122.429685,93.0615265 122.9375,92.4541016 C123.445315,91.8466767 124.134761,91.5429688 125.005859,91.5429688 C125.88477,91.5429688 126.579099,91.8457001 127.088867,92.4511719 C127.598635,93.0566437 127.853516,93.8300734 127.853516,94.7714844 L127.853516,94.9003906 C127.853516,95.8457079 127.599612,96.6191376 127.091797,97.2207031 C126.583982,97.8222686 125.892583,98.1230469 125.017578,98.1230469 C124.142574,98.1230469 123.450198,97.8212921 122.94043,97.2177734 C122.430662,96.6142548 122.175781,95.8418016 122.175781,94.9003906 L122.175781,94.7714844 Z M123.330078,94.9003906 C123.330078,95.572269 123.471678,96.1269509 123.754883,96.5644531 C124.038087,97.0019553 124.458982,97.2207031 125.017578,97.2207031 C125.568362,97.2207031 125.986327,97.0019553 126.271484,96.5644531 C126.556642,96.1269509 126.699219,95.572269 126.699219,94.9003906 L126.699219,94.7714844 C126.699219,94.1074186 126.555665,93.5546897 126.268555,93.1132812 C125.981444,92.6718728 125.56055,92.4511719 125.005859,92.4511719 C124.455075,92.4511719 124.038087,92.6718728 123.754883,93.1132812 C123.471678,93.5546897 123.330078,94.1074186 123.330078,94.7714844 L123.330078,94.9003906 Z M130.789062,90.1308594 L130.789062,91.6601562 L131.990234,91.6601562 L131.990234,92.515625 L130.789062,92.515625 L130.789062,96.3652344 C130.789062,96.6621109 130.850585,96.8710931 130.973633,96.9921875 C131.09668,97.1132819 131.259765,97.1738281 131.462891,97.1738281 C131.529297,97.1738281 131.602539,97.1660157 131.682617,97.1503906 C131.762696,97.1347655 131.833984,97.1152345 131.896484,97.0917969 L132.048828,97.8828125 C131.96289,97.9531254 131.836915,98.010742 131.670898,98.0556641 C131.504882,98.1005862 131.337891,98.1230469 131.169922,98.1230469 C130.70117,98.1230469 130.328126,97.9814467 130.050781,97.6982422 C129.773436,97.4150376 129.634766,96.9707062 129.634766,96.3652344 L129.634766,92.515625 L128.626953,92.515625 L128.626953,91.6601562 L129.634766,91.6601562 L129.634766,90.1308594 L130.789062,90.1308594 Z M141.810547,95.0703125 C141.810547,95.9843796 141.590823,96.7216769 141.151367,97.2822266 C140.711912,97.8427762 140.107426,98.1230469 139.337891,98.1230469 C138.91992,98.1230469 138.556642,98.041993 138.248047,97.8798828 C137.939452,97.7177726 137.683595,97.4785172 137.480469,97.1621094 L137.339844,98 L136.396484,98 L136.396484,88.859375 L137.550781,88.859375 L137.550781,92.4101562 C137.750001,92.1289048 137.997069,91.9140632 138.291992,91.765625 C138.586916,91.6171868 138.931639,91.5429688 139.326172,91.5429688 C140.107426,91.5429688 140.716795,91.8554656 141.154297,92.4804688 C141.591799,93.1054719 141.810547,93.9277293 141.810547,94.9472656 L141.810547,95.0703125 Z M140.65625,94.9472656 C140.65625,94.2206995 140.522462,93.627932 140.254883,93.1689453 C139.987303,92.7099586 139.580081,92.4804688 139.033203,92.4804688 C138.677733,92.4804688 138.377931,92.5673819 138.133789,92.7412109 C137.889647,92.9150399 137.695313,93.148436 137.550781,93.4414062 L137.550781,96.1894531 C137.699219,96.5019547 137.893553,96.7460929 138.133789,96.921875 C138.374025,97.0976571 138.677733,97.1855469 139.044922,97.1855469 C139.587893,97.1855469 139.992186,96.9921894 140.257812,96.6054688 C140.523439,96.2187481 140.65625,95.7070344 140.65625,95.0703125 L140.65625,94.9472656 Z M145.847656,98.1230469 C144.964839,98.1230469 144.262698,97.8291045 143.741211,97.2412109 C143.219724,96.6533174 142.958984,95.8906297 142.958984,94.953125 L142.958984,94.6953125 C142.958984,93.7929642 143.227536,93.0419952 143.764648,92.4423828 C144.30176,91.8427704 144.937496,91.5429688 145.671875,91.5429688 C146.527348,91.5429688 147.173826,91.8007787 147.611328,92.3164062 C148.04883,92.8320338 148.267578,93.519527 148.267578,94.3789062 L148.267578,95.0996094 L144.154297,95.0996094 L144.136719,95.1289062 C144.148438,95.7382843 144.302733,96.2392558 144.599609,96.6318359 C144.896486,97.024416 145.312497,97.2207031 145.847656,97.2207031 C146.238283,97.2207031 146.581053,97.1650396 146.875977,97.0537109 C147.1709,96.9423823 147.42578,96.7890635 147.640625,96.59375 L148.091797,97.34375 C147.865233,97.5664074 147.566408,97.7519524 147.195312,97.9003906 C146.824217,98.0488289 146.375003,98.1230469 145.847656,98.1230469 Z M145.671875,92.4511719 C145.285154,92.4511719 144.955079,92.6142562 144.681641,92.9404297 C144.408202,93.2666032 144.240235,93.6757788 144.177734,94.1679688 L144.189453,94.1972656 L147.113281,94.1972656 L147.113281,94.0449219 C147.113281,93.5917946 146.992189,93.2128921 146.75,92.9082031 C146.507811,92.6035141 146.14844,92.4511719 145.671875,92.4511719 Z M153.792969,98 L152.638672,98 L152.638672,88.859375 L153.792969,88.859375 L153.792969,98 Z M155.298828,94.7714844 C155.298828,93.8339797 155.552732,93.0615265 156.060547,92.4541016 C156.568362,91.8466767 157.257808,91.5429688 158.128906,91.5429688 C159.007817,91.5429688 159.702146,91.8457001 160.211914,92.4511719 C160.721682,93.0566437 160.976562,93.8300734 160.976562,94.7714844 L160.976562,94.9003906 C160.976562,95.8457079 160.722659,96.6191376 160.214844,97.2207031 C159.707029,97.8222686 159.015629,98.1230469 158.140625,98.1230469 C157.265621,98.1230469 156.573245,97.8212921 156.063477,97.2177734 C155.553708,96.6142548 155.298828,95.8418016 155.298828,94.9003906 L155.298828,94.7714844 Z M156.453125,94.9003906 C156.453125,95.572269 156.594725,96.1269509 156.87793,96.5644531 C157.161134,97.0019553 157.582028,97.2207031 158.140625,97.2207031 C158.691409,97.2207031 159.109374,97.0019553 159.394531,96.5644531 C159.679689,96.1269509 159.822266,95.572269 159.822266,94.9003906 L159.822266,94.7714844 C159.822266,94.1074186 159.678712,93.5546897 159.391602,93.1132812 C159.104491,92.6718728 158.683597,92.4511719 158.128906,92.4511719 C157.578122,92.4511719 157.161134,92.6718728 156.87793,93.1132812 C156.594725,93.5546897 156.453125,94.1074186 156.453125,94.7714844 L156.453125,94.9003906 Z M162.136719,94.9472656 C162.136719,93.9277293 162.359373,93.1054719 162.804688,92.4804688 C163.250002,91.8554656 163.86523,91.5429688 164.650391,91.5429688 C165.052736,91.5429688 165.406248,91.6240226 165.710938,91.7861328 C166.015627,91.948243 166.26953,92.1816391 166.472656,92.4863281 L166.613281,91.6601562 L167.533203,91.6601562 L167.533203,98.0351562 C167.533203,98.8476603 167.296877,99.4716775 166.824219,99.9072266 C166.35156,100.342776 165.669926,100.560547 164.779297,100.560547 C164.474608,100.560547 164.14551,100.518555 163.791992,100.43457 C163.438475,100.350586 163.126954,100.236329 162.857422,100.091797 L163.150391,99.1953125 C163.357423,99.3125006 163.60742,99.4072262 163.900391,99.4794922 C164.193361,99.5517582 164.48242,99.5878906 164.767578,99.5878906 C165.330081,99.5878906 165.739257,99.4599622 165.995117,99.2041016 C166.250978,98.9482409 166.378906,98.5585964 166.378906,98.0351562 L166.378906,97.3203125 C166.171874,97.5859388 165.92383,97.7861321 165.634766,97.9208984 C165.345702,98.0556647 165.013674,98.1230469 164.638672,98.1230469 C163.861324,98.1230469 163.250002,97.8417997 162.804688,97.2792969 C162.359373,96.7167941 162.136719,95.9804733 162.136719,95.0703125 L162.136719,94.9472656 Z M163.291016,95.0703125 C163.291016,95.7070344 163.42578,96.2187481 163.695312,96.6054688 C163.964845,96.9921894 164.374997,97.1855469 164.925781,97.1855469 C165.273439,97.1855469 165.564452,97.1064461 165.798828,96.9482422 C166.033204,96.7900383 166.226562,96.5664077 166.378906,96.2773438 L166.378906,93.359375 C166.230468,93.0898424 166.037111,92.8759774 165.798828,92.7177734 C165.560546,92.5595695 165.273439,92.4804688 164.9375,92.4804688 C164.386716,92.4804688 163.974611,92.7109352 163.701172,93.171875 C163.427733,93.6328148 163.291016,94.2246058 163.291016,94.9472656 L163.291016,95.0703125 Z M171.921875,94.7714844 C171.921875,93.8339797 172.175779,93.0615265 172.683594,92.4541016 C173.191409,91.8466767 173.880855,91.5429688 174.751953,91.5429688 C175.630864,91.5429688 176.325193,91.8457001 176.834961,92.4511719 C177.344729,93.0566437 177.599609,93.8300734 177.599609,94.7714844 L177.599609,94.9003906 C177.599609,95.8457079 177.345706,96.6191376 176.837891,97.2207031 C176.330076,97.8222686 175.638676,98.1230469 174.763672,98.1230469 C173.888667,98.1230469 173.196292,97.8212921 172.686523,97.2177734 C172.176755,96.6142548 171.921875,95.8418016 171.921875,94.9003906 L171.921875,94.7714844 Z M173.076172,94.9003906 C173.076172,95.572269 173.217772,96.1269509 173.500977,96.5644531 C173.784181,97.0019553 174.205075,97.2207031 174.763672,97.2207031 C175.314456,97.2207031 175.73242,97.0019553 176.017578,96.5644531 C176.302736,96.1269509 176.445312,95.572269 176.445312,94.9003906 L176.445312,94.7714844 C176.445312,94.1074186 176.301759,93.5546897 176.014648,93.1132812 C175.727538,92.6718728 175.306643,92.4511719 174.751953,92.4511719 C174.201169,92.4511719 173.784181,92.6718728 173.500977,93.1132812 C173.217772,93.5546897 173.076172,94.1074186 173.076172,94.7714844 L173.076172,94.9003906 Z M180.042969,91.6601562 L180.125,92.6035156 C180.335939,92.2675764 180.600584,92.0068369 180.918945,91.8212891 C181.237306,91.6357413 181.599607,91.5429688 182.005859,91.5429688 C182.689457,91.5429688 183.218748,91.7431621 183.59375,92.1435547 C183.968752,92.5439473 184.15625,93.1621052 184.15625,93.9980469 L184.15625,98 L183.001953,98 L183.001953,94.0214844 C183.001953,93.4628878 182.891603,93.0664074 182.670898,92.8320312 C182.450194,92.5976551 182.113284,92.4804688 181.660156,92.4804688 C181.328123,92.4804688 181.034181,92.5605461 180.77832,92.7207031 C180.52246,92.8808602 180.31836,93.099608 180.166016,93.3769531 L180.166016,98 L179.011719,98 L179.011719,91.6601562 L180.042969,91.6601562 Z M190.337891,90.1308594 L190.337891,91.6601562 L191.539062,91.6601562 L191.539062,92.515625 L190.337891,92.515625 L190.337891,96.3652344 C190.337891,96.6621109 190.399413,96.8710931 190.522461,96.9921875 C190.645508,97.1132819 190.808593,97.1738281 191.011719,97.1738281 C191.078125,97.1738281 191.151367,97.1660157 191.231445,97.1503906 C191.311524,97.1347655 191.382812,97.1152345 191.445312,97.0917969 L191.597656,97.8828125 C191.511718,97.9531254 191.385743,98.010742 191.219727,98.0556641 C191.05371,98.1005862 190.88672,98.1230469 190.71875,98.1230469 C190.249998,98.1230469 189.876955,97.9814467 189.599609,97.6982422 C189.322264,97.4150376 189.183594,96.9707062 189.183594,96.3652344 L189.183594,92.515625 L188.175781,92.515625 L188.175781,91.6601562 L189.183594,91.6601562 L189.183594,90.1308594 L190.337891,90.1308594 Z M192.693359,94.7714844 C192.693359,93.8339797 192.947263,93.0615265 193.455078,92.4541016 C193.962893,91.8466767 194.652339,91.5429688 195.523438,91.5429688 C196.402348,91.5429688 197.096677,91.8457001 197.606445,92.4511719 C198.116213,93.0566437 198.371094,93.8300734 198.371094,94.7714844 L198.371094,94.9003906 C198.371094,95.8457079 198.11719,96.6191376 197.609375,97.2207031 C197.10156,97.8222686 196.410161,98.1230469 195.535156,98.1230469 C194.660152,98.1230469 193.967776,97.8212921 193.458008,97.2177734 C192.94824,96.6142548 192.693359,95.8418016 192.693359,94.9003906 L192.693359,94.7714844 Z M193.847656,94.9003906 C193.847656,95.572269 193.989256,96.1269509 194.272461,96.5644531 C194.555665,97.0019553 194.97656,97.2207031 195.535156,97.2207031 C196.08594,97.2207031 196.503905,97.0019553 196.789062,96.5644531 C197.07422,96.1269509 197.216797,95.572269 197.216797,94.9003906 L197.216797,94.7714844 C197.216797,94.1074186 197.073244,93.5546897 196.786133,93.1132812 C196.499022,92.6718728 196.078128,92.4511719 195.523438,92.4511719 C194.972653,92.4511719 194.555665,92.6718728 194.272461,93.1132812 C193.989256,93.5546897 193.847656,94.1074186 193.847656,94.7714844 L193.847656,94.9003906 Z M204.013672,98 L202.859375,98 L202.859375,91.6601562 L204.013672,91.6601562 L204.013672,98 Z M204.013672,90.0371094 L202.859375,90.0371094 L202.859375,88.859375 L204.013672,88.859375 L204.013672,90.0371094 Z M206.820312,91.6601562 L206.902344,92.6035156 C207.113282,92.2675764 207.377928,92.0068369 207.696289,91.8212891 C208.01465,91.6357413 208.376951,91.5429688 208.783203,91.5429688 C209.4668,91.5429688 209.996092,91.7431621 210.371094,92.1435547 C210.746096,92.5439473 210.933594,93.1621052 210.933594,93.9980469 L210.933594,98 L209.779297,98 L209.779297,94.0214844 C209.779297,93.4628878 209.668946,93.0664074 209.448242,92.8320312 C209.227538,92.5976551 208.890627,92.4804688 208.4375,92.4804688 C208.105467,92.4804688 207.811525,92.5605461 207.555664,92.7207031 C207.299803,92.8808602 207.095704,93.099608 206.943359,93.3769531 L206.943359,98 L205.789062,98 L205.789062,91.6601562 L206.820312,91.6601562 Z M218.744141,98 L217.589844,98 L217.589844,90.59375 L215.84375,90.6171875 L215.84375,89.7851562 L218.744141,89.46875 L218.744141,98 Z M222.535156,94.1503906 L223.027344,89.46875 L227.298828,89.46875 L227.298828,90.4941406 L224.005859,90.4941406 L223.724609,92.890625 C223.904298,92.7578118 224.104491,92.6474614 224.325195,92.5595703 C224.5459,92.4716792 224.80078,92.4238282 225.089844,92.4160156 C225.875004,92.4082031 226.493162,92.6640599 226.944336,93.1835938 C227.39551,93.7031276 227.621094,94.4023394 227.621094,95.28125 C227.621094,96.136723 227.391604,96.8242162 226.932617,97.34375 C226.473631,97.8632838 225.804692,98.1230469 224.925781,98.1230469 C224.203121,98.1230469 223.601565,97.9257832 223.121094,97.53125 C222.640623,97.1367168 222.410156,96.5566445 222.429688,95.7910156 L222.441406,95.7558594 L223.484375,95.7558594 C223.484375,96.2207054 223.618163,96.5810534 223.885742,96.8369141 C224.153322,97.0927747 224.499998,97.2207031 224.925781,97.2207031 C225.414065,97.2207031 225.792967,97.0488298 226.0625,96.7050781 C226.332033,96.3613264 226.466797,95.890628 226.466797,95.2929688 C226.466797,94.746091 226.330079,94.2968768 226.056641,93.9453125 C225.783202,93.5937482 225.406252,93.4179688 224.925781,93.4179688 C224.472654,93.4179688 224.144532,93.4863274 223.941406,93.6230469 C223.73828,93.7597663 223.589844,93.9687486 223.496094,94.25 L222.535156,94.1503906 Z M233.117188,91.6601562 L233.199219,92.4921875 C233.406251,92.1914047 233.668944,91.9580086 233.987305,91.7919922 C234.305666,91.6259757 234.675779,91.5429688 235.097656,91.5429688 C235.519533,91.5429688 235.881834,91.640624 236.18457,91.8359375 C236.487306,92.031251 236.714843,92.3242168 236.867188,92.7148438 C237.066407,92.355467 237.330076,92.0703136 237.658203,91.859375 C237.98633,91.6484364 238.369138,91.5429688 238.806641,91.5429688 C239.451175,91.5429688 239.960936,91.7646462 240.335938,92.2080078 C240.710939,92.6513694 240.898438,93.3183549 240.898438,94.2089844 L240.898438,98 L239.744141,98 L239.744141,94.1972656 C239.744141,93.5722625 239.63672,93.1298841 239.421875,92.8701172 C239.20703,92.6103503 238.886721,92.4804688 238.460938,92.4804688 C238.066404,92.4804688 237.747072,92.6171861 237.50293,92.890625 C237.258788,93.1640639 237.115235,93.5097635 237.072266,93.9277344 L237.072266,98 L235.912109,98 L235.912109,94.1972656 C235.912109,93.6035127 235.801759,93.1689467 235.581055,92.8935547 C235.36035,92.6181627 235.042971,92.4804688 234.628906,92.4804688 C234.277342,92.4804688 233.988282,92.5527337 233.761719,92.6972656 C233.535155,92.8417976 233.361329,93.0449206 233.240234,93.3066406 L233.240234,98 L232.085938,98 L232.085938,91.6601562 L233.117188,91.6601562 Z M243.822266,98 L242.667969,98 L242.667969,91.6601562 L243.822266,91.6601562 L243.822266,98 Z M243.822266,90.0371094 L242.667969,90.0371094 L242.667969,88.859375 L243.822266,88.859375 L243.822266,90.0371094 Z M246.628906,91.6601562 L246.710938,92.6035156 C246.921876,92.2675764 247.186522,92.0068369 247.504883,91.8212891 C247.823244,91.6357413 248.185545,91.5429688 248.591797,91.5429688 C249.275394,91.5429688 249.804686,91.7431621 250.179688,92.1435547 C250.554689,92.5439473 250.742188,93.1621052 250.742188,93.9980469 L250.742188,98 L249.587891,98 L249.587891,94.0214844 C249.587891,93.4628878 249.47754,93.0664074 249.256836,92.8320312 C249.036132,92.5976551 248.699221,92.4804688 248.246094,92.4804688 C247.914061,92.4804688 247.620118,92.5605461 247.364258,92.7207031 C247.108397,92.8808602 246.904298,93.099608 246.751953,93.3769531 L246.751953,98 L245.597656,98 L245.597656,91.6601562 L246.628906,91.6601562 Z M256.443359,97.0625 C256.24414,97.4023454 255.988283,97.6640616 255.675781,97.8476562 C255.36328,98.0312509 255.001955,98.1230469 254.591797,98.1230469 C253.900387,98.1230469 253.36133,97.902346 252.974609,97.4609375 C252.587889,97.019529 252.394531,96.3320359 252.394531,95.3984375 L252.394531,91.6601562 L253.548828,91.6601562 L253.548828,95.4101562 C253.548828,96.0859409 253.648437,96.55078 253.847656,96.8046875 C254.046876,97.058595 254.35742,97.1855469 254.779297,97.1855469 C255.189455,97.1855469 255.528319,97.1025399 255.795898,96.9365234 C256.063478,96.770507 256.265624,96.5351578 256.402344,96.2304688 L256.402344,91.6601562 L257.556641,91.6601562 L257.556641,98 L256.519531,98 L256.443359,97.0625 Z M260.761719,90.1308594 L260.761719,91.6601562 L261.962891,91.6601562 L261.962891,92.515625 L260.761719,92.515625 L260.761719,96.3652344 C260.761719,96.6621109 260.823242,96.8710931 260.946289,96.9921875 C261.069337,97.1132819 261.232421,97.1738281 261.435547,97.1738281 C261.501953,97.1738281 261.575195,97.1660157 261.655273,97.1503906 C261.735352,97.1347655 261.80664,97.1152345 261.869141,97.0917969 L262.021484,97.8828125 C261.935546,97.9531254 261.809571,98.010742 261.643555,98.0556641 C261.477538,98.1005862 261.310548,98.1230469 261.142578,98.1230469 C260.673826,98.1230469 260.300783,97.9814467 260.023438,97.6982422 C259.746092,97.4150376 259.607422,96.9707062 259.607422,96.3652344 L259.607422,92.515625 L258.599609,92.515625 L258.599609,91.6601562 L259.607422,91.6601562 L259.607422,90.1308594 L260.761719,90.1308594 Z M266.017578,98.1230469 C265.134761,98.1230469 264.43262,97.8291045 263.911133,97.2412109 C263.389646,96.6533174 263.128906,95.8906297 263.128906,94.953125 L263.128906,94.6953125 C263.128906,93.7929642 263.397458,93.0419952 263.93457,92.4423828 C264.471682,91.8427704 265.107418,91.5429688 265.841797,91.5429688 C266.69727,91.5429688 267.343748,91.8007787 267.78125,92.3164062 C268.218752,92.8320338 268.4375,93.519527 268.4375,94.3789062 L268.4375,95.0996094 L264.324219,95.0996094 L264.306641,95.1289062 C264.318359,95.7382843 264.472655,96.2392558 264.769531,96.6318359 C265.066408,97.024416 265.482419,97.2207031 266.017578,97.2207031 C266.408205,97.2207031 266.750975,97.1650396 267.045898,97.0537109 C267.340822,96.9423823 267.595702,96.7890635 267.810547,96.59375 L268.261719,97.34375 C268.035155,97.5664074 267.73633,97.7519524 267.365234,97.9003906 C266.994139,98.0488289 266.544925,98.1230469 266.017578,98.1230469 Z M265.841797,92.4511719 C265.455076,92.4511719 265.125001,92.6142562 264.851562,92.9404297 C264.578124,93.2666032 264.410157,93.6757788 264.347656,94.1679688 L264.359375,94.1972656 L267.283203,94.1972656 L267.283203,94.0449219 C267.283203,93.5917946 267.162111,93.2128921 266.919922,92.9082031 C266.677733,92.6035141 266.318362,92.4511719 265.841797,92.4511719 Z M273.417969,96.3183594 C273.417969,96.0644519 273.32129,95.8554696 273.12793,95.6914062 C272.934569,95.5273429 272.568362,95.3847662 272.029297,95.2636719 C271.259762,95.0957023 270.680666,94.8681655 270.291992,94.5810547 C269.903318,94.2939439 269.708984,93.9023462 269.708984,93.40625 C269.708984,92.8906224 269.927732,92.4511737 270.365234,92.0878906 C270.802737,91.7246076 271.373043,91.5429688 272.076172,91.5429688 C272.814457,91.5429688 273.401365,91.73242 273.836914,92.1113281 C274.272463,92.4902363 274.480469,92.9511692 274.460938,93.4941406 L274.449219,93.5292969 L273.347656,93.5292969 C273.347656,93.2519517 273.231446,93.0029308 272.999023,92.7822266 C272.7666,92.5615223 272.458986,92.4511719 272.076172,92.4511719 C271.666014,92.4511719 271.361329,92.5410147 271.162109,92.7207031 C270.96289,92.9003915 270.863281,93.1171862 270.863281,93.3710938 C270.863281,93.621095 270.951171,93.8183587 271.126953,93.9628906 C271.302735,94.1074226 271.660154,94.2363276 272.199219,94.3496094 C273.000004,94.5214852 273.595701,94.7548813 273.986328,95.0498047 C274.376955,95.344728 274.572266,95.7402319 274.572266,96.2363281 C274.572266,96.7988309 274.344729,97.2539045 273.889648,97.6015625 C273.434568,97.9492205 272.839847,98.1230469 272.105469,98.1230469 C271.296871,98.1230469 270.660159,97.9179708 270.195312,97.5078125 C269.730466,97.0976542 269.509766,96.6191434 269.533203,96.0722656 L269.544922,96.0371094 L270.646484,96.0371094 C270.666016,96.4472677 270.818358,96.7470694 271.103516,96.9365234 C271.388673,97.1259775 271.722654,97.2207031 272.105469,97.2207031 C272.515627,97.2207031 272.836913,97.1376961 273.069336,96.9716797 C273.301759,96.8056632 273.417969,96.587892 273.417969,96.3183594 Z" id="You-have-entered-an--Copy" fill="#7189B6"></path>
                <path d="M1,131 L386,131" id="Line-Copy-20" stroke="#D8E3F6" stroke-linecap="square"></path>
                <path d="M175.279053,152.586914 L175.293701,152.630859 C175.313233,153.631841 174.961674,154.469235 174.239014,155.143066 C173.516354,155.816898 172.561774,156.153809 171.375244,156.153809 C170.169183,156.153809 169.186527,155.726567 168.427246,154.87207 C167.667965,154.017574 167.28833,152.9336 167.28833,151.620117 L167.28833,149.723145 C167.28833,148.409661 167.667965,147.324467 168.427246,146.467529 C169.186527,145.610591 170.169183,145.182129 171.375244,145.182129 C172.581305,145.182129 173.540768,145.503171 174.253662,146.145264 C174.966556,146.787357 175.313233,147.638178 175.293701,148.697754 L175.279053,148.741699 L173.894775,148.741699 C173.894775,147.994625 173.675051,147.403811 173.235596,146.969238 C172.79614,146.534666 172.176029,146.317383 171.375244,146.317383 C170.569576,146.317383 169.927493,146.642087 169.448975,147.291504 C168.970457,147.940921 168.731201,148.746577 168.731201,149.708496 L168.731201,151.620117 C168.731201,152.591802 168.970457,153.402341 169.448975,154.051758 C169.927493,154.701175 170.569576,155.025879 171.375244,155.025879 C172.176029,155.025879 172.79614,154.809817 173.235596,154.377686 C173.675051,153.945554 173.894775,153.348637 173.894775,152.586914 L175.279053,152.586914 Z M176.634033,151.964355 C176.634033,150.792475 176.951413,149.826908 177.586182,149.067627 C178.22095,148.308346 179.082758,147.928711 180.171631,147.928711 C181.270269,147.928711 182.13818,148.307125 182.775391,149.063965 C183.412601,149.820805 183.731201,150.787592 183.731201,151.964355 L183.731201,152.125488 C183.731201,153.307135 183.413822,154.273922 182.779053,155.025879 C182.144284,155.777836 181.280035,156.153809 180.186279,156.153809 C179.092524,156.153809 178.227054,155.776615 177.589844,155.022217 C176.952634,154.267818 176.634033,153.302252 176.634033,152.125488 L176.634033,151.964355 Z M178.076904,152.125488 C178.076904,152.965336 178.253904,153.658689 178.60791,154.205566 C178.961916,154.752444 179.488034,155.025879 180.186279,155.025879 C180.874759,155.025879 181.397215,154.752444 181.753662,154.205566 C182.110109,153.658689 182.28833,152.965336 182.28833,152.125488 L182.28833,151.964355 C182.28833,151.134273 182.108889,150.443362 181.75,149.891602 C181.391111,149.339841 180.864994,149.063965 180.171631,149.063965 C179.483151,149.063965 178.961916,149.339841 178.60791,149.891602 C178.253904,150.443362 178.076904,151.134273 178.076904,151.964355 L178.076904,152.125488 Z M186.7854,148.075195 L186.887939,149.254395 C187.151613,148.834471 187.48242,148.508546 187.880371,148.276611 C188.278322,148.044677 188.731199,147.928711 189.239014,147.928711 C190.09351,147.928711 190.755125,148.178953 191.223877,148.679443 C191.692629,149.179934 191.927002,149.952631 191.927002,150.997559 L191.927002,156 L190.484131,156 L190.484131,151.026855 C190.484131,150.32861 190.346193,149.833009 190.070312,149.540039 C189.794432,149.247069 189.373294,149.100586 188.806885,149.100586 C188.391844,149.100586 188.024416,149.200683 187.70459,149.400879 C187.384764,149.601075 187.12964,149.87451 186.939209,150.221191 L186.939209,156 L185.496338,156 L185.496338,148.075195 L186.7854,148.075195 Z M194.424561,156 L194.424561,149.144531 L193.179443,149.144531 L193.179443,148.075195 L194.424561,148.075195 L194.424561,147.218262 C194.424561,146.329585 194.684568,145.641116 195.20459,145.152832 C195.724612,144.664548 196.44604,144.42041 197.368896,144.42041 C197.696047,144.42041 198.018309,144.458252 198.335693,144.533936 C198.653078,144.60962 199.026609,144.720702 199.456299,144.867188 L199.207275,146.039062 C198.948485,145.936523 198.672609,145.848633 198.379639,145.775391 C198.086668,145.702148 197.786378,145.665527 197.47876,145.665527 C196.907468,145.665527 196.496095,145.792479 196.244629,146.046387 C195.993163,146.300294 195.867432,146.690915 195.867432,147.218262 L195.867432,148.075195 L197.442139,148.075195 L197.442139,149.144531 L195.867432,149.144531 L195.867432,156 L194.424561,156 Z M200.159424,156 L198.709229,156 L198.709229,148.075195 L200.159424,148.075195 L200.159424,156 Z M206.121338,149.349609 L205.381592,149.305664 C205.000731,149.305664 204.679689,149.395995 204.418457,149.57666 C204.157225,149.757325 203.955811,150.011229 203.814209,150.338379 L203.814209,156 L202.371338,156 L202.371338,148.075195 L203.6604,148.075195 L203.799561,149.232422 C204.024171,148.822264 204.301268,148.502443 204.630859,148.272949 C204.960451,148.043456 205.340086,147.928711 205.769775,147.928711 C205.877198,147.928711 205.979736,147.937256 206.077393,147.954346 C206.175049,147.971436 206.255615,147.989746 206.319092,148.009277 L206.121338,149.349609 Z M208.802002,148.075195 L208.904541,149.115234 C209.163331,148.739256 209.491697,148.447511 209.889648,148.23999 C210.2876,148.03247 210.750242,147.928711 211.277588,147.928711 C211.804934,147.928711 212.257811,148.05078 212.63623,148.294922 C213.01465,148.539064 213.299071,148.905271 213.489502,149.393555 C213.738527,148.944334 214.068113,148.587892 214.478271,148.324219 C214.88843,148.060546 215.366941,147.928711 215.913818,147.928711 C216.719486,147.928711 217.356687,148.205808 217.825439,148.76001 C218.294192,149.314212 218.528564,150.147944 218.528564,151.26123 L218.528564,156 L217.085693,156 L217.085693,151.246582 C217.085693,150.465328 216.951417,149.912355 216.682861,149.587646 C216.414305,149.262938 216.013919,149.100586 215.481689,149.100586 C214.988523,149.100586 214.589357,149.271483 214.28418,149.613281 C213.979002,149.95508 213.799561,150.387204 213.74585,150.909668 L213.74585,156 L212.295654,156 L212.295654,151.246582 C212.295654,150.504391 212.157716,149.961183 211.881836,149.616943 C211.605956,149.272703 211.209231,149.100586 210.69165,149.100586 C210.252195,149.100586 209.890871,149.190917 209.607666,149.371582 C209.324461,149.552247 209.107178,149.806151 208.955811,150.133301 L208.955811,156 L207.512939,156 L207.512939,148.075195 L208.802002,148.075195 Z" id="12:16:12:16-copy-10" fill="#0E86FE"></path>
            </g>
        </g>
    </g>
</svg>