<svg xmlns="http://www.w3.org/2000/svg" viewBox="0 0 46.45 46.52"><defs><style>.cls-1{fill:#efefef;}.cls-2{fill:#dc555c;}</style></defs><title>資產 2</title><g id="圖層_2" data-name="圖層 2"><g id="圖層_1-2" data-name="圖層 1"><path class="cls-1" d="M45.76,33.25,23.71,46.3a1.58,1.58,0,0,1-2.07-.42L.24,15.18a1.32,1.32,0,0,1,.45-1.91L22.74.22a1.58,1.58,0,0,1,2.07.42l21.4,30.71A1.32,1.32,0,0,1,45.76,33.25Z"/><path class="cls-2" d="M5.44,15l1,1.34.34-2.7a1.74,1.74,0,0,1,.06-.31A.43.43,0,0,1,7,13.09a.47.47,0,0,1,.34-.1.39.39,0,0,1,.28.16.59.59,0,0,1,.07.46l-.28,1.58,2.23.75a2.4,2.4,0,0,1,.38.15.68.68,0,0,1,.23.19.36.36,0,0,1,.06.29.47.47,0,0,1-.2.29A.57.57,0,0,1,9.8,17a.73.73,0,0,1-.31-.06l-.28-.12-2-.73-.18,1.07.58.79a.62.62,0,0,1,.15.44.46.46,0,0,1-.19.32.47.47,0,0,1-.23.09.45.45,0,0,1-.24,0A.57.57,0,0,1,7,18.64l-.21-.27-2.1-2.83a.65.65,0,0,1-.16-.43.44.44,0,0,1,.19-.32.46.46,0,0,1,.37-.09A.62.62,0,0,1,5.44,15Z"/><path class="cls-2" d="M10.38,18.88a.75.75,0,0,0-.2-.06.78.78,0,0,0-.24,0,.75.75,0,0,0-.66.84l.19,1.65a.76.76,0,0,0,.16.39h0A.76.76,0,0,0,10,22l1.52.67a.75.75,0,0,0,.35.06h.1a.74.74,0,0,0,.65-.82l-.19-1.64a.75.75,0,0,0-.17-.39v0a.75.75,0,0,0-.33-.28Z"/></g></g></svg>