<?xml version="1.0" encoding="UTF-8"?>
<svg width="385px" height="339px" viewBox="0 0 385 339" version="1.1" xmlns="http://www.w3.org/2000/svg" xmlns:xlink="http://www.w3.org/1999/xlink">
    <!-- Generator: Sketch 42 (36781) - http://www.bohemiancoding.com/sketch -->
    <title>Group 15</title>
    <desc>Created with Sketch.</desc>
    <defs>
        <rect id="path-1" x="0" y="0" width="385" height="339" rx="4"></rect>
        <polygon id="path-3" points="3.52013692e-20 0.327545699 3.52013692e-20 6.42568548 16.1692208 6.42568548 16.1692208 0.327545699 0 0.327545699"></polygon>
        <polygon id="path-5" points="0.0503246753 74.1612903 138.481494 74.1612903 138.481494 0.605325269 0.0503246753 0.605325269 0.0503246753 74.1612903"></polygon>
    </defs>
    <g id="template(outline)" stroke="none" stroke-width="1" fill="none" fill-rule="evenodd">
        <g id="card-temp" transform="translate(-392.000000, -700.000000)">
            <g id="Group-15" transform="translate(392.000000, 700.000000)">
                <g id="班表">
                    <mask id="mask-2" fill="white">
                        <use xlink:href="#path-1"></use>
                    </mask>
                    <use id="Mask" fill="#FFFFFF" xlink:href="#path-1"></use>
                    <path d="M27.9770508,29.2368164 C27.9770508,28.5532192 27.7207057,27.9807152 27.2080078,27.5192871 C26.6953099,27.057859 25.7861393,26.6699234 24.4804687,26.3554688 C22.9013593,25.9794903 21.6691939,25.4257849 20.7839355,24.6943359 C19.8986772,23.962887 19.4560547,23.0434626 19.4560547,21.9360352 C19.4560547,20.77392 19.9328566,19.8032266 20.8864746,19.0239258 C21.8400927,18.244625 23.075676,17.8549805 24.5932617,17.8549805 C26.227059,17.8549805 27.5275831,18.3027299 28.494873,19.1982422 C29.462163,20.0937545 29.9287111,21.1328066 29.8945312,22.3154297 L29.8740234,22.3769531 L27.9462891,22.3769531 C27.9462891,21.5019488 27.6574736,20.7944363 27.079834,20.2543945 C26.5021944,19.7143528 25.6733452,19.4443359 24.5932617,19.4443359 C23.5883739,19.4443359 22.8176296,19.6716286 22.2810059,20.1262207 C21.7443821,20.5808128 21.4760742,21.1738245 21.4760742,21.9052734 C21.4760742,22.5546907 21.7665987,23.0964334 22.3476562,23.5305176 C22.9287138,23.9646018 23.8720638,24.3457015 25.1777344,24.6738281 C26.7500079,25.0634785 27.946285,25.6376915 28.7666016,26.3964844 C29.5869182,27.1552772 29.9970703,28.0952092 29.9970703,29.2163086 C29.9970703,30.4194396 29.5048877,31.3867151 28.5205078,32.1181641 C27.5361279,32.849613 26.2509845,33.215332 24.6650391,33.215332 C23.1747972,33.215332 21.8571835,32.8120158 20.7121582,32.0053711 C19.5671329,31.1987264 19.0117186,30.1186591 19.0458984,28.7651367 L19.0664062,28.7036133 L20.9941406,28.7036133 C20.9941406,29.6606493 21.3461879,30.3886694 22.050293,30.8876953 C22.7543981,31.3867212 23.6259714,31.6362305 24.6650391,31.6362305 C25.6835988,31.6362305 26.4902314,31.4209006 27.0849609,30.9902344 C27.6796905,30.5595682 27.9770508,29.9751013 27.9770508,29.2368164 Z M37.0722656,31.6362305 C37.7421908,31.6362305 38.3317846,31.4294454 38.8410645,31.0158691 C39.3503443,30.6022929 39.6049805,30.0947296 39.6049805,29.4931641 L41.4199219,29.4931641 L41.4404297,29.5546875 C41.4746095,30.5117235 41.0490767,31.3610803 40.1638184,32.1027832 C39.27856,32.8444861 38.2480528,33.215332 37.0722656,33.215332 C35.4589763,33.215332 34.2251019,32.6889701 33.3706055,31.6362305 C32.516109,30.5834908 32.0888672,29.2607502 32.0888672,27.6679688 L32.0888672,27.2373047 C32.0888672,25.6581952 32.517818,24.3405815 33.3757324,23.2844238 C34.2336469,22.2282662 35.4658123,21.7001953 37.0722656,21.7001953 C38.3711002,21.7001953 39.4323689,22.083004 40.2561035,22.8486328 C41.0798381,23.6142616 41.4780275,24.5541936 41.4506836,25.668457 L41.4301758,25.7299805 L39.6049805,25.7299805 C39.6049805,25.0532193 39.365725,24.4772973 38.887207,24.0021973 C38.408689,23.5270972 37.8037146,23.2895508 37.0722656,23.2895508 C36.01269,23.2895508 35.2556175,23.6706505 34.8010254,24.4328613 C34.3464333,25.1950722 34.1191406,26.1298773 34.1191406,27.2373047 L34.1191406,27.6679688 C34.1191406,28.80274 34.3447243,29.747799 34.7958984,30.5031738 C35.2470726,31.2585487 36.005854,31.6362305 37.0722656,31.6362305 Z M45.7265625,23.3920898 C46.1093769,22.8588841 46.5793429,22.443605 47.1364746,22.1462402 C47.6936063,21.8488755 48.3105435,21.7001953 48.9873047,21.7001953 C50.1699278,21.7001953 51.0910612,22.0556605 51.7507324,22.7666016 C52.4104037,23.4775426 52.7402344,24.5712817 52.7402344,26.0478516 L52.7402344,33 L50.7202148,33 L50.7202148,26.0273438 C50.7202148,25.1113235 50.5236836,24.4345725 50.1306152,23.9970703 C49.7375469,23.5595681 49.1513711,23.3408203 48.3720703,23.3408203 C47.8115206,23.3408203 47.3039574,23.4724108 46.8493652,23.7355957 C46.3947731,23.9987806 46.0205093,24.3559548 45.7265625,24.8071289 L45.7265625,33 L43.706543,33 L43.706543,17.0039062 L45.7265625,17.0039062 L45.7265625,23.3920898 Z M60.2460937,33.215332 C58.7011642,33.215332 57.4724167,32.7009329 56.5598145,31.6721191 C55.6472122,30.6433054 55.190918,29.308602 55.190918,27.6679688 L55.190918,27.2167969 C55.190918,25.6376874 55.660884,24.3234916 56.6008301,23.2741699 C57.5407762,22.2248483 58.6533139,21.7001953 59.9384766,21.7001953 C61.4355544,21.7001953 62.5668907,22.1513627 63.3325195,23.0537109 C64.0981484,23.9560592 64.480957,25.1591722 64.480957,26.6630859 L64.480957,27.9243164 L57.2827148,27.9243164 L57.2519531,27.9755859 C57.272461,29.0419975 57.5424779,29.9186977 58.0620117,30.6057129 C58.5815456,31.292728 59.3095656,31.6362305 60.2460937,31.6362305 C60.9296909,31.6362305 61.5295384,31.5388193 62.0456543,31.3439941 C62.5617702,31.1491689 63.0078106,30.8808611 63.3837891,30.5390625 L64.1733398,31.8515625 C63.7768535,32.2412129 63.2539095,32.5659167 62.6044922,32.8256836 C61.9550749,33.0854505 61.1689499,33.215332 60.2460937,33.215332 Z M59.9384766,23.2895508 C59.2617154,23.2895508 58.6840844,23.5749483 58.2055664,24.145752 C57.7270484,24.7165556 57.433106,25.4326129 57.3237305,26.2939453 L57.3442383,26.3452148 L62.4609375,26.3452148 L62.4609375,26.0786133 C62.4609375,25.2856406 62.2490256,24.6225613 61.8251953,24.0893555 C61.4013651,23.5561497 60.7724651,23.2895508 59.9384766,23.2895508 Z M66.2856445,27.6577148 C66.2856445,25.8735262 66.6667442,24.4345758 67.4289551,23.3408203 C68.1911659,22.2470648 69.2592705,21.7001953 70.6333008,21.7001953 C71.2827181,21.7001953 71.8586401,21.819823 72.361084,22.059082 C72.8635279,22.298341 73.2924787,22.6469704 73.6479492,23.1049805 L73.6479492,17.0039062 L75.6679687,17.0039062 L75.6679687,33 L74.0170898,33 L73.78125,31.6362305 C73.4189435,32.1557643 72.974612,32.5488268 72.4482422,32.8154297 C71.9218724,33.0820326 71.3100621,33.215332 70.612793,33.215332 C69.2592706,33.215332 68.1997109,32.7248584 67.434082,31.7438965 C66.6684532,30.7629345 66.2856445,29.4726642 66.2856445,27.8730469 L66.2856445,27.6577148 Z M68.3056641,27.8730469 C68.3056641,28.9941462 68.5346657,29.8913541 68.9926758,30.5646973 C69.4506859,31.2380405 70.1616163,31.574707 71.1254883,31.574707 C71.7270538,31.574707 72.2329081,31.4379896 72.6430664,31.1645508 C73.0532247,30.8911119 73.3881823,30.5083032 73.6479492,30.0161133 L73.6479492,24.8378906 C73.3881823,24.3798805 73.0515157,24.0158705 72.6379395,23.7458496 C72.2243632,23.4758287 71.7270537,23.3408203 71.1459961,23.3408203 C70.1752881,23.3408203 69.4592308,23.7407187 68.9978027,24.5405273 C68.5363746,25.340336 68.3056641,26.3793881 68.3056641,27.6577148 L68.3056641,27.8730469 Z M85.7270508,31.359375 C85.3784162,31.9541045 84.9306668,32.4121078 84.3837891,32.7333984 C83.8369113,33.0546891 83.2045934,33.215332 82.4868164,33.215332 C81.2768494,33.215332 80.3334995,32.8291054 79.6567383,32.0566406 C78.9799771,31.2841758 78.6416016,30.0810629 78.6416016,28.4472656 L78.6416016,21.9052734 L80.6616211,21.9052734 L80.6616211,28.4677734 C80.6616211,29.6503965 80.8359358,30.463865 81.1845703,30.9082031 C81.5332049,31.3525413 82.0766565,31.574707 82.8149414,31.574707 C83.5327184,31.574707 84.1257301,31.4294448 84.5939941,31.138916 C85.0622582,30.8483872 85.4160144,30.4365261 85.6552734,29.9033203 L85.6552734,21.9052734 L87.675293,21.9052734 L87.675293,33 L85.8603516,33 L85.7270508,31.359375 Z M92.8022461,33 L90.7822266,33 L90.7822266,17.0039062 L92.8022461,17.0039062 L92.8022461,33 Z M100.513184,33.215332 C98.968254,33.215332 97.7395065,32.7009329 96.8269043,31.6721191 C95.9143021,30.6433054 95.4580078,29.308602 95.4580078,27.6679688 L95.4580078,27.2167969 C95.4580078,25.6376874 95.9279738,24.3234916 96.8679199,23.2741699 C97.807866,22.2248483 98.9204037,21.7001953 100.205566,21.7001953 C101.702644,21.7001953 102.833981,22.1513627 103.599609,23.0537109 C104.365238,23.9560592 104.748047,25.1591722 104.748047,26.6630859 L104.748047,27.9243164 L97.5498047,27.9243164 L97.519043,27.9755859 C97.5395509,29.0419975 97.8095677,29.9186977 98.3291016,30.6057129 C98.8486354,31.292728 99.5766555,31.6362305 100.513184,31.6362305 C101.196781,31.6362305 101.796628,31.5388193 102.312744,31.3439941 C102.82886,31.1491689 103.2749,30.8808611 103.650879,30.5390625 L104.44043,31.8515625 C104.043943,32.2412129 103.520999,32.5659167 102.871582,32.8256836 C102.222165,33.0854505 101.43604,33.215332 100.513184,33.215332 Z M100.205566,23.2895508 C99.5288052,23.2895508 98.9511743,23.5749483 98.4726562,24.145752 C97.9941382,24.7165556 97.7001959,25.4326129 97.5908203,26.2939453 L97.6113281,26.3452148 L102.728027,26.3452148 L102.728027,26.0786133 C102.728027,25.2856406 102.516115,24.6225613 102.092285,24.0893555 C101.668455,23.5561497 101.039555,23.2895508 100.205566,23.2895508 Z" id="Schedule" fill="#456297" mask="url(#mask-2)"></path>
                    <g id="批示作業-copy" mask="url(#mask-2)">
                        <g transform="translate(-1.500000, 49.000000)">
                            <g id="list03" transform="translate(0.000000, 237.000000)"></g>
                            <g id="list01" transform="translate(1.000000, 0.000000)"></g>
                        </g>
                    </g>
                    <g id="更多-+-Shape-Copy-4" mask="url(#mask-2)">
                        <g transform="translate(177.250000, 302.000000)" id="Shape-Copy-4-+-更多">
                            <g>
                                <polygon id="Shape-Copy-4" fill="#C4D2EB" opacity="0.8" points="13.0833333 -1.25 11.9166667 -0.0833333333 15.75 3.75 11.9166667 7.58333333 13.0833333 8.75 18.0833333 3.75"></polygon>
                                <path d="M1.953125,14.046875 L5.125,22.1337891 L5.16601562,22.1337891 L8.33789062,14.046875 L10.0605469,14.046875 L10.0605469,24 L8.71386719,24 L8.71386719,20.0625 L8.85058594,16.015625 L8.81640625,16.0087891 L5.58984375,24 L4.69433594,24 L1.48144531,16.0292969 L1.44726562,16.0361328 L1.57714844,20.0625 L1.57714844,24 L0.23046875,24 L0.23046875,14.046875 L1.953125,14.046875 Z M11.9609375,20.2333984 C11.9609375,19.139643 12.2571585,18.2384476 12.8496094,17.5297852 C13.4420603,16.8211228 14.2464142,16.4667969 15.2626953,16.4667969 C16.2880911,16.4667969 17.0981416,16.8199834 17.6928711,17.5263672 C18.2876006,18.2327509 18.5849609,19.1350857 18.5849609,20.2333984 L18.5849609,20.3837891 C18.5849609,21.4866592 18.2887399,22.3889939 17.6962891,23.0908203 C17.1038382,23.7926467 16.2972056,24.1435547 15.2763672,24.1435547 C14.2555287,24.1435547 13.4477569,23.7915074 12.8530273,23.0874023 C12.2582978,22.3832973 11.9609375,21.4821018 11.9609375,20.3837891 L11.9609375,20.2333984 Z M13.3076172,20.3837891 C13.3076172,21.1676471 13.4728174,21.8147761 13.8032227,22.3251953 C14.133628,22.8356145 14.6246712,23.0908203 15.2763672,23.0908203 C15.9189485,23.0908203 16.4065739,22.8356145 16.7392578,22.3251953 C17.0719418,21.8147761 17.2382812,21.1676471 17.2382812,20.3837891 L17.2382812,20.2333984 C17.2382812,19.458655 17.0708025,18.8138047 16.7358398,18.2988281 C16.4008772,17.7838516 15.909834,17.5263672 15.2626953,17.5263672 C14.620114,17.5263672 14.133628,17.7838516 13.8032227,18.2988281 C13.4728174,18.8138047 13.3076172,19.458655 13.3076172,20.2333984 L13.3076172,20.3837891 Z M23.7324219,17.7929688 L23.0419922,17.7519531 C22.6865217,17.7519531 22.3868827,17.8362622 22.1430664,18.0048828 C21.8992501,18.1735034 21.7112637,18.4104802 21.5791016,18.7158203 L21.5791016,24 L20.2324219,24 L20.2324219,16.6035156 L21.4355469,16.6035156 L21.5654297,17.6835938 C21.7750662,17.3007793 22.0336899,17.0022797 22.3413086,16.7880859 C22.6489273,16.5738922 23.0032532,16.4667969 23.4042969,16.4667969 C23.5045578,16.4667969 23.60026,16.4747721 23.6914062,16.4907227 C23.7825525,16.5066733 23.8577471,16.5237629 23.9169922,16.5419922 L23.7324219,17.7929688 Z M27.9707031,24.1435547 C26.9407501,24.1435547 26.1215851,23.8006219 25.5131836,23.1147461 C24.9047821,22.4288703 24.6005859,21.539068 24.6005859,20.4453125 L24.6005859,20.1445312 C24.6005859,19.0917916 24.9138966,18.215661 25.5405273,17.5161133 C26.1671581,16.8165655 26.9088499,16.4667969 27.765625,16.4667969 C28.7636769,16.4667969 29.5179011,16.7675751 30.0283203,17.3691406 C30.5387395,17.9707061 30.7939453,18.7727814 30.7939453,19.7753906 L30.7939453,20.6162109 L25.9951172,20.6162109 L25.9746094,20.6503906 C25.9882813,21.3613317 26.1682925,21.9457985 26.5146484,22.4038086 C26.8610043,22.8618187 27.346351,23.0908203 27.9707031,23.0908203 C28.4264346,23.0908203 28.8263329,23.0258796 29.1704102,22.8959961 C29.5144874,22.7661126 29.8118477,22.5872407 30.0625,22.359375 L30.5888672,23.234375 C30.3245429,23.4941419 29.9759136,23.7106111 29.5429688,23.8837891 C29.1100239,24.056967 28.5859406,24.1435547 27.9707031,24.1435547 Z M27.765625,17.5263672 C27.3144509,17.5263672 26.9293636,17.7166322 26.6103516,18.097168 C26.2913396,18.4777037 26.095378,18.9550753 26.0224609,19.5292969 L26.0361328,19.5634766 L29.4472656,19.5634766 L29.4472656,19.3857422 C29.4472656,18.8570937 29.305991,18.4150408 29.0234375,18.0595703 C28.740884,17.7040998 28.3216174,17.5263672 27.765625,17.5263672 Z" id="More" fill="#C4D2EB"></path>
                            </g>
                        </g>
                    </g>
                </g>
                <rect id="Rectangle-197" fill="#EEF2FC" x="0" y="50" width="385" height="239.5"></rect>
                <path d="M124.053955,228.755859 L126.837158,223.335938 L128.485107,223.335938 L124.742432,230.25 L124.742432,234 L123.306885,234 L123.306885,230.154785 L119.622803,223.335938 L121.270752,223.335938 L124.053955,228.755859 Z M128.865967,229.964355 C128.865967,228.792475 129.183346,227.826908 129.818115,227.067627 C130.452884,226.308346 131.314692,225.928711 132.403564,225.928711 C133.502203,225.928711 134.370114,226.307125 135.007324,227.063965 C135.644534,227.820805 135.963135,228.787592 135.963135,229.964355 L135.963135,230.125488 C135.963135,231.307135 135.645755,232.273922 135.010986,233.025879 C134.376218,233.777836 133.511968,234.153809 132.418213,234.153809 C131.324457,234.153809 130.458988,233.776615 129.821777,233.022217 C129.184567,232.267818 128.865967,231.302252 128.865967,230.125488 L128.865967,229.964355 Z M130.308838,230.125488 C130.308838,230.965336 130.485838,231.658689 130.839844,232.205566 C131.193849,232.752444 131.719967,233.025879 132.418213,233.025879 C133.106693,233.025879 133.629149,232.752444 133.985596,232.205566 C134.342043,231.658689 134.520264,230.965336 134.520264,230.125488 L134.520264,229.964355 C134.520264,229.134273 134.340822,228.443362 133.981934,227.891602 C133.623045,227.339841 133.096927,227.063965 132.403564,227.063965 C131.715084,227.063965 131.193849,227.339841 130.839844,227.891602 C130.485838,228.443362 130.308838,229.134273 130.308838,229.964355 L130.308838,230.125488 Z M142.76001,232.828125 C142.510985,233.252932 142.191164,233.580077 141.800537,233.80957 C141.40991,234.039064 140.958255,234.153809 140.445557,234.153809 C139.581295,234.153809 138.907473,233.877932 138.424072,233.326172 C137.940671,232.774411 137.698975,231.915045 137.698975,230.748047 L137.698975,226.075195 L139.141846,226.075195 L139.141846,230.762695 C139.141846,231.607426 139.266356,232.188475 139.515381,232.505859 C139.764406,232.823244 140.152585,232.981934 140.679932,232.981934 C141.19263,232.981934 141.616209,232.878175 141.950684,232.670654 C142.285158,232.463134 142.537841,232.168947 142.70874,231.788086 L142.70874,226.075195 L144.151611,226.075195 L144.151611,234 L142.855225,234 L142.76001,232.828125 Z M151.424561,227.137207 C151.697999,226.756346 152.033689,226.459718 152.431641,226.247314 C152.829592,226.034911 153.270261,225.928711 153.753662,225.928711 C154.598393,225.928711 155.256345,226.182615 155.727539,226.69043 C156.198733,227.198245 156.434326,227.979487 156.434326,229.03418 L156.434326,234 L154.991455,234 L154.991455,229.019531 C154.991455,228.365231 154.851076,227.881838 154.570312,227.569336 C154.289549,227.256834 153.870852,227.100586 153.314209,227.100586 C152.913816,227.100586 152.551271,227.194579 152.226562,227.382568 C151.901854,227.570558 151.634523,227.825682 151.424561,228.147949 L151.424561,234 L149.981689,234 L149.981689,222.574219 L151.424561,222.574219 L151.424561,227.137207 Z M163.377686,234 C163.328857,233.760741 163.291016,233.549561 163.26416,233.366455 C163.237305,233.183349 163.221436,232.999024 163.216553,232.813477 C162.947997,233.194338 162.597658,233.512938 162.165527,233.769287 C161.733396,234.025636 161.268313,234.153809 160.770264,234.153809 C159.945064,234.153809 159.316408,233.942629 158.884277,233.520264 C158.452146,233.097898 158.236084,232.515629 158.236084,231.773438 C158.236084,231.016598 158.542477,230.424563 159.155273,229.997314 C159.768069,229.570066 160.59936,229.356445 161.64917,229.356445 L163.216553,229.356445 L163.216553,228.572754 C163.216553,228.108884 163.074953,227.741456 162.791748,227.470459 C162.508544,227.199462 162.108157,227.063965 161.590576,227.063965 C161.126707,227.063965 160.749513,227.182372 160.458984,227.419189 C160.168456,227.656007 160.023193,227.940428 160.023193,228.272461 L158.64624,228.272461 L158.631592,228.228516 C158.602295,227.652341 158.874509,227.125002 159.448242,226.646484 C160.021976,226.167966 160.762935,225.928711 161.671143,225.928711 C162.569585,225.928711 163.292234,226.15698 163.839111,226.613525 C164.385989,227.070071 164.659424,227.728023 164.659424,228.587402 L164.659424,232.40332 C164.659424,232.686525 164.674072,232.95996 164.703369,233.223633 C164.732666,233.487306 164.786377,233.746092 164.864502,234 L163.377686,234 Z M160.982666,232.945312 C161.50513,232.945312 161.976316,232.811036 162.39624,232.54248 C162.816164,232.273924 163.089599,231.96631 163.216553,231.619629 L163.216553,230.330566 L161.5979,230.330566 C161.016843,230.330566 160.55176,230.477049 160.202637,230.77002 C159.853514,231.06299 159.678955,231.407225 159.678955,231.802734 C159.678955,232.154299 159.788817,232.432616 160.008545,232.637695 C160.228273,232.842774 160.552976,232.945312 160.982666,232.945312 Z M169.28833,231.663574 L169.412842,232.220215 L169.456787,232.220215 L169.595947,231.663574 L171.419678,226.075195 L172.891846,226.075195 L169.976807,234 L168.885498,234 L165.933838,226.075195 L167.41333,226.075195 L169.28833,231.663574 Z M177.381592,234.153809 C176.278071,234.153809 175.400394,233.786381 174.748535,233.051514 C174.096676,232.316647 173.770752,231.363287 173.770752,230.191406 L173.770752,229.869141 C173.770752,228.741205 174.106442,227.802494 174.777832,227.052979 C175.449222,226.303463 176.243892,225.928711 177.161865,225.928711 C178.231207,225.928711 179.039304,226.250973 179.586182,226.895508 C180.133059,227.540042 180.406494,228.399409 180.406494,229.473633 L180.406494,230.374512 L175.264893,230.374512 L175.24292,230.411133 C175.257568,231.172855 175.450438,231.79907 175.821533,232.289795 C176.192629,232.78052 176.712643,233.025879 177.381592,233.025879 C177.869875,233.025879 178.298338,232.9563 178.666992,232.817139 C179.035646,232.677978 179.354247,232.486329 179.622803,232.242188 L180.186768,233.179688 C179.903563,233.458009 179.530032,233.68994 179.066162,233.875488 C178.602293,234.061036 178.040775,234.153809 177.381592,234.153809 Z M177.161865,227.063965 C176.678464,227.063965 176.265871,227.26782 175.924072,227.675537 C175.582274,228.083254 175.372315,228.594723 175.294189,229.209961 L175.308838,229.246582 L178.963623,229.246582 L178.963623,229.056152 C178.963623,228.489743 178.812257,228.016115 178.509521,227.635254 C178.206786,227.254393 177.757571,227.063965 177.161865,227.063965 Z M187.042236,226.075195 L187.144775,227.254395 C187.408449,226.834471 187.739256,226.508546 188.137207,226.276611 C188.535158,226.044677 188.988035,225.928711 189.49585,225.928711 C190.350346,225.928711 191.011961,226.178953 191.480713,226.679443 C191.949465,227.179934 192.183838,227.952631 192.183838,228.997559 L192.183838,234 L190.740967,234 L190.740967,229.026855 C190.740967,228.32861 190.603029,227.833009 190.327148,227.540039 C190.051268,227.247069 189.63013,227.100586 189.063721,227.100586 C188.64868,227.100586 188.281252,227.200683 187.961426,227.400879 C187.6416,227.601075 187.386476,227.87451 187.196045,228.221191 L187.196045,234 L185.753174,234 L185.753174,226.075195 L187.042236,226.075195 Z M193.94165,229.964355 C193.94165,228.792475 194.25903,227.826908 194.893799,227.067627 C195.528568,226.308346 196.390375,225.928711 197.479248,225.928711 C198.577886,225.928711 199.445798,226.307125 200.083008,227.063965 C200.720218,227.820805 201.038818,228.787592 201.038818,229.964355 L201.038818,230.125488 C201.038818,231.307135 200.721439,232.273922 200.08667,233.025879 C199.451901,233.777836 198.587652,234.153809 197.493896,234.153809 C196.400141,234.153809 195.534671,233.776615 194.897461,233.022217 C194.260251,232.267818 193.94165,231.302252 193.94165,230.125488 L193.94165,229.964355 Z M195.384521,230.125488 C195.384521,230.965336 195.561522,231.658689 195.915527,232.205566 C196.269533,232.752444 196.795651,233.025879 197.493896,233.025879 C198.182376,233.025879 198.704832,232.752444 199.061279,232.205566 C199.417726,231.658689 199.595947,230.965336 199.595947,230.125488 L199.595947,229.964355 C199.595947,229.134273 199.416506,228.443362 199.057617,227.891602 C198.698729,227.339841 198.172611,227.063965 197.479248,227.063965 C196.790768,227.063965 196.269533,227.339841 195.915527,227.891602 C195.561522,228.443362 195.384521,229.134273 195.384521,229.964355 L195.384521,230.125488 Z M211.138916,231.897949 C211.138916,231.580565 211.018068,231.319337 210.776367,231.114258 C210.534667,230.909179 210.076908,230.730958 209.403076,230.57959 C208.441157,230.369628 207.717288,230.085207 207.231445,229.726318 C206.745603,229.36743 206.502686,228.877933 206.502686,228.257812 C206.502686,227.613278 206.77612,227.063967 207.322998,226.609863 C207.869876,226.155759 208.582759,225.928711 209.46167,225.928711 C210.384526,225.928711 211.118161,226.165525 211.662598,226.63916 C212.207034,227.112795 212.467041,227.688961 212.442627,228.367676 L212.427979,228.411621 L211.051025,228.411621 C211.051025,228.06494 210.905763,227.753663 210.615234,227.477783 C210.324706,227.201903 209.940188,227.063965 209.46167,227.063965 C208.948972,227.063965 208.568116,227.176268 208.319092,227.400879 C208.070067,227.625489 207.945557,227.896483 207.945557,228.213867 C207.945557,228.526369 208.055419,228.772948 208.275146,228.953613 C208.494874,229.134278 208.941647,229.295409 209.615479,229.437012 C210.61646,229.651857 211.361082,229.943602 211.849365,230.312256 C212.337649,230.68091 212.581787,231.17529 212.581787,231.79541 C212.581787,232.498539 212.297366,233.067381 211.728516,233.501953 C211.159665,233.936526 210.416264,234.153809 209.498291,234.153809 C208.487544,234.153809 207.691653,233.897464 207.110596,233.384766 C206.529538,232.872068 206.253662,232.273929 206.282959,231.590332 L206.297607,231.546387 L207.674561,231.546387 C207.698975,232.059085 207.889403,232.433837 208.24585,232.670654 C208.602297,232.907472 209.019773,233.025879 209.498291,233.025879 C210.010989,233.025879 210.412596,232.92212 210.703125,232.7146 C210.993654,232.507079 211.138916,232.234865 211.138916,231.897949 Z M217.598877,233.025879 C218.077395,233.025879 218.498533,232.878175 218.862305,232.582764 C219.226076,232.287352 219.407959,231.924807 219.407959,231.495117 L220.704346,231.495117 L220.718994,231.539062 C220.743408,232.22266 220.439456,232.829343 219.807129,233.359131 C219.174802,233.888919 218.438725,234.153809 217.598877,234.153809 C216.446527,234.153809 215.565189,233.777836 214.954834,233.025879 C214.344479,232.273922 214.039307,231.329107 214.039307,230.191406 L214.039307,229.883789 C214.039307,228.755854 214.3457,227.814701 214.958496,227.060303 C215.571292,226.305904 216.45141,225.928711 217.598877,225.928711 C218.526616,225.928711 219.284665,226.202146 219.873047,226.749023 C220.461429,227.295901 220.74585,227.967281 220.726318,228.763184 L220.71167,228.807129 L219.407959,228.807129 C219.407959,228.323728 219.237062,227.912355 218.895264,227.572998 C218.553465,227.233641 218.121341,227.063965 217.598877,227.063965 C216.842037,227.063965 216.301271,227.336179 215.976562,227.880615 C215.651854,228.425052 215.489502,229.092769 215.489502,229.883789 L215.489502,230.191406 C215.489502,231.001957 215.650633,231.676999 215.9729,232.216553 C216.295168,232.756106 216.837154,233.025879 217.598877,233.025879 Z M223.780518,227.137207 C224.053956,226.756346 224.389646,226.459718 224.787598,226.247314 C225.185549,226.034911 225.626218,225.928711 226.109619,225.928711 C226.95435,225.928711 227.612302,226.182615 228.083496,226.69043 C228.55469,227.198245 228.790283,227.979487 228.790283,229.03418 L228.790283,234 L227.347412,234 L227.347412,229.019531 C227.347412,228.365231 227.207033,227.881838 226.92627,227.569336 C226.645506,227.256834 226.226809,227.100586 225.670166,227.100586 C225.269773,227.100586 224.907228,227.194579 224.58252,227.382568 C224.257811,227.570558 223.99048,227.825682 223.780518,228.147949 L223.780518,234 L222.337646,234 L222.337646,222.574219 L223.780518,222.574219 L223.780518,227.137207 Z M234.151611,234.153809 C233.04809,234.153809 232.170413,233.786381 231.518555,233.051514 C230.866696,232.316647 230.540771,231.363287 230.540771,230.191406 L230.540771,229.869141 C230.540771,228.741205 230.876461,227.802494 231.547852,227.052979 C232.219242,226.303463 233.013911,225.928711 233.931885,225.928711 C235.001226,225.928711 235.809323,226.250973 236.356201,226.895508 C236.903079,227.540042 237.176514,228.399409 237.176514,229.473633 L237.176514,230.374512 L232.034912,230.374512 L232.012939,230.411133 C232.027588,231.172855 232.220457,231.79907 232.591553,232.289795 C232.962648,232.78052 233.482663,233.025879 234.151611,233.025879 C234.639895,233.025879 235.068358,232.9563 235.437012,232.817139 C235.805666,232.677978 236.124266,232.486329 236.392822,232.242188 L236.956787,233.179688 C236.673583,233.458009 236.300051,233.68994 235.836182,233.875488 C235.372312,234.061036 234.810794,234.153809 234.151611,234.153809 Z M233.931885,227.063965 C233.448484,227.063965 233.03589,227.26782 232.694092,227.675537 C232.352293,228.083254 232.142334,228.594723 232.064209,229.209961 L232.078857,229.246582 L235.733643,229.246582 L235.733643,229.056152 C235.733643,228.489743 235.582277,228.016115 235.279541,227.635254 C234.976805,227.254393 234.527591,227.063965 233.931885,227.063965 Z M238.465576,230.184082 C238.465576,228.909662 238.73779,227.88184 239.282227,227.100586 C239.826663,226.319332 240.589595,225.928711 241.571045,225.928711 C242.034914,225.928711 242.446287,226.014159 242.805176,226.185059 C243.164064,226.355958 243.470458,226.604979 243.724365,226.932129 L243.724365,222.574219 L245.167236,222.574219 L245.167236,234 L243.988037,234 L243.81958,233.025879 C243.56079,233.396975 243.24341,233.677733 242.867432,233.868164 C242.491453,234.058595 242.054446,234.153809 241.556396,234.153809 C240.589595,234.153809 239.832766,233.80347 239.285889,233.102783 C238.739011,232.402096 238.465576,231.480474 238.465576,230.337891 L238.465576,230.184082 Z M239.908447,230.337891 C239.908447,231.138676 240.07202,231.779539 240.39917,232.260498 C240.72632,232.741457 241.234127,232.981934 241.922607,232.981934 C242.352297,232.981934 242.713622,232.884278 243.006592,232.688965 C243.299562,232.493651 243.538817,232.220217 243.724365,231.868652 L243.724365,228.169922 C243.538817,227.842772 243.298341,227.582765 243.00293,227.389893 C242.707518,227.197021 242.352297,227.100586 241.937256,227.100586 C241.243893,227.100586 240.732424,227.386228 240.402832,227.95752 C240.073241,228.528811 239.908447,229.270992 239.908447,230.184082 L239.908447,230.337891 Z M252.352295,232.828125 C252.10327,233.252932 251.783449,233.580077 251.392822,233.80957 C251.002195,234.039064 250.55054,234.153809 250.037842,234.153809 C249.17358,234.153809 248.499758,233.877932 248.016357,233.326172 C247.532957,232.774411 247.29126,231.915045 247.29126,230.748047 L247.29126,226.075195 L248.734131,226.075195 L248.734131,230.762695 C248.734131,231.607426 248.858641,232.188475 249.107666,232.505859 C249.356691,232.823244 249.74487,232.981934 250.272217,232.981934 C250.784915,232.981934 251.208494,232.878175 251.542969,232.670654 C251.877443,232.463134 252.130126,232.168947 252.301025,231.788086 L252.301025,226.075195 L253.743896,226.075195 L253.743896,234 L252.44751,234 L252.352295,232.828125 Z M257.406006,234 L255.963135,234 L255.963135,222.574219 L257.406006,222.574219 L257.406006,234 Z M262.913818,234.153809 C261.810297,234.153809 260.93262,233.786381 260.280762,233.051514 C259.628903,232.316647 259.302979,231.363287 259.302979,230.191406 L259.302979,229.869141 C259.302979,228.741205 259.638669,227.802494 260.310059,227.052979 C260.981449,226.303463 261.776118,225.928711 262.694092,225.928711 C263.763433,225.928711 264.57153,226.250973 265.118408,226.895508 C265.665286,227.540042 265.938721,228.399409 265.938721,229.473633 L265.938721,230.374512 L260.797119,230.374512 L260.775146,230.411133 C260.789795,231.172855 260.982664,231.79907 261.35376,232.289795 C261.724855,232.78052 262.24487,233.025879 262.913818,233.025879 C263.402102,233.025879 263.830565,232.9563 264.199219,232.817139 C264.567873,232.677978 264.886473,232.486329 265.155029,232.242188 L265.718994,233.179688 C265.43579,233.458009 265.062258,233.68994 264.598389,233.875488 C264.134519,234.061036 263.573001,234.153809 262.913818,234.153809 Z M262.694092,227.063965 C262.210691,227.063965 261.798097,227.26782 261.456299,227.675537 C261.1145,228.083254 260.904541,228.594723 260.826416,229.209961 L260.841064,229.246582 L264.49585,229.246582 L264.49585,229.056152 C264.49585,228.489743 264.344484,228.016115 264.041748,227.635254 C263.739012,227.254393 263.289798,227.063965 262.694092,227.063965 Z M269.13208,234 L267.689209,234 L267.689209,232.520508 L269.13208,232.520508 L269.13208,234 Z M153.435059,252.056152 L148.549805,252.056152 L148.549805,255.87207 L154.182129,255.87207 L154.182129,257 L147.106934,257 L147.106934,246.335938 L154.101562,246.335938 L154.101562,247.471191 L148.549805,247.471191 L148.549805,250.920898 L153.435059,250.920898 L153.435059,252.056152 Z M156.89209,249.075195 L156.994629,250.254395 C157.258302,249.834471 157.589109,249.508546 157.987061,249.276611 C158.385012,249.044677 158.837888,248.928711 159.345703,248.928711 C160.2002,248.928711 160.861814,249.178953 161.330566,249.679443 C161.799319,250.179934 162.033691,250.952631 162.033691,251.997559 L162.033691,257 L160.59082,257 L160.59082,252.026855 C160.59082,251.32861 160.452882,250.833009 160.177002,250.540039 C159.901122,250.247069 159.479983,250.100586 158.913574,250.100586 C158.498533,250.100586 158.131105,250.200683 157.811279,250.400879 C157.491453,250.601075 157.236329,250.87451 157.045898,251.221191 L157.045898,257 L155.603027,257 L155.603027,249.075195 L156.89209,249.075195 Z M165.791016,249.075195 L165.791016,257.651855 C165.791016,258.467289 165.581057,259.095945 165.161133,259.537842 C164.741209,259.979739 164.157719,260.200684 163.410645,260.200684 C163.259277,260.200684 163.121339,260.189697 162.996826,260.167725 C162.872314,260.145752 162.739259,260.112793 162.597656,260.068848 L162.700195,258.933594 C162.768555,258.958008 162.86621,258.97876 162.993164,258.99585 C163.120118,259.01294 163.225097,259.021484 163.308105,259.021484 C163.62549,259.021484 163.878173,258.914064 164.066162,258.699219 C164.254151,258.484374 164.348145,258.135256 164.348145,257.651855 L164.348145,249.075195 L165.791016,249.075195 Z M165.74707,247.01709 L164.304199,247.01709 L164.304199,245.574219 L165.74707,245.574219 L165.74707,247.01709 Z M167.67334,252.964355 C167.67334,251.792475 167.990719,250.826908 168.625488,250.067627 C169.260257,249.308346 170.122065,248.928711 171.210938,248.928711 C172.309576,248.928711 173.177487,249.307125 173.814697,250.063965 C174.451907,250.820805 174.770508,251.787592 174.770508,252.964355 L174.770508,253.125488 C174.770508,254.307135 174.453128,255.273922 173.818359,256.025879 C173.183591,256.777836 172.319341,257.153809 171.225586,257.153809 C170.13183,257.153809 169.266361,256.776615 168.62915,256.022217 C167.99194,255.267818 167.67334,254.302252 167.67334,253.125488 L167.67334,252.964355 Z M169.116211,253.125488 C169.116211,253.965336 169.293211,254.658689 169.647217,255.205566 C170.001222,255.752444 170.52734,256.025879 171.225586,256.025879 C171.914066,256.025879 172.436522,255.752444 172.792969,255.205566 C173.149416,254.658689 173.327637,253.965336 173.327637,253.125488 L173.327637,252.964355 C173.327637,252.134273 173.148195,251.443362 172.789307,250.891602 C172.430418,250.339841 171.9043,250.063965 171.210938,250.063965 C170.522457,250.063965 170.001222,250.339841 169.647217,250.891602 C169.293211,251.443362 169.116211,252.134273 169.116211,252.964355 L169.116211,253.125488 Z M178.850098,254.062988 L179.106445,255.059082 L179.150391,255.059082 L181.098633,249.075195 L182.702637,249.075195 L179.370117,258.21582 C179.169921,258.74805 178.883059,259.211912 178.509521,259.607422 C178.135984,260.002932 177.631839,260.200684 176.99707,260.200684 C176.879882,260.200684 176.730958,260.187256 176.550293,260.1604 C176.369628,260.133545 176.230469,260.10791 176.132812,260.083496 L176.279297,258.948242 C176.25,258.943359 176.336669,258.948242 176.539307,258.962891 C176.741944,258.977539 176.870117,258.984863 176.923828,258.984863 C177.231447,258.984863 177.482909,258.848146 177.678223,258.574707 C177.873536,258.301268 178.037109,257.998537 178.168945,257.666504 L178.513184,256.838867 L175.568848,249.075195 L177.180176,249.075195 L178.850098,254.062988 Z M190.12207,254.062988 L190.378418,255.059082 L190.422363,255.059082 L192.370605,249.075195 L193.974609,249.075195 L190.64209,258.21582 C190.441894,258.74805 190.155031,259.211912 189.781494,259.607422 C189.407957,260.002932 188.903812,260.200684 188.269043,260.200684 C188.151855,260.200684 188.002931,260.187256 187.822266,260.1604 C187.641601,260.133545 187.502442,260.10791 187.404785,260.083496 L187.55127,258.948242 C187.521973,258.943359 187.608642,258.948242 187.811279,258.962891 C188.013917,258.977539 188.14209,258.984863 188.195801,258.984863 C188.50342,258.984863 188.754882,258.848146 188.950195,258.574707 C189.145509,258.301268 189.309081,257.998537 189.440918,257.666504 L189.785156,256.838867 L186.84082,249.075195 L188.452148,249.075195 L190.12207,254.062988 Z M194.794922,252.964355 C194.794922,251.792475 195.112302,250.826908 195.74707,250.067627 C196.381839,249.308346 197.243647,248.928711 198.33252,248.928711 C199.431158,248.928711 200.299069,249.307125 200.936279,250.063965 C201.57349,250.820805 201.89209,251.787592 201.89209,252.964355 L201.89209,253.125488 C201.89209,254.307135 201.57471,255.273922 200.939941,256.025879 C200.305173,256.777836 199.440923,257.153809 198.347168,257.153809 C197.253412,257.153809 196.387943,256.776615 195.750732,256.022217 C195.113522,255.267818 194.794922,254.302252 194.794922,253.125488 L194.794922,252.964355 Z M196.237793,253.125488 C196.237793,253.965336 196.414793,254.658689 196.768799,255.205566 C197.122805,255.752444 197.648922,256.025879 198.347168,256.025879 C199.035648,256.025879 199.558104,255.752444 199.914551,255.205566 C200.270998,254.658689 200.449219,253.965336 200.449219,253.125488 L200.449219,252.964355 C200.449219,252.134273 200.269777,251.443362 199.910889,250.891602 C199.552,250.339841 199.025882,250.063965 198.33252,250.063965 C197.64404,250.063965 197.122805,250.339841 196.768799,250.891602 C196.414793,251.443362 196.237793,252.134273 196.237793,252.964355 L196.237793,253.125488 Z M208.688965,255.828125 C208.43994,256.252932 208.120119,256.580077 207.729492,256.80957 C207.338865,257.039064 206.88721,257.153809 206.374512,257.153809 C205.51025,257.153809 204.836428,256.877932 204.353027,256.326172 C203.869626,255.774411 203.62793,254.915045 203.62793,253.748047 L203.62793,249.075195 L205.070801,249.075195 L205.070801,253.762695 C205.070801,254.607426 205.195311,255.188475 205.444336,255.505859 C205.693361,255.823244 206.08154,255.981934 206.608887,255.981934 C207.121585,255.981934 207.545164,255.878175 207.879639,255.670654 C208.214113,255.463134 208.466796,255.168947 208.637695,254.788086 L208.637695,249.075195 L210.080566,249.075195 L210.080566,257 L208.78418,257 L208.688965,255.828125 Z M215.932617,250.349609 L215.192871,250.305664 C214.81201,250.305664 214.490968,250.395995 214.229736,250.57666 C213.968505,250.757325 213.767091,251.011229 213.625488,251.338379 L213.625488,257 L212.182617,257 L212.182617,249.075195 L213.47168,249.075195 L213.61084,250.232422 C213.83545,249.822264 214.112547,249.502443 214.442139,249.272949 C214.77173,249.043456 215.151365,248.928711 215.581055,248.928711 C215.688477,248.928711 215.791015,248.937256 215.888672,248.954346 C215.986329,248.971436 216.066894,248.989746 216.130371,249.009277 L215.932617,250.349609 Z M220.722656,253.184082 C220.722656,251.909662 220.99487,250.88184 221.539307,250.100586 C222.083743,249.319332 222.846675,248.928711 223.828125,248.928711 C224.291995,248.928711 224.703367,249.014159 225.062256,249.185059 C225.421144,249.355958 225.727538,249.604979 225.981445,249.932129 L225.981445,245.574219 L227.424316,245.574219 L227.424316,257 L226.245117,257 L226.07666,256.025879 C225.81787,256.396975 225.50049,256.677733 225.124512,256.868164 C224.748533,257.058595 224.311526,257.153809 223.813477,257.153809 C222.846675,257.153809 222.089846,256.80347 221.542969,256.102783 C220.996091,255.402096 220.722656,254.480474 220.722656,253.337891 L220.722656,253.184082 Z M222.165527,253.337891 C222.165527,254.138676 222.3291,254.779539 222.65625,255.260498 C222.9834,255.741457 223.491207,255.981934 224.179688,255.981934 C224.609377,255.981934 224.970702,255.884278 225.263672,255.688965 C225.556642,255.493651 225.795898,255.220217 225.981445,254.868652 L225.981445,251.169922 C225.795898,250.842772 225.555421,250.582765 225.26001,250.389893 C224.964598,250.197021 224.609377,250.100586 224.194336,250.100586 C223.500973,250.100586 222.989504,250.386228 222.659912,250.95752 C222.330321,251.528811 222.165527,252.270992 222.165527,253.184082 L222.165527,253.337891 Z M234.448242,257 C234.399414,256.760741 234.361572,256.549561 234.334717,256.366455 C234.307861,256.183349 234.291992,255.999024 234.287109,255.813477 C234.018553,256.194338 233.668215,256.512938 233.236084,256.769287 C232.803953,257.025636 232.33887,257.153809 231.84082,257.153809 C231.015621,257.153809 230.386965,256.942629 229.954834,256.520264 C229.522703,256.097898 229.306641,255.515629 229.306641,254.773438 C229.306641,254.016598 229.613034,253.424563 230.22583,252.997314 C230.838626,252.570066 231.669917,252.356445 232.719727,252.356445 L234.287109,252.356445 L234.287109,251.572754 C234.287109,251.108884 234.145509,250.741456 233.862305,250.470459 C233.5791,250.199462 233.178714,250.063965 232.661133,250.063965 C232.197263,250.063965 231.82007,250.182372 231.529541,250.419189 C231.239012,250.656007 231.09375,250.940428 231.09375,251.272461 L229.716797,251.272461 L229.702148,251.228516 C229.672851,250.652341 229.945065,250.125002 230.518799,249.646484 C231.092532,249.167966 231.833492,248.928711 232.741699,248.928711 C233.640141,248.928711 234.36279,249.15698 234.909668,249.613525 C235.456546,250.070071 235.72998,250.728023 235.72998,251.587402 L235.72998,255.40332 C235.72998,255.686525 235.744629,255.95996 235.773926,256.223633 C235.803223,256.487306 235.856933,256.746092 235.935059,257 L234.448242,257 Z M232.053223,255.945312 C232.575686,255.945312 233.046873,255.811036 233.466797,255.54248 C233.886721,255.273924 234.160156,254.96631 234.287109,254.619629 L234.287109,253.330566 L232.668457,253.330566 C232.087399,253.330566 231.622316,253.477049 231.273193,253.77002 C230.924071,254.06299 230.749512,254.407225 230.749512,254.802734 C230.749512,255.154299 230.859374,255.432616 231.079102,255.637695 C231.298829,255.842774 231.623533,255.945312 232.053223,255.945312 Z M240.13916,254.062988 L240.395508,255.059082 L240.439453,255.059082 L242.387695,249.075195 L243.991699,249.075195 L240.65918,258.21582 C240.458983,258.74805 240.172121,259.211912 239.798584,259.607422 C239.425047,260.002932 238.920902,260.200684 238.286133,260.200684 C238.168945,260.200684 238.02002,260.187256 237.839355,260.1604 C237.658691,260.133545 237.519532,260.10791 237.421875,260.083496 L237.568359,258.948242 C237.539062,258.943359 237.625731,258.948242 237.828369,258.962891 C238.031007,258.977539 238.159179,258.984863 238.212891,258.984863 C238.520509,258.984863 238.771972,258.848146 238.967285,258.574707 C239.162599,258.301268 239.326171,257.998537 239.458008,257.666504 L239.802246,256.838867 L236.85791,249.075195 L238.469238,249.075195 L240.13916,254.062988 Z" id="You-have-no-schedule" fill="#95ACD4"></path>
                <g id="empty-pic" transform="translate(114.000000, 81.000000)">
                    <g id="Group-3" transform="translate(0.000000, 65.426522)">
                        <mask id="mask-4" fill="white">
                            <use xlink:href="#path-3"></use>
                        </mask>
                        <g id="Clip-2"></g>
                        <path d="M13.1257143,6.42568548 L3.04324675,6.42568548 C1.36987013,6.42568548 -0.00025974026,5.05370161 -0.00025974026,3.37661559 C-0.00025974026,1.69952957 1.36987013,0.327545699 3.04324675,0.327545699 L13.1257143,0.327545699 C14.7997403,0.327545699 16.1692208,1.69952957 16.1692208,3.37661559 C16.1692208,5.05370161 14.7997403,6.42568548 13.1257143,6.42568548" id="Fill-1" fill="#FF9D00" mask="url(#mask-4)"></path>
                    </g>
                    <path d="M54.6016883,66.9133253 L58.7815584,62.7297177 L62.9497403,66.9133253 L67.127013,62.7297177 L71.3036364,66.9133253 L75.4809091,62.7297177 L79.6516883,66.9133253 L83.8257143,62.7297177 L88.0003896,66.9133253 L92.1802597,62.7297177 L96.3484416,66.9133253 L100.528312,62.7297177 L104.705584,66.9133253 L108.882208,62.7297177 L111.708831,65.5589059 L111.708831,55.059879 C111.708831,37.3262231 97.3575325,22.9519435 79.6516883,22.9519435 C61.9523377,22.9519435 47.601039,37.3262231 47.601039,55.059879 L47.601039,65.5589059 L50.4276623,62.7297177 L54.6016883,66.9133253 Z" id="Fill-4" fill="#AA9C8C"></path>
                    <polygon id="Fill-6" fill="#AA9C8C" points="111.708636 83.9444005 111.708636 61.5958306 108.882662 58.767293 104.70539 62.95025 100.528117 58.767293 96.3482468 62.95025 92.1800649 58.767293 88.0001948 62.95025 83.8261688 58.767293 79.6521429 62.95025 75.4807143 58.767293 71.3040909 62.95025 67.1268182 58.767293 62.9501948 62.95025 58.782013 58.767293 54.6014935 62.95025 50.4274675 58.767293 47.6014935 61.5958306 47.6014935 83.9444005"></polygon>
                    <path d="M106.642403,50.1929468 C106.642403,57.3690274 94.5599351,67.6488231 79.6547403,67.6488231 C64.7501948,67.6488231 52.6677273,57.3690274 52.6677273,50.1929468 C52.6677273,36.4119575 64.7501948,34.312022 79.6547403,34.312022 C94.5599351,34.312022 106.642403,37.9869091 106.642403,50.1929468" id="Fill-8" fill="#FAE5C9"></path>
                    <path d="M67.0073377,55.0710032 L60.0482468,57.3329226 C56.4677273,58.4967344 52.5878571,56.5138957 51.4268182,52.9268312 C50.2651299,49.3397667 52.2437013,45.4528043 55.8242208,44.2889925 L62.7833117,42.0270731 C66.3638312,40.8632613 70.2437013,42.8461 71.4053896,46.4331645 C72.5670779,50.020229 70.5878571,53.9071914 67.0073377,55.0710032" id="Fill-10" fill="#AA9C8C"></path>
                    <path d="M62.1223377,56.6926634 C62.1223377,56.6926634 56.7885714,58.2871312 59.7898701,61.0369538 C59.7898701,61.0369538 49.5411688,61.3401043 49.7944156,60.5724699 C50.047013,59.8061366 52.222987,53.5414591 52.222987,53.5414591 L62.1223377,56.6926634 Z" id="Fill-12" fill="#AA9C8C"></path>
                    <path d="M97.1874675,56.6926634 C97.1874675,56.6926634 102.521234,58.2871312 99.5199351,61.0369538 C99.5199351,61.0369538 109.768636,61.3401043 109.51539,60.5724699 C109.262792,59.8061366 107.086818,53.5414591 107.086818,53.5414591 L97.1874675,56.6926634 Z" id="Fill-14" fill="#AA9C8C"></path>
                    <path d="M68.652987,47.3225145 C69.0302597,48.7081597 68.2153247,50.1380414 66.8322078,50.5166543 C65.4490909,50.8946167 64.0218182,50.0781919 63.6445455,48.6925468 C63.2666234,47.3069016 64.0815584,45.8770199 65.4646753,45.498407 C66.8477922,45.1204446 68.2750649,45.9368694 68.652987,47.3225145" id="Fill-16" fill="#000000"></path>
                    <polygon id="Fill-18" fill="#AA9C8C" points="67.7075974 43.8537177 62.6991558 45.22375 63.6446104 48.6924167 68.6530519 47.3223844"></polygon>
                    <path d="M92.3024026,55.0710032 L99.2614935,57.3329226 C102.842013,58.4967344 106.721883,56.5138957 107.883571,52.9268312 C109.04461,49.3397667 107.066039,45.4528043 103.485519,44.2889925 L96.5264286,42.0270731 C92.9459091,40.8632613 89.066039,42.8461 87.9043506,46.4331645 C86.7426623,50.020229 88.7218831,53.9071914 92.3024026,55.0710032" id="Fill-20" fill="#AA9C8C"></path>
                    <path d="M82.4978571,57.0785624 L76.8121429,57.0785624 C74.6199351,57.0785624 72.8264286,55.2817774 72.8264286,53.0855624 C72.8264286,50.8893473 74.6199351,49.0925624 76.8121429,49.0925624 L82.4978571,49.0925624 C84.6900649,49.0925624 86.4835714,50.8893473 86.4835714,53.0855624 C86.4835714,55.2817774 84.6900649,57.0785624 82.4978571,57.0785624" id="Fill-22" fill="#000000"></path>
                    <path d="M90.6568182,47.3225145 C90.2795455,48.7081597 91.0944805,50.1380414 92.4775974,50.5166543 C93.8607143,50.8946167 95.287987,50.0781919 95.6652597,48.6925468 C96.0431818,47.3069016 95.2282468,45.8770199 93.8451299,45.498407 C92.462013,45.1204446 91.0340909,45.9368694 90.6568182,47.3225145" id="Fill-24" fill="#000000"></path>
                    <polygon id="Fill-26" fill="#AA9C8C" points="91.6021429 43.8537177 96.6105844 45.22375 95.6651299 48.6924167 90.6566883 47.3223844"></polygon>
                    <path d="M105.326883,43.380907 C105.326883,43.380907 106.445714,45.948579 105.172987,45.110036 L105.477532,46.422821 C105.477532,46.422821 107.071039,48.1740683 106.946364,46.422821 L106.821688,44.6715737 L105.326883,43.380907 Z" id="Fill-28" fill="#AA9C8C"></path>
                    <g id="Group-32" transform="translate(11.038961, 46.560930)">
                        <mask id="mask-6" fill="white">
                            <use xlink:href="#path-5"></use>
                        </mask>
                        <g id="Clip-31"></g>
                        <path d="M12.3762987,72.3576747 C14.7769481,69.9526371 18.6685065,69.9526371 21.0691558,72.3576747 C23.4698052,74.7627124 27.362013,74.7627124 29.7626623,72.3576747 C32.1633117,69.9526371 36.0548701,69.9526371 38.4555195,72.3576747 C40.8561688,74.7627124 44.7483766,74.7627124 47.149026,72.3576747 C49.5496753,69.9526371 53.4412338,69.9526371 55.8418831,72.3576747 C58.2425325,74.7627124 62.1347403,74.7627124 64.5353896,72.3576747 C66.9353896,69.9526371 70.8275974,69.9526371 73.2282468,72.3576747 C75.6288961,74.7627124 79.5211039,74.7627124 81.9217532,72.3576747 C84.3217532,69.9526371 88.213961,69.9526371 90.6146104,72.3576747 C93.0152597,74.7627124 96.9074675,74.7627124 99.3074675,72.3576747 C101.708117,69.9526371 105.600325,69.9526371 108.000974,72.3576747 C110.400974,74.7627124 114.293182,74.7627124 116.693831,72.3576747 C119.094481,69.9526371 122.986688,69.9526371 125.387338,72.3576747 C127.758766,74.7334382 131.584091,74.7575081 133.990584,72.4389919 C136.808117,68.6574167 138.481494,63.9761478 138.481494,58.922121 L138.481494,58.922121 C138.481494,46.4474113 128.293182,36.2411263 115.841883,36.2411263 L30.3191558,36.2411263 L30.3191558,15.7674059 C30.3191558,7.42881452 23.5081169,0.605325269 15.1847403,0.605325269 C6.86071429,0.605325269 0.0503246753,7.42881452 0.0503246753,15.7674059 L0.0503246753,58.0165726 C0.0503246753,58.1687984 0.0574675325,58.318422 0.062012987,58.4693468 C0.0587662338,58.6202715 0.0503246753,58.7698952 0.0503246753,58.922121 L0.0503246753,58.922121 C0.0503246753,64.5056855 2.09577922,69.631922 5.46785714,73.5949973 C7.73733766,74.6378091 10.5074675,74.229922 12.3762987,72.3576747" id="Fill-30" fill="#FFD300" mask="url(#mask-6)"></path>
                    </g>
                    <path d="M53.9829221,43.380907 C53.9829221,43.380907 52.8640909,45.948579 54.1368182,45.110036 L53.8322727,46.422821 C53.8322727,46.422821 52.2387662,48.1740683 52.3634416,46.422821 L52.4881169,44.6715737 L53.9829221,43.380907 Z" id="Fill-33" fill="#AA9C8C"></path>
                    <path d="M26.2235714,68.4452113 L26.2235714,68.4452113 C22.8755195,68.4452113 20.1365584,65.7012435 20.1365584,62.3470715 C20.1365584,58.9928995 22.8755195,56.2489317 26.2235714,56.2489317 L26.2235714,56.2489317 C29.5716234,56.2489317 32.3105844,58.9928995 32.3105844,62.3470715 C32.3105844,65.7012435 29.5716234,68.4452113 26.2235714,68.4452113" id="Fill-35" fill="#FFFFFF"></path>
                    <path d="M26.2235065,65.5998247 L26.2235065,65.5998247 C24.4377922,65.5998247 22.9767532,64.1361151 22.9767532,62.3471366 C22.9767532,60.5581581 24.4377922,59.0944484 26.2235065,59.0944484 C28.0092208,59.0944484 29.4702597,60.5581581 29.4702597,62.3471366 C29.4702597,64.1361151 28.0092208,65.5998247 26.2235065,65.5998247" id="Fill-37" fill="#000000"></path>
                    <path d="M121.583831,13.3081134 C123.145519,14.873307 123.145519,17.4097532 121.583831,18.9749468 C120.021494,20.5394898 117.489026,20.5394898 115.927338,18.9749468 C114.365649,17.4097532 114.365649,14.873307 115.927338,13.3081134 C117.489026,11.7435704 120.021494,11.7435704 121.583831,13.3081134" id="Fill-39" fill="#FFC800"></path>
                    <path d="M118.755584,8.09346882 L118.755584,6.19845269" id="Stroke-41" stroke="#FFC800" stroke-width="1.6" stroke-linecap="round" stroke-linejoin="round"></path>
                    <path d="M126.788961,16.1415301 L128.680519,16.1415301" id="Stroke-43" stroke="#FFC800" stroke-width="1.6" stroke-linecap="round" stroke-linejoin="round"></path>
                    <path d="M118.755584,24.1895914 L118.755584,26.0846075" id="Stroke-45" stroke="#FFC800" stroke-width="1.6" stroke-linecap="round" stroke-linejoin="round"></path>
                    <path d="M110.722208,16.1415301 L108.830649,16.1415301" id="Stroke-47" stroke="#FFC800" stroke-width="1.6" stroke-linecap="round" stroke-linejoin="round"></path>
                    <path d="M147.268442,38.5485183 C147.098961,38.5485183 146.958052,38.5771419 146.788571,38.6051151 C146.364545,36.8792387 144.811948,35.6347602 142.976234,35.6347602 C140.801558,35.6347602 139.050909,37.3886097 139.050909,39.5672602 L139.050909,39.8502441 C138.034026,39.8502441 137.215195,40.670572 137.215195,41.6886634 C137.215195,42.7074054 138.034026,43.5277333 139.050909,43.5277333 L147.268442,43.5277333 C148.624286,43.5277333 149.753506,42.4244215 149.753506,41.0667495 C149.725584,39.6518301 148.624286,38.5485183 147.268442,38.5485183" id="Fill-49" fill="#FFFFFF"></path>
                    <path d="M35.5077273,5.16806613 C38.0486364,5.16806613 40.1083766,7.23157151 40.1083766,9.77712527 C40.1083766,12.322679 38.0486364,14.3861844 35.5077273,14.3861844 C32.9668182,14.3861844 30.9070779,12.322679 30.9070779,9.77712527 C30.9070779,7.23157151 32.9668182,5.16806613 35.5077273,5.16806613" id="Fill-51" fill="#FFFFFF"></path>
                    <path d="M43.8263636,0.00019516129 C47.778961,0.00019516129 50.9828571,3.20994785 50.9828571,7.16977043 C50.9828571,11.129593 47.778961,14.3399962 43.8263636,14.3399962 C39.8737662,14.3399962 36.6692208,11.129593 36.6692208,7.16977043 C36.6692208,3.20994785 39.8737662,0.00019516129 43.8263636,0.00019516129" id="Fill-53" fill="#FFFFFF"></path>
                    <path d="M51.4013636,4.28346505 C54.1734416,4.28346505 56.4201948,6.53497581 56.4201948,9.31147043 C56.4201948,12.0886156 54.1734416,14.3401263 51.4013636,14.3401263 C48.6292857,14.3401263 46.3825325,12.0886156 46.3825325,9.31147043 C46.3825325,6.53497581 48.6292857,4.28346505 51.4013636,4.28346505" id="Fill-55" fill="#FFFFFF"></path>
                    <polygon id="Fill-57" fill="#FFFFFF" points="36.0655844 14.2936129 51.4480519 14.2936129 51.4480519 8.24101075 36.0655844 8.24101075"></polygon>
                </g>
            </g>
        </g>
    </g>
</svg>