<?xml version="1.0" encoding="UTF-8"?>
<svg width="352px" height="520px" viewBox="0 0 352 520" version="1.1" xmlns="http://www.w3.org/2000/svg" xmlns:xlink="http://www.w3.org/1999/xlink">
    <!-- Generator: Sketch 40 (33762) - http://www.bohemiancoding.com/sketch -->
    <title>Group 89</title>
    <desc>Created with Sketch.</desc>
    <defs>
        <polygon id="path-1" points="119.573333 114.028797 119.573333 0.372264352 8.24496318e-05 0.372264352 8.24496318e-05 114.028797 119.573333 114.028797"></polygon>
        <linearGradient x1="-29.1911523%" y1="121.043889%" x2="88.3633878%" y2="10.2042452%" id="linearGradient-3">
            <stop stop-color="#D5ECFF" offset="0%"></stop>
            <stop stop-color="#ADD6FF" offset="100%"></stop>
        </linearGradient>
    </defs>
    <g id="Page-1" stroke="none" stroke-width="1" fill="none" fill-rule="evenodd">
        <g id="Group-89" transform="translate(1.000000, 0.000000)">
            <g id="Group-76-Copy-3">
                <g id="Group-10" transform="translate(18.000000, 19.000000)">
                    <g id="Group-8">
                        <g id="Group-Copy-3" transform="translate(1.000000, 0.000000)">
                            <g id="Group-75-Copy"></g>
                        </g>
                        <g id="Group-8-Copy-2" transform="translate(1.000000, 320.000000)"></g>
                        <g id="Group-8-Copy-2" transform="translate(1.000000, 229.000000)"></g>
                        <g id="Group" transform="translate(182.000000, 466.000000)">
                            <g id="Group-10-Copy-2"></g>
                        </g>
                        <g id="Group-6-Copy" transform="translate(1.000000, 174.000000)"></g>
                        <g id="Group-3" transform="translate(1.000000, 79.000000)"></g>
                        <g id="Group-2" transform="translate(0.000000, 9.000000)"></g>
                    </g>
                </g>
                <rect id="Mask" fill="#FFFFFF" x="0" y="0" width="350" height="520" rx="4"></rect>
                <path d="M111.3969,161.844156 C111.021875,161.844156 110.654881,161.882805 110.301538,161.952052 C109.306558,157.961506 105.716115,155 101.423003,155 C96.3621734,155 92.2658086,159.109714 92.2658086,164.183247 C92.2658086,164.397429 92.2826727,164.603558 92.2971276,164.813714 L92.2658086,164.810494 C89.9064438,164.810494 88,166.724442 88,169.087688 C88,171.45013 89.908853,173.364078 92.2658086,173.364078 L111.401718,173.364078 C114.572968,173.364078 117.146748,170.78826 117.146748,167.605325 C117.145141,164.42239 114.571362,161.844156 111.3969,161.844156" id="Fill-63" fill="#FFFFFF"></path>
                <path d="M253.667818,251.527522 C253.074458,251.585861 252.472764,251.615721 251.864115,251.615721 C251.25538,251.615721 250.65361,251.585861 250.060182,251.527522 L232.115481,251.527522 C231.647084,251.584792 231.170128,251.614275 230.686301,251.614275 C224.233167,251.614275 219,246.36714 219,239.896782 C219,233.424978 224.233167,228.179288 230.686301,228.179288 C231.905019,228.179288 233.080142,228.366302 234.184683,228.713273 C236.21747,220.825935 243.361252,215 251.864115,215 C259.445729,215 265.948131,219.633218 268.708581,226.229806 C269.519908,226.067896 270.358928,225.982981 271.217748,225.982981 C278.276539,225.982981 284,231.721719 284,238.799351 C284,245.878429 278.276539,251.615721 271.217748,251.615721 C270.707617,251.615721 270.204473,251.585769 269.709968,251.527522 L253.667818,251.527522 Z" id="Combined-Shape" fill="#FFFFFF"></path>
                <rect id="Mask" fill="#0E86FE" x="0" y="0" width="350" height="95" rx="4"></rect>
                <path d="M148.943848,79.7041016 L143.58252,79.7041016 L142.369629,83 L140.603027,83 L145.55127,70.203125 L147.036621,70.203125 L151.905762,83 L150.13916,83 L148.943848,79.7041016 Z M144.118652,78.2539062 L148.425293,78.2539062 L146.315918,72.4267578 L146.263184,72.4267578 L144.118652,78.2539062 Z M155.210449,83 L153.479004,83 L153.479004,69.2890625 L155.210449,69.2890625 L155.210449,83 Z M159.745605,83 L158.01416,83 L158.01416,69.2890625 L159.745605,69.2890625 L159.745605,83 Z M166.486816,78.4208984 C166.486816,76.8915939 166.813473,75.6582078 167.466797,74.7207031 C168.12012,73.7831984 169.035639,73.3144531 170.213379,73.3144531 C170.770022,73.3144531 171.26367,73.4169912 171.694336,73.6220703 C172.125002,73.8271495 172.492674,74.1259746 172.797363,74.5185547 L172.797363,69.2890625 L174.528809,69.2890625 L174.528809,83 L173.11377,83 L172.911621,81.8310547 C172.601073,82.2763694 172.220217,82.6132801 171.769043,82.8417969 C171.317869,83.0703136 170.79346,83.1845703 170.195801,83.1845703 C169.035639,83.1845703 168.127445,82.7641644 167.471191,81.9233398 C166.814938,81.0825153 166.486816,79.9765694 166.486816,78.6054688 L166.486816,78.4208984 Z M168.218262,78.6054688 C168.218262,79.5664111 168.414549,80.3354463 168.807129,80.9125977 C169.199709,81.489749 169.809078,81.7783203 170.635254,81.7783203 C171.150881,81.7783203 171.584471,81.661134 171.936035,81.4267578 C172.287599,81.1923816 172.574706,80.8642599 172.797363,80.4423828 L172.797363,76.0039062 C172.574706,75.6113262 172.286135,75.2993176 171.931641,75.0678711 C171.577147,74.8364246 171.150881,74.7207031 170.652832,74.7207031 C169.820797,74.7207031 169.207033,75.0634731 168.811523,75.7490234 C168.416014,76.4345737 168.218262,77.3251898 168.218262,78.4208984 L168.218262,78.6054688 Z M176.708496,78.1572266 C176.708496,76.7509695 177.089352,75.5922897 177.851074,74.6811523 C178.612797,73.770015 179.646966,73.3144531 180.953613,73.3144531 C182.271979,73.3144531 183.313473,73.7685501 184.078125,74.6767578 C184.842777,75.5849655 185.225098,76.7451101 185.225098,78.1572266 L185.225098,78.3505859 C185.225098,79.7685618 184.844242,80.9287064 184.08252,81.8310547 C183.320797,82.7334029 182.283698,83.1845703 180.971191,83.1845703 C179.658685,83.1845703 178.620121,82.7319381 177.855469,81.8266602 C177.090816,80.9213822 176.708496,79.7627024 176.708496,78.3505859 L176.708496,78.1572266 Z M178.439941,78.3505859 C178.439941,79.3584035 178.652342,80.1904264 179.077148,80.8466797 C179.501955,81.502933 180.133297,81.8310547 180.971191,81.8310547 C181.797367,81.8310547 182.424314,81.502933 182.852051,80.8466797 C183.279787,80.1904264 183.493652,79.3584035 183.493652,78.3505859 L183.493652,78.1572266 C183.493652,77.1611278 183.278322,76.3320346 182.847656,75.6699219 C182.41699,75.0078092 181.785649,74.6767578 180.953613,74.6767578 C180.127437,74.6767578 179.501955,75.0078092 179.077148,75.6699219 C178.652342,76.3320346 178.439941,77.1611278 178.439941,78.1572266 L178.439941,78.3505859 Z M188.890137,73.4902344 L189.013184,74.9052734 C189.329591,74.4013647 189.72656,74.0102553 190.204102,73.7319336 C190.681643,73.4536119 191.225095,73.3144531 191.834473,73.3144531 C192.859868,73.3144531 193.653806,73.6147431 194.216309,74.215332 C194.778811,74.815921 195.060059,75.7431578 195.060059,76.9970703 L195.060059,83 L193.328613,83 L193.328613,77.0322266 C193.328613,76.1943317 193.163088,75.5996111 192.832031,75.2480469 C192.500975,74.8964826 191.995609,74.7207031 191.315918,74.7207031 C190.817869,74.7207031 190.376955,74.8408191 189.993164,75.0810547 C189.609373,75.3212903 189.303224,75.649412 189.074707,76.0654297 L189.074707,83 L187.343262,83 L187.343262,73.4902344 L188.890137,73.4902344 Z M201.52002,83.1845703 C200.195794,83.1845703 199.142582,82.7436568 198.360352,81.8618164 C197.578121,80.9799761 197.187012,79.8359445 197.187012,78.4296875 L197.187012,78.0429688 C197.187012,76.6894464 197.58984,75.5629928 198.395508,74.6635742 C199.201176,73.7641557 200.15478,73.3144531 201.256348,73.3144531 C202.539557,73.3144531 203.509274,73.701168 204.165527,74.4746094 C204.821781,75.2480507 205.149902,76.2792904 205.149902,77.5683594 L205.149902,78.6494141 L198.97998,78.6494141 L198.953613,78.6933594 C198.971191,79.6074264 199.202634,80.3588838 199.647949,80.9477539 C200.093264,81.536624 200.717281,81.8310547 201.52002,81.8310547 C202.10596,81.8310547 202.620115,81.7475594 203.0625,81.5805664 C203.504885,81.4135734 203.887205,81.1835952 204.209473,80.890625 L204.88623,82.015625 C204.546385,82.349611 204.098147,82.6279286 203.541504,82.8505859 C202.98486,83.0732433 202.311039,83.1845703 201.52002,83.1845703 Z M201.256348,74.6767578 C200.676267,74.6767578 200.181154,74.9213843 199.770996,75.4106445 C199.360838,75.8999048 199.108887,76.5136682 199.015137,77.2519531 L199.032715,77.2958984 L203.418457,77.2958984 L203.418457,77.0673828 C203.418457,76.3876919 203.236818,75.8193382 202.873535,75.3623047 C202.510252,74.9052712 201.971195,74.6767578 201.256348,74.6767578 Z M209.069824,78.7988281 L207.338379,78.7988281 L207.338379,70.203125 L209.069824,70.203125 L209.069824,78.7988281 Z M209.078613,83 L207.338379,83 L207.338379,81.2070312 L209.078613,81.2070312 L209.078613,83 Z" id="All-done!" fill="#FFFFFF"></path>
                <g id="Group-80" transform="translate(88.000000, 33.000000)" stroke="#FFFFFF" stroke-width="2" stroke-linecap="round">
                    <path d="M0,1 L70,1" id="Line"></path>
                    <path d="M104,1 L174,1" id="Line-Copy"></path>
                </g>
                <ellipse id="Oval-34" fill="#FFFFFF" cx="70.5" cy="34.5" rx="11.5" ry="11.5"></ellipse>
                <polygon id="1" fill="#0E86FE" points="71.3227539 39 70.0722656 39 70.0722656 30.9765625 68.1806641 31.0019531 68.1806641 30.1005859 71.3227539 29.7578125"></polygon>
                <g id="Group-79" transform="translate(164.000000, 23.000000)">
                    <ellipse id="Oval-34-Copy" stroke="#FFFFFF" cx="11.5" cy="11.5" rx="11.5" ry="11.5"></ellipse>
                    <path d="M14.7412109,16 L8.74902344,16 L8.74902344,15.1430664 L11.7768555,11.7788086 C12.3185248,11.1736623 12.6856273,10.6933612 12.8781738,10.3378906 C13.0707204,9.9824201 13.1669922,9.61849145 13.1669922,9.24609375 C13.1669922,8.78482842 13.0326348,8.39656733 12.763916,8.08129883 C12.4951972,7.76603032 12.1386741,7.60839844 11.6943359,7.60839844 C11.0553353,7.60839844 10.5845555,7.77237792 10.2819824,8.1003418 C9.97940929,8.42830568 9.828125,8.88850615 9.828125,9.48095703 L8.62841797,9.48095703 L8.61572266,9.44287109 C8.5945637,8.6472942 8.85904673,7.97868109 9.40917969,7.43701172 C9.95931265,6.89534234 10.7210238,6.62451172 11.6943359,6.62451172 C12.5237672,6.62451172 13.1849747,6.86677818 13.6779785,7.35131836 C14.1709823,7.83585854 14.4174805,8.45263297 14.4174805,9.20166016 C14.4174805,9.7052434 14.268312,10.209877 13.9699707,10.7155762 C13.6716294,11.2212753 13.2537462,11.7639945 12.7163086,12.34375 L10.2851563,14.9907227 L10.2978516,15.0224609 L14.7412109,15.0224609 L14.7412109,16 Z" id="2" fill="#FFFFFF"></path>
                </g>
                <ellipse id="Oval-34-Copy-2" stroke="#FFFFFF" fill="#FFFFFF" cx="279.5" cy="34.5" rx="11.5" ry="11.5"></ellipse>
                <path d="M275.321431,29.7142746 C275.321431,29.1992071 274.907926,28.7857021 274.392859,28.7857021 C273.877791,28.7857021 273.464286,29.1992071 273.464286,29.7142746 C273.464286,30.0479804 273.645648,30.3454138 273.928573,30.5122667 L273.928573,39.6964294 C273.928573,39.8197554 274.03739,39.9285725 274.160716,39.9285725 L274.625002,39.9285725 C274.748328,39.9285725 274.857145,39.8197554 274.857145,39.6964294 L274.857145,30.5122667 C275.14007,30.3454138 275.321431,30.0479804 275.321431,29.7142746 Z M286.000015,30.1785609 C286.000015,29.9246544 285.789636,29.7142746 285.535729,29.7142746 C285.216532,29.7142746 283.990526,30.700883 282.851574,30.700883 C282.626686,30.700883 282.416306,30.6646106 282.213181,30.563048 C281.204809,30.0915072 280.312509,29.7142746 279.173556,29.7142746 C278.143421,29.7142746 277.033487,30.1205251 276.119423,30.5848114 C275.930807,30.6791195 275.720427,30.7806822 275.54632,30.8967537 C275.408485,30.9983164 275.321431,31.1216424 275.321431,31.2957497 L275.321431,36.6785687 C275.321431,36.9324752 275.531811,37.1428549 275.785718,37.1428549 C275.872771,37.1428549 275.945316,37.1210915 276.025115,37.0775647 C277.026232,36.5407337 278.237729,36.0184116 279.391191,36.0184116 C280.972666,36.0184116 281.611059,37.0340378 282.945882,37.0340378 C283.896218,37.0340378 284.803027,36.6350418 285.622783,36.192519 C285.833163,36.0837019 286.000015,35.9821393 286.000015,35.7137238 L286.000015,30.1785609 Z" id="flag" fill="#0E86FE"></path>
                <rect id="Mask" fill="#FFFFFF" x="0" y="470" width="350" height="50"></rect>
                <path d="M153.625977,499.904297 L153.643555,499.957031 C153.666992,501.158209 153.245122,502.163082 152.37793,502.97168 C151.510738,503.780277 150.365241,504.18457 148.941406,504.18457 C147.494133,504.18457 146.314946,503.67188 145.403809,502.646484 C144.492671,501.621089 144.037109,500.32032 144.037109,498.744141 L144.037109,496.467773 C144.037109,494.891594 144.492671,493.589361 145.403809,492.561035 C146.314946,491.53271 147.494133,491.018555 148.941406,491.018555 C150.388679,491.018555 151.540035,491.403805 152.395508,492.174316 C153.250981,492.944828 153.666992,493.965814 153.643555,495.237305 L153.625977,495.290039 L151.964844,495.290039 C151.964844,494.39355 151.701175,493.684573 151.173828,493.163086 C150.646482,492.641599 149.902349,492.380859 148.941406,492.380859 C147.974605,492.380859 147.204104,492.770504 146.629883,493.549805 C146.055661,494.329105 145.768555,495.295893 145.768555,496.450195 L145.768555,498.744141 C145.768555,499.910162 146.055661,500.882809 146.629883,501.662109 C147.204104,502.44141 147.974605,502.831055 148.941406,502.831055 C149.902349,502.831055 150.646482,502.57178 151.173828,502.053223 C151.701175,501.534665 151.964844,500.818364 151.964844,499.904297 L153.625977,499.904297 Z M155.251953,499.157227 C155.251953,497.75097 155.632809,496.59229 156.394531,495.681152 C157.156254,494.770015 158.190423,494.314453 159.49707,494.314453 C160.815436,494.314453 161.85693,494.76855 162.621582,495.676758 C163.386234,496.584965 163.768555,497.74511 163.768555,499.157227 L163.768555,499.350586 C163.768555,500.768562 163.387699,501.928706 162.625977,502.831055 C161.864254,503.733403 160.827155,504.18457 159.514648,504.18457 C158.202142,504.18457 157.163578,503.731938 156.398926,502.82666 C155.634274,501.921382 155.251953,500.762702 155.251953,499.350586 L155.251953,499.157227 Z M156.983398,499.350586 C156.983398,500.358403 157.195799,501.190426 157.620605,501.84668 C158.045412,502.502933 158.676754,502.831055 159.514648,502.831055 C160.340824,502.831055 160.967771,502.502933 161.395508,501.84668 C161.823244,501.190426 162.037109,500.358403 162.037109,499.350586 L162.037109,499.157227 C162.037109,498.161128 161.821779,497.332035 161.391113,496.669922 C160.960447,496.007809 160.329106,495.676758 159.49707,495.676758 C158.670894,495.676758 158.045412,496.007809 157.620605,496.669922 C157.195799,497.332035 156.983398,498.161128 156.983398,499.157227 L156.983398,499.350586 Z M167.433594,494.490234 L167.556641,495.905273 C167.873048,495.401365 168.270017,495.010255 168.747559,494.731934 C169.2251,494.453612 169.768552,494.314453 170.37793,494.314453 C171.403325,494.314453 172.197263,494.614743 172.759766,495.215332 C173.322268,495.815921 173.603516,496.743158 173.603516,497.99707 L173.603516,504 L171.87207,504 L171.87207,498.032227 C171.87207,497.194332 171.706545,496.599611 171.375488,496.248047 C171.044432,495.896483 170.539066,495.720703 169.859375,495.720703 C169.361326,495.720703 168.920412,495.840819 168.536621,496.081055 C168.15283,496.32129 167.846681,496.649412 167.618164,497.06543 L167.618164,504 L165.886719,504 L165.886719,494.490234 L167.433594,494.490234 Z M176.600586,504 L176.600586,495.773438 L175.106445,495.773438 L175.106445,494.490234 L176.600586,494.490234 L176.600586,493.461914 C176.600586,492.395502 176.912595,491.569339 177.536621,490.983398 C178.160648,490.397458 179.026362,490.104492 180.133789,490.104492 C180.526369,490.104492 180.913084,490.149902 181.293945,490.240723 C181.674807,490.331543 182.123044,490.464843 182.638672,490.640625 L182.339844,492.046875 C182.029295,491.923828 181.698244,491.81836 181.34668,491.730469 C180.995115,491.642578 180.634767,491.598633 180.265625,491.598633 C179.580075,491.598633 179.086427,491.750975 178.784668,492.055664 C178.482909,492.360353 178.332031,492.829098 178.332031,493.461914 L178.332031,494.490234 L180.22168,494.490234 L180.22168,495.773438 L178.332031,495.773438 L178.332031,504 L176.600586,504 Z M183.482422,504 L181.742188,504 L181.742188,494.490234 L183.482422,494.490234 L183.482422,504 Z M190.636719,496.019531 L189.749023,495.966797 C189.29199,495.966797 188.90674,496.075194 188.593262,496.291992 C188.279784,496.50879 188.038087,496.813475 187.868164,497.206055 L187.868164,504 L186.136719,504 L186.136719,494.490234 L187.683594,494.490234 L187.850586,495.878906 C188.120119,495.386716 188.452635,495.002931 188.848145,494.727539 C189.243654,494.452147 189.699216,494.314453 190.214844,494.314453 C190.343751,494.314453 190.466796,494.324707 190.583984,494.345215 C190.701172,494.365723 190.797851,494.387695 190.874023,494.411133 L190.636719,496.019531 Z M193.853516,494.490234 L193.976562,495.738281 C194.287111,495.287107 194.68115,494.937013 195.158691,494.687988 C195.636233,494.438964 196.191403,494.314453 196.824219,494.314453 C197.457034,494.314453 198.000486,494.460936 198.45459,494.753906 C198.908694,495.046876 199.249999,495.486325 199.478516,496.072266 C199.777345,495.5332 200.172849,495.10547 200.665039,494.789062 C201.157229,494.472655 201.731442,494.314453 202.387695,494.314453 C203.354497,494.314453 204.119138,494.646969 204.681641,495.312012 C205.244143,495.977054 205.525391,496.977532 205.525391,498.313477 L205.525391,504 L203.793945,504 L203.793945,498.295898 C203.793945,497.358394 203.632814,496.694826 203.310547,496.305176 C202.98828,495.915525 202.507816,495.720703 201.869141,495.720703 C201.277341,495.720703 200.798342,495.925779 200.432129,496.335938 C200.065916,496.746096 199.850586,497.264645 199.786133,497.891602 L199.786133,504 L198.045898,504 L198.045898,498.295898 C198.045898,497.405269 197.880373,496.75342 197.549316,496.340332 C197.21826,495.927244 196.742191,495.720703 196.121094,495.720703 C195.593747,495.720703 195.160158,495.8291 194.820312,496.045898 C194.480467,496.262696 194.219727,496.567381 194.038086,496.959961 L194.038086,504 L192.306641,504 L192.306641,494.490234 L193.853516,494.490234 Z" id="Confirm" fill="#0E86FE"></path>
                <path d="M153.625977,499.904297 L153.643555,499.957031 C153.666992,501.158209 153.245122,502.163082 152.37793,502.97168 C151.510738,503.780277 150.365241,504.18457 148.941406,504.18457 C147.494133,504.18457 146.314946,503.67188 145.403809,502.646484 C144.492671,501.621089 144.037109,500.32032 144.037109,498.744141 L144.037109,496.467773 C144.037109,494.891594 144.492671,493.589361 145.403809,492.561035 C146.314946,491.53271 147.494133,491.018555 148.941406,491.018555 C150.388679,491.018555 151.540035,491.403805 152.395508,492.174316 C153.250981,492.944828 153.666992,493.965814 153.643555,495.237305 L153.625977,495.290039 L151.964844,495.290039 C151.964844,494.39355 151.701175,493.684573 151.173828,493.163086 C150.646482,492.641599 149.902349,492.380859 148.941406,492.380859 C147.974605,492.380859 147.204104,492.770504 146.629883,493.549805 C146.055661,494.329105 145.768555,495.295893 145.768555,496.450195 L145.768555,498.744141 C145.768555,499.910162 146.055661,500.882809 146.629883,501.662109 C147.204104,502.44141 147.974605,502.831055 148.941406,502.831055 C149.902349,502.831055 150.646482,502.57178 151.173828,502.053223 C151.701175,501.534665 151.964844,500.818364 151.964844,499.904297 L153.625977,499.904297 Z M155.251953,499.157227 C155.251953,497.75097 155.632809,496.59229 156.394531,495.681152 C157.156254,494.770015 158.190423,494.314453 159.49707,494.314453 C160.815436,494.314453 161.85693,494.76855 162.621582,495.676758 C163.386234,496.584965 163.768555,497.74511 163.768555,499.157227 L163.768555,499.350586 C163.768555,500.768562 163.387699,501.928706 162.625977,502.831055 C161.864254,503.733403 160.827155,504.18457 159.514648,504.18457 C158.202142,504.18457 157.163578,503.731938 156.398926,502.82666 C155.634274,501.921382 155.251953,500.762702 155.251953,499.350586 L155.251953,499.157227 Z M156.983398,499.350586 C156.983398,500.358403 157.195799,501.190426 157.620605,501.84668 C158.045412,502.502933 158.676754,502.831055 159.514648,502.831055 C160.340824,502.831055 160.967771,502.502933 161.395508,501.84668 C161.823244,501.190426 162.037109,500.358403 162.037109,499.350586 L162.037109,499.157227 C162.037109,498.161128 161.821779,497.332035 161.391113,496.669922 C160.960447,496.007809 160.329106,495.676758 159.49707,495.676758 C158.670894,495.676758 158.045412,496.007809 157.620605,496.669922 C157.195799,497.332035 156.983398,498.161128 156.983398,499.157227 L156.983398,499.350586 Z M167.433594,494.490234 L167.556641,495.905273 C167.873048,495.401365 168.270017,495.010255 168.747559,494.731934 C169.2251,494.453612 169.768552,494.314453 170.37793,494.314453 C171.403325,494.314453 172.197263,494.614743 172.759766,495.215332 C173.322268,495.815921 173.603516,496.743158 173.603516,497.99707 L173.603516,504 L171.87207,504 L171.87207,498.032227 C171.87207,497.194332 171.706545,496.599611 171.375488,496.248047 C171.044432,495.896483 170.539066,495.720703 169.859375,495.720703 C169.361326,495.720703 168.920412,495.840819 168.536621,496.081055 C168.15283,496.32129 167.846681,496.649412 167.618164,497.06543 L167.618164,504 L165.886719,504 L165.886719,494.490234 L167.433594,494.490234 Z M176.600586,504 L176.600586,495.773438 L175.106445,495.773438 L175.106445,494.490234 L176.600586,494.490234 L176.600586,493.461914 C176.600586,492.395502 176.912595,491.569339 177.536621,490.983398 C178.160648,490.397458 179.026362,490.104492 180.133789,490.104492 C180.526369,490.104492 180.913084,490.149902 181.293945,490.240723 C181.674807,490.331543 182.123044,490.464843 182.638672,490.640625 L182.339844,492.046875 C182.029295,491.923828 181.698244,491.81836 181.34668,491.730469 C180.995115,491.642578 180.634767,491.598633 180.265625,491.598633 C179.580075,491.598633 179.086427,491.750975 178.784668,492.055664 C178.482909,492.360353 178.332031,492.829098 178.332031,493.461914 L178.332031,494.490234 L180.22168,494.490234 L180.22168,495.773438 L178.332031,495.773438 L178.332031,504 L176.600586,504 Z M183.482422,504 L181.742188,504 L181.742188,494.490234 L183.482422,494.490234 L183.482422,504 Z M190.636719,496.019531 L189.749023,495.966797 C189.29199,495.966797 188.90674,496.075194 188.593262,496.291992 C188.279784,496.50879 188.038087,496.813475 187.868164,497.206055 L187.868164,504 L186.136719,504 L186.136719,494.490234 L187.683594,494.490234 L187.850586,495.878906 C188.120119,495.386716 188.452635,495.002931 188.848145,494.727539 C189.243654,494.452147 189.699216,494.314453 190.214844,494.314453 C190.343751,494.314453 190.466796,494.324707 190.583984,494.345215 C190.701172,494.365723 190.797851,494.387695 190.874023,494.411133 L190.636719,496.019531 Z M193.853516,494.490234 L193.976562,495.738281 C194.287111,495.287107 194.68115,494.937013 195.158691,494.687988 C195.636233,494.438964 196.191403,494.314453 196.824219,494.314453 C197.457034,494.314453 198.000486,494.460936 198.45459,494.753906 C198.908694,495.046876 199.249999,495.486325 199.478516,496.072266 C199.777345,495.5332 200.172849,495.10547 200.665039,494.789062 C201.157229,494.472655 201.731442,494.314453 202.387695,494.314453 C203.354497,494.314453 204.119138,494.646969 204.681641,495.312012 C205.244143,495.977054 205.525391,496.977532 205.525391,498.313477 L205.525391,504 L203.793945,504 L203.793945,498.295898 C203.793945,497.358394 203.632814,496.694826 203.310547,496.305176 C202.98828,495.915525 202.507816,495.720703 201.869141,495.720703 C201.277341,495.720703 200.798342,495.925779 200.432129,496.335938 C200.065916,496.746096 199.850586,497.264645 199.786133,497.891602 L199.786133,504 L198.045898,504 L198.045898,498.295898 C198.045898,497.405269 197.880373,496.75342 197.549316,496.340332 C197.21826,495.927244 196.742191,495.720703 196.121094,495.720703 C195.593747,495.720703 195.160158,495.8291 194.820312,496.045898 C194.480467,496.262696 194.219727,496.567381 194.038086,496.959961 L194.038086,504 L192.306641,504 L192.306641,494.490234 L193.853516,494.490234 Z" id="Confirm" fill="#0E86FE"></path>
                <path d="M0,472 L350,472" id="Line" stroke="#D8E3F6" stroke-linecap="square"></path>
            </g>
            <g id="Group-88" transform="translate(51.000000, 336.000000)" fill="#456297">
                <path d="M5.57226562,7.42578125 L8.66601562,1.203125 L11.0478516,1.203125 L6.609375,9.50878906 L6.609375,14 L4.48242188,14 L4.48242188,9.39453125 L0.114257812,1.203125 L2.49609375,1.203125 L5.57226562,7.42578125 Z M10.9951172,9.15722656 C10.9951172,7.74511013 11.3818321,6.58496548 12.1552734,5.67675781 C12.9404336,4.76855015 14.0038995,4.31445312 15.3457031,4.31445312 C16.7109443,4.31445312 17.7802696,4.76855015 18.5537109,5.67675781 C19.3330117,6.57910607 19.7226562,7.73925072 19.7226562,9.15722656 L19.7226562,9.34179688 C19.7226562,10.7714915 19.3330117,11.9374955 18.5537109,12.8398438 C17.7802696,13.7363326 16.7168036,14.1845703 15.3632812,14.1845703 C14.0038995,14.1845703 12.9345742,13.7334029 12.1552734,12.8310547 C11.3818321,11.9287064 10.9951172,10.7656321 10.9951172,9.34179688 L10.9951172,9.15722656 Z M13.1308594,9.34179688 C13.1308594,10.2675828 13.3124982,11.0234346 13.6757812,11.609375 C14.0332049,12.189456 14.5956993,12.4794922 15.3632812,12.4794922 C16.1074256,12.4794922 16.6640607,12.189456 17.0332031,11.609375 C17.408205,11.0234346 17.5957031,10.2675828 17.5957031,9.34179688 L17.5957031,9.15722656 C17.5957031,8.2490189 17.408205,7.50195605 17.0332031,6.91601562 C16.6640607,6.32421579 16.1015663,6.02832031 15.3457031,6.02832031 C14.6015588,6.02832031 14.0449237,6.32421579 13.6757812,6.91601562 C13.3124982,7.50781546 13.1308594,8.2548783 13.1308594,9.15722656 L13.1308594,9.34179688 Z M27.5097656,12.6113281 C27.210936,13.1152369 26.8330101,13.5034166 26.3759766,13.7758789 C25.918943,14.0483412 25.3916046,14.1845703 24.7939453,14.1845703 C23.774409,14.1845703 22.9775419,13.8593783 22.4033203,13.2089844 C21.8290987,12.5585905 21.5419922,11.5478584 21.5419922,10.1767578 L21.5419922,4.49023438 L23.6689453,4.49023438 L23.6689453,10.1943359 C23.6689453,11.0263713 23.8037096,11.6093733 24.0732422,11.9433594 C24.3427748,12.2773454 24.7499973,12.4443359 25.2949219,12.4443359 C25.8105495,12.4443359 26.242674,12.3520517 26.5913086,12.1674805 C26.9399431,11.9829092 27.2138662,11.7148455 27.4130859,11.3632812 L27.4130859,4.49023438 L29.5488281,4.49023438 L29.5488281,14 L27.6855469,14 L27.5097656,12.6113281 Z M36.5185547,6.41503906 L35.6044922,6.37988281 C35.1884745,6.37988281 34.84131,6.46777256 34.5629883,6.64355469 C34.2846666,6.81933682 34.0693367,7.06835776 33.9169922,7.390625 L33.9169922,14 L31.78125,14 L31.78125,4.49023438 L33.7324219,4.49023438 L33.8730469,5.87011719 C34.1132825,5.38378663 34.4223614,5.00293106 34.800293,4.72753906 C35.1782245,4.45214706 35.6132788,4.31445312 36.1054688,4.31445312 C36.2343756,4.31445312 36.3544916,4.32470693 36.4658203,4.34521484 C36.577149,4.36572276 36.679687,4.39062485 36.7734375,4.41992188 L36.5185547,6.41503906 Z M48.2167969,14 C48.1406246,13.7597644 48.077637,13.5253918 48.027832,13.296875 C47.9780271,13.0683582 47.944336,12.8398449 47.9267578,12.6113281 C47.6337876,13.0566429 47.2485375,13.4301743 46.7709961,13.7319336 C46.2934546,14.0336929 45.758792,14.1845703 45.1669922,14.1845703 C44.1767529,14.1845703 43.4165066,13.92969 42.8862305,13.4199219 C42.3559544,12.9101537 42.0908203,12.2099654 42.0908203,11.3193359 C42.0908203,10.3994095 42.4540979,9.68310803 43.1806641,9.17041016 C43.9072302,8.65771228 44.9296809,8.40136719 46.2480469,8.40136719 L47.9091797,8.40136719 L47.9091797,7.56640625 C47.9091797,7.06835688 47.7626968,6.67871234 47.4697266,6.39746094 C47.1767563,6.11620953 46.7578152,5.97558594 46.2128906,5.97558594 C45.7265601,5.97558594 45.3398452,6.09277227 45.0527344,6.32714844 C44.7656236,6.56152461 44.6220703,6.8632794 44.6220703,7.23242188 L42.5654297,7.23242188 L42.5566406,7.1796875 C42.5156248,6.42968375 42.8510707,5.76465134 43.5629883,5.18457031 C44.2749059,4.60448929 45.2021427,4.31445312 46.3447266,4.31445312 C47.452154,4.31445312 48.3456997,4.59570031 49.0253906,5.15820312 C49.7050815,5.72070594 50.0449219,6.5292916 50.0449219,7.58398438 L50.0449219,11.8115234 C50.0449219,12.2041035 50.0712888,12.5805646 50.1240234,12.940918 C50.1767581,13.3012713 50.2617182,13.6542951 50.3789062,14 L48.2167969,14 Z M45.5976562,12.4707031 C46.1367214,12.4707031 46.6215799,12.3359388 47.0522461,12.0664062 C47.4829123,11.7968737 47.768554,11.4892595 47.9091797,11.1435547 L47.9091797,9.73730469 L46.2128906,9.73730469 C45.5917938,9.73730469 45.1054705,9.89111174 44.7539062,10.1987305 C44.402342,10.5063492 44.2265625,10.868162 44.2265625,11.2841797 C44.2265625,11.6474628 44.3452137,11.9360341 44.5825195,12.1499023 C44.8198254,12.3637706 45.1582009,12.4707031 45.5976562,12.4707031 Z M60.6181641,9.56152344 C60.6181641,10.9443429 60.292972,12.0605426 59.6425781,12.9101562 C58.9921842,13.7597699 58.0869199,14.1845703 56.9267578,14.1845703 C56.3876926,14.1845703 55.9101583,14.0878916 55.4941406,13.8945312 C55.0781229,13.7011709 54.7207046,13.4169941 54.421875,13.0419922 L54.421875,17.65625 L52.2861328,17.65625 L52.2861328,4.49023438 L54.0878906,4.49023438 L54.2988281,5.68554688 C54.6035171,5.24023215 54.9711893,4.9003918 55.4018555,4.66601562 C55.8325217,4.43163945 56.3320284,4.31445312 56.9003906,4.31445312 C58.0722715,4.31445312 58.98486,4.77880395 59.6381836,5.70751953 C60.2915072,6.63623511 60.6181641,7.85936741 60.6181641,9.37695312 L60.6181641,9.56152344 Z M58.4912109,9.37695312 C58.4912109,8.40429201 58.3081073,7.60888981 57.9418945,6.99072266 C57.5756818,6.3725555 57.0293005,6.06347656 56.3027344,6.06347656 C55.8574196,6.06347656 55.4794937,6.15869045 55.1689453,6.34912109 C54.8583969,6.53955173 54.6093759,6.8046858 54.421875,7.14453125 L54.421875,11.4423828 C54.6093759,11.7763689 54.8583969,12.032714 55.1689453,12.2114258 C55.4794937,12.3901376 55.863279,12.4794922 56.3203125,12.4794922 C57.0468786,12.4794922 57.5903302,12.2114285 57.9506836,11.675293 C58.311037,11.1391575 58.4912109,10.4345747 58.4912109,9.56152344 L58.4912109,9.37695312 Z M70.8134766,9.56152344 C70.8134766,10.9443429 70.4882845,12.0605426 69.8378906,12.9101562 C69.1874967,13.7597699 68.2822324,14.1845703 67.1220703,14.1845703 C66.5830051,14.1845703 66.1054708,14.0878916 65.6894531,13.8945312 C65.2734354,13.7011709 64.9160171,13.4169941 64.6171875,13.0419922 L64.6171875,17.65625 L62.4814453,17.65625 L62.4814453,4.49023438 L64.2832031,4.49023438 L64.4941406,5.68554688 C64.7988296,5.24023215 65.1665018,4.9003918 65.597168,4.66601562 C66.0278342,4.43163945 66.5273409,4.31445312 67.0957031,4.31445312 C68.267584,4.31445312 69.1801725,4.77880395 69.8334961,5.70751953 C70.4868197,6.63623511 70.8134766,7.85936741 70.8134766,9.37695312 L70.8134766,9.56152344 Z M68.6865234,9.37695312 C68.6865234,8.40429201 68.5034198,7.60888981 68.137207,6.99072266 C67.7709943,6.3725555 67.224613,6.06347656 66.4980469,6.06347656 C66.0527321,6.06347656 65.6748062,6.15869045 65.3642578,6.34912109 C65.0537094,6.53955173 64.8046884,6.8046858 64.6171875,7.14453125 L64.6171875,11.4423828 C64.8046884,11.7763689 65.0537094,12.032714 65.3642578,12.2114258 C65.6748062,12.3901376 66.0585915,12.4794922 66.515625,12.4794922 C67.2421911,12.4794922 67.7856427,12.2114285 68.1459961,11.675293 C68.5063495,11.1391575 68.6865234,10.4345747 68.6865234,9.56152344 L68.6865234,9.37695312 Z M74.953125,14 L72.8173828,14 L72.8173828,0.2890625 L74.953125,0.2890625 L74.953125,14 Z M79.6201172,14 L77.484375,14 L77.484375,4.49023438 L79.6201172,4.49023438 L79.6201172,14 Z M79.6201172,2.16113281 L77.484375,2.16113281 L77.484375,0.2890625 L79.6201172,0.2890625 L79.6201172,2.16113281 Z M85.9394531,12.4794922 C86.4609401,12.4794922 86.9003888,12.3256851 87.2578125,12.0180664 C87.6152362,11.7104477 87.7939453,11.3251976 87.7939453,10.8623047 L89.7275391,10.8623047 L89.7451172,10.9150391 C89.7744142,11.8056685 89.4126014,12.573239 88.659668,13.2177734 C87.9067345,13.8623079 87.0000053,14.1845703 85.9394531,14.1845703 C84.5390555,14.1845703 83.4653358,13.7334029 82.7182617,12.8310547 C81.9711877,11.9287064 81.5976562,10.7861397 81.5976562,9.40332031 L81.5976562,9.09570312 C81.5976562,7.71874312 81.9711877,6.57764125 82.7182617,5.67236328 C83.4653358,4.76708532 84.5390555,4.31445312 85.9394531,4.31445312 C87.082037,4.31445312 88.0092738,4.64696933 88.7211914,5.31201172 C89.433109,5.97705411 89.7773439,6.8222605 89.7539062,7.84765625 L89.7363281,7.90039062 L87.7939453,7.90039062 C87.7939453,7.37890364 87.6225603,6.93652525 87.2797852,6.57324219 C86.93701,6.20995912 86.4902371,6.02832031 85.9394531,6.02832031 C85.1367147,6.02832031 84.568361,6.3198213 84.234375,6.90283203 C83.900389,7.48584276 83.7333984,8.21679248 83.7333984,9.09570312 L83.7333984,9.40332031 C83.7333984,10.2998092 83.900389,11.0366182 84.234375,11.6137695 C84.568361,12.1909209 85.1367147,12.4794922 85.9394531,12.4794922 Z M97.1806641,14 C97.1044918,13.7597644 97.0415042,13.5253918 96.9916992,13.296875 C96.9418943,13.0683582 96.9082032,12.8398449 96.890625,12.6113281 C96.5976548,13.0566429 96.2124047,13.4301743 95.7348633,13.7319336 C95.2573218,14.0336929 94.7226592,14.1845703 94.1308594,14.1845703 C93.14062,14.1845703 92.3803737,13.92969 91.8500977,13.4199219 C91.3198216,12.9101537 91.0546875,12.2099654 91.0546875,11.3193359 C91.0546875,10.3994095 91.4179651,9.68310803 92.1445312,9.17041016 C92.8710974,8.65771228 93.8935481,8.40136719 95.2119141,8.40136719 L96.8730469,8.40136719 L96.8730469,7.56640625 C96.8730469,7.06835688 96.726564,6.67871234 96.4335938,6.39746094 C96.1406235,6.11620953 95.7216824,5.97558594 95.1767578,5.97558594 C94.6904273,5.97558594 94.3037124,6.09277227 94.0166016,6.32714844 C93.7294908,6.56152461 93.5859375,6.8632794 93.5859375,7.23242188 L91.5292969,7.23242188 L91.5205078,7.1796875 C91.479492,6.42968375 91.8149378,5.76465134 92.5268555,5.18457031 C93.2387731,4.60448929 94.1660099,4.31445312 95.3085938,4.31445312 C96.4160212,4.31445312 97.3095669,4.59570031 97.9892578,5.15820312 C98.6689487,5.72070594 99.0087891,6.5292916 99.0087891,7.58398438 L99.0087891,11.8115234 C99.0087891,12.2041035 99.035156,12.5805646 99.0878906,12.940918 C99.1406253,13.3012713 99.2255854,13.6542951 99.3427734,14 L97.1806641,14 Z M94.5615234,12.4707031 C95.1005886,12.4707031 95.5854471,12.3359388 96.0161133,12.0664062 C96.4467795,11.7968737 96.7324212,11.4892595 96.8730469,11.1435547 L96.8730469,9.73730469 L95.1767578,9.73730469 C94.555661,9.73730469 94.0693377,9.89111174 93.7177734,10.1987305 C93.3662092,10.5063492 93.1904297,10.868162 93.1904297,11.2841797 C93.1904297,11.6474628 93.3090808,11.9360341 93.5463867,12.1499023 C93.7836926,12.3637706 94.1220681,12.4707031 94.5615234,12.4707031 Z M103.904297,2.17871094 L103.904297,4.49023438 L105.609375,4.49023438 L105.609375,6.07226562 L103.904297,6.07226562 L103.904297,11.328125 C103.904297,11.7207051 103.989257,12.0004874 104.15918,12.1674805 C104.329102,12.3344735 104.554686,12.4179688 104.835938,12.4179688 C104.953126,12.4179688 105.067382,12.4077149 105.178711,12.387207 C105.29004,12.3666991 105.395507,12.3388674 105.495117,12.3037109 L105.723633,13.8681641 C105.541991,13.9677739 105.325197,14.0454099 105.073242,14.1010742 C104.821288,14.1567386 104.560548,14.1845703 104.291016,14.1845703 C103.505855,14.1845703 102.890627,13.9545921 102.445312,13.4946289 C101.999998,13.0346657 101.777344,12.3125049 101.777344,11.328125 L101.777344,6.07226562 L100.327148,6.07226562 L100.327148,4.49023438 L101.777344,4.49023438 L101.777344,2.17871094 L103.904297,2.17871094 Z M109.78418,14 L107.648438,14 L107.648438,4.49023438 L109.78418,4.49023438 L109.78418,14 Z M109.78418,2.16113281 L107.648438,2.16113281 L107.648438,0.2890625 L109.78418,0.2890625 L109.78418,2.16113281 Z M111.779297,9.15722656 C111.779297,7.74511013 112.166012,6.58496548 112.939453,5.67675781 C113.724613,4.76855015 114.788079,4.31445312 116.129883,4.31445312 C117.495124,4.31445312 118.564449,4.76855015 119.337891,5.67675781 C120.117191,6.57910607 120.506836,7.73925072 120.506836,9.15722656 L120.506836,9.34179688 C120.506836,10.7714915 120.117191,11.9374955 119.337891,12.8398438 C118.564449,13.7363326 117.500983,14.1845703 116.147461,14.1845703 C114.788079,14.1845703 113.718754,13.7334029 112.939453,12.8310547 C112.166012,11.9287064 111.779297,10.7656321 111.779297,9.34179688 L111.779297,9.15722656 Z M113.915039,9.34179688 C113.915039,10.2675828 114.096678,11.0234346 114.459961,11.609375 C114.817385,12.189456 115.379879,12.4794922 116.147461,12.4794922 C116.891605,12.4794922 117.44824,12.189456 117.817383,11.609375 C118.192385,11.0234346 118.379883,10.2675828 118.379883,9.34179688 L118.379883,9.15722656 C118.379883,8.2490189 118.192385,7.50195605 117.817383,6.91601562 C117.44824,6.32421579 116.885746,6.02832031 116.129883,6.02832031 C115.385738,6.02832031 114.829103,6.32421579 114.459961,6.91601562 C114.096678,7.50781546 113.915039,8.2548783 113.915039,9.15722656 L113.915039,9.34179688 Z M124.303711,4.49023438 L124.426758,5.86132812 C124.737306,5.37499757 125.128416,4.99560683 125.600098,4.72314453 C126.07178,4.45068223 126.603513,4.31445312 127.195312,4.31445312 C128.185552,4.31445312 128.957517,4.61474309 129.51123,5.21533203 C130.064944,5.81592097 130.341797,6.75194677 130.341797,8.0234375 L130.341797,14 L128.206055,14 L128.206055,8.04101562 C128.206055,7.3261683 128.058107,6.8178726 127.762207,6.51611328 C127.466307,6.21435396 127.016605,6.06347656 126.413086,6.06347656 C125.997068,6.06347656 125.625002,6.1557608 125.296875,6.34033203 C124.968748,6.52490327 124.69922,6.7783187 124.488281,7.10058594 L124.488281,14 L122.352539,14 L122.352539,4.49023438 L124.303711,4.49023438 Z M139.324219,14 L137.188477,14 L137.188477,4.49023438 L139.324219,4.49023438 L139.324219,14 Z M139.324219,2.16113281 L137.188477,2.16113281 L137.188477,0.2890625 L139.324219,0.2890625 L139.324219,2.16113281 Z M147.058594,11.4160156 C147.058594,11.087889 146.91797,10.8154308 146.636719,10.5986328 C146.355467,10.3818349 145.831059,10.1914071 145.063477,10.0273438 C143.926752,9.78710817 143.066897,9.44580299 142.483887,9.00341797 C141.900876,8.56103294 141.609375,7.95898818 141.609375,7.19726562 C141.609375,6.40038664 141.946286,5.72070594 142.620117,5.15820312 C143.293949,4.59570031 144.181635,4.31445312 145.283203,4.31445312 C146.443365,4.31445312 147.364743,4.6000948 148.047363,5.17138672 C148.729984,5.74267864 149.056641,6.45019109 149.027344,7.29394531 L149.009766,7.34667969 L146.961914,7.34667969 C146.961914,6.9540996 146.812501,6.61718891 146.513672,6.3359375 C146.214842,6.05468609 145.80469,5.9140625 145.283203,5.9140625 C144.767576,5.9140625 144.375001,6.029784 144.105469,6.26123047 C143.835936,6.49267694 143.701172,6.77538896 143.701172,7.109375 C143.701172,7.44336104 143.828612,7.70849511 144.083496,7.90478516 C144.33838,8.1010752 144.855465,8.27538986 145.634766,8.42773438 C146.830084,8.67382936 147.716306,9.02099385 148.293457,9.46923828 C148.870608,9.91748271 149.15918,10.5283164 149.15918,11.3017578 C149.15918,12.1572308 148.806156,12.8515598 148.100098,13.3847656 C147.394039,13.9179714 146.463873,14.1845703 145.30957,14.1845703 C144.073236,14.1845703 143.09766,13.8681672 142.382812,13.2353516 C141.667965,12.6025359 141.328125,11.8759807 141.363281,11.0556641 L141.380859,11.0029297 L143.367188,11.0029297 C143.390625,11.5537137 143.589842,11.9550769 143.964844,12.2070312 C144.339846,12.4589856 144.796872,12.5849609 145.335938,12.5849609 C145.886722,12.5849609 146.311522,12.4794932 146.610352,12.2685547 C146.909181,12.0576161 147.058594,11.7734393 147.058594,11.4160156 Z M160.901367,11.4160156 C160.901367,11.087889 160.760744,10.8154308 160.479492,10.5986328 C160.198241,10.3818349 159.673832,10.1914071 158.90625,10.0273438 C157.769526,9.78710817 156.909671,9.44580299 156.32666,9.00341797 C155.743649,8.56103294 155.452148,7.95898818 155.452148,7.19726562 C155.452148,6.40038664 155.789059,5.72070594 156.462891,5.15820312 C157.136722,4.59570031 158.024409,4.31445312 159.125977,4.31445312 C160.286139,4.31445312 161.207516,4.6000948 161.890137,5.17138672 C162.572757,5.74267864 162.899414,6.45019109 162.870117,7.29394531 L162.852539,7.34667969 L160.804688,7.34667969 C160.804688,6.9540996 160.655275,6.61718891 160.356445,6.3359375 C160.057616,6.05468609 159.647464,5.9140625 159.125977,5.9140625 C158.610349,5.9140625 158.217775,6.029784 157.948242,6.26123047 C157.67871,6.49267694 157.543945,6.77538896 157.543945,7.109375 C157.543945,7.44336104 157.671385,7.70849511 157.92627,7.90478516 C158.181154,8.1010752 158.698238,8.27538986 159.477539,8.42773438 C160.672858,8.67382936 161.559079,9.02099385 162.13623,9.46923828 C162.713382,9.91748271 163.001953,10.5283164 163.001953,11.3017578 C163.001953,12.1572308 162.648929,12.8515598 161.942871,13.3847656 C161.236813,13.9179714 160.306646,14.1845703 159.152344,14.1845703 C157.916009,14.1845703 156.940433,13.8681672 156.225586,13.2353516 C155.510739,12.6025359 155.170898,11.8759807 155.206055,11.0556641 L155.223633,11.0029297 L157.209961,11.0029297 C157.233399,11.5537137 157.432615,11.9550769 157.807617,12.2070312 C158.182619,12.4589856 158.639646,12.5849609 159.178711,12.5849609 C159.729495,12.5849609 160.154295,12.4794932 160.453125,12.2685547 C160.751955,12.0576161 160.901367,11.7734393 160.901367,11.4160156 Z M170.841797,12.6113281 C170.542967,13.1152369 170.165041,13.5034166 169.708008,13.7758789 C169.250974,14.0483412 168.723636,14.1845703 168.125977,14.1845703 C167.10644,14.1845703 166.309573,13.8593783 165.735352,13.2089844 C165.16113,12.5585905 164.874023,11.5478584 164.874023,10.1767578 L164.874023,4.49023438 L167.000977,4.49023438 L167.000977,10.1943359 C167.000977,11.0263713 167.135741,11.6093733 167.405273,11.9433594 C167.674806,12.2773454 168.082029,12.4443359 168.626953,12.4443359 C169.142581,12.4443359 169.574705,12.3520517 169.92334,12.1674805 C170.271974,11.9829092 170.545897,11.7148455 170.745117,11.3632812 L170.745117,4.49023438 L172.880859,4.49023438 L172.880859,14 L171.017578,14 L170.841797,12.6113281 Z M179.041992,12.4794922 C179.563479,12.4794922 180.002928,12.3256851 180.360352,12.0180664 C180.717775,11.7104477 180.896484,11.3251976 180.896484,10.8623047 L182.830078,10.8623047 L182.847656,10.9150391 C182.876953,11.8056685 182.51514,12.573239 181.762207,13.2177734 C181.009274,13.8623079 180.102544,14.1845703 179.041992,14.1845703 C177.641595,14.1845703 176.567875,13.7334029 175.820801,12.8310547 C175.073727,11.9287064 174.700195,10.7861397 174.700195,9.40332031 L174.700195,9.09570312 C174.700195,7.71874312 175.073727,6.57764125 175.820801,5.67236328 C176.567875,4.76708532 177.641595,4.31445312 179.041992,4.31445312 C180.184576,4.31445312 181.111813,4.64696933 181.82373,5.31201172 C182.535648,5.97705411 182.879883,6.8222605 182.856445,7.84765625 L182.838867,7.90039062 L180.896484,7.90039062 C180.896484,7.37890364 180.725099,6.93652525 180.382324,6.57324219 C180.039549,6.20995912 179.592776,6.02832031 179.041992,6.02832031 C178.239254,6.02832031 177.6709,6.3198213 177.336914,6.90283203 C177.002928,7.48584276 176.835938,8.21679248 176.835938,9.09570312 L176.835938,9.40332031 C176.835938,10.2998092 177.002928,11.0366182 177.336914,11.6137695 C177.6709,12.1909209 178.239254,12.4794922 179.041992,12.4794922 Z M188.490234,12.4794922 C189.011721,12.4794922 189.45117,12.3256851 189.808594,12.0180664 C190.166017,11.7104477 190.344727,11.3251976 190.344727,10.8623047 L192.27832,10.8623047 L192.295898,10.9150391 C192.325195,11.8056685 191.963383,12.573239 191.210449,13.2177734 C190.457516,13.8623079 189.550787,14.1845703 188.490234,14.1845703 C187.089837,14.1845703 186.016117,13.7334029 185.269043,12.8310547 C184.521969,11.9287064 184.148438,10.7861397 184.148438,9.40332031 L184.148438,9.09570312 C184.148438,7.71874312 184.521969,6.57764125 185.269043,5.67236328 C186.016117,4.76708532 187.089837,4.31445312 188.490234,4.31445312 C189.632818,4.31445312 190.560055,4.64696933 191.271973,5.31201172 C191.98389,5.97705411 192.328125,6.8222605 192.304688,7.84765625 L192.287109,7.90039062 L190.344727,7.90039062 C190.344727,7.37890364 190.173342,6.93652525 189.830566,6.57324219 C189.487791,6.20995912 189.041018,6.02832031 188.490234,6.02832031 C187.687496,6.02832031 187.119142,6.3198213 186.785156,6.90283203 C186.45117,7.48584276 186.28418,8.21679248 186.28418,9.09570312 L186.28418,9.40332031 C186.28418,10.2998092 186.45117,11.0366182 186.785156,11.6137695 C187.119142,12.1909209 187.687496,12.4794922 188.490234,12.4794922 Z M198.087891,14.1845703 C196.740228,14.1845703 195.666508,13.7436568 194.866699,12.8618164 C194.066891,11.9799761 193.666992,10.8476632 193.666992,9.46484375 L193.666992,9.11328125 C193.666992,7.73046184 194.063961,6.58350065 194.85791,5.67236328 C195.651859,4.76122591 196.646478,4.30859372 197.841797,4.31445312 C199.125006,4.31445312 200.107907,4.70263284 200.790527,5.47900391 C201.473148,6.25537498 201.814453,7.29686847 201.814453,8.60351562 L201.814453,9.86035156 L195.881836,9.86035156 L195.864258,9.90429688 C195.899414,10.66016 196.120603,11.2783179 196.527832,11.7587891 C196.935061,12.2392602 197.49902,12.4794922 198.219727,12.4794922 C198.793948,12.4794922 199.286131,12.4091804 199.696289,12.2685547 C200.106447,12.127929 200.501951,11.9257826 200.882812,11.6621094 L201.568359,13.0595703 C201.210936,13.3759781 200.736331,13.642577 200.144531,13.859375 C199.552731,14.076173 198.867191,14.1845703 198.087891,14.1845703 Z M197.841797,6.02832031 C197.31445,6.02832031 196.880861,6.23779087 196.541016,6.65673828 C196.20117,7.07568569 195.990235,7.60741865 195.908203,8.25195312 L195.925781,8.29589844 L199.696289,8.29589844 L199.696289,8.07617188 C199.696289,7.47265323 199.542482,6.98047065 199.234863,6.59960938 C198.927245,6.2187481 198.462894,6.02832031 197.841797,6.02832031 Z M208.880859,11.4160156 C208.880859,11.087889 208.740236,10.8154308 208.458984,10.5986328 C208.177733,10.3818349 207.653324,10.1914071 206.885742,10.0273438 C205.749018,9.78710817 204.889163,9.44580299 204.306152,9.00341797 C203.723142,8.56103294 203.431641,7.95898818 203.431641,7.19726562 C203.431641,6.40038664 203.768551,5.72070594 204.442383,5.15820312 C205.116214,4.59570031 206.003901,4.31445312 207.105469,4.31445312 C208.265631,4.31445312 209.187008,4.6000948 209.869629,5.17138672 C210.55225,5.74267864 210.878906,6.45019109 210.849609,7.29394531 L210.832031,7.34667969 L208.78418,7.34667969 C208.78418,6.9540996 208.634767,6.61718891 208.335938,6.3359375 C208.037108,6.05468609 207.626956,5.9140625 207.105469,5.9140625 C206.589841,5.9140625 206.197267,6.029784 205.927734,6.26123047 C205.658202,6.49267694 205.523438,6.77538896 205.523438,7.109375 C205.523438,7.44336104 205.650878,7.70849511 205.905762,7.90478516 C206.160646,8.1010752 206.67773,8.27538986 207.457031,8.42773438 C208.65235,8.67382936 209.538571,9.02099385 210.115723,9.46923828 C210.692874,9.91748271 210.981445,10.5283164 210.981445,11.3017578 C210.981445,12.1572308 210.628421,12.8515598 209.922363,13.3847656 C209.216305,13.9179714 208.286139,14.1845703 207.131836,14.1845703 C205.895502,14.1845703 204.919925,13.8681672 204.205078,13.2353516 C203.490231,12.6025359 203.15039,11.8759807 203.185547,11.0556641 L203.203125,11.0029297 L205.189453,11.0029297 C205.212891,11.5537137 205.412107,11.9550769 205.787109,12.2070312 C206.162111,12.4589856 206.619138,12.5849609 207.158203,12.5849609 C207.708987,12.5849609 208.133788,12.4794932 208.432617,12.2685547 C208.731447,12.0576161 208.880859,11.7734393 208.880859,11.4160156 Z M218.241211,11.4160156 C218.241211,11.087889 218.100587,10.8154308 217.819336,10.5986328 C217.538085,10.3818349 217.013676,10.1914071 216.246094,10.0273438 C215.109369,9.78710817 214.249515,9.44580299 213.666504,9.00341797 C213.083493,8.56103294 212.791992,7.95898818 212.791992,7.19726562 C212.791992,6.40038664 213.128903,5.72070594 213.802734,5.15820312 C214.476566,4.59570031 215.364252,4.31445312 216.46582,4.31445312 C217.625982,4.31445312 218.54736,4.6000948 219.22998,5.17138672 C219.912601,5.74267864 220.239258,6.45019109 220.209961,7.29394531 L220.192383,7.34667969 L218.144531,7.34667969 C218.144531,6.9540996 217.995119,6.61718891 217.696289,6.3359375 C217.397459,6.05468609 216.987307,5.9140625 216.46582,5.9140625 C215.950193,5.9140625 215.557619,6.029784 215.288086,6.26123047 C215.018553,6.49267694 214.883789,6.77538896 214.883789,7.109375 C214.883789,7.44336104 215.011229,7.70849511 215.266113,7.90478516 C215.520997,8.1010752 216.038082,8.27538986 216.817383,8.42773438 C218.012701,8.67382936 218.898923,9.02099385 219.476074,9.46923828 C220.053226,9.91748271 220.341797,10.5283164 220.341797,11.3017578 C220.341797,12.1572308 219.988773,12.8515598 219.282715,13.3847656 C218.576657,13.9179714 217.64649,14.1845703 216.492188,14.1845703 C215.255853,14.1845703 214.280277,13.8681672 213.56543,13.2353516 C212.850582,12.6025359 212.510742,11.8759807 212.545898,11.0556641 L212.563477,11.0029297 L214.549805,11.0029297 C214.573242,11.5537137 214.772459,11.9550769 215.147461,12.2070312 C215.522463,12.4589856 215.979489,12.5849609 216.518555,12.5849609 C217.069339,12.5849609 217.494139,12.4794932 217.792969,12.2685547 C218.091798,12.0576161 218.241211,11.7734393 218.241211,11.4160156 Z M222.952148,14 L222.952148,6.07226562 L221.501953,6.07226562 L221.501953,4.49023438 L222.952148,4.49023438 L222.952148,3.3828125 C222.952148,2.33397913 223.23779,1.52539347 223.809082,0.95703125 C224.380374,0.388669033 225.181635,0.104492188 226.212891,0.104492188 C226.41797,0.104492188 226.625976,0.120605308 226.836914,0.152832031 C227.047853,0.185058755 227.285155,0.230468457 227.548828,0.2890625 L227.329102,1.94140625 C227.211913,1.91796863 227.081544,1.89746103 226.937988,1.87988281 C226.794433,1.8623046 226.640626,1.85351562 226.476562,1.85351562 C226.01367,1.85351562 225.666505,1.98535024 225.435059,2.24902344 C225.203612,2.51269663 225.087891,2.89062254 225.087891,3.3828125 L225.087891,4.49023438 L227.021484,4.49023438 L227.021484,6.07226562 L225.087891,6.07226562 L225.087891,14 L222.952148,14 Z M234.500977,12.6113281 C234.202147,13.1152369 233.824221,13.5034166 233.367188,13.7758789 C232.910154,14.0483412 232.382815,14.1845703 231.785156,14.1845703 C230.76562,14.1845703 229.968753,13.8593783 229.394531,13.2089844 C228.82031,12.5585905 228.533203,11.5478584 228.533203,10.1767578 L228.533203,4.49023438 L230.660156,4.49023438 L230.660156,10.1943359 C230.660156,11.0263713 230.794921,11.6093733 231.064453,11.9433594 C231.333986,12.2773454 231.741208,12.4443359 232.286133,12.4443359 C232.80176,12.4443359 233.233885,12.3520517 233.58252,12.1674805 C233.931154,11.9829092 234.205077,11.7148455 234.404297,11.3632812 L234.404297,4.49023438 L236.540039,4.49023438 L236.540039,14 L234.676758,14 L234.500977,12.6113281 Z M241.048828,14 L238.913086,14 L238.913086,0.2890625 L241.048828,0.2890625 L241.048828,14 Z" id="Your-application-is"></path>
            </g>
            <path d="M49.8493652,372.471191 L46.4216309,372.471191 L46.4216309,382 L44.9787598,382 L44.9787598,372.471191 L41.5583496,372.471191 L41.5583496,371.335938 L49.8493652,371.335938 L49.8493652,372.471191 Z M52.588623,375.137207 C52.8620619,374.756346 53.1977519,374.459718 53.5957031,374.247314 C53.9936543,374.034911 54.4343238,373.928711 54.9177246,373.928711 C55.7624554,373.928711 56.4204078,374.182615 56.8916016,374.69043 C57.3627953,375.198245 57.5983887,375.979487 57.5983887,377.03418 L57.5983887,382 L56.1555176,382 L56.1555176,377.019531 C56.1555176,376.365231 56.0151381,375.881838 55.734375,375.569336 C55.4536119,375.256834 55.0349149,375.100586 54.4782715,375.100586 C54.0778789,375.100586 53.7153337,375.194579 53.390625,375.382568 C53.0659163,375.570558 52.798585,375.825682 52.588623,376.147949 L52.588623,382 L51.145752,382 L51.145752,370.574219 L52.588623,370.574219 L52.588623,375.137207 Z M62.9597168,382.153809 C61.8561957,382.153809 60.9785189,381.786381 60.3266602,381.051514 C59.6748014,380.316647 59.348877,379.363287 59.348877,378.191406 L59.348877,377.869141 C59.348877,376.741205 59.684567,375.802494 60.355957,375.052979 C61.0273471,374.303463 61.8220169,373.928711 62.7399902,373.928711 C63.8093315,373.928711 64.6174289,374.250973 65.1643066,374.895508 C65.7111844,375.540042 65.9846191,376.399409 65.9846191,377.473633 L65.9846191,378.374512 L60.8430176,378.374512 L60.8210449,378.411133 C60.8356934,379.172855 61.0285626,379.79907 61.3996582,380.289795 C61.7707538,380.78052 62.2907681,381.025879 62.9597168,381.025879 C63.4480005,381.025879 63.876463,380.9563 64.2451172,380.817139 C64.6137714,380.677978 64.9323717,380.486329 65.2009277,380.242188 L65.7648926,381.179688 C65.481688,381.458009 65.1081566,381.68994 64.6442871,381.875488 C64.1804176,382.061036 63.6188998,382.153809 62.9597168,382.153809 Z M62.7399902,375.063965 C62.2565894,375.063965 61.8439958,375.26782 61.5021973,375.675537 C61.1603987,376.083254 60.9504398,376.594723 60.8723145,377.209961 L60.8869629,377.246582 L64.541748,377.246582 L64.541748,377.056152 C64.541748,376.489743 64.3903824,376.016115 64.0876465,375.635254 C63.7849106,375.254393 63.3356963,375.063965 62.7399902,375.063965 Z M74.5539551,381.025879 C75.0324731,381.025879 75.4536115,380.878175 75.8173828,380.582764 C76.1811542,380.287352 76.3630371,379.924807 76.3630371,379.495117 L77.6594238,379.495117 L77.6740723,379.539062 C77.6984865,380.22266 77.3945344,380.829343 76.762207,381.359131 C76.1298797,381.888919 75.393803,382.153809 74.5539551,382.153809 C73.4016056,382.153809 72.5202667,381.777836 71.9099121,381.025879 C71.2995575,380.273922 70.9943848,379.329107 70.9943848,378.191406 L70.9943848,377.883789 C70.9943848,376.755854 71.3007782,375.814701 71.9135742,375.060303 C72.5263703,374.305904 73.4064884,373.928711 74.5539551,373.928711 C75.4816941,373.928711 76.2397432,374.202146 76.828125,374.749023 C77.4165068,375.295901 77.7009278,375.967281 77.6813965,376.763184 L77.666748,376.807129 L76.3630371,376.807129 C76.3630371,376.323728 76.1921404,375.912355 75.8503418,375.572998 C75.5085432,375.233641 75.0764186,375.063965 74.5539551,375.063965 C73.7971154,375.063965 73.2563493,375.336179 72.9316406,375.880615 C72.606932,376.425052 72.4445801,377.092769 72.4445801,377.883789 L72.4445801,378.191406 C72.4445801,379.001957 72.6057113,379.676999 72.9279785,380.216553 C73.2502458,380.756106 73.7922325,381.025879 74.5539551,381.025879 Z M78.9558105,377.964355 C78.9558105,376.792475 79.2731902,375.826908 79.907959,375.067627 C80.5427278,374.308346 81.4045356,373.928711 82.4934082,373.928711 C83.5920465,373.928711 84.4599578,374.307125 85.097168,375.063965 C85.7343782,375.820805 86.0529785,376.787592 86.0529785,377.964355 L86.0529785,378.125488 C86.0529785,379.307135 85.7355989,380.273922 85.1008301,381.025879 C84.4660613,381.777836 83.6018121,382.153809 82.5080566,382.153809 C81.4143012,382.153809 80.5488313,381.776615 79.9116211,381.022217 C79.2744109,380.267818 78.9558105,379.302252 78.9558105,378.125488 L78.9558105,377.964355 Z M80.3986816,378.125488 C80.3986816,378.965336 80.5756818,379.658689 80.9296875,380.205566 C81.2836932,380.752444 81.809811,381.025879 82.5080566,381.025879 C83.1965366,381.025879 83.7189924,380.752444 84.0754395,380.205566 C84.4318865,379.658689 84.6101074,378.965336 84.6101074,378.125488 L84.6101074,377.964355 C84.6101074,377.134273 84.4306659,376.443362 84.0717773,375.891602 C83.7128888,375.339841 83.186771,375.063965 82.4934082,375.063965 C81.8049282,375.063965 81.2836932,375.339841 80.9296875,375.891602 C80.5756818,376.443362 80.3986816,377.134273 80.3986816,377.964355 L80.3986816,378.125488 Z M92.8498535,380.828125 C92.6008288,381.252932 92.2810078,381.580077 91.8903809,381.80957 C91.4997539,382.039064 91.0480983,382.153809 90.5354004,382.153809 C89.6711383,382.153809 88.9973169,381.877932 88.513916,381.326172 C88.0305152,380.774411 87.7888184,379.915045 87.7888184,378.748047 L87.7888184,374.075195 L89.2316895,374.075195 L89.2316895,378.762695 C89.2316895,379.607426 89.3561999,380.188475 89.6052246,380.505859 C89.8542493,380.823244 90.242429,380.981934 90.7697754,380.981934 C91.2824733,380.981934 91.706053,380.878175 92.0405273,380.670654 C92.3750017,380.463134 92.6276847,380.168947 92.798584,379.788086 L92.798584,374.075195 L94.2414551,374.075195 L94.2414551,382 L92.9450684,382 L92.8498535,380.828125 Z M100.093506,375.349609 L99.3537598,375.305664 C98.9728985,375.305664 98.6518568,375.395995 98.390625,375.57666 C98.1293932,375.757325 97.9279792,376.011229 97.786377,376.338379 L97.786377,382 L96.3435059,382 L96.3435059,374.075195 L97.6325684,374.075195 L97.7717285,375.232422 C97.996339,374.822264 98.2734359,374.502443 98.6030273,374.272949 C98.9326188,374.043456 99.3122537,373.928711 99.7419434,373.928711 C99.8493658,373.928711 99.9519038,373.937256 100.049561,373.954346 C100.147217,373.971436 100.227783,373.989746 100.29126,374.009277 L100.093506,375.349609 Z M106.092041,379.897949 C106.092041,379.580565 105.971193,379.319337 105.729492,379.114258 C105.487792,378.909179 105.030033,378.730958 104.356201,378.57959 C103.394282,378.369628 102.670413,378.085207 102.18457,377.726318 C101.698728,377.36743 101.455811,376.877933 101.455811,376.257812 C101.455811,375.613278 101.729245,375.063967 102.276123,374.609863 C102.823001,374.155759 103.535884,373.928711 104.414795,373.928711 C105.337651,373.928711 106.071286,374.165525 106.615723,374.63916 C107.160159,375.112795 107.420166,375.688961 107.395752,376.367676 L107.381104,376.411621 L106.00415,376.411621 C106.00415,376.06494 105.858888,375.753663 105.568359,375.477783 C105.277831,375.201903 104.893313,375.063965 104.414795,375.063965 C103.902097,375.063965 103.521241,375.176268 103.272217,375.400879 C103.023192,375.625489 102.898682,375.896483 102.898682,376.213867 C102.898682,376.526369 103.008544,376.772948 103.228271,376.953613 C103.447999,377.134278 103.894772,377.295409 104.568604,377.437012 C105.569585,377.651857 106.314207,377.943602 106.80249,378.312256 C107.290774,378.68091 107.534912,379.17529 107.534912,379.79541 C107.534912,380.498539 107.250491,381.067381 106.681641,381.501953 C106.11279,381.936526 105.369389,382.153809 104.451416,382.153809 C103.440669,382.153809 102.644778,381.897464 102.063721,381.384766 C101.482663,380.872068 101.206787,380.273929 101.236084,379.590332 L101.250732,379.546387 L102.627686,379.546387 C102.6521,380.059085 102.842528,380.433837 103.198975,380.670654 C103.555422,380.907472 103.972898,381.025879 104.451416,381.025879 C104.964114,381.025879 105.365721,380.92212 105.65625,380.7146 C105.946779,380.507079 106.092041,380.234865 106.092041,379.897949 Z M112.61792,382.153809 C111.514399,382.153809 110.636722,381.786381 109.984863,381.051514 C109.333005,380.316647 109.00708,379.363287 109.00708,378.191406 L109.00708,377.869141 C109.00708,376.741205 109.34277,375.802494 110.01416,375.052979 C110.68555,374.303463 111.48022,373.928711 112.398193,373.928711 C113.467535,373.928711 114.275632,374.250973 114.82251,374.895508 C115.369388,375.540042 115.642822,376.399409 115.642822,377.473633 L115.642822,378.374512 L110.501221,378.374512 L110.479248,378.411133 C110.493897,379.172855 110.686766,379.79907 111.057861,380.289795 C111.428957,380.78052 111.948971,381.025879 112.61792,381.025879 C113.106204,381.025879 113.534666,380.9563 113.90332,380.817139 C114.271974,380.677978 114.590575,380.486329 114.859131,380.242188 L115.423096,381.179688 C115.139891,381.458009 114.76636,381.68994 114.30249,381.875488 C113.838621,382.061036 113.277103,382.153809 112.61792,382.153809 Z M112.398193,375.063965 C111.914793,375.063965 111.502199,375.26782 111.1604,375.675537 C110.818602,376.083254 110.608643,376.594723 110.530518,377.209961 L110.545166,377.246582 L114.199951,377.246582 L114.199951,377.056152 C114.199951,376.489743 114.048585,376.016115 113.74585,375.635254 C113.443114,375.254393 112.993899,375.063965 112.398193,375.063965 Z M124.212158,381.025879 C124.690676,381.025879 125.111815,380.878175 125.475586,380.582764 C125.839357,380.287352 126.02124,379.924807 126.02124,379.495117 L127.317627,379.495117 L127.332275,379.539062 C127.35669,380.22266 127.052738,380.829343 126.42041,381.359131 C125.788083,381.888919 125.052006,382.153809 124.212158,382.153809 C123.059809,382.153809 122.17847,381.777836 121.568115,381.025879 C120.957761,380.273922 120.652588,379.329107 120.652588,378.191406 L120.652588,377.883789 C120.652588,376.755854 120.958981,375.814701 121.571777,375.060303 C122.184573,374.305904 123.064692,373.928711 124.212158,373.928711 C125.139897,373.928711 125.897946,374.202146 126.486328,374.749023 C127.07471,375.295901 127.359131,375.967281 127.3396,376.763184 L127.324951,376.807129 L126.02124,376.807129 C126.02124,376.323728 125.850344,375.912355 125.508545,375.572998 C125.166746,375.233641 124.734622,375.063965 124.212158,375.063965 C123.455318,375.063965 122.914552,375.336179 122.589844,375.880615 C122.265135,376.425052 122.102783,377.092769 122.102783,377.883789 L122.102783,378.191406 C122.102783,379.001957 122.263914,379.676999 122.586182,380.216553 C122.908449,380.756106 123.450436,381.025879 124.212158,381.025879 Z M128.614014,377.964355 C128.614014,376.792475 128.931393,375.826908 129.566162,375.067627 C130.200931,374.308346 131.062739,373.928711 132.151611,373.928711 C133.25025,373.928711 134.118161,374.307125 134.755371,375.063965 C135.392581,375.820805 135.711182,376.787592 135.711182,377.964355 L135.711182,378.125488 C135.711182,379.307135 135.393802,380.273922 134.759033,381.025879 C134.124264,381.777836 133.260015,382.153809 132.16626,382.153809 C131.072504,382.153809 130.207034,381.776615 129.569824,381.022217 C128.932614,380.267818 128.614014,379.302252 128.614014,378.125488 L128.614014,377.964355 Z M130.056885,378.125488 C130.056885,378.965336 130.233885,379.658689 130.587891,380.205566 C130.941896,380.752444 131.468014,381.025879 132.16626,381.025879 C132.85474,381.025879 133.377195,380.752444 133.733643,380.205566 C134.09009,379.658689 134.268311,378.965336 134.268311,378.125488 L134.268311,377.964355 C134.268311,377.134273 134.088869,376.443362 133.72998,375.891602 C133.371092,375.339841 132.844974,375.063965 132.151611,375.063965 C131.463131,375.063965 130.941896,375.339841 130.587891,375.891602 C130.233885,376.443362 130.056885,377.134273 130.056885,377.964355 L130.056885,378.125488 Z M138.765381,374.075195 L138.86792,375.254395 C139.131593,374.834471 139.4624,374.508546 139.860352,374.276611 C140.258303,374.044677 140.711179,373.928711 141.218994,373.928711 C142.073491,373.928711 142.735105,374.178953 143.203857,374.679443 C143.67261,375.179934 143.906982,375.952631 143.906982,376.997559 L143.906982,382 L142.464111,382 L142.464111,377.026855 C142.464111,376.32861 142.326173,375.833009 142.050293,375.540039 C141.774413,375.247069 141.353274,375.100586 140.786865,375.100586 C140.371824,375.100586 140.004396,375.200683 139.68457,375.400879 C139.364744,375.601075 139.10962,375.87451 138.919189,376.221191 L138.919189,382 L137.476318,382 L137.476318,374.075195 L138.765381,374.075195 Z M146.404541,382 L146.404541,375.144531 L145.159424,375.144531 L145.159424,374.075195 L146.404541,374.075195 L146.404541,373.218262 C146.404541,372.329585 146.664548,371.641116 147.18457,371.152832 C147.704592,370.664548 148.426021,370.42041 149.348877,370.42041 C149.676027,370.42041 149.998289,370.458252 150.315674,370.533936 C150.633058,370.60962 151.00659,370.720702 151.436279,370.867188 L151.187256,372.039062 C150.928466,371.936523 150.652589,371.848633 150.359619,371.775391 C150.066649,371.702148 149.766359,371.665527 149.45874,371.665527 C148.887448,371.665527 148.476075,371.792479 148.224609,372.046387 C147.973143,372.300294 147.847412,372.690915 147.847412,373.218262 L147.847412,374.075195 L149.422119,374.075195 L149.422119,375.144531 L147.847412,375.144531 L147.847412,382 L146.404541,382 Z M152.139404,382 L150.689209,382 L150.689209,374.075195 L152.139404,374.075195 L152.139404,382 Z M158.101318,375.349609 L157.361572,375.305664 C156.980711,375.305664 156.659669,375.395995 156.398438,375.57666 C156.137206,375.757325 155.935792,376.011229 155.794189,376.338379 L155.794189,382 L154.351318,382 L154.351318,374.075195 L155.640381,374.075195 L155.779541,375.232422 C156.004152,374.822264 156.281248,374.502443 156.61084,374.272949 C156.940431,374.043456 157.320066,373.928711 157.749756,373.928711 C157.857178,373.928711 157.959716,373.937256 158.057373,373.954346 C158.15503,373.971436 158.235595,373.989746 158.299072,374.009277 L158.101318,375.349609 Z M160.781982,374.075195 L160.884521,375.115234 C161.143312,374.739256 161.471678,374.447511 161.869629,374.23999 C162.26758,374.03247 162.730222,373.928711 163.257568,373.928711 C163.784915,373.928711 164.237791,374.05078 164.616211,374.294922 C164.994631,374.539064 165.279052,374.905271 165.469482,375.393555 C165.718507,374.944334 166.048094,374.587892 166.458252,374.324219 C166.86841,374.060546 167.346921,373.928711 167.893799,373.928711 C168.699467,373.928711 169.336668,374.205808 169.80542,374.76001 C170.274172,375.314212 170.508545,376.147944 170.508545,377.26123 L170.508545,382 L169.065674,382 L169.065674,377.246582 C169.065674,376.465328 168.931398,375.912355 168.662842,375.587646 C168.394286,375.262938 167.993899,375.100586 167.46167,375.100586 C166.968503,375.100586 166.569337,375.271483 166.26416,375.613281 C165.958983,375.95508 165.779541,376.387204 165.72583,376.909668 L165.72583,382 L164.275635,382 L164.275635,377.246582 C164.275635,376.504391 164.137697,375.961183 163.861816,375.616943 C163.585936,375.272703 163.189212,375.100586 162.671631,375.100586 C162.232176,375.100586 161.870851,375.190917 161.587646,375.371582 C161.304442,375.552247 161.087159,375.806151 160.935791,376.133301 L160.935791,382 L159.49292,382 L159.49292,374.075195 L160.781982,374.075195 Z M177.473877,382 C177.425049,381.760741 177.387207,381.549561 177.360352,381.366455 C177.333496,381.183349 177.317627,380.999024 177.312744,380.813477 C177.044188,381.194338 176.69385,381.512938 176.261719,381.769287 C175.829588,382.025636 175.364504,382.153809 174.866455,382.153809 C174.041256,382.153809 173.4126,381.942629 172.980469,381.520264 C172.548338,381.097898 172.332275,380.515629 172.332275,379.773438 C172.332275,379.016598 172.638669,378.424563 173.251465,377.997314 C173.864261,377.570066 174.695551,377.356445 175.745361,377.356445 L177.312744,377.356445 L177.312744,376.572754 C177.312744,376.108884 177.171144,375.741456 176.887939,375.470459 C176.604735,375.199462 176.204348,375.063965 175.686768,375.063965 C175.222898,375.063965 174.845705,375.182372 174.555176,375.419189 C174.264647,375.656007 174.119385,375.940428 174.119385,376.272461 L172.742432,376.272461 L172.727783,376.228516 C172.698486,375.652341 172.9707,375.125002 173.544434,374.646484 C174.118167,374.167966 174.859126,373.928711 175.767334,373.928711 C176.665776,373.928711 177.388425,374.15698 177.935303,374.613525 C178.48218,375.070071 178.755615,375.728023 178.755615,376.587402 L178.755615,380.40332 C178.755615,380.686525 178.770264,380.95996 178.799561,381.223633 C178.828858,381.487306 178.882568,381.746092 178.960693,382 L177.473877,382 Z M175.078857,380.945312 C175.601321,380.945312 176.072508,380.811036 176.492432,380.54248 C176.912356,380.273924 177.18579,379.96631 177.312744,379.619629 L177.312744,378.330566 L175.694092,378.330566 C175.113034,378.330566 174.647951,378.477049 174.298828,378.77002 C173.949705,379.06299 173.775146,379.407225 173.775146,379.802734 C173.775146,380.154299 173.885009,380.432616 174.104736,380.637695 C174.324464,380.842774 174.649168,380.945312 175.078857,380.945312 Z M182.754639,372.163574 L182.754639,374.075195 L184.256104,374.075195 L184.256104,375.144531 L182.754639,375.144531 L182.754639,379.956543 C182.754639,380.327639 182.831542,380.588866 182.985352,380.740234 C183.139161,380.891602 183.343016,380.967285 183.596924,380.967285 C183.679932,380.967285 183.771484,380.95752 183.871582,380.937988 C183.97168,380.918457 184.060791,380.894043 184.138916,380.864746 L184.329346,381.853516 C184.221923,381.941407 184.064454,382.013427 183.856934,382.06958 C183.649413,382.125733 183.440675,382.153809 183.230713,382.153809 C182.644772,382.153809 182.178469,381.976808 181.831787,381.622803 C181.485106,381.268797 181.311768,380.713383 181.311768,379.956543 L181.311768,375.144531 L180.052002,375.144531 L180.052002,374.075195 L181.311768,374.075195 L181.311768,372.163574 L182.754639,372.163574 Z M187.595947,382 L186.153076,382 L186.153076,374.075195 L187.595947,374.075195 L187.595947,382 Z M187.595947,372.046387 L186.153076,372.046387 L186.153076,370.574219 L187.595947,370.574219 L187.595947,372.046387 Z M189.478271,377.964355 C189.478271,376.792475 189.795651,375.826908 190.43042,375.067627 C191.065189,374.308346 191.926997,373.928711 193.015869,373.928711 C194.114507,373.928711 194.982419,374.307125 195.619629,375.063965 C196.256839,375.820805 196.575439,376.787592 196.575439,377.964355 L196.575439,378.125488 C196.575439,379.307135 196.25806,380.273922 195.623291,381.025879 C194.988522,381.777836 194.124273,382.153809 193.030518,382.153809 C191.936762,382.153809 191.071292,381.776615 190.434082,381.022217 C189.796872,380.267818 189.478271,379.302252 189.478271,378.125488 L189.478271,377.964355 Z M190.921143,378.125488 C190.921143,378.965336 191.098143,379.658689 191.452148,380.205566 C191.806154,380.752444 192.332272,381.025879 193.030518,381.025879 C193.718998,381.025879 194.241453,380.752444 194.5979,380.205566 C194.954347,379.658689 195.132568,378.965336 195.132568,378.125488 L195.132568,377.964355 C195.132568,377.134273 194.953127,376.443362 194.594238,375.891602 C194.23535,375.339841 193.709232,375.063965 193.015869,375.063965 C192.327389,375.063965 191.806154,375.339841 191.452148,375.891602 C191.098143,376.443362 190.921143,377.134273 190.921143,377.964355 L190.921143,378.125488 Z M199.629639,374.075195 L199.732178,375.254395 C199.995851,374.834471 200.326658,374.508546 200.724609,374.276611 C201.122561,374.044677 201.575437,373.928711 202.083252,373.928711 C202.937748,373.928711 203.599363,374.178953 204.068115,374.679443 C204.536868,375.179934 204.77124,375.952631 204.77124,376.997559 L204.77124,382 L203.328369,382 L203.328369,377.026855 C203.328369,376.32861 203.190431,375.833009 202.914551,375.540039 C202.63867,375.247069 202.217532,375.100586 201.651123,375.100586 C201.236082,375.100586 200.868654,375.200683 200.548828,375.400879 C200.229002,375.601075 199.973878,375.87451 199.783447,376.221191 L199.783447,382 L198.340576,382 L198.340576,374.075195 L199.629639,374.075195 Z M212.154053,382 L210.711182,382 L210.711182,370.574219 L212.154053,370.574219 L212.154053,382 Z M217.661865,382.153809 C216.558344,382.153809 215.680667,381.786381 215.028809,381.051514 C214.37695,380.316647 214.051025,379.363287 214.051025,378.191406 L214.051025,377.869141 C214.051025,376.741205 214.386715,375.802494 215.058105,375.052979 C215.729496,374.303463 216.524165,373.928711 217.442139,373.928711 C218.51148,373.928711 219.319577,374.250973 219.866455,374.895508 C220.413333,375.540042 220.686768,376.399409 220.686768,377.473633 L220.686768,378.374512 L215.545166,378.374512 L215.523193,378.411133 C215.537842,379.172855 215.730711,379.79907 216.101807,380.289795 C216.472902,380.78052 216.992917,381.025879 217.661865,381.025879 C218.150149,381.025879 218.578611,380.9563 218.947266,380.817139 C219.31592,380.677978 219.63452,380.486329 219.903076,380.242188 L220.467041,381.179688 C220.183836,381.458009 219.810305,381.68994 219.346436,381.875488 C218.882566,382.061036 218.321048,382.153809 217.661865,382.153809 Z M217.442139,375.063965 C216.958738,375.063965 216.546144,375.26782 216.204346,375.675537 C215.862547,376.083254 215.652588,376.594723 215.574463,377.209961 L215.589111,377.246582 L219.243896,377.246582 L219.243896,377.056152 C219.243896,376.489743 219.092531,376.016115 218.789795,375.635254 C218.487059,375.254393 218.037845,375.063965 217.442139,375.063965 Z M224.209717,372.163574 L224.209717,374.075195 L225.711182,374.075195 L225.711182,375.144531 L224.209717,375.144531 L224.209717,379.956543 C224.209717,380.327639 224.28662,380.588866 224.44043,380.740234 C224.594239,380.891602 224.798094,380.967285 225.052002,380.967285 C225.13501,380.967285 225.226562,380.95752 225.32666,380.937988 C225.426758,380.918457 225.515869,380.894043 225.593994,380.864746 L225.784424,381.853516 C225.677001,381.941407 225.519532,382.013427 225.312012,382.06958 C225.104491,382.125733 224.895753,382.153809 224.685791,382.153809 C224.099851,382.153809 223.633547,381.976808 223.286865,381.622803 C222.940184,381.268797 222.766846,380.713383 222.766846,379.956543 L222.766846,375.144531 L221.50708,375.144531 L221.50708,374.075195 L222.766846,374.075195 L222.766846,372.163574 L224.209717,372.163574 Z M229.395264,372.163574 L229.395264,374.075195 L230.896729,374.075195 L230.896729,375.144531 L229.395264,375.144531 L229.395264,379.956543 C229.395264,380.327639 229.472167,380.588866 229.625977,380.740234 C229.779786,380.891602 229.983641,380.967285 230.237549,380.967285 C230.320557,380.967285 230.412109,380.95752 230.512207,380.937988 C230.612305,380.918457 230.701416,380.894043 230.779541,380.864746 L230.969971,381.853516 C230.862548,381.941407 230.705079,382.013427 230.497559,382.06958 C230.290038,382.125733 230.0813,382.153809 229.871338,382.153809 C229.285397,382.153809 228.819094,381.976808 228.472412,381.622803 C228.125731,381.268797 227.952393,380.713383 227.952393,379.956543 L227.952393,375.144531 L226.692627,375.144531 L226.692627,374.075195 L227.952393,374.075195 L227.952393,372.163574 L229.395264,372.163574 Z M235.965088,382.153809 C234.861567,382.153809 233.98389,381.786381 233.332031,381.051514 C232.680173,380.316647 232.354248,379.363287 232.354248,378.191406 L232.354248,377.869141 C232.354248,376.741205 232.689938,375.802494 233.361328,375.052979 C234.032718,374.303463 234.827388,373.928711 235.745361,373.928711 C236.814703,373.928711 237.6228,374.250973 238.169678,374.895508 C238.716555,375.540042 238.98999,376.399409 238.98999,377.473633 L238.98999,378.374512 L233.848389,378.374512 L233.826416,378.411133 C233.841065,379.172855 234.033934,379.79907 234.405029,380.289795 C234.776125,380.78052 235.296139,381.025879 235.965088,381.025879 C236.453372,381.025879 236.881834,380.9563 237.250488,380.817139 C237.619142,380.677978 237.937743,380.486329 238.206299,380.242188 L238.770264,381.179688 C238.487059,381.458009 238.113528,381.68994 237.649658,381.875488 C237.185789,382.061036 236.624271,382.153809 235.965088,382.153809 Z M235.745361,375.063965 C235.26196,375.063965 234.849367,375.26782 234.507568,375.675537 C234.16577,376.083254 233.955811,376.594723 233.877686,377.209961 L233.892334,377.246582 L237.547119,377.246582 L237.547119,377.056152 C237.547119,376.489743 237.395753,376.016115 237.093018,375.635254 C236.790282,375.254393 236.341067,375.063965 235.745361,375.063965 Z M244.358643,375.349609 L243.618896,375.305664 C243.238035,375.305664 242.916993,375.395995 242.655762,375.57666 C242.39453,375.757325 242.193116,376.011229 242.051514,376.338379 L242.051514,382 L240.608643,382 L240.608643,374.075195 L241.897705,374.075195 L242.036865,375.232422 C242.261476,374.822264 242.538573,374.502443 242.868164,374.272949 C243.197756,374.043456 243.57739,373.928711 244.00708,373.928711 C244.114502,373.928711 244.217041,373.937256 244.314697,373.954346 C244.412354,373.971436 244.49292,373.989746 244.556396,374.009277 L244.358643,375.349609 Z M250.921143,375.137207 C251.194581,374.756346 251.530271,374.459718 251.928223,374.247314 C252.326174,374.034911 252.766843,373.928711 253.250244,373.928711 C254.094975,373.928711 254.752927,374.182615 255.224121,374.69043 C255.695315,375.198245 255.930908,375.979487 255.930908,377.03418 L255.930908,382 L254.488037,382 L254.488037,377.019531 C254.488037,376.365231 254.347658,375.881838 254.066895,375.569336 C253.786131,375.256834 253.367434,375.100586 252.810791,375.100586 C252.410398,375.100586 252.047853,375.194579 251.723145,375.382568 C251.398436,375.570558 251.131105,375.825682 250.921143,376.147949 L250.921143,382 L249.478271,382 L249.478271,370.574219 L250.921143,370.574219 L250.921143,375.137207 Z M262.874268,382 C262.825439,381.760741 262.787598,381.549561 262.760742,381.366455 C262.733887,381.183349 262.718018,380.999024 262.713135,380.813477 C262.444579,381.194338 262.09424,381.512938 261.662109,381.769287 C261.229978,382.025636 260.764895,382.153809 260.266846,382.153809 C259.441646,382.153809 258.81299,381.942629 258.380859,381.520264 C257.948728,381.097898 257.732666,380.515629 257.732666,379.773438 C257.732666,379.016598 258.039059,378.424563 258.651855,377.997314 C259.264652,377.570066 260.095942,377.356445 261.145752,377.356445 L262.713135,377.356445 L262.713135,376.572754 C262.713135,376.108884 262.571535,375.741456 262.28833,375.470459 C262.005126,375.199462 261.604739,375.063965 261.087158,375.063965 C260.623289,375.063965 260.246095,375.182372 259.955566,375.419189 C259.665038,375.656007 259.519775,375.940428 259.519775,376.272461 L258.142822,376.272461 L258.128174,376.228516 C258.098877,375.652341 258.371091,375.125002 258.944824,374.646484 C259.518558,374.167966 260.259517,373.928711 261.167725,373.928711 C262.066167,373.928711 262.788816,374.15698 263.335693,374.613525 C263.882571,375.070071 264.156006,375.728023 264.156006,376.587402 L264.156006,380.40332 C264.156006,380.686525 264.170654,380.95996 264.199951,381.223633 C264.229248,381.487306 264.282959,381.746092 264.361084,382 L262.874268,382 Z M260.479248,380.945312 C261.001712,380.945312 261.472898,380.811036 261.892822,380.54248 C262.312746,380.273924 262.586181,379.96631 262.713135,379.619629 L262.713135,378.330566 L261.094482,378.330566 C260.513425,378.330566 260.048342,378.477049 259.699219,378.77002 C259.350096,379.06299 259.175537,379.407225 259.175537,379.802734 C259.175537,380.154299 259.285399,380.432616 259.505127,380.637695 C259.724855,380.842774 260.049558,380.945312 260.479248,380.945312 Z M270.857666,379.897949 C270.857666,379.580565 270.736818,379.319337 270.495117,379.114258 C270.253417,378.909179 269.795658,378.730958 269.121826,378.57959 C268.159907,378.369628 267.436038,378.085207 266.950195,377.726318 C266.464353,377.36743 266.221436,376.877933 266.221436,376.257812 C266.221436,375.613278 266.49487,375.063967 267.041748,374.609863 C267.588626,374.155759 268.301509,373.928711 269.18042,373.928711 C270.103276,373.928711 270.836911,374.165525 271.381348,374.63916 C271.925784,375.112795 272.185791,375.688961 272.161377,376.367676 L272.146729,376.411621 L270.769775,376.411621 C270.769775,376.06494 270.624513,375.753663 270.333984,375.477783 C270.043456,375.201903 269.658938,375.063965 269.18042,375.063965 C268.667722,375.063965 268.286866,375.176268 268.037842,375.400879 C267.788817,375.625489 267.664307,375.896483 267.664307,376.213867 C267.664307,376.526369 267.774169,376.772948 267.993896,376.953613 C268.213624,377.134278 268.660397,377.295409 269.334229,377.437012 C270.33521,377.651857 271.079832,377.943602 271.568115,378.312256 C272.056399,378.68091 272.300537,379.17529 272.300537,379.79541 C272.300537,380.498539 272.016116,381.067381 271.447266,381.501953 C270.878415,381.936526 270.135014,382.153809 269.217041,382.153809 C268.206294,382.153809 267.410403,381.897464 266.829346,381.384766 C266.248288,380.872068 265.972412,380.273929 266.001709,379.590332 L266.016357,379.546387 L267.393311,379.546387 C267.417725,380.059085 267.608153,380.433837 267.9646,380.670654 C268.321047,380.907472 268.738523,381.025879 269.217041,381.025879 C269.729739,381.025879 270.131346,380.92212 270.421875,380.7146 C270.712404,380.507079 270.857666,380.234865 270.857666,379.897949 Z M284.590576,378.337891 C284.590576,379.480474 284.315921,380.402096 283.766602,381.102783 C283.217282,381.80347 282.461675,382.153809 281.499756,382.153809 C280.977292,382.153809 280.523195,382.052491 280.137451,381.849854 C279.751707,381.647216 279.431886,381.348147 279.177979,380.952637 L279.002197,382 L277.822998,382 L277.822998,370.574219 L279.265869,370.574219 L279.265869,375.012695 C279.514894,374.661131 279.823729,374.392579 280.192383,374.207031 C280.561037,374.021483 280.991941,373.928711 281.485107,373.928711 C282.461675,373.928711 283.223386,374.319332 283.770264,375.100586 C284.317141,375.88184 284.590576,376.909662 284.590576,378.184082 L284.590576,378.337891 Z M283.147705,378.184082 C283.147705,377.275874 282.98047,376.534915 282.645996,375.961182 C282.311522,375.387448 281.802494,375.100586 281.118896,375.100586 C280.674558,375.100586 280.299806,375.209227 279.994629,375.426514 C279.689452,375.6438 279.446534,375.935545 279.265869,376.301758 L279.265869,379.736816 C279.451417,380.127443 279.694334,380.432616 279.994629,380.652344 C280.294923,380.872071 280.674558,380.981934 281.133545,380.981934 C281.812259,380.981934 282.317625,380.740237 282.649658,380.256836 C282.981691,379.773435 283.147705,379.133793 283.147705,378.337891 L283.147705,378.184082 Z M289.636963,382.153809 C288.533442,382.153809 287.655765,381.786381 287.003906,381.051514 C286.352048,380.316647 286.026123,379.363287 286.026123,378.191406 L286.026123,377.869141 C286.026123,376.741205 286.361813,375.802494 287.033203,375.052979 C287.704593,374.303463 288.499263,373.928711 289.417236,373.928711 C290.486578,373.928711 291.294675,374.250973 291.841553,374.895508 C292.38843,375.540042 292.661865,376.399409 292.661865,377.473633 L292.661865,378.374512 L287.520264,378.374512 L287.498291,378.411133 C287.51294,379.172855 287.705809,379.79907 288.076904,380.289795 C288.448,380.78052 288.968014,381.025879 289.636963,381.025879 C290.125247,381.025879 290.553709,380.9563 290.922363,380.817139 C291.291017,380.677978 291.609618,380.486329 291.878174,380.242188 L292.442139,381.179688 C292.158934,381.458009 291.785403,381.68994 291.321533,381.875488 C290.857664,382.061036 290.296146,382.153809 289.636963,382.153809 Z M289.417236,375.063965 C288.933835,375.063965 288.521242,375.26782 288.179443,375.675537 C287.837645,376.083254 287.627686,376.594723 287.549561,377.209961 L287.564209,377.246582 L291.218994,377.246582 L291.218994,377.056152 C291.218994,376.489743 291.067628,376.016115 290.764893,375.635254 C290.462157,375.254393 290.012942,375.063965 289.417236,375.063965 Z M297.569092,382.153809 C296.465571,382.153809 295.587894,381.786381 294.936035,381.051514 C294.284176,380.316647 293.958252,379.363287 293.958252,378.191406 L293.958252,377.869141 C293.958252,376.741205 294.293942,375.802494 294.965332,375.052979 C295.636722,374.303463 296.431392,373.928711 297.349365,373.928711 C298.418707,373.928711 299.226804,374.250973 299.773682,374.895508 C300.320559,375.540042 300.593994,376.399409 300.593994,377.473633 L300.593994,378.374512 L295.452393,378.374512 L295.43042,378.411133 C295.445068,379.172855 295.637938,379.79907 296.009033,380.289795 C296.380129,380.78052 296.900143,381.025879 297.569092,381.025879 C298.057375,381.025879 298.485838,380.9563 298.854492,380.817139 C299.223146,380.677978 299.541747,380.486329 299.810303,380.242188 L300.374268,381.179688 C300.091063,381.458009 299.717532,381.68994 299.253662,381.875488 C298.789793,382.061036 298.228275,382.153809 297.569092,382.153809 Z M297.349365,375.063965 C296.865964,375.063965 296.453371,375.26782 296.111572,375.675537 C295.769774,376.083254 295.559815,376.594723 295.481689,377.209961 L295.496338,377.246582 L299.151123,377.246582 L299.151123,377.056152 C299.151123,376.489743 298.999757,376.016115 298.697021,375.635254 C298.394286,375.254393 297.945071,375.063965 297.349365,375.063965 Z M303.501709,374.075195 L303.604248,375.254395 C303.867921,374.834471 304.198728,374.508546 304.59668,374.276611 C304.994631,374.044677 305.447507,373.928711 305.955322,373.928711 C306.809819,373.928711 307.471433,374.178953 307.940186,374.679443 C308.408938,375.179934 308.643311,375.952631 308.643311,376.997559 L308.643311,382 L307.200439,382 L307.200439,377.026855 C307.200439,376.32861 307.062501,375.833009 306.786621,375.540039 C306.510741,375.247069 306.089602,375.100586 305.523193,375.100586 C305.108152,375.100586 304.740724,375.200683 304.420898,375.400879 C304.101073,375.601075 303.845948,375.87451 303.655518,376.221191 L303.655518,382 L302.212646,382 L302.212646,374.075195 L303.501709,374.075195 Z M120.30835,399.897949 C120.30835,399.580565 120.187501,399.319337 119.945801,399.114258 C119.7041,398.909179 119.246341,398.730958 118.57251,398.57959 C117.610591,398.369628 116.886721,398.085207 116.400879,397.726318 C115.915037,397.36743 115.672119,396.877933 115.672119,396.257812 C115.672119,395.613278 115.945554,395.063967 116.492432,394.609863 C117.039309,394.155759 117.752193,393.928711 118.631104,393.928711 C119.55396,393.928711 120.287595,394.165525 120.832031,394.63916 C121.376468,395.112795 121.636475,395.688961 121.612061,396.367676 L121.597412,396.411621 L120.220459,396.411621 C120.220459,396.06494 120.075197,395.753663 119.784668,395.477783 C119.494139,395.201903 119.109622,395.063965 118.631104,395.063965 C118.118406,395.063965 117.73755,395.176268 117.488525,395.400879 C117.239501,395.625489 117.11499,395.896483 117.11499,396.213867 C117.11499,396.526369 117.224852,396.772948 117.44458,396.953613 C117.664308,397.134278 118.111081,397.295409 118.784912,397.437012 C119.785894,397.651857 120.530515,397.943602 121.018799,398.312256 C121.507083,398.68091 121.751221,399.17529 121.751221,399.79541 C121.751221,400.498539 121.4668,401.067381 120.897949,401.501953 C120.329099,401.936526 119.585698,402.153809 118.667725,402.153809 C117.656977,402.153809 116.861087,401.897464 116.280029,401.384766 C115.698972,400.872068 115.423096,400.273929 115.452393,399.590332 L115.467041,399.546387 L116.843994,399.546387 C116.868408,400.059085 117.058836,400.433837 117.415283,400.670654 C117.77173,400.907472 118.189207,401.025879 118.667725,401.025879 C119.180422,401.025879 119.58203,400.92212 119.872559,400.7146 C120.163087,400.507079 120.30835,400.234865 120.30835,399.897949 Z M126.834229,402.153809 C125.730707,402.153809 124.853031,401.786381 124.201172,401.051514 C123.549313,400.316647 123.223389,399.363287 123.223389,398.191406 L123.223389,397.869141 C123.223389,396.741205 123.559079,395.802494 124.230469,395.052979 C124.901859,394.303463 125.696529,393.928711 126.614502,393.928711 C127.683843,393.928711 128.491941,394.250973 129.038818,394.895508 C129.585696,395.540042 129.859131,396.399409 129.859131,397.473633 L129.859131,398.374512 L124.717529,398.374512 L124.695557,398.411133 C124.710205,399.172855 124.903074,399.79907 125.27417,400.289795 C125.645266,400.78052 126.16528,401.025879 126.834229,401.025879 C127.322512,401.025879 127.750975,400.9563 128.119629,400.817139 C128.488283,400.677978 128.806883,400.486329 129.075439,400.242188 L129.639404,401.179688 C129.3562,401.458009 128.982668,401.68994 128.518799,401.875488 C128.054929,402.061036 127.493411,402.153809 126.834229,402.153809 Z M126.614502,395.063965 C126.131101,395.063965 125.718508,395.26782 125.376709,395.675537 C125.03491,396.083254 124.824952,396.594723 124.746826,397.209961 L124.761475,397.246582 L128.41626,397.246582 L128.41626,397.056152 C128.41626,396.489743 128.264894,396.016115 127.962158,395.635254 C127.659422,395.254393 127.210208,395.063965 126.614502,395.063965 Z M132.766846,394.075195 L132.869385,395.254395 C133.133058,394.834471 133.463865,394.508546 133.861816,394.276611 C134.259768,394.044677 134.712644,393.928711 135.220459,393.928711 C136.074955,393.928711 136.73657,394.178953 137.205322,394.679443 C137.674075,395.179934 137.908447,395.952631 137.908447,396.997559 L137.908447,402 L136.465576,402 L136.465576,397.026855 C136.465576,396.32861 136.327638,395.833009 136.051758,395.540039 C135.775878,395.247069 135.354739,395.100586 134.78833,395.100586 C134.373289,395.100586 134.005861,395.200683 133.686035,395.400879 C133.366209,395.601075 133.111085,395.87451 132.920654,396.221191 L132.920654,402 L131.477783,402 L131.477783,394.075195 L132.766846,394.075195 Z M141.907471,392.163574 L141.907471,394.075195 L143.408936,394.075195 L143.408936,395.144531 L141.907471,395.144531 L141.907471,399.956543 C141.907471,400.327639 141.984374,400.588866 142.138184,400.740234 C142.291993,400.891602 142.495848,400.967285 142.749756,400.967285 C142.832764,400.967285 142.924316,400.95752 143.024414,400.937988 C143.124512,400.918457 143.213623,400.894043 143.291748,400.864746 L143.482178,401.853516 C143.374755,401.941407 143.217286,402.013427 143.009766,402.06958 C142.802245,402.125733 142.593507,402.153809 142.383545,402.153809 C141.797604,402.153809 141.331301,401.976808 140.984619,401.622803 C140.637938,401.268797 140.4646,400.713383 140.4646,399.956543 L140.4646,395.144531 L139.204834,395.144531 L139.204834,394.075195 L140.4646,394.075195 L140.4646,392.163574 L141.907471,392.163574 Z M150.821045,392.163574 L150.821045,394.075195 L152.32251,394.075195 L152.32251,395.144531 L150.821045,395.144531 L150.821045,399.956543 C150.821045,400.327639 150.897948,400.588866 151.051758,400.740234 C151.205567,400.891602 151.409423,400.967285 151.66333,400.967285 C151.746338,400.967285 151.83789,400.95752 151.937988,400.937988 C152.038086,400.918457 152.127197,400.894043 152.205322,400.864746 L152.395752,401.853516 C152.28833,401.941407 152.13086,402.013427 151.92334,402.06958 C151.715819,402.125733 151.507081,402.153809 151.297119,402.153809 C150.711179,402.153809 150.244875,401.976808 149.898193,401.622803 C149.551512,401.268797 149.378174,400.713383 149.378174,399.956543 L149.378174,395.144531 L148.118408,395.144531 L148.118408,394.075195 L149.378174,394.075195 L149.378174,392.163574 L150.821045,392.163574 Z M153.765381,397.964355 C153.765381,396.792475 154.08276,395.826908 154.717529,395.067627 C155.352298,394.308346 156.214106,393.928711 157.302979,393.928711 C158.401617,393.928711 159.269528,394.307125 159.906738,395.063965 C160.543948,395.820805 160.862549,396.787592 160.862549,397.964355 L160.862549,398.125488 C160.862549,399.307135 160.545169,400.273922 159.9104,401.025879 C159.275632,401.777836 158.411382,402.153809 157.317627,402.153809 C156.223871,402.153809 155.358402,401.776615 154.721191,401.022217 C154.083981,400.267818 153.765381,399.302252 153.765381,398.125488 L153.765381,397.964355 Z M155.208252,398.125488 C155.208252,398.965336 155.385252,399.658689 155.739258,400.205566 C156.093263,400.752444 156.619381,401.025879 157.317627,401.025879 C158.006107,401.025879 158.528563,400.752444 158.88501,400.205566 C159.241457,399.658689 159.419678,398.965336 159.419678,398.125488 L159.419678,397.964355 C159.419678,397.134273 159.240236,396.443362 158.881348,395.891602 C158.522459,395.339841 157.996341,395.063965 157.302979,395.063965 C156.614499,395.063965 156.093263,395.339841 155.739258,395.891602 C155.385252,396.443362 155.208252,397.134273 155.208252,397.964355 L155.208252,398.125488 Z M168.780029,399.062988 L169.036377,400.059082 L169.080322,400.059082 L171.028564,394.075195 L172.632568,394.075195 L169.300049,403.21582 C169.099853,403.74805 168.81299,404.211912 168.439453,404.607422 C168.065916,405.002932 167.561771,405.200684 166.927002,405.200684 C166.809814,405.200684 166.66089,405.187256 166.480225,405.1604 C166.29956,405.133545 166.160401,405.10791 166.062744,405.083496 L166.209229,403.948242 C166.179931,403.943359 166.266601,403.948242 166.469238,403.962891 C166.671876,403.977539 166.800049,403.984863 166.85376,403.984863 C167.161378,403.984863 167.412841,403.848146 167.608154,403.574707 C167.803468,403.301268 167.96704,402.998537 168.098877,402.666504 L168.443115,401.838867 L165.498779,394.075195 L167.110107,394.075195 L168.780029,399.062988 Z M173.452881,397.964355 C173.452881,396.792475 173.77026,395.826908 174.405029,395.067627 C175.039798,394.308346 175.901606,393.928711 176.990479,393.928711 C178.089117,393.928711 178.957028,394.307125 179.594238,395.063965 C180.231448,395.820805 180.550049,396.787592 180.550049,397.964355 L180.550049,398.125488 C180.550049,399.307135 180.232669,400.273922 179.5979,401.025879 C178.963132,401.777836 178.098882,402.153809 177.005127,402.153809 C175.911371,402.153809 175.045902,401.776615 174.408691,401.022217 C173.771481,400.267818 173.452881,399.302252 173.452881,398.125488 L173.452881,397.964355 Z M174.895752,398.125488 C174.895752,398.965336 175.072752,399.658689 175.426758,400.205566 C175.780763,400.752444 176.306881,401.025879 177.005127,401.025879 C177.693607,401.025879 178.216063,400.752444 178.57251,400.205566 C178.928957,399.658689 179.107178,398.965336 179.107178,398.125488 L179.107178,397.964355 C179.107178,397.134273 178.927736,396.443362 178.568848,395.891602 C178.209959,395.339841 177.683841,395.063965 176.990479,395.063965 C176.301999,395.063965 175.780763,395.339841 175.426758,395.891602 C175.072752,396.443362 174.895752,397.134273 174.895752,397.964355 L174.895752,398.125488 Z M187.346924,400.828125 C187.097899,401.252932 186.778078,401.580077 186.387451,401.80957 C185.996824,402.039064 185.545169,402.153809 185.032471,402.153809 C184.168209,402.153809 183.494387,401.877932 183.010986,401.326172 C182.527585,400.774411 182.285889,399.915045 182.285889,398.748047 L182.285889,394.075195 L183.72876,394.075195 L183.72876,398.762695 C183.72876,399.607426 183.85327,400.188475 184.102295,400.505859 C184.35132,400.823244 184.739499,400.981934 185.266846,400.981934 C185.779544,400.981934 186.203123,400.878175 186.537598,400.670654 C186.872072,400.463134 187.124755,400.168947 187.295654,399.788086 L187.295654,394.075195 L188.738525,394.075195 L188.738525,402 L187.442139,402 L187.346924,400.828125 Z M194.590576,395.349609 L193.85083,395.305664 C193.469969,395.305664 193.148927,395.395995 192.887695,395.57666 C192.626464,395.757325 192.42505,396.011229 192.283447,396.338379 L192.283447,402 L190.840576,402 L190.840576,394.075195 L192.129639,394.075195 L192.268799,395.232422 C192.493409,394.822264 192.770506,394.502443 193.100098,394.272949 C193.429689,394.043456 193.809324,393.928711 194.239014,393.928711 C194.346436,393.928711 194.448974,393.937256 194.546631,393.954346 C194.644288,393.971436 194.724853,393.989746 194.78833,394.009277 L194.590576,395.349609 Z M206.309326,397.056152 L201.424072,397.056152 L201.424072,400.87207 L207.056396,400.87207 L207.056396,402 L199.981201,402 L199.981201,391.335938 L206.97583,391.335938 L206.97583,392.471191 L201.424072,392.471191 L201.424072,395.920898 L206.309326,395.920898 L206.309326,397.056152 Z M209.766357,394.075195 L209.868896,395.115234 C210.127687,394.739256 210.456053,394.447511 210.854004,394.23999 C211.251955,394.03247 211.714597,393.928711 212.241943,393.928711 C212.76929,393.928711 213.222166,394.05078 213.600586,394.294922 C213.979006,394.539064 214.263427,394.905271 214.453857,395.393555 C214.702882,394.944334 215.032469,394.587892 215.442627,394.324219 C215.852785,394.060546 216.331296,393.928711 216.878174,393.928711 C217.683842,393.928711 218.321043,394.205808 218.789795,394.76001 C219.258547,395.314212 219.49292,396.147944 219.49292,397.26123 L219.49292,402 L218.050049,402 L218.050049,397.246582 C218.050049,396.465328 217.915773,395.912355 217.647217,395.587646 C217.378661,395.262938 216.978274,395.100586 216.446045,395.100586 C215.952878,395.100586 215.553712,395.271483 215.248535,395.613281 C214.943358,395.95508 214.763916,396.387204 214.710205,396.909668 L214.710205,402 L213.26001,402 L213.26001,397.246582 C213.26001,396.504391 213.122072,395.961183 212.846191,395.616943 C212.570311,395.272703 212.173587,395.100586 211.656006,395.100586 C211.216551,395.100586 210.855226,395.190917 210.572021,395.371582 C210.288817,395.552247 210.071534,395.806151 209.920166,396.133301 L209.920166,402 L208.477295,402 L208.477295,394.075195 L209.766357,394.075195 Z M226.458252,402 C226.409424,401.760741 226.371582,401.549561 226.344727,401.366455 C226.317871,401.183349 226.302002,400.999024 226.297119,400.813477 C226.028563,401.194338 225.678225,401.512938 225.246094,401.769287 C224.813963,402.025636 224.348879,402.153809 223.85083,402.153809 C223.025631,402.153809 222.396975,401.942629 221.964844,401.520264 C221.532713,401.097898 221.31665,400.515629 221.31665,399.773438 C221.31665,399.016598 221.623044,398.424563 222.23584,397.997314 C222.848636,397.570066 223.679926,397.356445 224.729736,397.356445 L226.297119,397.356445 L226.297119,396.572754 C226.297119,396.108884 226.155519,395.741456 225.872314,395.470459 C225.58911,395.199462 225.188723,395.063965 224.671143,395.063965 C224.207273,395.063965 223.83008,395.182372 223.539551,395.419189 C223.249022,395.656007 223.10376,395.940428 223.10376,396.272461 L221.726807,396.272461 L221.712158,396.228516 C221.682861,395.652341 221.955075,395.125002 222.528809,394.646484 C223.102542,394.167966 223.843501,393.928711 224.751709,393.928711 C225.650151,393.928711 226.3728,394.15698 226.919678,394.613525 C227.466555,395.070071 227.73999,395.728023 227.73999,396.587402 L227.73999,400.40332 C227.73999,400.686525 227.754639,400.95996 227.783936,401.223633 C227.813233,401.487306 227.866943,401.746092 227.945068,402 L226.458252,402 Z M224.063232,400.945312 C224.585696,400.945312 225.056883,400.811036 225.476807,400.54248 C225.896731,400.273924 226.170165,399.96631 226.297119,399.619629 L226.297119,398.330566 L224.678467,398.330566 C224.097409,398.330566 223.632326,398.477049 223.283203,398.77002 C222.93408,399.06299 222.759521,399.407225 222.759521,399.802734 C222.759521,400.154299 222.869384,400.432616 223.089111,400.637695 C223.308839,400.842774 223.633543,400.945312 224.063232,400.945312 Z M231.394775,402 L229.951904,402 L229.951904,394.075195 L231.394775,394.075195 L231.394775,402 Z M231.394775,392.046387 L229.951904,392.046387 L229.951904,390.574219 L231.394775,390.574219 L231.394775,392.046387 Z M235.174072,402 L233.731201,402 L233.731201,390.574219 L235.174072,390.574219 L235.174072,402 Z" id="The-course-confirmat" fill="#456297"></path>
            <g id="Group-86" transform="translate(168.288773, 218.938991) rotate(10.000000) translate(-168.288773, -218.938991) translate(108.288773, 154.438991)">
                <g id="Group-85" transform="translate(-0.000000, -0.000000)">
                    <g id="Page-1" transform="translate(-0.000000, -0.000000)">
                        <polygon id="Fill-1" fill="#A4CFF9" points="114.648784 1.63555874 63.9609412 100.437268 58.9060392 126.597875"></polygon>
                        <g id="Group-7" transform="translate(0.000000, 0.414274)">
                            <g id="Group-4" transform="translate(-0.000000, -0.000000)">
                                <mask id="mask-2" fill="white">
                                    <use xlink:href="#path-1"></use>
                                </mask>
                                <g id="Clip-3"></g>
                                <path d="M115.593255,1.34658855 L119.57051,109.666391 C119.674824,112.504997 116.999529,114.628252 114.26698,113.875954 L1.9305098,82.9413645 C-0.222431373,82.3478593 -0.700862745,79.502965 1.13992157,78.2357726 L114.016,0.551055791 C114.670902,0.100620744 115.564235,0.551055791 115.593255,1.34658855" id="Fill-2" fill="#E3F1FF" mask="url(#mask-2)"></path>
                            </g>
                            <path d="M38.346902,93.0273363 L55.5390588,126.353241 C56.3382745,127.901857 58.6386667,127.570123 58.9688627,125.858784 L63.9578824,100.039344 C63.9602353,100.028339 63.9633725,100.01812 63.9688627,100.0079 L114.16651,2.16208823 C114.34298,1.81699052 113.876314,1.50805339 113.629255,1.80677123 L38.3602353,92.9007743 C38.3312157,92.9369349 38.3257255,92.9864591 38.346902,93.0273363" id="Fill-5" fill="url(#linearGradient-3)"></path>
                        </g>
                    </g>
                </g>
            </g>
        </g>
    </g>
</svg>