<?xml version="1.0" encoding="UTF-8"?>
<svg width="173px" height="223px" viewBox="0 0 173 223" version="1.1" xmlns="http://www.w3.org/2000/svg" xmlns:xlink="http://www.w3.org/1999/xlink">
    <!-- Generator: Sketch 42 (36781) - http://www.bohemiancoding.com/sketch -->
    <title>Group 15 Copy</title>
    <desc>Created with Sketch.</desc>
    <defs>
        <rect id="path-1" x="0" y="0" width="165" height="215" rx="4"></rect>
        <filter x="-50%" y="-50%" width="200%" height="200%" filterUnits="objectBoundingBox" id="filter-2">
            <feOffset dx="0" dy="1" in="SourceAlpha" result="shadowOffsetOuter1"></feOffset>
            <feGaussianBlur stdDeviation="2" in="shadowOffsetOuter1" result="shadowBlurOuter1"></feGaussianBlur>
            <feColorMatrix values="0 0 0 0 0   0 0 0 0 0   0 0 0 0 0  0 0 0 0.15 0" type="matrix" in="shadowBlurOuter1" result="shadowMatrixOuter1"></feColorMatrix>
            <feOffset dx="0" dy="2" in="SourceAlpha" result="shadowOffsetOuter2"></feOffset>
            <feGaussianBlur stdDeviation="1" in="shadowOffsetOuter2" result="shadowBlurOuter2"></feGaussianBlur>
            <feColorMatrix values="0 0 0 0 0   0 0 0 0 0   0 0 0 0 0  0 0 0 0.3 0" type="matrix" in="shadowBlurOuter2" result="shadowMatrixOuter2"></feColorMatrix>
            <feMerge>
                <feMergeNode in="shadowMatrixOuter1"></feMergeNode>
                <feMergeNode in="shadowMatrixOuter2"></feMergeNode>
            </feMerge>
        </filter>
    </defs>
    <g id="template(outline)" stroke="none" stroke-width="1" fill="none" fill-rule="evenodd">
        <g id="card-temp" transform="translate(-221.000000, -1146.000000)">
            <g id="Group-15-Copy" transform="translate(225.000000, 1149.000000)">
                <g id="Group-4">
                    <g id="Rectangle-147-Copy">
                        <use fill="black" fill-opacity="1" filter="url(#filter-2)" xlink:href="#path-1"></use>
                        <use fill="#FFFFFF" fill-rule="evenodd" xlink:href="#path-1"></use>
                    </g>
                    <path d="M108.948727,46.5222827 C108.948727,45.6852281 108.613906,44.8481736 108.011226,44.2454943 L103.457649,39.6919174 C102.85497,39.0892381 102.017916,38.7544163 101.180861,38.7544163 C100.343806,38.7544163 99.5067519,39.0892381 98.9040726,39.6919174 L76.9397607,61.6897115 L67.0959989,51.8124676 C66.4933197,51.2097883 65.6562651,50.8749665 64.8192105,50.8749665 C63.9821559,50.8749665 63.1451014,51.2097883 62.5424221,51.8124676 L57.9888452,56.3660444 C57.3861659,56.9687237 57.0513441,57.8057783 57.0513441,58.6428329 C57.0513441,59.4798874 57.3861659,60.316942 57.9888452,60.9196213 L74.6629723,77.5937483 C75.2656515,78.1964276 76.1027061,78.5312494 76.9397607,78.5312494 C77.7768153,78.5312494 78.6138698,78.1964276 79.2165491,77.5937483 L108.011226,48.7990711 C108.613906,48.1963919 108.948727,47.3593373 108.948727,46.5222827 Z" id="check" fill="#2BCD86"></path>
                </g>
                <path d="M27.9550781,124.203125 L27.9550781,132.87793 C27.9550781,134.272468 27.5024459,135.338863 26.597168,136.077148 C25.69189,136.815433 24.5097729,137.18457 23.0507812,137.18457 C21.6445242,137.18457 20.5034223,136.813969 19.6274414,136.072754 C18.7514605,135.331539 18.3134766,134.266609 18.3134766,132.87793 L18.3134766,124.203125 L20.0449219,124.203125 L20.0449219,132.87793 C20.0449219,133.844731 20.3203097,134.578611 20.8710938,135.07959 C21.4218778,135.580569 22.148433,135.831055 23.0507812,135.831055 C24.0000047,135.831055 24.7661104,135.580569 25.3491211,135.07959 C25.9321318,134.578611 26.2236328,133.844731 26.2236328,132.87793 L26.2236328,124.203125 L27.9550781,124.203125 Z M38.5634766,132.605469 C38.5634766,133.976569 38.2353548,135.082515 37.5791016,135.92334 C36.9228483,136.764164 36.0175839,137.18457 34.8632812,137.18457 C34.2773408,137.18457 33.7631858,137.086427 33.3208008,136.890137 C32.8784158,136.693847 32.5019547,136.399416 32.1914062,136.006836 L32.1914062,140.65625 L30.4599609,140.65625 L30.4599609,127.490234 L31.7871094,127.490234 L32.0595703,128.720703 C32.3701187,128.26367 32.7568336,127.91504 33.2197266,127.674805 C33.6826195,127.434569 34.2216766,127.314453 34.8369141,127.314453 C36.0146543,127.314453 36.9301725,127.781734 37.5834961,128.716309 C38.2368197,129.650884 38.5634766,130.885735 38.5634766,132.420898 L38.5634766,132.605469 Z M36.8320312,132.420898 C36.8320312,131.342768 36.619631,130.456546 36.1948242,129.762207 C35.7700174,129.067868 35.1445354,128.720703 34.3183594,128.720703 C33.82031,128.720703 33.3955096,128.833495 33.0439453,129.059082 C32.6923811,129.284669 32.4082042,129.593748 32.1914062,129.986328 L32.1914062,134.583008 C32.4082042,134.975588 32.6923811,135.281737 33.0439453,135.501465 C33.3955096,135.721193 33.8261693,135.831055 34.3359375,135.831055 C35.1562541,135.831055 35.7773416,135.530765 36.1992188,134.930176 C36.6210959,134.329587 36.8320312,133.554692 36.8320312,132.605469 L36.8320312,132.420898 Z M42.5625,137 L40.8310547,137 L40.8310547,123.289062 L42.5625,123.289062 L42.5625,137 Z M44.8212891,132.157227 C44.8212891,130.75097 45.2021446,129.59229 45.9638672,128.681152 C46.7255897,127.770015 47.7597591,127.314453 49.0664062,127.314453 C50.3847722,127.314453 51.4262657,127.76855 52.190918,128.676758 C52.9555702,129.584965 53.3378906,130.74511 53.3378906,132.157227 L53.3378906,132.350586 C53.3378906,133.768562 52.9570351,134.928706 52.1953125,135.831055 C51.4335899,136.733403 50.3964909,137.18457 49.0839844,137.18457 C47.7714778,137.18457 46.732914,136.731938 45.9682617,135.82666 C45.2036095,134.921382 44.8212891,133.762702 44.8212891,132.350586 L44.8212891,132.157227 Z M46.5527344,132.350586 C46.5527344,133.358403 46.7651346,134.190426 47.1899414,134.84668 C47.6147482,135.502933 48.2460896,135.831055 49.0839844,135.831055 C49.9101604,135.831055 50.5371072,135.502933 50.9648438,134.84668 C51.3925803,134.190426 51.6064453,133.358403 51.6064453,132.350586 L51.6064453,132.157227 C51.6064453,131.161128 51.3911154,130.332035 50.9604492,129.669922 C50.529783,129.007809 49.8984417,128.676758 49.0664062,128.676758 C48.2402302,128.676758 47.6147482,129.007809 47.1899414,129.669922 C46.7651346,130.332035 46.5527344,131.161128 46.5527344,132.157227 L46.5527344,132.350586 Z M61.3007812,137 C61.2421872,136.712889 61.1967775,136.459474 61.1645508,136.239746 C61.1323241,136.020018 61.1132813,135.798829 61.1074219,135.576172 C60.7851546,136.033205 60.3647487,136.415526 59.8461914,136.723145 C59.3276341,137.030763 58.7695342,137.18457 58.171875,137.18457 C57.1816357,137.18457 56.4272487,136.931155 55.9086914,136.424316 C55.3901341,135.917478 55.1308594,135.218754 55.1308594,134.328125 C55.1308594,133.419917 55.4985315,132.709475 56.2338867,132.196777 C56.969242,131.684079 57.9667906,131.427734 59.2265625,131.427734 L61.1074219,131.427734 L61.1074219,130.487305 C61.1074219,129.930661 60.9375017,129.489748 60.5976562,129.164551 C60.2578108,128.839354 59.7773469,128.676758 59.15625,128.676758 C58.5996066,128.676758 58.1469744,128.818846 57.7983398,129.103027 C57.4497053,129.387208 57.2753906,129.728514 57.2753906,130.126953 L55.6230469,130.126953 L55.6054688,130.074219 C55.5703123,129.382809 55.8969692,128.750003 56.5854492,128.175781 C57.2739292,127.60156 58.1630805,127.314453 59.2529297,127.314453 C60.3310601,127.314453 61.1982389,127.588376 61.8544922,128.13623 C62.5107455,128.684085 62.8388672,129.473628 62.8388672,130.504883 L62.8388672,135.083984 C62.8388672,135.42383 62.8564451,135.751952 62.8916016,136.068359 C62.926758,136.384767 62.9912105,136.695311 63.0849609,137 L61.3007812,137 Z M58.4267578,135.734375 C59.0537141,135.734375 59.6191381,135.573244 60.1230469,135.250977 C60.6269556,134.928709 60.9550774,134.559572 61.1074219,134.143555 L61.1074219,132.59668 L59.1650391,132.59668 C58.46777,132.59668 57.9096701,132.772459 57.4907227,133.124023 C57.0717752,133.475588 56.8623047,133.88867 56.8623047,134.363281 C56.8623047,134.785158 56.9941393,135.119139 57.2578125,135.365234 C57.5214857,135.611329 57.9111302,135.734375 58.4267578,135.734375 Z M64.9570312,132.420898 C64.9570312,130.891594 65.2836881,129.658208 65.9370117,128.720703 C66.5903353,127.783198 67.5058535,127.314453 68.6835938,127.314453 C69.2402372,127.314453 69.7338846,127.416991 70.1645508,127.62207 C70.595217,127.827149 70.9628891,128.125975 71.2675781,128.518555 L71.2675781,123.289062 L72.9990234,123.289062 L72.9990234,137 L71.5839844,137 L71.3818359,135.831055 C71.0712875,136.276369 70.6904319,136.61328 70.2392578,136.841797 C69.7880837,137.070314 69.2636749,137.18457 68.6660156,137.18457 C67.5058536,137.18457 66.5976595,136.764164 65.9414062,135.92334 C65.285153,135.082515 64.9570312,133.976569 64.9570312,132.605469 L64.9570312,132.420898 Z M66.6884766,132.605469 C66.6884766,133.566411 66.8847637,134.335446 67.2773438,134.912598 C67.6699238,135.489749 68.2792927,135.77832 69.1054688,135.77832 C69.6210963,135.77832 70.0546857,135.661134 70.40625,135.426758 C70.7578143,135.192382 71.0449208,134.86426 71.2675781,134.442383 L71.2675781,130.003906 C71.0449208,129.611326 70.7563494,129.299318 70.4018555,129.067871 C70.0473615,128.836425 69.6210962,128.720703 69.1230469,128.720703 C68.2910115,128.720703 67.6772481,129.063473 67.2817383,129.749023 C66.8862285,130.434574 66.6884766,131.32519 66.6884766,132.420898 L66.6884766,132.605469 Z M87.9492188,131.339844 L82.1132812,131.339844 L82.1132812,137 L80.3818359,137 L80.3818359,124.203125 L88.8457031,124.203125 L88.8457031,125.56543 L82.1132812,125.56543 L82.1132812,129.977539 L87.9492188,129.977539 L87.9492188,131.339844 Z M92.4140625,137 L90.6826172,137 L90.6826172,127.490234 L92.4140625,127.490234 L92.4140625,137 Z M92.4140625,125.055664 L90.6826172,125.055664 L90.6826172,123.289062 L92.4140625,123.289062 L92.4140625,125.055664 Z M96.6240234,127.490234 L96.7470703,128.905273 C97.0634781,128.401365 97.4604468,128.010255 97.9379883,127.731934 C98.4155297,127.453612 98.9589813,127.314453 99.5683594,127.314453 C100.593755,127.314453 101.387692,127.614743 101.950195,128.215332 C102.512698,128.815921 102.793945,129.743158 102.793945,130.99707 L102.793945,137 L101.0625,137 L101.0625,131.032227 C101.0625,130.194332 100.896974,129.599611 100.565918,129.248047 C100.234862,128.896483 99.7294956,128.720703 99.0498047,128.720703 C98.5517553,128.720703 98.1108418,128.840819 97.7270508,129.081055 C97.3432598,129.32129 97.0371105,129.649412 96.8085938,130.06543 L96.8085938,137 L95.0771484,137 L95.0771484,127.490234 L96.6240234,127.490234 Z M107.179688,137 L105.448242,137 L105.448242,127.490234 L107.179688,127.490234 L107.179688,137 Z M107.179688,125.055664 L105.448242,125.055664 L105.448242,123.289062 L107.179688,123.289062 L107.179688,125.055664 Z M115.371094,134.477539 C115.371094,134.096678 115.226076,133.783204 114.936035,133.537109 C114.645995,133.291014 114.096684,133.077149 113.288086,132.895508 C112.133783,132.643553 111.26514,132.302248 110.682129,131.871582 C110.099118,131.440916 109.807617,130.853519 109.807617,130.109375 C109.807617,129.335934 110.135739,128.676761 110.791992,128.131836 C111.448245,127.586911 112.303706,127.314453 113.358398,127.314453 C114.465826,127.314453 115.346188,127.59863 115.999512,128.166992 C116.652835,128.735354 116.964844,129.426754 116.935547,130.241211 L116.917969,130.293945 L115.265625,130.293945 C115.265625,129.877928 115.09131,129.504396 114.742676,129.17334 C114.394041,128.842284 113.93262,128.676758 113.358398,128.676758 C112.743161,128.676758 112.286134,128.811522 111.987305,129.081055 C111.688475,129.350587 111.539062,129.675779 111.539062,130.056641 C111.539062,130.431643 111.670897,130.727538 111.93457,130.944336 C112.198244,131.161134 112.734371,131.354491 113.542969,131.524414 C114.744147,131.782228 115.637692,132.132322 116.223633,132.574707 C116.809573,133.017092 117.102539,133.610348 117.102539,134.354492 C117.102539,135.198246 116.761234,135.880857 116.078613,136.402344 C115.395993,136.923831 114.503912,137.18457 113.402344,137.18457 C112.189447,137.18457 111.234378,136.876956 110.537109,136.261719 C109.83984,135.646481 109.508789,134.928715 109.543945,134.108398 L109.561523,134.055664 L111.213867,134.055664 C111.243164,134.670902 111.471678,135.120604 111.899414,135.404785 C112.327151,135.688966 112.828122,135.831055 113.402344,135.831055 C114.017581,135.831055 114.49951,135.706544 114.848145,135.45752 C115.196779,135.208495 115.371094,134.881838 115.371094,134.477539 Z M120.987305,128.764648 C121.315431,128.307615 121.718259,127.951661 122.195801,127.696777 C122.673342,127.441893 123.202146,127.314453 123.782227,127.314453 C124.795904,127.314453 125.585446,127.619138 126.150879,128.228516 C126.716311,128.837894 126.999023,129.775384 126.999023,131.041016 L126.999023,137 L125.267578,137 L125.267578,131.023438 C125.267578,130.238277 125.099123,129.658205 124.762207,129.283203 C124.425291,128.908201 123.922855,128.720703 123.254883,128.720703 C122.774412,128.720703 122.339357,128.833495 121.949707,129.059082 C121.560057,129.284669 121.239259,129.590818 120.987305,129.977539 L120.987305,137 L119.255859,137 L119.255859,123.289062 L120.987305,123.289062 L120.987305,128.764648 Z M133.432617,137.18457 C132.108392,137.18457 131.05518,136.743657 130.272949,135.861816 C129.490719,134.979976 129.099609,133.835945 129.099609,132.429688 L129.099609,132.042969 C129.099609,130.689446 129.502437,129.562993 130.308105,128.663574 C131.113774,127.764156 132.067377,127.314453 133.168945,127.314453 C134.452155,127.314453 135.421872,127.701168 136.078125,128.474609 C136.734378,129.248051 137.0625,130.27929 137.0625,131.568359 L137.0625,132.649414 L130.892578,132.649414 L130.866211,132.693359 C130.883789,133.607426 131.115232,134.358884 131.560547,134.947754 C132.005862,135.536624 132.629879,135.831055 133.432617,135.831055 C134.018558,135.831055 134.532713,135.747559 134.975098,135.580566 C135.417483,135.413573 135.799803,135.183595 136.12207,134.890625 L136.798828,136.015625 C136.458983,136.349611 136.010745,136.627929 135.454102,136.850586 C134.897458,137.073243 134.223637,137.18457 133.432617,137.18457 Z M133.168945,128.676758 C132.588864,128.676758 132.093752,128.921384 131.683594,129.410645 C131.273435,129.899905 131.021485,130.513668 130.927734,131.251953 L130.945312,131.295898 L135.331055,131.295898 L135.331055,131.067383 C135.331055,130.387692 135.149416,129.819338 134.786133,129.362305 C134.42285,128.905271 133.883793,128.676758 133.168945,128.676758 Z M138.609375,132.420898 C138.609375,130.891594 138.936032,129.658208 139.589355,128.720703 C140.242679,127.783198 141.158197,127.314453 142.335938,127.314453 C142.892581,127.314453 143.386228,127.416991 143.816895,127.62207 C144.247561,127.827149 144.615233,128.125975 144.919922,128.518555 L144.919922,123.289062 L146.651367,123.289062 L146.651367,137 L145.236328,137 L145.03418,135.831055 C144.723631,136.276369 144.342776,136.61328 143.891602,136.841797 C143.440427,137.070314 142.916019,137.18457 142.318359,137.18457 C141.158197,137.18457 140.250003,136.764164 139.59375,135.92334 C138.937497,135.082515 138.609375,133.976569 138.609375,132.605469 L138.609375,132.420898 Z M140.34082,132.605469 C140.34082,133.566411 140.537107,134.335446 140.929688,134.912598 C141.322268,135.489749 141.931636,135.77832 142.757812,135.77832 C143.27344,135.77832 143.707029,135.661134 144.058594,135.426758 C144.410158,135.192382 144.697265,134.86426 144.919922,134.442383 L144.919922,130.003906 C144.697265,129.611326 144.408693,129.299318 144.054199,129.067871 C143.699705,128.836425 143.27344,128.720703 142.775391,128.720703 C141.943355,128.720703 141.329592,129.063473 140.934082,129.749023 C140.538572,130.434574 140.34082,131.32519 140.34082,132.420898 L140.34082,132.605469 Z" id="Upload-Finished" fill="#456296"></path>
                <path d="M0.5,175.5 L164.5,175.5" id="Line-Copy" stroke="#D8E3F6" stroke-linecap="square"></path>
                <path d="M65.2790527,197.586914 L65.2937012,197.630859 C65.3132325,198.631841 64.9616735,199.469235 64.2390137,200.143066 C63.5163538,200.816898 62.5617735,201.153809 61.3752441,201.153809 C60.1691834,201.153809 59.1865272,200.726567 58.4272461,199.87207 C57.667965,199.017574 57.2883301,197.9336 57.2883301,196.620117 L57.2883301,194.723145 C57.2883301,193.409661 57.667965,192.324467 58.4272461,191.467529 C59.1865272,190.610591 60.1691834,190.182129 61.3752441,190.182129 C62.5813049,190.182129 63.5407679,190.503171 64.2536621,191.145264 C64.9665563,191.787357 65.3132325,192.638178 65.2937012,193.697754 L65.2790527,193.741699 L63.8947754,193.741699 C63.8947754,192.994625 63.675051,192.403811 63.2355957,191.969238 C62.7961404,191.534666 62.1760294,191.317383 61.3752441,191.317383 C60.569576,191.317383 59.9274926,191.642087 59.4489746,192.291504 C58.9704566,192.940921 58.7312012,193.746577 58.7312012,194.708496 L58.7312012,196.620117 C58.7312012,197.591802 58.9704566,198.402341 59.4489746,199.051758 C59.9274926,199.701175 60.569576,200.025879 61.3752441,200.025879 C62.1760294,200.025879 62.7961404,199.809817 63.2355957,199.377686 C63.675051,198.945554 63.8947754,198.348637 63.8947754,197.586914 L65.2790527,197.586914 Z M66.6340332,196.964355 C66.6340332,195.792475 66.9514128,194.826908 67.5861816,194.067627 C68.2209504,193.308346 69.0827582,192.928711 70.1716309,192.928711 C71.2702692,192.928711 72.1381804,193.307125 72.7753906,194.063965 C73.4126008,194.820805 73.7312012,195.787592 73.7312012,196.964355 L73.7312012,197.125488 C73.7312012,198.307135 73.4138215,199.273922 72.7790527,200.025879 C72.1442839,200.777836 71.2800348,201.153809 70.1862793,201.153809 C69.0925238,201.153809 68.227054,200.776615 67.5898438,200.022217 C66.9526335,199.267818 66.6340332,198.302252 66.6340332,197.125488 L66.6340332,196.964355 Z M68.0769043,197.125488 C68.0769043,197.965336 68.2539045,198.658689 68.6079102,199.205566 C68.9619158,199.752444 69.4880336,200.025879 70.1862793,200.025879 C70.8747593,200.025879 71.397215,199.752444 71.7536621,199.205566 C72.1101092,198.658689 72.2883301,197.965336 72.2883301,197.125488 L72.2883301,196.964355 C72.2883301,196.134273 72.1088885,195.443362 71.75,194.891602 C71.3911115,194.339841 70.8649937,194.063965 70.1716309,194.063965 C69.4831509,194.063965 68.9619158,194.339841 68.6079102,194.891602 C68.2539045,195.443362 68.0769043,196.134273 68.0769043,196.964355 L68.0769043,197.125488 Z M76.7854004,193.075195 L76.8879395,194.254395 C77.1516126,193.834471 77.4824199,193.508546 77.8803711,193.276611 C78.2783223,193.044677 78.7311986,192.928711 79.2390137,192.928711 C80.0935101,192.928711 80.7551246,193.178953 81.223877,193.679443 C81.6926293,194.179934 81.927002,194.952631 81.927002,195.997559 L81.927002,201 L80.4841309,201 L80.4841309,196.026855 C80.4841309,195.32861 80.3461928,194.833009 80.0703125,194.540039 C79.7944322,194.247069 79.3732938,194.100586 78.8068848,194.100586 C78.3918436,194.100586 78.0244157,194.200683 77.7045898,194.400879 C77.384764,194.601075 77.1296396,194.87451 76.939209,195.221191 L76.939209,201 L75.4963379,201 L75.4963379,193.075195 L76.7854004,193.075195 Z M84.4245605,201 L84.4245605,194.144531 L83.1794434,194.144531 L83.1794434,193.075195 L84.4245605,193.075195 L84.4245605,192.218262 C84.4245605,191.329585 84.6845677,190.641116 85.2045898,190.152832 C85.724612,189.664548 86.4460403,189.42041 87.3688965,189.42041 C87.6960466,189.42041 88.018309,189.458252 88.3356934,189.533936 C88.6530778,189.60962 89.0266092,189.720702 89.4562988,189.867188 L89.2072754,191.039062 C88.948485,190.936523 88.6726089,190.848633 88.3796387,190.775391 C88.0866685,190.702148 87.7863785,190.665527 87.4787598,190.665527 C86.9074678,190.665527 86.496095,190.792479 86.2446289,191.046387 C85.9931628,191.300294 85.8674316,191.690915 85.8674316,192.218262 L85.8674316,193.075195 L87.4421387,193.075195 L87.4421387,194.144531 L85.8674316,194.144531 L85.8674316,201 L84.4245605,201 Z M90.1594238,201 L88.7092285,201 L88.7092285,193.075195 L90.1594238,193.075195 L90.1594238,201 Z M96.1213379,194.349609 L95.3815918,194.305664 C95.0007305,194.305664 94.6796888,194.395995 94.418457,194.57666 C94.1572253,194.757325 93.9558113,195.011229 93.814209,195.338379 L93.814209,201 L92.3713379,201 L92.3713379,193.075195 L93.6604004,193.075195 L93.7995605,194.232422 C94.024171,193.822264 94.3012679,193.502443 94.6308594,193.272949 C94.9604509,193.043456 95.3400857,192.928711 95.7697754,192.928711 C95.8771978,192.928711 95.9797358,192.937256 96.0773926,192.954346 C96.1750493,192.971436 96.2556149,192.989746 96.3190918,193.009277 L96.1213379,194.349609 Z M98.802002,193.075195 L98.904541,194.115234 C99.1633314,193.739256 99.4916972,193.447511 99.8896484,193.23999 C100.2876,193.03247 100.750242,192.928711 101.277588,192.928711 C101.804934,192.928711 102.257811,193.05078 102.63623,193.294922 C103.01465,193.539064 103.299071,193.905271 103.489502,194.393555 C103.738527,193.944334 104.068113,193.587892 104.478271,193.324219 C104.88843,193.060546 105.366941,192.928711 105.913818,192.928711 C106.719486,192.928711 107.356687,193.205808 107.825439,193.76001 C108.294192,194.314212 108.528564,195.147944 108.528564,196.26123 L108.528564,201 L107.085693,201 L107.085693,196.246582 C107.085693,195.465328 106.951417,194.912355 106.682861,194.587646 C106.414305,194.262938 106.013919,194.100586 105.481689,194.100586 C104.988523,194.100586 104.589357,194.271483 104.28418,194.613281 C103.979002,194.95508 103.799561,195.387204 103.74585,195.909668 L103.74585,201 L102.295654,201 L102.295654,196.246582 C102.295654,195.504391 102.157716,194.961183 101.881836,194.616943 C101.605956,194.272703 101.209231,194.100586 100.69165,194.100586 C100.252195,194.100586 99.8908706,194.190917 99.607666,194.371582 C99.3244615,194.552247 99.1071785,194.806151 98.9558105,195.133301 L98.9558105,201 L97.5129395,201 L97.5129395,193.075195 L98.802002,193.075195 Z" id="12:16:12:16-copy-2" fill="#0E86FE"></path>
            </g>
        </g>
    </g>
</svg>