<?xml version="1.0" encoding="UTF-8"?>
<svg width="173px" height="223px" viewBox="0 0 173 223" version="1.1" xmlns="http://www.w3.org/2000/svg" xmlns:xlink="http://www.w3.org/1999/xlink">
    <!-- Generator: Sketch 41.2 (35397) - http://www.bohemiancoding.com/sketch -->
    <title>Group 36</title>
    <desc>Created with Sketch.</desc>
    <defs>
        <rect id="path-1" x="0" y="0" width="165" height="215" rx="4"></rect>
        <filter x="-50%" y="-50%" width="200%" height="200%" filterUnits="objectBoundingBox" id="filter-2">
            <feOffset dx="0" dy="1" in="SourceAlpha" result="shadowOffsetOuter1"></feOffset>
            <feGaussianBlur stdDeviation="2" in="shadowOffsetOuter1" result="shadowBlurOuter1"></feGaussianBlur>
            <feColorMatrix values="0 0 0 0 0   0 0 0 0 0   0 0 0 0 0  0 0 0 0.15 0" type="matrix" in="shadowBlurOuter1" result="shadowMatrixOuter1"></feColorMatrix>
            <feOffset dx="0" dy="2" in="SourceAlpha" result="shadowOffsetOuter2"></feOffset>
            <feGaussianBlur stdDeviation="1" in="shadowOffsetOuter2" result="shadowBlurOuter2"></feGaussianBlur>
            <feColorMatrix values="0 0 0 0 0   0 0 0 0 0   0 0 0 0 0  0 0 0 0.3 0" type="matrix" in="shadowBlurOuter2" result="shadowMatrixOuter2"></feColorMatrix>
            <feMerge>
                <feMergeNode in="shadowMatrixOuter1"></feMergeNode>
                <feMergeNode in="shadowMatrixOuter2"></feMergeNode>
            </feMerge>
        </filter>
    </defs>
    <g id="template(outline)" stroke="none" stroke-width="1" fill="none" fill-rule="evenodd">
        <g id="card-temp" transform="translate(-41.000000, -1145.000000)">
            <g id="Group-36" transform="translate(45.000000, 1148.000000)">
                <g id="Rectangle-147">
                    <use fill="black" fill-opacity="1" filter="url(#filter-2)" xlink:href="#path-1"></use>
                    <use fill="#FFFFFF" fill-rule="evenodd" xlink:href="#path-1"></use>
                </g>
                <path d="M41.4287109,154.097656 L45.4658203,154.097656 L45.4658203,155 L40.2744141,155 L40.2744141,146.46875 L41.4287109,146.46875 L41.4287109,154.097656 Z M49.1689453,155.123047 C48.2861284,155.123047 47.583987,154.829105 47.0625,154.241211 C46.541013,153.653317 46.2802734,152.89063 46.2802734,151.953125 L46.2802734,151.695312 C46.2802734,150.792964 46.5488254,150.041995 47.0859375,149.442383 C47.6230496,148.84277 48.2587854,148.542969 48.9931641,148.542969 C49.8486371,148.542969 50.495115,148.800779 50.9326172,149.316406 C51.3701194,149.832034 51.5888672,150.519527 51.5888672,151.378906 L51.5888672,152.099609 L47.4755859,152.099609 L47.4580078,152.128906 C47.4697266,152.738284 47.624022,153.239256 47.9208984,153.631836 C48.2177749,154.024416 48.6337864,154.220703 49.1689453,154.220703 C49.5595723,154.220703 49.9023423,154.16504 50.1972656,154.053711 C50.492189,153.942382 50.7470692,153.789063 50.9619141,153.59375 L51.4130859,154.34375 C51.1865223,154.566407 50.8876972,154.751952 50.5166016,154.900391 C50.145506,155.048829 49.6962917,155.123047 49.1689453,155.123047 Z M48.9931641,149.451172 C48.6064434,149.451172 48.2763686,149.614256 48.0029297,149.94043 C47.7294908,150.266603 47.5615237,150.675779 47.4990234,151.167969 L47.5107422,151.197266 L50.4345703,151.197266 L50.4345703,151.044922 C50.4345703,150.591795 50.3134778,150.212892 50.0712891,149.908203 C49.8291004,149.603514 49.4697289,149.451172 48.9931641,149.451172 Z M54.4072266,147.130859 L54.4072266,148.660156 L55.6083984,148.660156 L55.6083984,149.515625 L54.4072266,149.515625 L54.4072266,153.365234 C54.4072266,153.662111 54.4687494,153.871093 54.5917969,153.992188 C54.7148444,154.113282 54.8779287,154.173828 55.0810547,154.173828 C55.1474613,154.173828 55.2207027,154.166016 55.3007812,154.150391 C55.3808598,154.134766 55.4521481,154.115234 55.5146484,154.091797 L55.6669922,154.882812 C55.5810543,154.953125 55.455079,155.010742 55.2890625,155.055664 C55.123046,155.100586 54.9560555,155.123047 54.7880859,155.123047 C54.3193336,155.123047 53.9462904,154.981447 53.6689453,154.698242 C53.3916002,154.415038 53.2529297,153.970706 53.2529297,153.365234 L53.2529297,149.515625 L52.2451172,149.515625 L52.2451172,148.660156 L53.2529297,148.660156 L53.2529297,147.130859 L54.4072266,147.130859 Z M58.1689453,146.990234 L57.2314453,149.017578 L56.6630859,149.017578 L57.0146484,147.007812 L57.0146484,145.859375 L58.1689453,145.859375 L58.1689453,146.990234 Z M62.6337891,153.318359 C62.6337891,153.064452 62.5371103,152.85547 62.34375,152.691406 C62.1503897,152.527343 61.7841824,152.384766 61.2451172,152.263672 C60.4755821,152.095702 59.8964863,151.868165 59.5078125,151.581055 C59.1191387,151.293944 58.9248047,150.902346 58.9248047,150.40625 C58.9248047,149.890622 59.1435525,149.451174 59.5810547,149.087891 C60.0185569,148.724608 60.5888637,148.542969 61.2919922,148.542969 C62.0302771,148.542969 62.6171853,148.73242 63.0527344,149.111328 C63.4882834,149.490236 63.6962892,149.951169 63.6767578,150.494141 L63.6650391,150.529297 L62.5634766,150.529297 C62.5634766,150.251952 62.4472668,150.002931 62.2148438,149.782227 C61.9824207,149.561522 61.6748066,149.451172 61.2919922,149.451172 C60.8818339,149.451172 60.5771494,149.541015 60.3779297,149.720703 C60.1787099,149.900392 60.0791016,150.117186 60.0791016,150.371094 C60.0791016,150.621095 60.1669913,150.818359 60.3427734,150.962891 C60.5185556,151.107423 60.8759739,151.236328 61.4150391,151.349609 C62.2158243,151.521485 62.8115215,151.754881 63.2021484,152.049805 C63.5927754,152.344728 63.7880859,152.740232 63.7880859,153.236328 C63.7880859,153.798831 63.5605492,154.253905 63.1054688,154.601562 C62.6503883,154.94922 62.0556677,155.123047 61.3212891,155.123047 C60.5126913,155.123047 59.8759789,154.917971 59.4111328,154.507812 C58.9462867,154.097654 58.7255858,153.619143 58.7490234,153.072266 L58.7607422,153.037109 L59.8623047,153.037109 C59.881836,153.447268 60.0341783,153.747069 60.3193359,153.936523 C60.6044936,154.125978 60.9384746,154.220703 61.3212891,154.220703 C61.7314474,154.220703 62.0527332,154.137696 62.2851562,153.97168 C62.5175793,153.805663 62.6337891,153.587892 62.6337891,153.318359 Z M74.6044922,153.869141 C74.4013662,154.181642 74.0488306,154.468749 73.546875,154.730469 C73.0449194,154.992189 72.3955118,155.123047 71.5986328,155.123047 C70.5790965,155.123047 69.7363315,154.796878 69.0703125,154.144531 C68.4042935,153.492184 68.0712891,152.648443 68.0712891,151.613281 L68.0712891,149.855469 C68.0712891,148.820307 68.3818328,147.976566 69.0029297,147.324219 C69.6240265,146.671872 70.4247998,146.345703 71.4052734,146.345703 C72.3818408,146.345703 73.1494113,146.585935 73.7080078,147.066406 C74.2666044,147.546877 74.5517578,148.166012 74.5634766,148.923828 L74.5517578,148.958984 L73.4501953,148.958984 C73.4150389,148.462888 73.2265642,148.054689 72.8847656,147.734375 C72.542967,147.414061 72.0498079,147.253906 71.4052734,147.253906 C70.7529264,147.253906 70.2275411,147.498044 69.8291016,147.986328 C69.4306621,148.474612 69.2314453,149.093746 69.2314453,149.84375 L69.2314453,151.613281 C69.2314453,152.371098 69.4540993,152.995115 69.8994141,153.485352 C70.3447288,153.975588 70.9111294,154.220703 71.5986328,154.220703 C72.0830102,154.220703 72.4794906,154.156251 72.7880859,154.027344 C73.0966812,153.898437 73.3173821,153.751954 73.4501953,153.587891 L73.4501953,151.648438 L71.5810547,151.648438 L71.5810547,150.740234 L74.6044922,150.740234 L74.6044922,153.869141 Z M79.0166016,155.123047 C78.1337846,155.123047 77.4316432,154.829105 76.9101562,154.241211 C76.3886693,153.653317 76.1279297,152.89063 76.1279297,151.953125 L76.1279297,151.695312 C76.1279297,150.792964 76.3964817,150.041995 76.9335938,149.442383 C77.4707058,148.84277 78.1064416,148.542969 78.8408203,148.542969 C79.6962933,148.542969 80.3427712,148.800779 80.7802734,149.316406 C81.2177756,149.832034 81.4365234,150.519527 81.4365234,151.378906 L81.4365234,152.099609 L77.3232422,152.099609 L77.3056641,152.128906 C77.3173829,152.738284 77.4716782,153.239256 77.7685547,153.631836 C78.0654312,154.024416 78.4814426,154.220703 79.0166016,154.220703 C79.4072285,154.220703 79.7499985,154.16504 80.0449219,154.053711 C80.3398452,153.942382 80.5947255,153.789063 80.8095703,153.59375 L81.2607422,154.34375 C81.0341786,154.566407 80.7353534,154.751952 80.3642578,154.900391 C79.9931622,155.048829 79.5439479,155.123047 79.0166016,155.123047 Z M78.8408203,149.451172 C78.4540996,149.451172 78.1240248,149.614256 77.8505859,149.94043 C77.5771471,150.266603 77.40918,150.675779 77.3466797,151.167969 L77.3583984,151.197266 L80.2822266,151.197266 L80.2822266,151.044922 C80.2822266,150.591795 80.161134,150.212892 79.9189453,149.908203 C79.6767566,149.603514 79.3173852,149.451172 78.8408203,149.451172 Z M84.2548828,147.130859 L84.2548828,148.660156 L85.4560547,148.660156 L85.4560547,149.515625 L84.2548828,149.515625 L84.2548828,153.365234 C84.2548828,153.662111 84.3164056,153.871093 84.4394531,153.992188 C84.5625006,154.113282 84.7255849,154.173828 84.9287109,154.173828 C84.9951175,154.173828 85.068359,154.166016 85.1484375,154.150391 C85.228516,154.134766 85.2998044,154.115234 85.3623047,154.091797 L85.5146484,154.882812 C85.4287105,154.953125 85.3027352,155.010742 85.1367188,155.055664 C84.9707023,155.100586 84.8037118,155.123047 84.6357422,155.123047 C84.1669898,155.123047 83.7939467,154.981447 83.5166016,154.698242 C83.2392564,154.415038 83.1005859,153.970706 83.1005859,153.365234 L83.1005859,149.515625 L82.0927734,149.515625 L82.0927734,148.660156 L83.1005859,148.660156 L83.1005859,147.130859 L84.2548828,147.130859 Z M94.7255859,152.849609 C94.7255859,152.458982 94.579103,152.131837 94.2861328,151.868164 C93.9931626,151.604491 93.4736365,151.382813 92.7275391,151.203125 C91.8251908,150.98828 91.1210963,150.671877 90.6152344,150.253906 C90.1093725,149.835935 89.8564453,149.31055 89.8564453,148.677734 C89.8564453,148.013669 90.1289035,147.458987 90.6738281,147.013672 C91.2187527,146.568357 91.9248004,146.345703 92.7919922,146.345703 C93.7255906,146.345703 94.4687472,146.60156 95.0214844,147.113281 C95.5742215,147.625003 95.8408204,148.218747 95.8212891,148.894531 L95.8095703,148.929688 L94.7080078,148.929688 C94.7080078,148.429685 94.5429704,148.025392 94.2128906,147.716797 C93.8828108,147.408202 93.4091828,147.253906 92.7919922,147.253906 C92.2177706,147.253906 91.7773453,147.383788 91.4707031,147.643555 C91.164061,147.903322 91.0107422,148.242185 91.0107422,148.660156 C91.0107422,149.031252 91.1767562,149.340819 91.5087891,149.588867 C91.840822,149.836915 92.3798791,150.054687 93.1259766,150.242188 C94.0244186,150.464845 94.7080055,150.792967 95.1767578,151.226562 C95.6455102,151.660158 95.8798828,152.197262 95.8798828,152.837891 C95.8798828,153.525394 95.5986356,154.078123 95.0361328,154.496094 C94.47363,154.914065 93.7392623,155.123047 92.8330078,155.123047 C91.9814411,155.123047 91.2285189,154.89258 90.5742188,154.431641 C89.9199186,153.970701 89.602539,153.353519 89.6220703,152.580078 L89.6337891,152.544922 L90.7353516,152.544922 C90.7353516,153.0918 90.9365214,153.507811 91.3388672,153.792969 C91.7412129,154.078126 92.2392548,154.220703 92.8330078,154.220703 C93.415042,154.220703 93.8759749,154.097657 94.2158203,153.851562 C94.5556658,153.605468 94.7255859,153.271486 94.7255859,152.849609 Z M98.8681641,147.130859 L98.8681641,148.660156 L100.069336,148.660156 L100.069336,149.515625 L98.8681641,149.515625 L98.8681641,153.365234 C98.8681641,153.662111 98.9296869,153.871093 99.0527344,153.992188 C99.1757819,154.113282 99.3388662,154.173828 99.5419922,154.173828 C99.6083988,154.173828 99.6816402,154.166016 99.7617188,154.150391 C99.8417973,154.134766 99.9130856,154.115234 99.9755859,154.091797 L100.12793,154.882812 C100.041992,154.953125 99.9160165,155.010742 99.75,155.055664 C99.5839835,155.100586 99.416993,155.123047 99.2490234,155.123047 C98.7802711,155.123047 98.4072279,154.981447 98.1298828,154.698242 C97.8525377,154.415038 97.7138672,153.970706 97.7138672,153.365234 L97.7138672,149.515625 L96.7060547,149.515625 L96.7060547,148.660156 L97.7138672,148.660156 L97.7138672,147.130859 L98.8681641,147.130859 Z M105.389648,155 C105.350586,154.808593 105.320313,154.639649 105.298828,154.493164 C105.277344,154.346679 105.264648,154.199219 105.260742,154.050781 C105.045897,154.35547 104.765627,154.610351 104.419922,154.81543 C104.074217,155.020509 103.70215,155.123047 103.303711,155.123047 C102.643551,155.123047 102.140627,154.954103 101.794922,154.616211 C101.449217,154.278319 101.276367,153.812503 101.276367,153.21875 C101.276367,152.613278 101.521482,152.13965 102.011719,151.797852 C102.501956,151.456053 103.166988,151.285156 104.006836,151.285156 L105.260742,151.285156 L105.260742,150.658203 C105.260742,150.287108 105.147462,149.993165 104.920898,149.776367 C104.694335,149.559569 104.374026,149.451172 103.959961,149.451172 C103.588865,149.451172 103.287111,149.545897 103.054688,149.735352 C102.822264,149.924806 102.706055,150.152342 102.706055,150.417969 L101.604492,150.417969 L101.592773,150.382812 C101.569336,149.921873 101.787107,149.500002 102.246094,149.117188 C102.70508,148.734373 103.297848,148.542969 104.024414,148.542969 C104.743168,148.542969 105.321287,148.725584 105.758789,149.09082 C106.196291,149.456057 106.415039,149.982418 106.415039,150.669922 L106.415039,153.722656 C106.415039,153.94922 106.426758,154.167968 106.450195,154.378906 C106.473633,154.589845 106.516601,154.796874 106.579102,155 L105.389648,155 Z M103.473633,154.15625 C103.891604,154.15625 104.268553,154.048829 104.604492,153.833984 C104.940431,153.61914 105.159179,153.373048 105.260742,153.095703 L105.260742,152.064453 L103.96582,152.064453 C103.500974,152.064453 103.128908,152.181639 102.849609,152.416016 C102.570311,152.650392 102.430664,152.92578 102.430664,153.242188 C102.430664,153.523439 102.518554,153.746093 102.694336,153.910156 C102.870118,154.07422 103.129881,154.15625 103.473633,154.15625 Z M111.09082,149.679688 L110.499023,149.644531 C110.194334,149.644531 109.937501,149.716796 109.728516,149.861328 C109.51953,150.00586 109.358399,150.208983 109.245117,150.470703 L109.245117,155 L108.09082,155 L108.09082,148.660156 L109.12207,148.660156 L109.233398,149.585938 C109.413087,149.257811 109.634764,149.001954 109.898438,148.818359 C110.162111,148.634765 110.465819,148.542969 110.80957,148.542969 C110.895508,148.542969 110.977539,148.549805 111.055664,148.563477 C111.133789,148.577149 111.198242,148.591797 111.249023,148.607422 L111.09082,149.679688 Z M113.827148,147.130859 L113.827148,148.660156 L115.02832,148.660156 L115.02832,149.515625 L113.827148,149.515625 L113.827148,153.365234 C113.827148,153.662111 113.888671,153.871093 114.011719,153.992188 C114.134766,154.113282 114.297851,154.173828 114.500977,154.173828 C114.567383,154.173828 114.640625,154.166016 114.720703,154.150391 C114.800782,154.134766 114.87207,154.115234 114.93457,154.091797 L115.086914,154.882812 C115.000976,154.953125 114.875001,155.010742 114.708984,155.055664 C114.542968,155.100586 114.375977,155.123047 114.208008,155.123047 C113.739255,155.123047 113.366212,154.981447 113.088867,154.698242 C112.811522,154.415038 112.672852,153.970706 112.672852,153.365234 L112.672852,149.515625 L111.665039,149.515625 L111.665039,148.660156 L112.672852,148.660156 L112.672852,147.130859 L113.827148,147.130859 Z M119.083008,155.123047 C118.200191,155.123047 117.498049,154.829105 116.976562,154.241211 C116.455076,153.653317 116.194336,152.89063 116.194336,151.953125 L116.194336,151.695312 C116.194336,150.792964 116.462888,150.041995 117,149.442383 C117.537112,148.84277 118.172848,148.542969 118.907227,148.542969 C119.7627,148.542969 120.409177,148.800779 120.84668,149.316406 C121.284182,149.832034 121.50293,150.519527 121.50293,151.378906 L121.50293,152.099609 L117.389648,152.099609 L117.37207,152.128906 C117.383789,152.738284 117.538084,153.239256 117.834961,153.631836 C118.131837,154.024416 118.547849,154.220703 119.083008,154.220703 C119.473635,154.220703 119.816405,154.16504 120.111328,154.053711 C120.406251,153.942382 120.661132,153.789063 120.875977,153.59375 L121.327148,154.34375 C121.100585,154.566407 120.80176,154.751952 120.430664,154.900391 C120.059568,155.048829 119.610354,155.123047 119.083008,155.123047 Z M118.907227,149.451172 C118.520506,149.451172 118.190431,149.614256 117.916992,149.94043 C117.643553,150.266603 117.475586,150.675779 117.413086,151.167969 L117.424805,151.197266 L120.348633,151.197266 L120.348633,151.044922 C120.348633,150.591795 120.22754,150.212892 119.985352,149.908203 C119.743163,149.603514 119.383791,149.451172 118.907227,149.451172 Z M122.53418,151.947266 C122.53418,150.927729 122.751951,150.105472 123.1875,149.480469 C123.623049,148.855466 124.233395,148.542969 125.018555,148.542969 C125.38965,148.542969 125.718749,148.611327 126.005859,148.748047 C126.29297,148.884766 126.538085,149.083983 126.741211,149.345703 L126.741211,145.859375 L127.895508,145.859375 L127.895508,155 L126.952148,155 L126.817383,154.220703 C126.610351,154.51758 126.356447,154.742187 126.055664,154.894531 C125.754881,155.046876 125.405275,155.123047 125.006836,155.123047 C124.233395,155.123047 123.627932,154.842776 123.19043,154.282227 C122.752927,153.721677 122.53418,152.98438 122.53418,152.070312 L122.53418,151.947266 Z M123.688477,152.070312 C123.688477,152.710941 123.819335,153.223631 124.081055,153.608398 C124.342775,153.993166 124.749021,154.185547 125.299805,154.185547 C125.643556,154.185547 125.932616,154.107423 126.166992,153.951172 C126.401368,153.794921 126.592773,153.576173 126.741211,153.294922 L126.741211,150.335938 C126.592773,150.074217 126.400392,149.866212 126.164062,149.711914 C125.927733,149.557616 125.643556,149.480469 125.311523,149.480469 C124.756833,149.480469 124.347658,149.708982 124.083984,150.166016 C123.820311,150.623049 123.688477,151.216793 123.688477,151.947266 L123.688477,152.070312 Z" id="Let’s-Get-Started-Copy-3" fill="#7189B6"></path>
                <path d="M63.5714388,74.5714209 C63.5714388,75.7767795 62.6004555,76.7142806 61.4285791,76.7142806 C60.2232205,76.7142806 59.2857194,75.7767795 59.2857194,74.5714209 C59.2857194,73.3995445 60.2232205,72.4285612 61.4285791,72.4285612 C62.6004555,72.4285612 63.5714388,73.3995445 63.5714388,74.5714209 Z M68.928588,57.4285433 C68.928588,56.2566669 67.9576047,55.2856836 66.7857283,55.2856836 L57.1428597,55.2856836 C55.9709833,55.2856836 55,56.2566669 55,57.4285433 L55,78.8571403 C55,80.0290167 55.9709833,81 57.1428597,81 L66.7857283,81 C67.9576047,81 68.928588,80.0290167 68.928588,78.8571403 L68.928588,57.4285433 Z M108.571492,57.4285433 C108.571492,53.9463963 105.62506,50.9999642 102.142913,50.9999642 L92.8683487,50.9999642 C93.1362062,49.9285344 93.471028,49.5937126 93.839332,48.8571045 C94.7433509,47.116031 95.7143342,45.1740644 95.7143342,42.4285254 C95.7143342,39.8503974 95.7143342,33.8570867 88.2143253,33.8570867 C87.6451282,33.8570867 87.1094133,34.0914619 86.7076271,34.4932481 C85.2678932,35.8994998 84.866107,37.9753951 84.497803,39.9508439 C84.0960168,41.8928105 83.7277128,43.9017415 82.4219077,45.2075466 C81.38396,46.2454943 80.2455658,47.6852281 79.0402072,49.2254086 C77.5669912,51.1673752 74.3527016,55.1517549 73.1138609,55.2522014 C72.0089488,55.352648 71.0714477,56.2901491 71.0714477,57.3950611 L71.0714477,78.8571403 C71.0714477,80.0290167 72.0759132,80.9665178 73.2143074,81 C74.3861838,81.0334822 76.3951148,81.736608 78.5044923,82.473216 C82.120568,83.7120568 86.6406627,85.2857194 91.4286149,85.2857194 L95.7478164,85.2857194 C98.6942485,85.2522372 100.904073,84.3817005 102.343806,82.6741091 C103.616129,81.1674109 104.185326,79.1249978 103.984433,76.6138341 C104.821488,75.8102617 105.457649,74.7053496 105.792471,73.4665089 C106.160775,72.1272216 106.160775,70.7879343 105.792471,69.5490935 C106.796937,68.2098062 107.299169,66.6361436 107.232205,64.9620345 C107.232205,64.4932839 107.098276,63.4888184 106.729972,62.4173886 C107.868367,61.1115834 108.571492,59.203099 108.571492,57.4285433 Z" id="thumbs-up" fill="#0E86FE"></path>
                <path d="M58.8608398,127.904297 L58.878418,127.957031 C58.9018556,129.158209 58.4799848,130.163082 57.612793,130.97168 C56.7456011,131.780277 55.6001048,132.18457 54.1762695,132.18457 C52.7289967,132.18457 51.5498092,131.67188 50.6386719,130.646484 C49.7275345,129.621089 49.2719727,128.32032 49.2719727,126.744141 L49.2719727,124.467773 C49.2719727,122.891594 49.7275345,121.589361 50.6386719,120.561035 C51.5498092,119.53271 52.7289967,119.018555 54.1762695,119.018555 C55.6235424,119.018555 56.7748981,119.403805 57.6303711,120.174316 C58.4858441,120.944828 58.9018556,121.965814 58.878418,123.237305 L58.8608398,123.290039 L57.199707,123.290039 C57.199707,122.39355 56.9360378,121.684573 56.4086914,121.163086 C55.881345,120.641599 55.1372118,120.380859 54.1762695,120.380859 C53.2094678,120.380859 52.4389677,120.770504 51.8647461,121.549805 C51.2905245,122.329105 51.003418,123.295893 51.003418,124.450195 L51.003418,126.744141 C51.003418,127.910162 51.2905245,128.882809 51.8647461,129.662109 C52.4389677,130.44141 53.2094678,130.831055 54.1762695,130.831055 C55.1372118,130.831055 55.881345,130.57178 56.4086914,130.053223 C56.9360378,129.534665 57.199707,128.818364 57.199707,127.904297 L58.8608398,127.904297 Z M60.4868164,127.157227 C60.4868164,125.75097 60.867672,124.59229 61.6293945,123.681152 C62.3911171,122.770015 63.4252864,122.314453 64.7319336,122.314453 C66.0502996,122.314453 67.0917931,122.76855 67.8564453,123.676758 C68.6210976,124.584965 69.003418,125.74511 69.003418,127.157227 L69.003418,127.350586 C69.003418,128.768562 68.6225624,129.928706 67.8608398,130.831055 C67.0991173,131.733403 66.0620183,132.18457 64.7495117,132.18457 C63.4370052,132.18457 62.3984413,131.731938 61.6337891,130.82666 C60.8691368,129.921382 60.4868164,128.762702 60.4868164,127.350586 L60.4868164,127.157227 Z M62.2182617,127.350586 C62.2182617,128.358403 62.4306619,129.190426 62.8554688,129.84668 C63.2802756,130.502933 63.9116169,130.831055 64.7495117,130.831055 C65.5756877,130.831055 66.2026346,130.502933 66.6303711,129.84668 C67.0581076,129.190426 67.2719727,128.358403 67.2719727,127.350586 L67.2719727,127.157227 C67.2719727,126.161128 67.0566428,125.332035 66.6259766,124.669922 C66.1953103,124.007809 65.563969,123.676758 64.7319336,123.676758 C63.9057576,123.676758 63.2802756,124.007809 62.8554688,124.669922 C62.4306619,125.332035 62.2182617,126.161128 62.2182617,127.157227 L62.2182617,127.350586 Z M72.668457,122.490234 L72.7915039,123.905273 C73.1079117,123.401365 73.5048804,123.010255 73.9824219,122.731934 C74.4599633,122.453612 75.0034149,122.314453 75.612793,122.314453 C76.6381887,122.314453 77.4321261,122.614743 77.9946289,123.215332 C78.5571317,123.815921 78.8383789,124.743158 78.8383789,125.99707 L78.8383789,132 L77.1069336,132 L77.1069336,126.032227 C77.1069336,125.194332 76.9414079,124.599611 76.6103516,124.248047 C76.2792952,123.896483 75.7739292,123.720703 75.0942383,123.720703 C74.5961889,123.720703 74.1552754,123.840819 73.7714844,124.081055 C73.3876934,124.32129 73.0815441,124.649412 72.8530273,125.06543 L72.8530273,132 L71.121582,132 L71.121582,122.490234 L72.668457,122.490234 Z M80.9741211,127.420898 C80.9741211,125.891594 81.3081021,124.658208 81.9760742,123.720703 C82.6440463,122.783198 83.5668886,122.314453 84.7446289,122.314453 C85.3481475,122.314453 85.8784157,122.436034 86.3354492,122.679199 C86.7924828,122.922364 87.1733383,123.272459 87.4780273,123.729492 L87.6889648,122.490234 L89.0688477,122.490234 L89.0688477,132.052734 C89.0688477,133.27149 88.714359,134.207516 88.0053711,134.86084 C87.2963832,135.514163 86.2739325,135.84082 84.9379883,135.84082 C84.4809547,135.84082 83.9873073,135.777833 83.4570312,135.651855 C82.9267552,135.525878 82.4594747,135.354493 82.0551758,135.137695 L82.4946289,133.792969 C82.8051773,133.968751 83.1801736,134.110839 83.6196289,134.219238 C84.0590842,134.327637 84.4926736,134.381836 84.9204102,134.381836 C85.7641644,134.381836 86.3779278,134.189943 86.7617188,133.806152 C87.1455097,133.422361 87.3374023,132.837895 87.3374023,132.052734 L87.3374023,130.980469 C87.0268539,131.378908 86.6547873,131.679198 86.2211914,131.881348 C85.7875955,132.083497 85.2895536,132.18457 84.7270508,132.18457 C83.5610293,132.18457 82.6440463,131.7627 81.9760742,130.918945 C81.3081021,130.075191 80.9741211,128.97071 80.9741211,127.605469 L80.9741211,127.420898 Z M82.7055664,127.605469 C82.7055664,128.560552 82.9077128,129.328122 83.3120117,129.908203 C83.7163106,130.488284 84.3315388,130.77832 85.1577148,130.77832 C85.6792018,130.77832 86.1157209,130.659669 86.4672852,130.422363 C86.8188494,130.185057 87.1088856,129.849612 87.3374023,129.416016 L87.3374023,125.039062 C87.114745,124.634764 86.8247088,124.313966 86.4672852,124.07666 C86.1098615,123.839354 85.6792017,123.720703 85.175293,123.720703 C84.349117,123.720703 83.7309591,124.066403 83.3208008,124.757812 C82.9106425,125.449222 82.7055664,126.336909 82.7055664,127.420898 L82.7055664,127.605469 Z M96.0825195,124.019531 L95.1948242,123.966797 C94.7377907,123.966797 94.3525406,124.075194 94.0390625,124.291992 C93.7255844,124.50879 93.4838876,124.813475 93.3139648,125.206055 L93.3139648,132 L91.5825195,132 L91.5825195,122.490234 L93.1293945,122.490234 L93.2963867,123.878906 C93.5659193,123.386716 93.8984355,123.002931 94.2939453,122.727539 C94.6894551,122.452147 95.145017,122.314453 95.6606445,122.314453 C95.7895514,122.314453 95.9125971,122.324707 96.0297852,122.345215 C96.1469732,122.365723 96.243652,122.387695 96.3198242,122.411133 L96.0825195,124.019531 Z M103.597168,132 C103.538574,131.712889 103.493164,131.459474 103.460938,131.239746 C103.428711,131.020018 103.409668,130.798829 103.403809,130.576172 C103.081541,131.033205 102.661135,131.415526 102.142578,131.723145 C101.624021,132.030763 101.065921,132.18457 100.468262,132.18457 C99.4780224,132.18457 98.7236354,131.931155 98.2050781,131.424316 C97.6865208,130.917478 97.4272461,130.218754 97.4272461,129.328125 C97.4272461,128.419917 97.7949182,127.709475 98.5302734,127.196777 C99.2656287,126.684079 100.263177,126.427734 101.522949,126.427734 L103.403809,126.427734 L103.403809,125.487305 C103.403809,124.930661 103.233888,124.489748 102.894043,124.164551 C102.554198,123.839354 102.073734,123.676758 101.452637,123.676758 C100.895993,123.676758 100.443361,123.818846 100.094727,124.103027 C99.746092,124.387208 99.5717773,124.728514 99.5717773,125.126953 L97.9194336,125.126953 L97.9018555,125.074219 C97.866699,124.382809 98.1933559,123.750003 98.8818359,123.175781 C99.5703159,122.60156 100.459467,122.314453 101.549316,122.314453 C102.627447,122.314453 103.494626,122.588376 104.150879,123.13623 C104.807132,123.684085 105.135254,124.473628 105.135254,125.504883 L105.135254,130.083984 C105.135254,130.42383 105.152832,130.751952 105.187988,131.068359 C105.223145,131.384767 105.287597,131.695311 105.381348,132 L103.597168,132 Z M100.723145,130.734375 C101.350101,130.734375 101.915525,130.573244 102.419434,130.250977 C102.923342,129.928709 103.251464,129.559572 103.403809,129.143555 L103.403809,127.59668 L101.461426,127.59668 C100.764157,127.59668 100.206057,127.772459 99.7871094,128.124023 C99.368162,128.475588 99.1586914,128.88867 99.1586914,129.363281 C99.1586914,129.785158 99.290526,130.119139 99.5541992,130.365234 C99.8178724,130.611329 100.207517,130.734375 100.723145,130.734375 Z M109.934082,120.196289 L109.934082,122.490234 L111.73584,122.490234 L111.73584,123.773438 L109.934082,123.773438 L109.934082,129.547852 C109.934082,129.993166 110.026366,130.30664 110.210938,130.488281 C110.395509,130.669923 110.640135,130.760742 110.944824,130.760742 C111.044434,130.760742 111.154296,130.749024 111.274414,130.725586 C111.394532,130.702148 111.501464,130.672852 111.595215,130.637695 L111.82373,131.824219 C111.694824,131.929688 111.505861,132.016113 111.256836,132.083496 C111.007811,132.150879 110.757325,132.18457 110.505371,132.18457 C109.802243,132.18457 109.242678,131.97217 108.82666,131.547363 C108.410642,131.122556 108.202637,130.456059 108.202637,129.547852 L108.202637,123.773438 L106.690918,123.773438 L106.690918,122.490234 L108.202637,122.490234 L108.202637,120.196289 L109.934082,120.196289 Z M119.399902,129.477539 C119.399902,129.096678 119.254884,128.783204 118.964844,128.537109 C118.674803,128.291014 118.125492,128.077149 117.316895,127.895508 C116.162592,127.643553 115.293948,127.302248 114.710937,126.871582 C114.127927,126.440916 113.836426,125.853519 113.836426,125.109375 C113.836426,124.335934 114.164547,123.676761 114.820801,123.131836 C115.477054,122.586911 116.332514,122.314453 117.387207,122.314453 C118.494634,122.314453 119.374997,122.59863 120.02832,123.166992 C120.681644,123.735354 120.993652,124.426754 120.964355,125.241211 L120.946777,125.293945 L119.294434,125.293945 C119.294434,124.877928 119.120119,124.504396 118.771484,124.17334 C118.42285,123.842284 117.961429,123.676758 117.387207,123.676758 C116.77197,123.676758 116.314943,123.811522 116.016113,124.081055 C115.717284,124.350587 115.567871,124.675779 115.567871,125.056641 C115.567871,125.431642 115.699706,125.727538 115.963379,125.944336 C116.227052,126.161134 116.76318,126.354491 117.571777,126.524414 C118.772955,126.782228 119.666501,127.132322 120.252441,127.574707 C120.838382,128.017092 121.131348,128.610348 121.131348,129.354492 C121.131348,130.198246 120.790042,130.880857 120.107422,131.402344 C119.424801,131.923831 118.53272,132.18457 117.431152,132.18457 C116.218256,132.18457 115.263187,131.876956 114.565918,131.261719 C113.868649,130.646481 113.537597,129.928715 113.572754,129.108398 L113.590332,129.055664 L115.242676,129.055664 C115.271973,129.670902 115.500486,130.120604 115.928223,130.404785 C116.355959,130.688966 116.856931,130.831055 117.431152,130.831055 C118.04639,130.831055 118.528319,130.706544 118.876953,130.45752 C119.225588,130.208495 119.399902,129.881838 119.399902,129.477539 Z M125.262207,127.798828 L123.530762,127.798828 L123.530762,119.203125 L125.262207,119.203125 L125.262207,127.798828 Z M125.270996,132 L123.530762,132 L123.530762,130.207031 L125.270996,130.207031 L125.270996,132 Z" id="Congrats!-Copy-3" fill="#456296"></path>
                <path d="M1,176 L166,176" id="Line-Copy-19" stroke="#D8E3F6" stroke-linecap="square"></path>
                <path d="M65.2790527,197.586914 L65.2937012,197.630859 C65.3132325,198.631841 64.9616735,199.469235 64.2390137,200.143066 C63.5163538,200.816898 62.5617735,201.153809 61.3752441,201.153809 C60.1691834,201.153809 59.1865272,200.726567 58.4272461,199.87207 C57.667965,199.017574 57.2883301,197.9336 57.2883301,196.620117 L57.2883301,194.723145 C57.2883301,193.409661 57.667965,192.324467 58.4272461,191.467529 C59.1865272,190.610591 60.1691834,190.182129 61.3752441,190.182129 C62.5813049,190.182129 63.5407679,190.503171 64.2536621,191.145264 C64.9665563,191.787357 65.3132325,192.638178 65.2937012,193.697754 L65.2790527,193.741699 L63.8947754,193.741699 C63.8947754,192.994625 63.675051,192.403811 63.2355957,191.969238 C62.7961404,191.534666 62.1760294,191.317383 61.3752441,191.317383 C60.569576,191.317383 59.9274926,191.642087 59.4489746,192.291504 C58.9704566,192.940921 58.7312012,193.746577 58.7312012,194.708496 L58.7312012,196.620117 C58.7312012,197.591802 58.9704566,198.402341 59.4489746,199.051758 C59.9274926,199.701175 60.569576,200.025879 61.3752441,200.025879 C62.1760294,200.025879 62.7961404,199.809817 63.2355957,199.377686 C63.675051,198.945554 63.8947754,198.348637 63.8947754,197.586914 L65.2790527,197.586914 Z M66.6340332,196.964355 C66.6340332,195.792475 66.9514128,194.826908 67.5861816,194.067627 C68.2209504,193.308346 69.0827582,192.928711 70.1716309,192.928711 C71.2702692,192.928711 72.1381804,193.307125 72.7753906,194.063965 C73.4126008,194.820805 73.7312012,195.787592 73.7312012,196.964355 L73.7312012,197.125488 C73.7312012,198.307135 73.4138215,199.273922 72.7790527,200.025879 C72.1442839,200.777836 71.2800348,201.153809 70.1862793,201.153809 C69.0925238,201.153809 68.227054,200.776615 67.5898438,200.022217 C66.9526335,199.267818 66.6340332,198.302252 66.6340332,197.125488 L66.6340332,196.964355 Z M68.0769043,197.125488 C68.0769043,197.965336 68.2539045,198.658689 68.6079102,199.205566 C68.9619158,199.752444 69.4880336,200.025879 70.1862793,200.025879 C70.8747593,200.025879 71.397215,199.752444 71.7536621,199.205566 C72.1101092,198.658689 72.2883301,197.965336 72.2883301,197.125488 L72.2883301,196.964355 C72.2883301,196.134273 72.1088885,195.443362 71.75,194.891602 C71.3911115,194.339841 70.8649937,194.063965 70.1716309,194.063965 C69.4831509,194.063965 68.9619158,194.339841 68.6079102,194.891602 C68.2539045,195.443362 68.0769043,196.134273 68.0769043,196.964355 L68.0769043,197.125488 Z M76.7854004,193.075195 L76.8879395,194.254395 C77.1516126,193.834471 77.4824199,193.508546 77.8803711,193.276611 C78.2783223,193.044677 78.7311986,192.928711 79.2390137,192.928711 C80.0935101,192.928711 80.7551246,193.178953 81.223877,193.679443 C81.6926293,194.179934 81.927002,194.952631 81.927002,195.997559 L81.927002,201 L80.4841309,201 L80.4841309,196.026855 C80.4841309,195.32861 80.3461928,194.833009 80.0703125,194.540039 C79.7944322,194.247069 79.3732938,194.100586 78.8068848,194.100586 C78.3918436,194.100586 78.0244157,194.200683 77.7045898,194.400879 C77.384764,194.601075 77.1296396,194.87451 76.939209,195.221191 L76.939209,201 L75.4963379,201 L75.4963379,193.075195 L76.7854004,193.075195 Z M84.4245605,201 L84.4245605,194.144531 L83.1794434,194.144531 L83.1794434,193.075195 L84.4245605,193.075195 L84.4245605,192.218262 C84.4245605,191.329585 84.6845677,190.641116 85.2045898,190.152832 C85.724612,189.664548 86.4460403,189.42041 87.3688965,189.42041 C87.6960466,189.42041 88.018309,189.458252 88.3356934,189.533936 C88.6530778,189.60962 89.0266092,189.720702 89.4562988,189.867188 L89.2072754,191.039062 C88.948485,190.936523 88.6726089,190.848633 88.3796387,190.775391 C88.0866685,190.702148 87.7863785,190.665527 87.4787598,190.665527 C86.9074678,190.665527 86.496095,190.792479 86.2446289,191.046387 C85.9931628,191.300294 85.8674316,191.690915 85.8674316,192.218262 L85.8674316,193.075195 L87.4421387,193.075195 L87.4421387,194.144531 L85.8674316,194.144531 L85.8674316,201 L84.4245605,201 Z M90.1594238,201 L88.7092285,201 L88.7092285,193.075195 L90.1594238,193.075195 L90.1594238,201 Z M96.1213379,194.349609 L95.3815918,194.305664 C95.0007305,194.305664 94.6796888,194.395995 94.418457,194.57666 C94.1572253,194.757325 93.9558113,195.011229 93.814209,195.338379 L93.814209,201 L92.3713379,201 L92.3713379,193.075195 L93.6604004,193.075195 L93.7995605,194.232422 C94.024171,193.822264 94.3012679,193.502443 94.6308594,193.272949 C94.9604509,193.043456 95.3400857,192.928711 95.7697754,192.928711 C95.8771978,192.928711 95.9797358,192.937256 96.0773926,192.954346 C96.1750493,192.971436 96.2556149,192.989746 96.3190918,193.009277 L96.1213379,194.349609 Z M98.802002,193.075195 L98.904541,194.115234 C99.1633314,193.739256 99.4916972,193.447511 99.8896484,193.23999 C100.2876,193.03247 100.750242,192.928711 101.277588,192.928711 C101.804934,192.928711 102.257811,193.05078 102.63623,193.294922 C103.01465,193.539064 103.299071,193.905271 103.489502,194.393555 C103.738527,193.944334 104.068113,193.587892 104.478271,193.324219 C104.88843,193.060546 105.366941,192.928711 105.913818,192.928711 C106.719486,192.928711 107.356687,193.205808 107.825439,193.76001 C108.294192,194.314212 108.528564,195.147944 108.528564,196.26123 L108.528564,201 L107.085693,201 L107.085693,196.246582 C107.085693,195.465328 106.951417,194.912355 106.682861,194.587646 C106.414305,194.262938 106.013919,194.100586 105.481689,194.100586 C104.988523,194.100586 104.589357,194.271483 104.28418,194.613281 C103.979002,194.95508 103.799561,195.387204 103.74585,195.909668 L103.74585,201 L102.295654,201 L102.295654,196.246582 C102.295654,195.504391 102.157716,194.961183 101.881836,194.616943 C101.605956,194.272703 101.209231,194.100586 100.69165,194.100586 C100.252195,194.100586 99.8908706,194.190917 99.607666,194.371582 C99.3244615,194.552247 99.1071785,194.806151 98.9558105,195.133301 L98.9558105,201 L97.5129395,201 L97.5129395,193.075195 L98.802002,193.075195 Z" id="12:16:12:16-copy-8" fill="#0E86FE"></path>
            </g>
        </g>
    </g>
</svg>