<?xml version="1.0" encoding="UTF-8"?>
<svg width="248px" height="74px" viewBox="0 0 248 74" version="1.1" xmlns="http://www.w3.org/2000/svg" xmlns:xlink="http://www.w3.org/1999/xlink">
    <!-- Generator: Sketch 41.2 (35397) - http://www.bohemiancoding.com/sketch -->
    <title>Page 1 Copy 2</title>
    <desc>Created with Sketch.</desc>
    <defs>
        <polygon id="path-1" points="24.0554402 73.3539015 24.0554402 0.280583333 0.348263657 0.280583333 0.348263657 73.3539015 24.0554402 73.3539015"></polygon>
    </defs>
    <g id="Page-1" stroke="none" stroke-width="1" fill="none" fill-rule="evenodd">
        <g id="ui-kit-copy" transform="translate(-410.000000, -339.000000)">
            <g id="Page-1-Copy-2" transform="translate(410.000000, 339.000000)">
                <path d="M178.405322,15.1702803 C176.834469,15.1702803 176.597665,16.563947 177.100943,17.2770379 L194.583543,37.9886288 C194.583543,37.9886288 195.099697,38.5682955 194.340022,38.5682955 L193.209746,38.5682955 L181.594613,38.6456591 C171.941087,38.6456591 164.115931,46.4829318 164.115931,56.1494621 C164.115931,65.8159924 171.941087,73.6532652 181.594613,73.6532652 L197.707895,73.5686136 C207.361981,73.5686136 215.158586,65.7307803 215.158586,56.0648106 L215.151868,54.6173258 L215.158586,33.898447 L215.158586,32.6740833 C215.158586,23.0064318 207.361981,15.1702803 197.707895,15.1702803 L178.405322,15.1702803 Z" id="Fill-1" fill="#FFFFFF"></path>
                <path d="M107.536215,21.1021091 C107.536215,27.627003 102.242563,32.9163212 95.7313029,32.9163212 C89.2105264,32.9163212 83.926391,27.627003 83.926391,21.1021091 C83.926391,14.5682455 89.2105264,9.27948788 95.7313029,9.27948788 C102.242563,9.27948788 107.536215,14.5682455 107.536215,21.1021091" id="Fill-3" fill="#FFFFFF"></path>
                <path d="M43.3428424,72.6176576 C42.5400614,74.0096424 41.2272849,74.0096424 40.4250637,72.6176576 L21.8401788,40.3856121 C21.0379576,38.9930667 19.725181,36.7164455 18.9229598,35.3244606 L0.342553499,3.09297576 C-0.45966772,1.70099091 0.196440632,0.5624 1.80200271,0.5624 L38.9661743,0.5624 L44.801172,0.5624 L81.9659034,0.5624 C83.5709056,0.5624 84.2275738,1.70099091 83.4253526,3.09297576 L64.8449463,35.3244606 C64.0432849,36.7164455 62.7299485,38.9930667 61.9271675,40.3856121 L43.3428424,72.6176576 Z" id="Fill-5" fill="#FFFFFF"></path>
                <path d="M107.588166,72.2590379 C107.588166,73.0623864 106.931498,73.7194167 106.128717,73.7194167 L85.3403828,73.7194167 C84.5376018,73.7194167 83.8814935,73.0623864 83.8814935,72.2590379 L83.8814935,40.1183712 C83.8814935,39.3139015 84.5376018,38.6568712 85.3403828,38.6568712 L106.128717,38.6568712 C106.931498,38.6568712 107.588166,39.3139015 107.588166,40.1183712 L107.588166,72.2590379 Z" id="Fill-7" fill="#FFFFFF"></path>
                <path d="M116.344637,38.6571515 C115.541856,38.6571515 114.885188,37.9995606 114.885188,37.1967727 L114.885188,16.721197 C114.885188,15.9184091 115.541856,15.2608182 116.344637,15.2608182 L162.662976,15.2608182 C163.466317,15.2608182 164.122985,15.9184091 164.122985,16.721197 L164.122985,37.1967727 C164.122985,37.9995606 163.466317,38.6571515 162.662976,38.6571515 L116.344637,38.6571515 Z" id="Fill-9" fill="#FFFFFF"></path>
                <path d="M127.663458,2.10664545 C127.663458,1.30217576 128.320126,0.645145455 129.122907,0.645145455 L149.88437,0.645145455 C150.687711,0.645145455 151.343819,1.30217576 151.343819,2.10664545 L151.343819,72.2592061 C151.343819,73.0619939 150.687711,73.7195848 149.88437,73.7195848 L129.122907,73.7195848 C128.320126,73.7195848 127.663458,73.0619939 127.663458,72.2592061 L127.663458,2.10664545 Z" id="Fill-11" fill="#FFFFFF"></path>
                <g id="Group-15" transform="translate(223.927765, 0.280303)">
                    <mask id="mask-2" fill="white">
                        <use xlink:href="#path-1"></use>
                    </mask>
                    <g id="Clip-14"></g>
                    <path d="M0.348263657,1.74040152 C0.348263657,0.93705303 1.00437201,0.280583333 1.80827269,0.280583333 L22.5954871,0.280583333 C23.3993878,0.280583333 24.0554962,0.93705303 24.0554962,1.74040152 L24.0554962,71.8935227 C24.0554962,72.6963106 23.3993878,73.3539015 22.5954871,73.3539015 L1.80827269,73.3539015 C1.00437201,73.3539015 0.348263657,72.6963106 0.348263657,71.8935227 L0.348263657,1.74040152 Z" id="Fill-13" fill="#FFFFFF" mask="url(#mask-2)"></path>
                </g>
            </g>
        </g>
    </g>
</svg>