<?xml version="1.0" encoding="UTF-8"?>
<svg width="173px" height="223px" viewBox="0 0 173 223" version="1.1" xmlns="http://www.w3.org/2000/svg" xmlns:xlink="http://www.w3.org/1999/xlink">
    <!-- Generator: Sketch 41.2 (35397) - http://www.bohemiancoding.com/sketch -->
    <title>Group 35</title>
    <desc>Created with Sketch.</desc>
    <defs>
        <rect id="path-1" x="0" y="0" width="165" height="215" rx="4"></rect>
        <filter x="-50%" y="-50%" width="200%" height="200%" filterUnits="objectBoundingBox" id="filter-2">
            <feOffset dx="0" dy="1" in="SourceAlpha" result="shadowOffsetOuter1"></feOffset>
            <feGaussianBlur stdDeviation="2" in="shadowOffsetOuter1" result="shadowBlurOuter1"></feGaussianBlur>
            <feColorMatrix values="0 0 0 0 0   0 0 0 0 0   0 0 0 0 0  0 0 0 0.15 0" type="matrix" in="shadowBlurOuter1" result="shadowMatrixOuter1"></feColorMatrix>
            <feOffset dx="0" dy="2" in="SourceAlpha" result="shadowOffsetOuter2"></feOffset>
            <feGaussianBlur stdDeviation="1" in="shadowOffsetOuter2" result="shadowBlurOuter2"></feGaussianBlur>
            <feColorMatrix values="0 0 0 0 0   0 0 0 0 0   0 0 0 0 0  0 0 0 0.3 0" type="matrix" in="shadowBlurOuter2" result="shadowMatrixOuter2"></feColorMatrix>
            <feMerge>
                <feMergeNode in="shadowMatrixOuter1"></feMergeNode>
                <feMergeNode in="shadowMatrixOuter2"></feMergeNode>
            </feMerge>
        </filter>
    </defs>
    <g id="template(outline)" stroke="none" stroke-width="1" fill="none" fill-rule="evenodd">
        <g id="card-temp" transform="translate(-402.000000, -1147.000000)">
            <g id="Group-35" transform="translate(406.000000, 1150.000000)">
                <g id="Group-16-Copy">
                    <g id="Group-13">
                        <g id="Group-6">
                            <g id="Rectangle-147-Copy-3">
                                <use fill="black" fill-opacity="1" filter="url(#filter-2)" xlink:href="#path-1"></use>
                                <use fill="#FFFFFF" fill-rule="evenodd" xlink:href="#path-1"></use>
                            </g>
                            <path d="M87.2857552,73.6093686 C87.2857552,74.2120479 86.8170046,74.7142806 86.2143253,74.7142806 L79.7857462,74.7142806 C79.1830669,74.7142806 78.7143164,74.2120479 78.7143164,73.6093686 L78.7143164,67.2477538 C78.7143164,66.6450746 79.1830669,66.1428418 79.7857462,66.1428418 L86.2143253,66.1428418 C86.8170046,66.1428418 87.2857552,66.6450746 87.2857552,67.2477538 L87.2857552,73.6093686 Z M87.2187908,61.0870322 C87.1853086,61.5223006 86.6830759,61.8571224 86.0803966,61.8571224 L79.8861928,61.8571224 C79.2500313,61.8571224 78.7477986,61.5223006 78.7477986,61.0870322 L78.1786014,45.7856747 C78.1786014,45.5847816 78.279048,45.2499598 78.5134233,45.0825489 C78.7143164,44.9151379 79.015656,44.7142448 79.3169957,44.7142448 L86.6830759,44.7142448 C86.9844155,44.7142448 87.2857552,44.9151379 87.4866483,45.0825489 C87.7210235,45.2499598 87.8214701,45.5178172 87.8214701,45.7187103 L87.2187908,61.0870322 Z M86.7500402,29.8146735 C86.0134322,28.441904 84.5736984,27.5713673 83.0000358,27.5713673 C81.4263732,27.5713673 79.9866393,28.441904 79.2500313,29.8146735 L53.5357149,76.9575869 C52.7991069,78.263392 52.8325891,79.8705368 53.6026793,81.1763419 C54.3727695,82.482147 55.7790212,83.2857194 57.2857194,83.2857194 L108.714352,83.2857194 C110.22105,83.2857194 111.627302,82.482147 112.397392,81.1763419 C113.167482,79.8705368 113.200965,78.263392 112.464357,76.9575869 L86.7500402,29.8146735 Z" id="exclamation-triangle---fontawesome-copy" fill="#FFB400"></path>
                        </g>
                        <path d="M73.3271484,120.744141 C73.3271484,122.308602 72.84229,123.60644 71.8725586,124.637695 C70.9028272,125.66895 69.644539,126.18457 68.0976562,126.18457 C66.6035082,126.18457 65.3891648,125.66895 64.4545898,124.637695 C63.5200149,123.60644 63.0527344,122.308602 63.0527344,120.744141 L63.0527344,118.467773 C63.0527344,116.909172 63.5200149,115.611333 64.4545898,114.574219 C65.3891648,113.537104 66.6035082,113.018555 68.0976562,113.018555 C69.644539,113.018555 70.9028272,113.535639 71.8725586,114.569824 C72.84229,115.604009 73.3271484,116.903312 73.3271484,118.467773 L73.3271484,120.744141 Z M71.5957031,118.450195 C71.5957031,117.278314 71.2793,116.317387 70.6464844,115.567383 C70.0136687,114.817379 69.1640678,114.442383 68.0976562,114.442383 C67.0898387,114.442383 66.2856475,114.817379 65.6850586,115.567383 C65.0844697,116.317387 64.7841797,117.278314 64.7841797,118.450195 L64.7841797,120.744141 C64.7841797,121.92774 65.0844697,122.894527 65.6850586,123.644531 C66.2856475,124.394535 67.0898387,124.769531 68.0976562,124.769531 C69.1699272,124.769531 70.0209929,124.396 70.6508789,123.648926 C71.2807649,122.901852 71.5957031,121.9336 71.5957031,120.744141 L71.5957031,118.450195 Z M75.1816406,121.157227 C75.1816406,119.75097 75.5624962,118.59229 76.3242188,117.681152 C77.0859413,116.770015 78.1201107,116.314453 79.4267578,116.314453 C80.7451238,116.314453 81.7866173,116.76855 82.5512695,117.676758 C83.3159218,118.584965 83.6982422,119.74511 83.6982422,121.157227 L83.6982422,121.350586 C83.6982422,122.768562 83.3173866,123.928706 82.5556641,124.831055 C81.7939415,125.733403 80.7568425,126.18457 79.4443359,126.18457 C78.1318294,126.18457 77.0932655,125.731938 76.3286133,124.82666 C75.563961,123.921382 75.1816406,122.762702 75.1816406,121.350586 L75.1816406,121.157227 Z M76.9130859,121.350586 C76.9130859,122.358403 77.1254862,123.190426 77.550293,123.84668 C77.9750998,124.502933 78.6064411,124.831055 79.4443359,124.831055 C80.2705119,124.831055 80.8974588,124.502933 81.3251953,123.84668 C81.7529318,123.190426 81.9667969,122.358403 81.9667969,121.350586 L81.9667969,121.157227 C81.9667969,120.161128 81.751467,119.332035 81.3208008,118.669922 C80.8901346,118.007809 80.2587932,117.676758 79.4267578,117.676758 C78.6005818,117.676758 77.9750998,118.007809 77.550293,118.669922 C77.1254862,119.332035 76.9130859,120.161128 76.9130859,121.157227 L76.9130859,121.350586 Z M93.9199219,121.605469 C93.9199219,122.976569 93.5918002,124.082515 92.9355469,124.92334 C92.2792936,125.764164 91.3740292,126.18457 90.2197266,126.18457 C89.6337861,126.18457 89.1196311,126.086427 88.6772461,125.890137 C88.2348611,125.693847 87.8584,125.399416 87.5478516,125.006836 L87.5478516,129.65625 L85.8164062,129.65625 L85.8164062,116.490234 L87.1435547,116.490234 L87.4160156,117.720703 C87.7265641,117.26367 88.1132789,116.91504 88.5761719,116.674805 C89.0390648,116.434569 89.5781219,116.314453 90.1933594,116.314453 C91.3710996,116.314453 92.2866178,116.781734 92.9399414,117.716309 C93.593265,118.650884 93.9199219,119.885735 93.9199219,121.420898 L93.9199219,121.605469 Z M92.1884766,121.420898 C92.1884766,120.342768 91.9760763,119.456546 91.5512695,118.762207 C91.1264627,118.067868 90.5009807,117.720703 89.6748047,117.720703 C89.1767553,117.720703 88.7519549,117.833495 88.4003906,118.059082 C88.0488264,118.284669 87.7646495,118.593748 87.5478516,118.986328 L87.5478516,123.583008 C87.7646495,123.975588 88.0488264,124.281737 88.4003906,124.501465 C88.7519549,124.721193 89.1826146,124.831055 89.6923828,124.831055 C90.5126994,124.831055 91.133787,124.530765 91.5556641,123.930176 C91.9775412,123.329587 92.1884766,122.554692 92.1884766,121.605469 L92.1884766,121.420898 Z M101.575195,123.477539 C101.575195,123.096678 101.430177,122.783204 101.140137,122.537109 C100.850096,122.291014 100.300785,122.077149 99.4921875,121.895508 C98.3378849,121.643553 97.4692412,121.302248 96.8862305,120.871582 C96.3032197,120.440916 96.0117188,119.853519 96.0117188,119.109375 C96.0117188,118.335934 96.3398405,117.676761 96.9960938,117.131836 C97.652347,116.586911 98.5078072,116.314453 99.5625,116.314453 C100.669927,116.314453 101.55029,116.59863 102.203613,117.166992 C102.856937,117.735354 103.168945,118.426754 103.139648,119.241211 L103.12207,119.293945 L101.469727,119.293945 C101.469727,118.877928 101.295412,118.504396 100.946777,118.17334 C100.598143,117.842284 100.136722,117.676758 99.5625,117.676758 C98.9472625,117.676758 98.4902359,117.811522 98.1914062,118.081055 C97.8925766,118.350587 97.7431641,118.675779 97.7431641,119.056641 C97.7431641,119.431642 97.8749987,119.727538 98.1386719,119.944336 C98.4023451,120.161134 98.9384725,120.354491 99.7470703,120.524414 C100.948248,120.782228 101.841794,121.132322 102.427734,121.574707 C103.013675,122.017092 103.306641,122.610348 103.306641,123.354492 C103.306641,124.198246 102.965335,124.880857 102.282715,125.402344 C101.600094,125.923831 100.708013,126.18457 99.6064453,126.18457 C98.3935486,126.18457 97.43848,125.876956 96.7412109,125.261719 C96.0439418,124.646481 95.7128904,123.928715 95.7480469,123.108398 L95.765625,123.055664 L97.4179688,123.055664 C97.4472658,123.670902 97.6757791,124.120604 98.1035156,124.404785 C98.5312521,124.688966 99.0322237,124.831055 99.6064453,124.831055 C100.221683,124.831055 100.703612,124.706544 101.052246,124.45752 C101.400881,124.208495 101.575195,123.881838 101.575195,123.477539 Z M107.4375,121.798828 L105.706055,121.798828 L105.706055,113.203125 L107.4375,113.203125 L107.4375,121.798828 Z M107.446289,126 L105.706055,126 L105.706055,124.207031 L107.446289,124.207031 L107.446289,126 Z" id="Oops!" fill="#456296"></path>
                        <path d="M27.9287109,143.269531 L27.9404297,143.304688 C27.9560548,144.105473 27.6748076,144.775388 27.0966797,145.314453 C26.5185518,145.853518 25.7548876,146.123047 24.8056641,146.123047 C23.8408155,146.123047 23.0546905,145.781253 22.4472656,145.097656 C21.8398407,144.414059 21.5361328,143.54688 21.5361328,142.496094 L21.5361328,140.978516 C21.5361328,139.927729 21.8398407,139.059574 22.4472656,138.374023 C23.0546905,137.688473 23.8408155,137.345703 24.8056641,137.345703 C25.7705126,137.345703 26.5380831,137.602536 27.1083984,138.116211 C27.6787138,138.629885 27.9560548,139.310543 27.9404297,140.158203 L27.9287109,140.193359 L26.8212891,140.193359 C26.8212891,139.5957 26.6455096,139.123049 26.2939453,138.775391 C25.9423811,138.427733 25.4462923,138.253906 24.8056641,138.253906 C24.1611296,138.253906 23.6474629,138.513669 23.2646484,139.033203 C22.881834,139.552737 22.6904297,140.197262 22.6904297,140.966797 L22.6904297,142.496094 C22.6904297,143.273441 22.881834,143.921872 23.2646484,144.441406 C23.6474629,144.96094 24.1611296,145.220703 24.8056641,145.220703 C25.4462923,145.220703 25.9423811,145.047853 26.2939453,144.702148 C26.6455096,144.356444 26.8212891,143.878909 26.8212891,143.269531 L27.9287109,143.269531 Z M30.4365234,140.509766 C30.6552745,140.205077 30.9238265,139.967774 31.2421875,139.797852 C31.5605485,139.627929 31.913084,139.542969 32.2998047,139.542969 C32.9755893,139.542969 33.5019512,139.746092 33.8789062,140.152344 C34.2558613,140.558596 34.4443359,141.18359 34.4443359,142.027344 L34.4443359,146 L33.2900391,146 L33.2900391,142.015625 C33.2900391,141.492185 33.1777355,141.10547 32.953125,140.855469 C32.7285145,140.605468 32.3935569,140.480469 31.9482422,140.480469 C31.6279281,140.480469 31.3378919,140.555663 31.078125,140.706055 C30.8183581,140.856446 30.604493,141.060546 30.4365234,141.318359 L30.4365234,146 L29.2822266,146 L29.2822266,136.859375 L30.4365234,136.859375 L30.4365234,140.509766 Z M38.7333984,146.123047 C37.8505815,146.123047 37.1484401,145.829105 36.6269531,145.241211 C36.1054661,144.653317 35.8447266,143.89063 35.8447266,142.953125 L35.8447266,142.695312 C35.8447266,141.792964 36.1132786,141.041995 36.6503906,140.442383 C37.1875027,139.84277 37.8232385,139.542969 38.5576172,139.542969 C39.4130902,139.542969 40.0595681,139.800779 40.4970703,140.316406 C40.9345725,140.832034 41.1533203,141.519527 41.1533203,142.378906 L41.1533203,143.099609 L37.0400391,143.099609 L37.0224609,143.128906 C37.0341797,143.738284 37.1884751,144.239256 37.4853516,144.631836 C37.782228,145.024416 38.1982395,145.220703 38.7333984,145.220703 C39.1240254,145.220703 39.4667954,145.16504 39.7617188,145.053711 C40.0566421,144.942382 40.3115224,144.789063 40.5263672,144.59375 L40.9775391,145.34375 C40.7509754,145.566407 40.4521503,145.751952 40.0810547,145.900391 C39.7099591,146.048829 39.2607448,146.123047 38.7333984,146.123047 Z M38.5576172,140.451172 C38.1708965,140.451172 37.8408217,140.614256 37.5673828,140.94043 C37.2939439,141.266603 37.1259769,141.675779 37.0634766,142.167969 L37.0751953,142.197266 L39.9990234,142.197266 L39.9990234,142.044922 C39.9990234,141.591795 39.8779309,141.212892 39.6357422,140.908203 C39.3935535,140.603514 39.0341821,140.451172 38.5576172,140.451172 Z M45.0263672,145.220703 C45.4091816,145.220703 45.7460923,145.10254 46.0371094,144.866211 C46.3281265,144.629882 46.4736328,144.339845 46.4736328,143.996094 L47.5107422,143.996094 L47.5224609,144.03125 C47.5419923,144.578128 47.2988307,145.063474 46.7929688,145.487305 C46.2871068,145.911135 45.6982455,146.123047 45.0263672,146.123047 C44.1044876,146.123047 43.3994165,145.822269 42.9111328,145.220703 C42.4228491,144.619138 42.1787109,143.863286 42.1787109,142.953125 L42.1787109,142.707031 C42.1787109,141.804683 42.4238257,141.051761 42.9140625,140.448242 C43.4042993,139.844724 44.1083938,139.542969 45.0263672,139.542969 C45.7685584,139.542969 46.3749976,139.761717 46.8457031,140.199219 C47.3164086,140.636721 47.5439454,141.173825 47.5283203,141.810547 L47.5166016,141.845703 L46.4736328,141.845703 C46.4736328,141.458982 46.3369154,141.129884 46.0634766,140.858398 C45.7900377,140.586913 45.444338,140.451172 45.0263672,140.451172 C44.4208954,140.451172 43.9882825,140.668943 43.7285156,141.104492 C43.4687487,141.540041 43.3388672,142.074216 43.3388672,142.707031 L43.3388672,142.953125 C43.3388672,143.601566 43.4677721,144.141599 43.7255859,144.573242 C43.9833997,145.004885 44.4169891,145.220703 45.0263672,145.220703 Z M50.7275391,143.076172 L49.9775391,143.076172 L49.9775391,146 L48.8232422,146 L48.8232422,136.859375 L49.9775391,136.859375 L49.9775391,142.15625 L50.7158203,142.15625 L52.4501953,139.660156 L53.8330078,139.660156 L51.6650391,142.542969 L54.1435547,146 L52.7841797,146 L50.7275391,143.076172 Z M59.8916016,143.650391 L60.0966797,144.447266 L60.1318359,144.447266 L61.6904297,139.660156 L62.9736328,139.660156 L60.3076172,146.972656 C60.1474601,147.39844 59.9179702,147.76953 59.6191406,148.085938 C59.320311,148.402345 58.9169947,148.560547 58.4091797,148.560547 C58.3154292,148.560547 58.1962898,148.549805 58.0517578,148.52832 C57.9072258,148.506836 57.7958988,148.486328 57.7177734,148.466797 L57.8349609,147.558594 C57.8115233,147.554687 57.8808586,147.558594 58.0429688,147.570312 C58.2050789,147.582031 58.307617,147.587891 58.3505859,147.587891 C58.5966809,147.587891 58.7978508,147.478517 58.9541016,147.259766 C59.1103523,147.041015 59.2412104,146.798829 59.3466797,146.533203 L59.6220703,145.871094 L57.2666016,139.660156 L58.5556641,139.660156 L59.8916016,143.650391 Z M63.6298828,142.771484 C63.6298828,141.83398 63.8837865,141.061526 64.3916016,140.454102 C64.8994166,139.846677 65.5888628,139.542969 66.4599609,139.542969 C67.3388716,139.542969 68.0332006,139.8457 68.5429688,140.451172 C69.0527369,141.056644 69.3076172,141.830073 69.3076172,142.771484 L69.3076172,142.900391 C69.3076172,143.845708 69.0537135,144.619138 68.5458984,145.220703 C68.0380834,145.822269 67.3466841,146.123047 66.4716797,146.123047 C65.5966753,146.123047 64.9042994,145.821292 64.3945312,145.217773 C63.8847631,144.614255 63.6298828,143.841802 63.6298828,142.900391 L63.6298828,142.771484 Z M64.7841797,142.900391 C64.7841797,143.572269 64.9257798,144.126951 65.2089844,144.564453 C65.4921889,145.001955 65.9130831,145.220703 66.4716797,145.220703 C67.0224637,145.220703 67.4404283,145.001955 67.7255859,144.564453 C68.0107436,144.126951 68.1533203,143.572269 68.1533203,142.900391 L68.1533203,142.771484 C68.1533203,142.107419 68.0097671,141.55469 67.7226562,141.113281 C67.4355454,140.671873 67.0146512,140.451172 66.4599609,140.451172 C65.9091769,140.451172 65.4921889,140.671873 65.2089844,141.113281 C64.9257798,141.55469 64.7841797,142.107419 64.7841797,142.771484 L64.7841797,142.900391 Z M74.7451172,145.0625 C74.5458974,145.402345 74.2900406,145.664062 73.9775391,145.847656 C73.6650375,146.031251 73.303713,146.123047 72.8935547,146.123047 C72.202145,146.123047 71.6630879,145.902346 71.2763672,145.460938 C70.8896465,145.019529 70.6962891,144.332036 70.6962891,143.398438 L70.6962891,139.660156 L71.8505859,139.660156 L71.8505859,143.410156 C71.8505859,144.085941 71.9501943,144.55078 72.1494141,144.804688 C72.3486338,145.058595 72.6591776,145.185547 73.0810547,145.185547 C73.491213,145.185547 73.8300768,145.10254 74.0976562,144.936523 C74.3652357,144.770507 74.5673821,144.535158 74.7041016,144.230469 L74.7041016,139.660156 L75.8583984,139.660156 L75.8583984,146 L74.8212891,146 L74.7451172,145.0625 Z M80.5400391,140.679688 L79.9482422,140.644531 C79.6435532,140.644531 79.3867198,140.716796 79.1777344,140.861328 C78.968749,141.00586 78.8076178,141.208983 78.6943359,141.470703 L78.6943359,146 L77.5400391,146 L77.5400391,139.660156 L78.5712891,139.660156 L78.6826172,140.585938 C78.8623056,140.257811 79.0839831,140.001954 79.3476562,139.818359 C79.6113294,139.634765 79.9150373,139.542969 80.2587891,139.542969 C80.344727,139.542969 80.4267574,139.549805 80.5048828,139.563477 C80.5830082,139.577149 80.6474607,139.591797 80.6982422,139.607422 L80.5400391,140.679688 Z M87.2138672,145.220703 C87.5966816,145.220703 87.9335923,145.10254 88.2246094,144.866211 C88.5156265,144.629882 88.6611328,144.339845 88.6611328,143.996094 L89.6982422,143.996094 L89.7099609,144.03125 C89.7294923,144.578128 89.4863307,145.063474 88.9804688,145.487305 C88.4746068,145.911135 87.8857455,146.123047 87.2138672,146.123047 C86.2919876,146.123047 85.5869165,145.822269 85.0986328,145.220703 C84.6103491,144.619138 84.3662109,143.863286 84.3662109,142.953125 L84.3662109,142.707031 C84.3662109,141.804683 84.6113257,141.051761 85.1015625,140.448242 C85.5917993,139.844724 86.2958938,139.542969 87.2138672,139.542969 C87.9560584,139.542969 88.5624976,139.761717 89.0332031,140.199219 C89.5039086,140.636721 89.7314454,141.173825 89.7158203,141.810547 L89.7041016,141.845703 L88.6611328,141.845703 C88.6611328,141.458982 88.5244154,141.129884 88.2509766,140.858398 C87.9775377,140.586913 87.631838,140.451172 87.2138672,140.451172 C86.6083954,140.451172 86.1757825,140.668943 85.9160156,141.104492 C85.6562487,141.540041 85.5263672,142.074216 85.5263672,142.707031 L85.5263672,142.953125 C85.5263672,143.601566 85.6552721,144.141599 85.9130859,144.573242 C86.1708997,145.004885 86.6044891,145.220703 87.2138672,145.220703 Z M90.7353516,142.771484 C90.7353516,141.83398 90.9892553,141.061526 91.4970703,140.454102 C92.0048854,139.846677 92.6943316,139.542969 93.5654297,139.542969 C94.4443403,139.542969 95.1386693,139.8457 95.6484375,140.451172 C96.1582057,141.056644 96.4130859,141.830073 96.4130859,142.771484 L96.4130859,142.900391 C96.4130859,143.845708 96.1591822,144.619138 95.6513672,145.220703 C95.1435521,145.822269 94.4521528,146.123047 93.5771484,146.123047 C92.7021441,146.123047 92.0097682,145.821292 91.5,145.217773 C90.9902318,144.614255 90.7353516,143.841802 90.7353516,142.900391 L90.7353516,142.771484 Z M91.8896484,142.900391 C91.8896484,143.572269 92.0312486,144.126951 92.3144531,144.564453 C92.5976577,145.001955 93.0185519,145.220703 93.5771484,145.220703 C94.1279324,145.220703 94.545897,145.001955 94.8310547,144.564453 C95.1162124,144.126951 95.2587891,143.572269 95.2587891,142.900391 L95.2587891,142.771484 C95.2587891,142.107419 95.1152358,141.55469 94.828125,141.113281 C94.5410142,140.671873 94.12012,140.451172 93.5654297,140.451172 C93.0146457,140.451172 92.5976577,140.671873 92.3144531,141.113281 C92.0312486,141.55469 91.8896484,142.107419 91.8896484,142.771484 L91.8896484,142.900391 Z M98.8564453,139.660156 L98.9384766,140.603516 C99.1494151,140.267576 99.4140609,140.006837 99.7324219,139.821289 C100.050783,139.635741 100.413084,139.542969 100.819336,139.542969 C101.502933,139.542969 102.032225,139.743162 102.407227,140.143555 C102.782228,140.543947 102.969727,141.162105 102.969727,141.998047 L102.969727,146 L101.81543,146 L101.81543,142.021484 C101.81543,141.462888 101.705079,141.066407 101.484375,140.832031 C101.263671,140.597655 100.92676,140.480469 100.473633,140.480469 C100.1416,140.480469 99.8476575,140.560546 99.5917969,140.720703 C99.3359362,140.88086 99.1318367,141.099608 98.9794922,141.376953 L98.9794922,146 L97.8251953,146 L97.8251953,139.660156 L98.8564453,139.660156 Z M105.676758,139.660156 L105.758789,140.603516 C105.969728,140.267576 106.234373,140.006837 106.552734,139.821289 C106.871095,139.635741 107.233396,139.542969 107.639648,139.542969 C108.323246,139.542969 108.852537,139.743162 109.227539,140.143555 C109.602541,140.543947 109.790039,141.162105 109.790039,141.998047 L109.790039,146 L108.635742,146 L108.635742,142.021484 C108.635742,141.462888 108.525392,141.066407 108.304688,140.832031 C108.083983,140.597655 107.747073,140.480469 107.293945,140.480469 C106.961912,140.480469 106.66797,140.560546 106.412109,140.720703 C106.156249,140.88086 105.952149,141.099608 105.799805,141.376953 L105.799805,146 L104.645508,146 L104.645508,139.660156 L105.676758,139.660156 Z M114.09668,146.123047 C113.213863,146.123047 112.511721,145.829105 111.990234,145.241211 C111.468747,144.653317 111.208008,143.89063 111.208008,142.953125 L111.208008,142.695312 C111.208008,141.792964 111.47656,141.041995 112.013672,140.442383 C112.550784,139.84277 113.18652,139.542969 113.920898,139.542969 C114.776371,139.542969 115.422849,139.800779 115.860352,140.316406 C116.297854,140.832034 116.516602,141.519527 116.516602,142.378906 L116.516602,143.099609 L112.40332,143.099609 L112.385742,143.128906 C112.397461,143.738284 112.551756,144.239256 112.848633,144.631836 C113.145509,145.024416 113.561521,145.220703 114.09668,145.220703 C114.487307,145.220703 114.830077,145.16504 115.125,145.053711 C115.419923,144.942382 115.674804,144.789063 115.889648,144.59375 L116.34082,145.34375 C116.114257,145.566407 115.815432,145.751952 115.444336,145.900391 C115.07324,146.048829 114.624026,146.123047 114.09668,146.123047 Z M113.920898,140.451172 C113.534178,140.451172 113.204103,140.614256 112.930664,140.94043 C112.657225,141.266603 112.489258,141.675779 112.426758,142.167969 L112.438477,142.197266 L115.362305,142.197266 L115.362305,142.044922 C115.362305,141.591795 115.241212,141.212892 114.999023,140.908203 C114.756835,140.603514 114.397463,140.451172 113.920898,140.451172 Z M120.389648,145.220703 C120.772463,145.220703 121.109374,145.10254 121.400391,144.866211 C121.691408,144.629882 121.836914,144.339845 121.836914,143.996094 L122.874023,143.996094 L122.885742,144.03125 C122.905274,144.578128 122.662112,145.063474 122.15625,145.487305 C121.650388,145.911135 121.061527,146.123047 120.389648,146.123047 C119.467769,146.123047 118.762698,145.822269 118.274414,145.220703 C117.78613,144.619138 117.541992,143.863286 117.541992,142.953125 L117.541992,142.707031 C117.541992,141.804683 117.787107,141.051761 118.277344,140.448242 C118.767581,139.844724 119.471675,139.542969 120.389648,139.542969 C121.13184,139.542969 121.738279,139.761717 122.208984,140.199219 C122.67969,140.636721 122.907227,141.173825 122.891602,141.810547 L122.879883,141.845703 L121.836914,141.845703 C121.836914,141.458982 121.700197,141.129884 121.426758,140.858398 C121.153319,140.586913 120.807619,140.451172 120.389648,140.451172 C119.784177,140.451172 119.351564,140.668943 119.091797,141.104492 C118.83203,141.540041 118.702148,142.074216 118.702148,142.707031 L118.702148,142.953125 C118.702148,143.601566 118.831053,144.141599 119.088867,144.573242 C119.346681,145.004885 119.78027,145.220703 120.389648,145.220703 Z M125.704102,138.130859 L125.704102,139.660156 L126.905273,139.660156 L126.905273,140.515625 L125.704102,140.515625 L125.704102,144.365234 C125.704102,144.662111 125.765624,144.871093 125.888672,144.992188 C126.011719,145.113282 126.174804,145.173828 126.37793,145.173828 C126.444336,145.173828 126.517578,145.166016 126.597656,145.150391 C126.677735,145.134766 126.749023,145.115234 126.811523,145.091797 L126.963867,145.882812 C126.877929,145.953125 126.751954,146.010742 126.585938,146.055664 C126.419921,146.100586 126.252931,146.123047 126.084961,146.123047 C125.616209,146.123047 125.243165,145.981447 124.96582,145.698242 C124.688475,145.415038 124.549805,144.970706 124.549805,144.365234 L124.549805,140.515625 L123.541992,140.515625 L123.541992,139.660156 L124.549805,139.660156 L124.549805,138.130859 L125.704102,138.130859 Z M129.577148,146 L128.422852,146 L128.422852,139.660156 L129.577148,139.660156 L129.577148,146 Z M129.577148,138.037109 L128.422852,138.037109 L128.422852,136.859375 L129.577148,136.859375 L129.577148,138.037109 Z M131.083008,142.771484 C131.083008,141.83398 131.336912,141.061526 131.844727,140.454102 C132.352542,139.846677 133.041988,139.542969 133.913086,139.542969 C134.791997,139.542969 135.486326,139.8457 135.996094,140.451172 C136.505862,141.056644 136.760742,141.830073 136.760742,142.771484 L136.760742,142.900391 C136.760742,143.845708 136.506838,144.619138 135.999023,145.220703 C135.491208,145.822269 134.799809,146.123047 133.924805,146.123047 C133.0498,146.123047 132.357424,145.821292 131.847656,145.217773 C131.337888,144.614255 131.083008,143.841802 131.083008,142.900391 L131.083008,142.771484 Z M132.237305,142.900391 C132.237305,143.572269 132.378905,144.126951 132.662109,144.564453 C132.945314,145.001955 133.366208,145.220703 133.924805,145.220703 C134.475589,145.220703 134.893553,145.001955 135.178711,144.564453 C135.463869,144.126951 135.606445,143.572269 135.606445,142.900391 L135.606445,142.771484 C135.606445,142.107419 135.462892,141.55469 135.175781,141.113281 C134.88867,140.671873 134.467776,140.451172 133.913086,140.451172 C133.362302,140.451172 132.945314,140.671873 132.662109,141.113281 C132.378905,141.55469 132.237305,142.107419 132.237305,142.771484 L132.237305,142.900391 Z M139.204102,139.660156 L139.286133,140.603516 C139.497071,140.267576 139.761717,140.006837 140.080078,139.821289 C140.398439,139.635741 140.76074,139.542969 141.166992,139.542969 C141.850589,139.542969 142.379881,139.743162 142.754883,140.143555 C143.129885,140.543947 143.317383,141.162105 143.317383,141.998047 L143.317383,146 L142.163086,146 L142.163086,142.021484 C142.163086,141.462888 142.052735,141.066407 141.832031,140.832031 C141.611327,140.597655 141.274416,140.480469 140.821289,140.480469 C140.489256,140.480469 140.195314,140.560546 139.939453,140.720703 C139.683592,140.88086 139.479493,141.099608 139.327148,141.376953 L139.327148,146 L138.172852,146 L138.172852,139.660156 L139.204102,139.660156 Z" id="Check-your-connectio" fill="#7189B6"></path>
                        <path d="M0.5,175.5 L164.5,175.5" id="Line-Copy-11" stroke="#D8E3F6" stroke-linecap="square"></path>
                        <path d="M65.2790527,197.586914 L65.2937012,197.630859 C65.3132325,198.631841 64.9616735,199.469235 64.2390137,200.143066 C63.5163538,200.816898 62.5617735,201.153809 61.3752441,201.153809 C60.1691834,201.153809 59.1865272,200.726567 58.4272461,199.87207 C57.667965,199.017574 57.2883301,197.9336 57.2883301,196.620117 L57.2883301,194.723145 C57.2883301,193.409661 57.667965,192.324467 58.4272461,191.467529 C59.1865272,190.610591 60.1691834,190.182129 61.3752441,190.182129 C62.5813049,190.182129 63.5407679,190.503171 64.2536621,191.145264 C64.9665563,191.787357 65.3132325,192.638178 65.2937012,193.697754 L65.2790527,193.741699 L63.8947754,193.741699 C63.8947754,192.994625 63.675051,192.403811 63.2355957,191.969238 C62.7961404,191.534666 62.1760294,191.317383 61.3752441,191.317383 C60.569576,191.317383 59.9274926,191.642087 59.4489746,192.291504 C58.9704566,192.940921 58.7312012,193.746577 58.7312012,194.708496 L58.7312012,196.620117 C58.7312012,197.591802 58.9704566,198.402341 59.4489746,199.051758 C59.9274926,199.701175 60.569576,200.025879 61.3752441,200.025879 C62.1760294,200.025879 62.7961404,199.809817 63.2355957,199.377686 C63.675051,198.945554 63.8947754,198.348637 63.8947754,197.586914 L65.2790527,197.586914 Z M66.6340332,196.964355 C66.6340332,195.792475 66.9514128,194.826908 67.5861816,194.067627 C68.2209504,193.308346 69.0827582,192.928711 70.1716309,192.928711 C71.2702692,192.928711 72.1381804,193.307125 72.7753906,194.063965 C73.4126008,194.820805 73.7312012,195.787592 73.7312012,196.964355 L73.7312012,197.125488 C73.7312012,198.307135 73.4138215,199.273922 72.7790527,200.025879 C72.1442839,200.777836 71.2800348,201.153809 70.1862793,201.153809 C69.0925238,201.153809 68.227054,200.776615 67.5898438,200.022217 C66.9526335,199.267818 66.6340332,198.302252 66.6340332,197.125488 L66.6340332,196.964355 Z M68.0769043,197.125488 C68.0769043,197.965336 68.2539045,198.658689 68.6079102,199.205566 C68.9619158,199.752444 69.4880336,200.025879 70.1862793,200.025879 C70.8747593,200.025879 71.397215,199.752444 71.7536621,199.205566 C72.1101092,198.658689 72.2883301,197.965336 72.2883301,197.125488 L72.2883301,196.964355 C72.2883301,196.134273 72.1088885,195.443362 71.75,194.891602 C71.3911115,194.339841 70.8649937,194.063965 70.1716309,194.063965 C69.4831509,194.063965 68.9619158,194.339841 68.6079102,194.891602 C68.2539045,195.443362 68.0769043,196.134273 68.0769043,196.964355 L68.0769043,197.125488 Z M76.7854004,193.075195 L76.8879395,194.254395 C77.1516126,193.834471 77.4824199,193.508546 77.8803711,193.276611 C78.2783223,193.044677 78.7311986,192.928711 79.2390137,192.928711 C80.0935101,192.928711 80.7551246,193.178953 81.223877,193.679443 C81.6926293,194.179934 81.927002,194.952631 81.927002,195.997559 L81.927002,201 L80.4841309,201 L80.4841309,196.026855 C80.4841309,195.32861 80.3461928,194.833009 80.0703125,194.540039 C79.7944322,194.247069 79.3732938,194.100586 78.8068848,194.100586 C78.3918436,194.100586 78.0244157,194.200683 77.7045898,194.400879 C77.384764,194.601075 77.1296396,194.87451 76.939209,195.221191 L76.939209,201 L75.4963379,201 L75.4963379,193.075195 L76.7854004,193.075195 Z M84.4245605,201 L84.4245605,194.144531 L83.1794434,194.144531 L83.1794434,193.075195 L84.4245605,193.075195 L84.4245605,192.218262 C84.4245605,191.329585 84.6845677,190.641116 85.2045898,190.152832 C85.724612,189.664548 86.4460403,189.42041 87.3688965,189.42041 C87.6960466,189.42041 88.018309,189.458252 88.3356934,189.533936 C88.6530778,189.60962 89.0266092,189.720702 89.4562988,189.867188 L89.2072754,191.039062 C88.948485,190.936523 88.6726089,190.848633 88.3796387,190.775391 C88.0866685,190.702148 87.7863785,190.665527 87.4787598,190.665527 C86.9074678,190.665527 86.496095,190.792479 86.2446289,191.046387 C85.9931628,191.300294 85.8674316,191.690915 85.8674316,192.218262 L85.8674316,193.075195 L87.4421387,193.075195 L87.4421387,194.144531 L85.8674316,194.144531 L85.8674316,201 L84.4245605,201 Z M90.1594238,201 L88.7092285,201 L88.7092285,193.075195 L90.1594238,193.075195 L90.1594238,201 Z M96.1213379,194.349609 L95.3815918,194.305664 C95.0007305,194.305664 94.6796888,194.395995 94.418457,194.57666 C94.1572253,194.757325 93.9558113,195.011229 93.814209,195.338379 L93.814209,201 L92.3713379,201 L92.3713379,193.075195 L93.6604004,193.075195 L93.7995605,194.232422 C94.024171,193.822264 94.3012679,193.502443 94.6308594,193.272949 C94.9604509,193.043456 95.3400857,192.928711 95.7697754,192.928711 C95.8771978,192.928711 95.9797358,192.937256 96.0773926,192.954346 C96.1750493,192.971436 96.2556149,192.989746 96.3190918,193.009277 L96.1213379,194.349609 Z M98.802002,193.075195 L98.904541,194.115234 C99.1633314,193.739256 99.4916972,193.447511 99.8896484,193.23999 C100.2876,193.03247 100.750242,192.928711 101.277588,192.928711 C101.804934,192.928711 102.257811,193.05078 102.63623,193.294922 C103.01465,193.539064 103.299071,193.905271 103.489502,194.393555 C103.738527,193.944334 104.068113,193.587892 104.478271,193.324219 C104.88843,193.060546 105.366941,192.928711 105.913818,192.928711 C106.719486,192.928711 107.356687,193.205808 107.825439,193.76001 C108.294192,194.314212 108.528564,195.147944 108.528564,196.26123 L108.528564,201 L107.085693,201 L107.085693,196.246582 C107.085693,195.465328 106.951417,194.912355 106.682861,194.587646 C106.414305,194.262938 106.013919,194.100586 105.481689,194.100586 C104.988523,194.100586 104.589357,194.271483 104.28418,194.613281 C103.979002,194.95508 103.799561,195.387204 103.74585,195.909668 L103.74585,201 L102.295654,201 L102.295654,196.246582 C102.295654,195.504391 102.157716,194.961183 101.881836,194.616943 C101.605956,194.272703 101.209231,194.100586 100.69165,194.100586 C100.252195,194.100586 99.8908706,194.190917 99.607666,194.371582 C99.3244615,194.552247 99.1071785,194.806151 98.9558105,195.133301 L98.9558105,201 L97.5129395,201 L97.5129395,193.075195 L98.802002,193.075195 Z" id="12:16:12:16-copy-4" fill="#0E86FE"></path>
                    </g>
                </g>
            </g>
        </g>
    </g>
</svg>