<?xml version="1.0" encoding="UTF-8"?>
<svg width="228px" height="273px" viewBox="0 0 228 273" version="1.1" xmlns="http://www.w3.org/2000/svg" xmlns:xlink="http://www.w3.org/1999/xlink">
    <!-- Generator: Sketch 41.2 (35397) - http://www.bohemiancoding.com/sketch -->
    <title>Group 29</title>
    <desc>Created with Sketch.</desc>
    <defs>
        <rect id="path-1" x="0" y="0" width="220" height="265" rx="4"></rect>
        <filter x="-50%" y="-50%" width="200%" height="200%" filterUnits="objectBoundingBox" id="filter-2">
            <feOffset dx="0" dy="1" in="SourceAlpha" result="shadowOffsetOuter1"></feOffset>
            <feGaussianBlur stdDeviation="2" in="shadowOffsetOuter1" result="shadowBlurOuter1"></feGaussianBlur>
            <feColorMatrix values="0 0 0 0 0   0 0 0 0 0   0 0 0 0 0  0 0 0 0.15 0" type="matrix" in="shadowBlurOuter1" result="shadowMatrixOuter1"></feColorMatrix>
            <feOffset dx="0" dy="2" in="SourceAlpha" result="shadowOffsetOuter2"></feOffset>
            <feGaussianBlur stdDeviation="1" in="shadowOffsetOuter2" result="shadowBlurOuter2"></feGaussianBlur>
            <feColorMatrix values="0 0 0 0 0   0 0 0 0 0   0 0 0 0 0  0 0 0 0.3 0" type="matrix" in="shadowBlurOuter2" result="shadowMatrixOuter2"></feColorMatrix>
            <feMerge>
                <feMergeNode in="shadowMatrixOuter1"></feMergeNode>
                <feMergeNode in="shadowMatrixOuter2"></feMergeNode>
            </feMerge>
        </filter>
    </defs>
    <g id="template(outline)" stroke="none" stroke-width="1" fill="none" fill-rule="evenodd">
        <g id="card-temp" transform="translate(-583.000000, -1147.000000)">
            <g id="Group-29" transform="translate(587.000000, 1150.000000)">
                <g id="Group-17-Copy">
                    <g id="Group-12">
                        <g id="Group-5">
                            <g id="Rectangle-147-Copy-2">
                                <use fill="black" fill-opacity="1" filter="url(#filter-2)" xlink:href="#path-1"></use>
                                <use fill="#FFFFFF" fill-rule="evenodd" xlink:href="#path-1"></use>
                            </g>
                            <path d="M134.591578,65.9285523 C134.591578,65.3593552 134.122828,64.8571224 133.520148,64.8571224 L127.091569,64.8571224 C126.589336,64.8571224 126.254515,65.1584621 126.087104,65.6272126 C125.517907,66.9664999 125.11612,68.2388229 124.312548,69.544628 C121.198705,74.6339198 115.674145,77.7142806 109.714316,77.7142806 C105.395115,77.7142806 101.209842,76.0401715 98.0625168,73.0937394 L102.649576,68.5066803 C103.051362,68.1048942 103.285737,67.5691792 103.285737,66.9999821 C103.285737,65.8281057 102.314754,64.8571224 101.142878,64.8571224 L86.1428597,64.8571224 C84.9709833,64.8571224 84,65.8281057 84,66.9999821 L84,82 C84,83.1718764 84.9709833,84.1428597 86.1428597,84.1428597 C86.7120568,84.1428597 87.2477717,83.9084844 87.6495579,83.5066982 L91.9687595,79.1874966 C96.7232295,83.7075913 103.051362,86.2857194 109.580388,86.2857194 C121.935313,86.2857194 131.71211,78.0156203 134.558096,66.1629275 C134.591578,66.0959632 134.591578,65.9955166 134.591578,65.9285523 Z M135.428633,39.1428061 C135.428633,37.9709297 134.457649,36.9999464 133.285773,36.9999464 C132.716576,36.9999464 132.180861,37.2343216 131.779075,37.6361078 L127.426391,41.9553094 C122.671921,37.4686969 116.276824,34.8570867 109.714316,34.8570867 C97.3593909,34.8570867 87.482147,43.0937036 84.6026793,54.9798785 L84.6026793,55.2142538 C84.6026793,55.7834509 85.0714298,56.2856836 85.6741091,56.2856836 L92.3370635,56.2856836 C92.8392963,56.2856836 93.1741181,55.984344 93.341529,55.5155934 C93.9107261,54.1763061 94.3125123,52.9039832 95.1160847,51.598178 C98.2299277,46.5088863 103.754488,43.4285254 109.714316,43.4285254 C114.033518,43.4285254 118.218791,45.0691524 121.399598,48.0155845 L116.779057,52.6361257 C116.377271,53.0379119 116.142895,53.5736268 116.142895,54.1428239 C116.142895,55.3147003 117.113879,56.2856836 118.285755,56.2856836 L133.285773,56.2856836 C134.457649,56.2856836 135.428633,55.3147003 135.428633,54.1428239 L135.428633,39.1428061 Z" id="refresh" fill="#00C3FF"></path>
                        </g>
                        <path d="M35.7128906,129 L33.9814453,129 L27.8203125,119.103516 L27.7675781,119.121094 L27.7675781,129 L26.0361328,129 L26.0361328,116.203125 L27.7675781,116.203125 L33.9287109,126.082031 L33.9814453,126.064453 L33.9814453,116.203125 L35.7128906,116.203125 L35.7128906,129 Z M42.4980469,129.18457 C41.1738215,129.18457 40.1206094,128.743657 39.3383789,127.861816 C38.5561484,126.979976 38.1650391,125.835945 38.1650391,124.429688 L38.1650391,124.042969 C38.1650391,122.689446 38.5678671,121.562993 39.3735352,120.663574 C40.1792032,119.764156 41.132807,119.314453 42.234375,119.314453 C43.5175845,119.314453 44.4873014,119.701168 45.1435547,120.474609 C45.799808,121.248051 46.1279297,122.27929 46.1279297,123.568359 L46.1279297,124.649414 L39.9580078,124.649414 L39.9316406,124.693359 C39.9492188,125.607426 40.1806618,126.358884 40.6259766,126.947754 C41.0712913,127.536624 41.6953085,127.831055 42.4980469,127.831055 C43.0839873,127.831055 43.5981423,127.747559 44.0405273,127.580566 C44.4829124,127.413573 44.8652328,127.183595 45.1875,126.890625 L45.8642578,128.015625 C45.5244124,128.349611 45.0761747,128.627929 44.5195312,128.850586 C43.9628878,129.073243 43.2890665,129.18457 42.4980469,129.18457 Z M42.234375,120.676758 C41.654294,120.676758 41.1591817,120.921384 40.7490234,121.410645 C40.3388651,121.899905 40.0869145,122.513668 39.9931641,123.251953 L40.0107422,123.295898 L44.3964844,123.295898 L44.3964844,123.067383 C44.3964844,122.387692 44.2148456,121.819338 43.8515625,121.362305 C43.4882794,120.905271 42.9492223,120.676758 42.234375,120.676758 Z M50.5048828,125.537109 L50.7070312,126.688477 L50.7597656,126.688477 L51.0058594,125.537109 L52.9042969,119.490234 L54.2929687,119.490234 L56.2001953,125.537109 L56.4726562,126.820312 L56.5253906,126.820312 L56.7802734,125.537109 L58.2744141,119.490234 L59.9970703,119.490234 L57.2373047,129 L55.8398437,129 L54.0029297,123.208008 L53.6074219,121.59082 L53.5546875,121.599609 L53.1767578,123.208008 L51.3662109,129 L49.96875,129 L47.2089844,119.490234 L48.9316406,119.490234 L50.5048828,125.537109 Z M72.2050781,127.59375 C71.9062485,128.103518 71.5224633,128.496092 71.0537109,128.771484 C70.5849586,129.046876 70.0429718,129.18457 69.4277344,129.18457 C68.3906198,129.18457 67.5820342,128.853519 67.0019531,128.191406 C66.4218721,127.529294 66.1318359,126.498054 66.1318359,125.097656 L66.1318359,119.490234 L67.8632812,119.490234 L67.8632812,125.115234 C67.8632812,126.128911 68.0126938,126.82617 68.3115234,127.207031 C68.6103531,127.587893 69.0761687,127.77832 69.7089844,127.77832 C70.3242218,127.77832 70.8325175,127.65381 71.2338867,127.404785 C71.6352559,127.15576 71.9384755,126.802737 72.1435547,126.345703 L72.1435547,119.490234 L73.875,119.490234 L73.875,129 L72.3193359,129 L72.2050781,127.59375 Z M84.5009766,124.605469 C84.5009766,125.976569 84.1728548,127.082515 83.5166016,127.92334 C82.8603483,128.764164 81.9550839,129.18457 80.8007812,129.18457 C80.2148408,129.18457 79.7006858,129.086427 79.2583008,128.890137 C78.8159158,128.693847 78.4394547,128.399416 78.1289062,128.006836 L78.1289062,132.65625 L76.3974609,132.65625 L76.3974609,119.490234 L77.7246094,119.490234 L77.9970703,120.720703 C78.3076187,120.26367 78.6943336,119.91504 79.1572266,119.674805 C79.6201195,119.434569 80.1591766,119.314453 80.7744141,119.314453 C81.9521543,119.314453 82.8676725,119.781734 83.5209961,120.716309 C84.1743197,121.650884 84.5009766,122.885735 84.5009766,124.420898 L84.5009766,124.605469 Z M82.7695312,124.420898 C82.7695312,123.342768 82.557131,122.456546 82.1323242,121.762207 C81.7075174,121.067868 81.0820354,120.720703 80.2558594,120.720703 C79.75781,120.720703 79.3330096,120.833495 78.9814453,121.059082 C78.6298811,121.284669 78.3457042,121.593748 78.1289062,121.986328 L78.1289062,126.583008 C78.3457042,126.975588 78.6298811,127.281737 78.9814453,127.501465 C79.3330096,127.721193 79.7636693,127.831055 80.2734375,127.831055 C81.0937541,127.831055 81.7148416,127.530765 82.1367187,126.930176 C82.5585959,126.329587 82.7695312,125.554692 82.7695312,124.605469 L82.7695312,124.420898 Z M86.2324219,124.420898 C86.2324219,122.891594 86.5590788,121.658208 87.2124023,120.720703 C87.8657259,119.783198 88.7812441,119.314453 89.9589844,119.314453 C90.5156278,119.314453 91.0092752,119.416991 91.4399414,119.62207 C91.8706076,119.827149 92.2382797,120.125975 92.5429687,120.518555 L92.5429687,115.289062 L94.2744141,115.289062 L94.2744141,129 L92.859375,129 L92.6572266,127.831055 C92.3466781,128.276369 91.9658226,128.61328 91.5146484,128.841797 C91.0634743,129.070314 90.5390655,129.18457 89.9414062,129.18457 C88.7812442,129.18457 87.8730502,128.764164 87.2167969,127.92334 C86.5605436,127.082515 86.2324219,125.976569 86.2324219,124.605469 L86.2324219,124.420898 Z M87.9638672,124.605469 C87.9638672,125.566411 88.1601543,126.335446 88.5527344,126.912598 C88.9453145,127.489749 89.5546834,127.77832 90.3808594,127.77832 C90.896487,127.77832 91.3300764,127.661134 91.6816406,127.426758 C92.0332049,127.192382 92.3203114,126.86426 92.5429687,126.442383 L92.5429687,122.003906 C92.3203114,121.611326 92.0317401,121.299318 91.6772461,121.067871 C91.3227521,120.836425 90.8964869,120.720703 90.3984375,120.720703 C89.5664021,120.720703 88.9526387,121.063473 88.5571289,121.749023 C88.1616191,122.434574 87.9638672,123.32519 87.9638672,124.420898 L87.9638672,124.605469 Z M102.703125,129 C102.644531,128.712889 102.599121,128.459474 102.566895,128.239746 C102.534668,128.020018 102.515625,127.798829 102.509766,127.576172 C102.187498,128.033205 101.767092,128.415526 101.248535,128.723145 C100.729978,129.030763 100.171878,129.18457 99.5742187,129.18457 C98.5839794,129.18457 97.8295924,128.931155 97.3110352,128.424316 C96.7924779,127.917478 96.5332031,127.218754 96.5332031,126.328125 C96.5332031,125.419917 96.9008752,124.709475 97.6362305,124.196777 C98.3715857,123.684079 99.3691343,123.427734 100.628906,123.427734 L102.509766,123.427734 L102.509766,122.487305 C102.509766,121.930661 102.339845,121.489748 102,121.164551 C101.660155,120.839354 101.179691,120.676758 100.558594,120.676758 C100.00195,120.676758 99.5493181,120.818846 99.2006836,121.103027 C98.852049,121.387208 98.6777344,121.728514 98.6777344,122.126953 L97.0253906,122.126953 L97.0078125,122.074219 C96.9726561,121.382809 97.299313,120.750003 97.987793,120.175781 C98.676273,119.60156 99.5654242,119.314453 100.655273,119.314453 C101.733404,119.314453 102.600583,119.588376 103.256836,120.13623 C103.913089,120.684085 104.241211,121.473628 104.241211,122.504883 L104.241211,127.083984 C104.241211,127.42383 104.258789,127.751952 104.293945,128.068359 C104.329102,128.384767 104.393554,128.695311 104.487305,129 L102.703125,129 Z M99.8291016,127.734375 C100.456058,127.734375 101.021482,127.573244 101.525391,127.250977 C102.029299,126.928709 102.357421,126.559572 102.509766,126.143555 L102.509766,124.59668 L100.567383,124.59668 C99.8701137,124.59668 99.3120138,124.772459 98.8930664,125.124023 C98.474119,125.475588 98.2646484,125.88867 98.2646484,126.363281 C98.2646484,126.785158 98.3964831,127.119139 98.6601562,127.365234 C98.9238294,127.611329 99.313474,127.734375 99.8291016,127.734375 Z M109.040039,117.196289 L109.040039,119.490234 L110.841797,119.490234 L110.841797,120.773438 L109.040039,120.773438 L109.040039,126.547852 C109.040039,126.993166 109.132323,127.30664 109.316895,127.488281 C109.501466,127.669923 109.746092,127.760742 110.050781,127.760742 C110.150391,127.760742 110.260253,127.749024 110.380371,127.725586 C110.500489,127.702148 110.607421,127.672852 110.701172,127.637695 L110.929687,128.824219 C110.800781,128.929688 110.611818,129.016113 110.362793,129.083496 C110.113768,129.150879 109.863283,129.18457 109.611328,129.18457 C108.9082,129.18457 108.348635,128.97217 107.932617,128.547363 C107.516599,128.122556 107.308594,127.456059 107.308594,126.547852 L107.308594,120.773438 L105.796875,120.773438 L105.796875,119.490234 L107.308594,119.490234 L107.308594,117.196289 L109.040039,117.196289 Z M116.923828,129.18457 C115.599603,129.18457 114.546391,128.743657 113.76416,127.861816 C112.98193,126.979976 112.59082,125.835945 112.59082,124.429688 L112.59082,124.042969 C112.59082,122.689446 112.993648,121.562993 113.799316,120.663574 C114.604984,119.764156 115.558588,119.314453 116.660156,119.314453 C117.943366,119.314453 118.913083,119.701168 119.569336,120.474609 C120.225589,121.248051 120.553711,122.27929 120.553711,123.568359 L120.553711,124.649414 L114.383789,124.649414 L114.357422,124.693359 C114.375,125.607426 114.606443,126.358884 115.051758,126.947754 C115.497073,127.536624 116.12109,127.831055 116.923828,127.831055 C117.509769,127.831055 118.023924,127.747559 118.466309,127.580566 C118.908694,127.413573 119.291014,127.183595 119.613281,126.890625 L120.290039,128.015625 C119.950194,128.349611 119.501956,128.627929 118.945312,128.850586 C118.388669,129.073243 117.714848,129.18457 116.923828,129.18457 Z M116.660156,120.676758 C116.080075,120.676758 115.584963,120.921384 115.174805,121.410645 C114.764646,121.899905 114.512696,122.513668 114.418945,123.251953 L114.436523,123.295898 L118.822266,123.295898 L118.822266,123.067383 C118.822266,122.387692 118.640627,121.819338 118.277344,121.362305 C117.914061,120.905271 117.375004,120.676758 116.660156,120.676758 Z M132.814453,129 C132.755859,128.712889 132.710449,128.459474 132.678223,128.239746 C132.645996,128.020018 132.626953,127.798829 132.621094,127.576172 C132.298827,128.033205 131.878421,128.415526 131.359863,128.723145 C130.841306,129.030763 130.283206,129.18457 129.685547,129.18457 C128.695308,129.18457 127.940921,128.931155 127.422363,128.424316 C126.903806,127.917478 126.644531,127.218754 126.644531,126.328125 C126.644531,125.419917 127.012203,124.709475 127.747559,124.196777 C128.482914,123.684079 129.480462,123.427734 130.740234,123.427734 L132.621094,123.427734 L132.621094,122.487305 C132.621094,121.930661 132.451174,121.489748 132.111328,121.164551 C131.771483,120.839354 131.291019,120.676758 130.669922,120.676758 C130.113278,120.676758 129.660646,120.818846 129.312012,121.103027 C128.963377,121.387208 128.789062,121.728514 128.789062,122.126953 L127.136719,122.126953 L127.119141,122.074219 C127.083984,121.382809 127.410641,120.750003 128.099121,120.175781 C128.787601,119.60156 129.676752,119.314453 130.766602,119.314453 C131.844732,119.314453 132.711911,119.588376 133.368164,120.13623 C134.024417,120.684085 134.352539,121.473628 134.352539,122.504883 L134.352539,127.083984 C134.352539,127.42383 134.370117,127.751952 134.405273,128.068359 C134.44043,128.384767 134.504882,128.695311 134.598633,129 L132.814453,129 Z M129.94043,127.734375 C130.567386,127.734375 131.13281,127.573244 131.636719,127.250977 C132.140628,126.928709 132.468749,126.559572 132.621094,126.143555 L132.621094,124.59668 L130.678711,124.59668 C129.981442,124.59668 129.423342,124.772459 129.004395,125.124023 C128.585447,125.475588 128.375977,125.88867 128.375977,126.363281 C128.375977,126.785158 128.507811,127.119139 128.771484,127.365234 C129.035158,127.611329 129.424802,127.734375 129.94043,127.734375 Z M139.907227,126.196289 L140.056641,126.864258 L140.109375,126.864258 L140.276367,126.196289 L142.464844,119.490234 L144.231445,119.490234 L140.733398,129 L139.423828,129 L135.881836,119.490234 L137.657227,119.490234 L139.907227,126.196289 Z M151.5,129 C151.441406,128.712889 151.395996,128.459474 151.36377,128.239746 C151.331543,128.020018 151.3125,127.798829 151.306641,127.576172 C150.984373,128.033205 150.563967,128.415526 150.04541,128.723145 C149.526853,129.030763 148.968753,129.18457 148.371094,129.18457 C147.380854,129.18457 146.626467,128.931155 146.10791,128.424316 C145.589353,127.917478 145.330078,127.218754 145.330078,126.328125 C145.330078,125.419917 145.69775,124.709475 146.433105,124.196777 C147.168461,123.684079 148.166009,123.427734 149.425781,123.427734 L151.306641,123.427734 L151.306641,122.487305 C151.306641,121.930661 151.13672,121.489748 150.796875,121.164551 C150.45703,120.839354 149.976566,120.676758 149.355469,120.676758 C148.798825,120.676758 148.346193,120.818846 147.997559,121.103027 C147.648924,121.387208 147.474609,121.728514 147.474609,122.126953 L145.822266,122.126953 L145.804688,122.074219 C145.769531,121.382809 146.096188,120.750003 146.784668,120.175781 C147.473148,119.60156 148.362299,119.314453 149.452148,119.314453 C150.530279,119.314453 151.397458,119.588376 152.053711,120.13623 C152.709964,120.684085 153.038086,121.473628 153.038086,122.504883 L153.038086,127.083984 C153.038086,127.42383 153.055664,127.751952 153.09082,128.068359 C153.125977,128.384767 153.190429,128.695311 153.28418,129 L151.5,129 Z M148.625977,127.734375 C149.252933,127.734375 149.818357,127.573244 150.322266,127.250977 C150.826174,126.928709 151.154296,126.559572 151.306641,126.143555 L151.306641,124.59668 L149.364258,124.59668 C148.666989,124.59668 148.108889,124.772459 147.689941,125.124023 C147.270994,125.475588 147.061523,125.88867 147.061523,126.363281 C147.061523,126.785158 147.193358,127.119139 147.457031,127.365234 C147.720704,127.611329 148.110349,127.734375 148.625977,127.734375 Z M157.423828,129 L155.692383,129 L155.692383,119.490234 L157.423828,119.490234 L157.423828,129 Z M157.423828,117.055664 L155.692383,117.055664 L155.692383,115.289062 L157.423828,115.289062 L157.423828,117.055664 Z M161.958984,129 L160.227539,129 L160.227539,115.289062 L161.958984,115.289062 L161.958984,129 Z M170.466797,129 C170.408203,128.712889 170.362793,128.459474 170.330566,128.239746 C170.29834,128.020018 170.279297,127.798829 170.273438,127.576172 C169.95117,128.033205 169.530764,128.415526 169.012207,128.723145 C168.49365,129.030763 167.93555,129.18457 167.337891,129.18457 C166.347651,129.18457 165.593264,128.931155 165.074707,128.424316 C164.55615,127.917478 164.296875,127.218754 164.296875,126.328125 C164.296875,125.419917 164.664547,124.709475 165.399902,124.196777 C166.135258,123.684079 167.132806,123.427734 168.392578,123.427734 L170.273438,123.427734 L170.273438,122.487305 C170.273438,121.930661 170.103517,121.489748 169.763672,121.164551 C169.423826,120.839354 168.943362,120.676758 168.322266,120.676758 C167.765622,120.676758 167.31299,120.818846 166.964355,121.103027 C166.615721,121.387208 166.441406,121.728514 166.441406,122.126953 L164.789062,122.126953 L164.771484,122.074219 C164.736328,121.382809 165.062985,120.750003 165.751465,120.175781 C166.439945,119.60156 167.329096,119.314453 168.418945,119.314453 C169.497076,119.314453 170.364255,119.588376 171.020508,120.13623 C171.676761,120.684085 172.004883,121.473628 172.004883,122.504883 L172.004883,127.083984 C172.004883,127.42383 172.022461,127.751952 172.057617,128.068359 C172.092774,128.384767 172.157226,128.695311 172.250977,129 L170.466797,129 Z M167.592773,127.734375 C168.21973,127.734375 168.785154,127.573244 169.289062,127.250977 C169.792971,126.928709 170.121093,126.559572 170.273438,126.143555 L170.273438,124.59668 L168.331055,124.59668 C167.633786,124.59668 167.075686,124.772459 166.656738,125.124023 C166.237791,125.475588 166.02832,125.88867 166.02832,126.363281 C166.02832,126.785158 166.160155,127.119139 166.423828,127.365234 C166.687501,127.611329 167.077146,127.734375 167.592773,127.734375 Z M182.639648,124.605469 C182.639648,125.976569 182.310062,127.082515 181.650879,127.92334 C180.991696,128.764164 180.084967,129.18457 178.930664,129.18457 C178.303708,129.18457 177.758791,129.062989 177.295898,128.819824 C176.833005,128.576659 176.44922,128.217776 176.144531,127.743164 L175.933594,129 L174.518555,129 L174.518555,115.289062 L176.25,115.289062 L176.25,120.615234 C176.54883,120.193357 176.919431,119.871095 177.361816,119.648438 C177.804201,119.42578 178.321286,119.314453 178.913086,119.314453 C180.084967,119.314453 180.99902,119.783198 181.655273,120.720703 C182.311527,121.658208 182.639648,122.891594 182.639648,124.420898 L182.639648,124.605469 Z M180.908203,124.420898 C180.908203,123.331049 180.707522,122.441898 180.306152,121.753418 C179.904783,121.064938 179.293949,120.720703 178.473633,120.720703 C177.940427,120.720703 177.490724,120.851073 177.124512,121.111816 C176.758299,121.37256 176.466798,121.722654 176.25,122.162109 L176.25,126.28418 C176.472657,126.752932 176.764158,127.119139 177.124512,127.382812 C177.484865,127.646486 177.940427,127.77832 178.491211,127.77832 C179.305668,127.77832 179.912107,127.488284 180.310547,126.908203 C180.708986,126.328122 180.908203,125.560552 180.908203,124.605469 L180.908203,124.420898 Z M186.621094,129 L184.889648,129 L184.889648,115.289062 L186.621094,115.289062 L186.621094,129 Z M193.230469,129.18457 C191.906243,129.18457 190.853031,128.743657 190.070801,127.861816 C189.28857,126.979976 188.897461,125.835945 188.897461,124.429688 L188.897461,124.042969 C188.897461,122.689446 189.300289,121.562993 190.105957,120.663574 C190.911625,119.764156 191.865229,119.314453 192.966797,119.314453 C194.250006,119.314453 195.219723,119.701168 195.875977,120.474609 C196.53223,121.248051 196.860352,122.27929 196.860352,123.568359 L196.860352,124.649414 L190.69043,124.649414 L190.664062,124.693359 C190.681641,125.607426 190.913084,126.358884 191.358398,126.947754 C191.803713,127.536624 192.42773,127.831055 193.230469,127.831055 C193.816409,127.831055 194.330564,127.747559 194.772949,127.580566 C195.215334,127.413573 195.597655,127.183595 195.919922,126.890625 L196.59668,128.015625 C196.256834,128.349611 195.808597,128.627929 195.251953,128.850586 C194.69531,129.073243 194.021488,129.18457 193.230469,129.18457 Z M192.966797,120.676758 C192.386716,120.676758 191.891604,120.921384 191.481445,121.410645 C191.071287,121.899905 190.819336,122.513668 190.725586,123.251953 L190.743164,123.295898 L195.128906,123.295898 L195.128906,123.067383 C195.128906,122.387692 194.947267,121.819338 194.583984,121.362305 C194.220701,120.905271 193.681644,120.676758 192.966797,120.676758 Z" id="New-update-available" fill="#456296"></path>
                        <path d="M79.4384766,147.130859 L79.5380859,147.576172 L79.5732422,147.576172 L79.6845703,147.130859 L81.1435547,142.660156 L82.3212891,142.660156 L79.9892578,149 L79.1162109,149 L76.7548828,142.660156 L77.9384766,142.660156 L79.4384766,147.130859 Z M85.9130859,149.123047 C85.030269,149.123047 84.3281276,148.829105 83.8066406,148.241211 C83.2851536,147.653317 83.0244141,146.89063 83.0244141,145.953125 L83.0244141,145.695312 C83.0244141,144.792964 83.2929661,144.041995 83.8300781,143.442383 C84.3671902,142.84277 85.002926,142.542969 85.7373047,142.542969 C86.5927777,142.542969 87.2392556,142.800779 87.6767578,143.316406 C88.11426,143.832034 88.3330078,144.519527 88.3330078,145.378906 L88.3330078,146.099609 L84.2197266,146.099609 L84.2021484,146.128906 C84.2138672,146.738284 84.3681626,147.239256 84.6650391,147.631836 C84.9619155,148.024416 85.377927,148.220703 85.9130859,148.220703 C86.3037129,148.220703 86.6464829,148.16504 86.9414062,148.053711 C87.2363296,147.942382 87.4912099,147.789063 87.7060547,147.59375 L88.1572266,148.34375 C87.9306629,148.566407 87.6318378,148.751952 87.2607422,148.900391 C86.8896466,149.048829 86.4404323,149.123047 85.9130859,149.123047 Z M85.7373047,143.451172 C85.350584,143.451172 85.0205092,143.614256 84.7470703,143.94043 C84.4736314,144.266603 84.3056644,144.675779 84.2431641,145.167969 L84.2548828,145.197266 L87.1787109,145.197266 L87.1787109,145.044922 C87.1787109,144.591795 87.0576184,144.212892 86.8154297,143.908203 C86.573241,143.603514 86.2138696,143.451172 85.7373047,143.451172 Z M92.6279297,143.679688 L92.0361328,143.644531 C91.7314438,143.644531 91.4746104,143.716796 91.265625,143.861328 C91.0566396,144.00586 90.8955084,144.208983 90.7822266,144.470703 L90.7822266,149 L89.6279297,149 L89.6279297,142.660156 L90.6591797,142.660156 L90.7705078,143.585938 C90.9501962,143.257811 91.1718737,143.001954 91.4355469,142.818359 C91.6992201,142.634765 92.002928,142.542969 92.3466797,142.542969 C92.4326176,142.542969 92.514648,142.549805 92.5927734,142.563477 C92.6708988,142.577149 92.7353513,142.591797 92.7861328,142.607422 L92.6279297,143.679688 Z M97.4267578,147.318359 C97.4267578,147.064452 97.3300791,146.85547 97.1367188,146.691406 C96.9433584,146.527343 96.5771511,146.384766 96.0380859,146.263672 C95.2685508,146.095702 94.6894551,145.868165 94.3007812,145.581055 C93.9121074,145.293944 93.7177734,144.902346 93.7177734,144.40625 C93.7177734,143.890622 93.9365212,143.451174 94.3740234,143.087891 C94.8115256,142.724608 95.3818324,142.542969 96.0849609,142.542969 C96.8232459,142.542969 97.4101541,142.73242 97.8457031,143.111328 C98.2812522,143.490236 98.4892579,143.951169 98.4697266,144.494141 L98.4580078,144.529297 L97.3564453,144.529297 C97.3564453,144.251952 97.2402355,144.002931 97.0078125,143.782227 C96.7753895,143.561522 96.4677754,143.451172 96.0849609,143.451172 C95.6748026,143.451172 95.3701182,143.541015 95.1708984,143.720703 C94.9716787,143.900392 94.8720703,144.117186 94.8720703,144.371094 C94.8720703,144.621095 94.9599601,144.818359 95.1357422,144.962891 C95.3115243,145.107423 95.6689426,145.236328 96.2080078,145.349609 C97.0087931,145.521485 97.6044902,145.754881 97.9951172,146.049805 C98.3857441,146.344728 98.5810547,146.740232 98.5810547,147.236328 C98.5810547,147.798831 98.3535179,148.253905 97.8984375,148.601562 C97.4433571,148.94922 96.8486365,149.123047 96.1142578,149.123047 C95.30566,149.123047 94.6689476,148.917971 94.2041016,148.507812 C93.7392555,148.097654 93.5185546,147.619143 93.5419922,147.072266 L93.5537109,147.037109 L94.6552734,147.037109 C94.6748048,147.447268 94.827147,147.747069 95.1123047,147.936523 C95.3974624,148.125978 95.7314434,148.220703 96.1142578,148.220703 C96.5244161,148.220703 96.845702,148.137696 97.078125,147.97168 C97.310548,147.805663 97.4267578,147.587892 97.4267578,147.318359 Z M101.264648,149 L100.110352,149 L100.110352,142.660156 L101.264648,142.660156 L101.264648,149 Z M101.264648,141.037109 L100.110352,141.037109 L100.110352,139.859375 L101.264648,139.859375 L101.264648,141.037109 Z M102.770508,145.771484 C102.770508,144.83398 103.024412,144.061526 103.532227,143.454102 C104.040042,142.846677 104.729488,142.542969 105.600586,142.542969 C106.479497,142.542969 107.173826,142.8457 107.683594,143.451172 C108.193362,144.056644 108.448242,144.830073 108.448242,145.771484 L108.448242,145.900391 C108.448242,146.845708 108.194338,147.619138 107.686523,148.220703 C107.178708,148.822269 106.487309,149.123047 105.612305,149.123047 C104.7373,149.123047 104.044924,148.821292 103.535156,148.217773 C103.025388,147.614255 102.770508,146.841802 102.770508,145.900391 L102.770508,145.771484 Z M103.924805,145.900391 C103.924805,146.572269 104.066405,147.126951 104.349609,147.564453 C104.632814,148.001955 105.053708,148.220703 105.612305,148.220703 C106.163089,148.220703 106.581053,148.001955 106.866211,147.564453 C107.151369,147.126951 107.293945,146.572269 107.293945,145.900391 L107.293945,145.771484 C107.293945,145.107419 107.150392,144.55469 106.863281,144.113281 C106.57617,143.671873 106.155276,143.451172 105.600586,143.451172 C105.049802,143.451172 104.632814,143.671873 104.349609,144.113281 C104.066405,144.55469 103.924805,145.107419 103.924805,145.771484 L103.924805,145.900391 Z M110.891602,142.660156 L110.973633,143.603516 C111.184571,143.267576 111.449217,143.006837 111.767578,142.821289 C112.085939,142.635741 112.44824,142.542969 112.854492,142.542969 C113.538089,142.542969 114.067381,142.743162 114.442383,143.143555 C114.817385,143.543947 115.004883,144.162105 115.004883,144.998047 L115.004883,149 L113.850586,149 L113.850586,145.021484 C113.850586,144.462888 113.740235,144.066407 113.519531,143.832031 C113.298827,143.597655 112.961916,143.480469 112.508789,143.480469 C112.176756,143.480469 111.882814,143.560546 111.626953,143.720703 C111.371092,143.88086 111.166993,144.099608 111.014648,144.376953 L111.014648,149 L109.860352,149 L109.860352,142.660156 L110.891602,142.660156 Z M122.81543,149 L121.661133,149 L121.661133,141.59375 L119.915039,141.617188 L119.915039,140.785156 L122.81543,140.46875 L122.81543,149 Z M127.678711,149 L126.524414,149 L126.524414,147.816406 L127.678711,147.816406 L127.678711,149 Z M135.014648,149 L129.483398,149 L129.483398,148.208984 L132.27832,145.103516 C132.778323,144.544919 133.117187,144.101564 133.294922,143.773438 C133.472657,143.445311 133.561523,143.109377 133.561523,142.765625 C133.561523,142.339842 133.437501,141.981447 133.189453,141.69043 C132.941405,141.399413 132.612307,141.253906 132.202148,141.253906 C131.612302,141.253906 131.177736,141.405272 130.898438,141.708008 C130.619139,142.010744 130.479492,142.435544 130.479492,142.982422 L129.37207,142.982422 L129.360352,142.947266 C129.34082,142.212887 129.584958,141.595706 130.092773,141.095703 C130.600588,140.595701 131.303706,140.345703 132.202148,140.345703 C132.967777,140.345703 133.578123,140.569334 134.033203,141.016602 C134.488284,141.463869 134.71582,142.0332 134.71582,142.724609 C134.71582,143.189455 134.578126,143.655271 134.302734,144.12207 C134.027342,144.58887 133.641604,145.089841 133.145508,145.625 L130.901367,148.068359 L130.913086,148.097656 L135.014648,148.097656 L135.014648,149 Z M137.645508,149 L136.491211,149 L136.491211,147.816406 L137.645508,147.816406 L137.645508,149 Z M144.676758,142.695312 C144.676758,143.140627 144.551759,143.530272 144.301758,143.864258 C144.051757,144.198244 143.713869,144.447265 143.288086,144.611328 C143.780276,144.783204 144.173827,145.052733 144.46875,145.419922 C144.763673,145.787111 144.911133,146.210935 144.911133,146.691406 C144.911133,147.480473 144.654299,148.083006 144.140625,148.499023 C143.626951,148.915041 142.959965,149.123047 142.139648,149.123047 C141.303707,149.123047 140.630862,148.915041 140.121094,148.499023 C139.611326,148.083006 139.356445,147.480473 139.356445,146.691406 C139.356445,146.210935 139.500975,145.787111 139.790039,145.419922 C140.079103,145.052733 140.469724,144.783204 140.961914,144.611328 C140.536131,144.447265 140.20215,144.198244 139.959961,143.864258 C139.717772,143.530272 139.59668,143.140627 139.59668,142.695312 C139.59668,141.945309 139.828123,141.366213 140.291016,140.958008 C140.753909,140.549803 141.366207,140.345703 142.12793,140.345703 C142.877933,140.345703 143.490232,140.549803 143.964844,140.958008 C144.439455,141.366213 144.676758,141.945309 144.676758,142.695312 Z M143.762695,146.667969 C143.762695,146.199216 143.6084,145.814455 143.299805,145.513672 C142.991209,145.212889 142.600588,145.0625 142.12793,145.0625 C141.647459,145.0625 141.257814,145.212889 140.958984,145.513672 C140.660155,145.814455 140.510742,146.199216 140.510742,146.667969 C140.510742,147.152346 140.659178,147.532225 140.956055,147.807617 C141.252931,148.083009 141.647458,148.220703 142.139648,148.220703 C142.62012,148.220703 143.010741,148.082033 143.311523,147.804688 C143.612306,147.527342 143.762695,147.14844 143.762695,146.667969 Z M143.522461,142.71875 C143.522461,142.296873 143.390626,141.947267 143.126953,141.669922 C142.86328,141.392577 142.530275,141.253906 142.12793,141.253906 C141.717771,141.253906 141.385743,141.387694 141.131836,141.655273 C140.877928,141.922853 140.750977,142.277342 140.750977,142.71875 C140.750977,143.152346 140.878905,143.499999 141.134766,143.761719 C141.390626,144.023439 141.725584,144.154297 142.139648,144.154297 C142.5459,144.154297 142.877928,144.023439 143.135742,143.761719 C143.393556,143.499999 143.522461,143.152346 143.522461,142.71875 Z" id="version-1.2.8" fill="#7189B6"></path>
                        <path d="M-5.55111512e-17,226 L219,226" id="Line-Copy-10" stroke="#D8E3F6" stroke-linecap="square"></path>
                        <path d="M92.2790527,248.586914 L92.2937012,248.630859 C92.3132325,249.631841 91.9616735,250.469235 91.2390137,251.143066 C90.5163538,251.816898 89.5617735,252.153809 88.3752441,252.153809 C87.1691834,252.153809 86.1865272,251.726567 85.4272461,250.87207 C84.667965,250.017574 84.2883301,248.9336 84.2883301,247.620117 L84.2883301,245.723145 C84.2883301,244.409661 84.667965,243.324467 85.4272461,242.467529 C86.1865272,241.610591 87.1691834,241.182129 88.3752441,241.182129 C89.5813049,241.182129 90.5407679,241.503171 91.2536621,242.145264 C91.9665563,242.787357 92.3132325,243.638178 92.2937012,244.697754 L92.2790527,244.741699 L90.8947754,244.741699 C90.8947754,243.994625 90.675051,243.403811 90.2355957,242.969238 C89.7961404,242.534666 89.1760294,242.317383 88.3752441,242.317383 C87.569576,242.317383 86.9274926,242.642087 86.4489746,243.291504 C85.9704566,243.940921 85.7312012,244.746577 85.7312012,245.708496 L85.7312012,247.620117 C85.7312012,248.591802 85.9704566,249.402341 86.4489746,250.051758 C86.9274926,250.701175 87.569576,251.025879 88.3752441,251.025879 C89.1760294,251.025879 89.7961404,250.809817 90.2355957,250.377686 C90.675051,249.945554 90.8947754,249.348637 90.8947754,248.586914 L92.2790527,248.586914 Z M93.6340332,247.964355 C93.6340332,246.792475 93.9514128,245.826908 94.5861816,245.067627 C95.2209504,244.308346 96.0827582,243.928711 97.1716309,243.928711 C98.2702692,243.928711 99.1381804,244.307125 99.7753906,245.063965 C100.412601,245.820805 100.731201,246.787592 100.731201,247.964355 L100.731201,248.125488 C100.731201,249.307135 100.413822,250.273922 99.7790527,251.025879 C99.1442839,251.777836 98.2800348,252.153809 97.1862793,252.153809 C96.0925238,252.153809 95.227054,251.776615 94.5898438,251.022217 C93.9526335,250.267818 93.6340332,249.302252 93.6340332,248.125488 L93.6340332,247.964355 Z M95.0769043,248.125488 C95.0769043,248.965336 95.2539045,249.658689 95.6079102,250.205566 C95.9619158,250.752444 96.4880336,251.025879 97.1862793,251.025879 C97.8747593,251.025879 98.397215,250.752444 98.7536621,250.205566 C99.1101092,249.658689 99.2883301,248.965336 99.2883301,248.125488 L99.2883301,247.964355 C99.2883301,247.134273 99.1088885,246.443362 98.75,245.891602 C98.3911115,245.339841 97.8649937,245.063965 97.1716309,245.063965 C96.4831509,245.063965 95.9619158,245.339841 95.6079102,245.891602 C95.2539045,246.443362 95.0769043,247.134273 95.0769043,247.964355 L95.0769043,248.125488 Z M103.7854,244.075195 L103.887939,245.254395 C104.151613,244.834471 104.48242,244.508546 104.880371,244.276611 C105.278322,244.044677 105.731199,243.928711 106.239014,243.928711 C107.09351,243.928711 107.755125,244.178953 108.223877,244.679443 C108.692629,245.179934 108.927002,245.952631 108.927002,246.997559 L108.927002,252 L107.484131,252 L107.484131,247.026855 C107.484131,246.32861 107.346193,245.833009 107.070312,245.540039 C106.794432,245.247069 106.373294,245.100586 105.806885,245.100586 C105.391844,245.100586 105.024416,245.200683 104.70459,245.400879 C104.384764,245.601075 104.12964,245.87451 103.939209,246.221191 L103.939209,252 L102.496338,252 L102.496338,244.075195 L103.7854,244.075195 Z M111.424561,252 L111.424561,245.144531 L110.179443,245.144531 L110.179443,244.075195 L111.424561,244.075195 L111.424561,243.218262 C111.424561,242.329585 111.684568,241.641116 112.20459,241.152832 C112.724612,240.664548 113.44604,240.42041 114.368896,240.42041 C114.696047,240.42041 115.018309,240.458252 115.335693,240.533936 C115.653078,240.60962 116.026609,240.720702 116.456299,240.867188 L116.207275,242.039062 C115.948485,241.936523 115.672609,241.848633 115.379639,241.775391 C115.086668,241.702148 114.786378,241.665527 114.47876,241.665527 C113.907468,241.665527 113.496095,241.792479 113.244629,242.046387 C112.993163,242.300294 112.867432,242.690915 112.867432,243.218262 L112.867432,244.075195 L114.442139,244.075195 L114.442139,245.144531 L112.867432,245.144531 L112.867432,252 L111.424561,252 Z M117.159424,252 L115.709229,252 L115.709229,244.075195 L117.159424,244.075195 L117.159424,252 Z M123.121338,245.349609 L122.381592,245.305664 C122.000731,245.305664 121.679689,245.395995 121.418457,245.57666 C121.157225,245.757325 120.955811,246.011229 120.814209,246.338379 L120.814209,252 L119.371338,252 L119.371338,244.075195 L120.6604,244.075195 L120.799561,245.232422 C121.024171,244.822264 121.301268,244.502443 121.630859,244.272949 C121.960451,244.043456 122.340086,243.928711 122.769775,243.928711 C122.877198,243.928711 122.979736,243.937256 123.077393,243.954346 C123.175049,243.971436 123.255615,243.989746 123.319092,244.009277 L123.121338,245.349609 Z M125.802002,244.075195 L125.904541,245.115234 C126.163331,244.739256 126.491697,244.447511 126.889648,244.23999 C127.2876,244.03247 127.750242,243.928711 128.277588,243.928711 C128.804934,243.928711 129.257811,244.05078 129.63623,244.294922 C130.01465,244.539064 130.299071,244.905271 130.489502,245.393555 C130.738527,244.944334 131.068113,244.587892 131.478271,244.324219 C131.88843,244.060546 132.366941,243.928711 132.913818,243.928711 C133.719486,243.928711 134.356687,244.205808 134.825439,244.76001 C135.294192,245.314212 135.528564,246.147944 135.528564,247.26123 L135.528564,252 L134.085693,252 L134.085693,247.246582 C134.085693,246.465328 133.951417,245.912355 133.682861,245.587646 C133.414305,245.262938 133.013919,245.100586 132.481689,245.100586 C131.988523,245.100586 131.589357,245.271483 131.28418,245.613281 C130.979002,245.95508 130.799561,246.387204 130.74585,246.909668 L130.74585,252 L129.295654,252 L129.295654,247.246582 C129.295654,246.504391 129.157716,245.961183 128.881836,245.616943 C128.605956,245.272703 128.209231,245.100586 127.69165,245.100586 C127.252195,245.100586 126.890871,245.190917 126.607666,245.371582 C126.324461,245.552247 126.107178,245.806151 125.955811,246.133301 L125.955811,252 L124.512939,252 L124.512939,244.075195 L125.802002,244.075195 Z" id="12:16:12:16-copy-3" fill="#0E86FE"></path>
                        <path d="M79.262207,180.335938 L79.262207,187.564941 C79.262207,188.727057 78.8850135,189.61572 78.1306152,190.230957 C77.3762169,190.846194 76.3911194,191.153809 75.175293,191.153809 C74.0034121,191.153809 73.0524939,190.844974 72.3225098,190.227295 C71.5925256,189.609616 71.2275391,188.722174 71.2275391,187.564941 L71.2275391,180.335938 L72.6704102,180.335938 L72.6704102,187.564941 C72.6704102,188.370609 72.8999,188.982176 73.3588867,189.399658 C73.8178734,189.817141 74.4233361,190.025879 75.175293,190.025879 C75.9663125,190.025879 76.6047339,189.817141 77.0905762,189.399658 C77.5764184,188.982176 77.8193359,188.370609 77.8193359,187.564941 L77.8193359,180.335938 L79.262207,180.335938 Z M88.1025391,187.337891 C88.1025391,188.480474 87.8291043,189.402096 87.2822266,190.102783 C86.7353488,190.80347 85.9809618,191.153809 85.019043,191.153809 C84.5307593,191.153809 84.1022968,191.072022 83.7336426,190.908447 C83.3649884,190.744872 83.0512708,190.499513 82.7924805,190.172363 L82.7924805,194.046875 L81.3496094,194.046875 L81.3496094,183.075195 L82.4555664,183.075195 L82.6826172,184.100586 C82.9414075,183.719725 83.2636699,183.4292 83.6494141,183.229004 C84.0351582,183.028808 84.4843724,182.928711 84.9970703,182.928711 C85.9785205,182.928711 86.7414524,183.318111 87.2858887,184.096924 C87.830325,184.875736 88.1025391,185.904779 88.1025391,187.184082 L88.1025391,187.337891 Z M86.659668,187.184082 C86.659668,186.28564 86.4826678,185.547122 86.1286621,184.968506 C85.7746564,184.38989 85.2534214,184.100586 84.5649414,184.100586 C84.1499003,184.100586 83.7958999,184.194579 83.5029297,184.382568 C83.2099595,184.570558 82.9731454,184.828123 82.7924805,185.155273 L82.7924805,188.98584 C82.9731454,189.31299 83.2099595,189.568114 83.5029297,189.751221 C83.7958999,189.934327 84.154783,190.025879 84.5795898,190.025879 C85.263187,190.025879 85.78076,189.775637 86.1323242,189.275146 C86.4838885,188.774656 86.659668,188.12891 86.659668,187.337891 L86.659668,187.184082 Z M89.5454102,187.184082 C89.5454102,185.909662 89.8176242,184.88184 90.3620605,184.100586 C90.9064969,183.319332 91.6694287,182.928711 92.6508789,182.928711 C93.1147484,182.928711 93.5261213,183.014159 93.8850098,183.185059 C94.2438983,183.355958 94.5502917,183.604979 94.8041992,183.932129 L94.8041992,179.574219 L96.2470703,179.574219 L96.2470703,191 L95.0678711,191 L94.8994141,190.025879 C94.6406237,190.396975 94.3232441,190.677733 93.9472656,190.868164 C93.5712872,191.058595 93.1342798,191.153809 92.6362305,191.153809 C91.6694288,191.153809 90.9126004,190.80347 90.3657227,190.102783 C89.8188449,189.402096 89.5454102,188.480474 89.5454102,187.337891 L89.5454102,187.184082 Z M90.9882812,187.337891 C90.9882812,188.138676 91.1518538,188.779539 91.4790039,189.260498 C91.806154,189.741457 92.3139614,189.981934 93.0024414,189.981934 C93.4321311,189.981934 93.7934556,189.884278 94.0864258,189.688965 C94.379396,189.493651 94.6186514,189.220217 94.8041992,188.868652 L94.8041992,185.169922 C94.6186514,184.842772 94.3781753,184.582765 94.0827637,184.389893 C93.787352,184.197021 93.432131,184.100586 93.0170898,184.100586 C92.323727,184.100586 91.8122575,184.386228 91.482666,184.95752 C91.1530745,185.528811 90.9882812,186.270992 90.9882812,187.184082 L90.9882812,187.337891 Z M103.270996,191 C103.222168,190.760741 103.184326,190.549561 103.157471,190.366455 C103.130615,190.183349 103.114746,189.999024 103.109863,189.813477 C102.841307,190.194338 102.490969,190.512938 102.058838,190.769287 C101.626707,191.025636 101.161624,191.153809 100.663574,191.153809 C99.8383748,191.153809 99.209719,190.942629 98.7775879,190.520264 C98.3454568,190.097898 98.1293945,189.515629 98.1293945,188.773438 C98.1293945,188.016598 98.435788,187.424563 99.048584,186.997314 C99.66138,186.570066 100.492671,186.356445 101.54248,186.356445 L103.109863,186.356445 L103.109863,185.572754 C103.109863,185.108884 102.968263,184.741456 102.685059,184.470459 C102.401854,184.199462 102.001467,184.063965 101.483887,184.063965 C101.020017,184.063965 100.642824,184.182372 100.352295,184.419189 C100.061766,184.656007 99.9165039,184.940428 99.9165039,185.272461 L98.5395508,185.272461 L98.5249023,185.228516 C98.4956053,184.652341 98.7678194,184.125002 99.3415527,183.646484 C99.9152861,183.167966 100.656245,182.928711 101.564453,182.928711 C102.462895,182.928711 103.185544,183.15698 103.732422,183.613525 C104.2793,184.070071 104.552734,184.728023 104.552734,185.587402 L104.552734,189.40332 C104.552734,189.686525 104.567383,189.95996 104.59668,190.223633 C104.625977,190.487306 104.679687,190.746092 104.757812,191 L103.270996,191 Z M100.875977,189.945312 C101.39844,189.945312 101.869627,189.811036 102.289551,189.54248 C102.709475,189.273924 102.98291,188.96631 103.109863,188.619629 L103.109863,187.330566 L101.491211,187.330566 C100.910153,187.330566 100.44507,187.477049 100.095947,187.77002 C99.7468244,188.06299 99.5722656,188.407225 99.5722656,188.802734 C99.5722656,189.154299 99.6821278,189.432616 99.9018555,189.637695 C100.121583,189.842774 100.446287,189.945312 100.875977,189.945312 Z M108.551758,181.163574 L108.551758,183.075195 L110.053223,183.075195 L110.053223,184.144531 L108.551758,184.144531 L108.551758,188.956543 C108.551758,189.327639 108.628661,189.588866 108.782471,189.740234 C108.93628,189.891602 109.140135,189.967285 109.394043,189.967285 C109.477051,189.967285 109.568603,189.95752 109.668701,189.937988 C109.768799,189.918457 109.85791,189.894043 109.936035,189.864746 L110.126465,190.853516 C110.019042,190.941407 109.861573,191.013427 109.654053,191.06958 C109.446532,191.125733 109.237794,191.153809 109.027832,191.153809 C108.441892,191.153809 107.975588,190.976808 107.628906,190.622803 C107.282225,190.268797 107.108887,189.713383 107.108887,188.956543 L107.108887,184.144531 L105.849121,184.144531 L105.849121,183.075195 L107.108887,183.075195 L107.108887,181.163574 L108.551758,181.163574 Z M115.121582,191.153809 C114.018061,191.153809 113.140384,190.786381 112.488525,190.051514 C111.836667,189.316647 111.510742,188.363287 111.510742,187.191406 L111.510742,186.869141 C111.510742,185.741205 111.846432,184.802494 112.517822,184.052979 C113.189212,183.303463 113.983882,182.928711 114.901855,182.928711 C115.971197,182.928711 116.779294,183.250973 117.326172,183.895508 C117.87305,184.540042 118.146484,185.399409 118.146484,186.473633 L118.146484,187.374512 L113.004883,187.374512 L112.98291,187.411133 C112.997559,188.172855 113.190428,188.79907 113.561523,189.289795 C113.932619,189.78052 114.452633,190.025879 115.121582,190.025879 C115.609866,190.025879 116.038328,189.9563 116.406982,189.817139 C116.775637,189.677978 117.094237,189.486329 117.362793,189.242188 L117.926758,190.179688 C117.643553,190.458009 117.270022,190.68994 116.806152,190.875488 C116.342283,191.061036 115.780765,191.153809 115.121582,191.153809 Z M114.901855,184.063965 C114.418455,184.063965 114.005861,184.26782 113.664062,184.675537 C113.322264,185.083254 113.112305,185.594723 113.03418,186.209961 L113.048828,186.246582 L116.703613,186.246582 L116.703613,186.056152 C116.703613,185.489743 116.552248,185.016115 116.249512,184.635254 C115.946776,184.254393 115.497562,184.063965 114.901855,184.063965 Z M124.782227,183.075195 L124.884766,184.254395 C125.148439,183.834471 125.479246,183.508546 125.877197,183.276611 C126.275148,183.044677 126.728025,182.928711 127.23584,182.928711 C128.090336,182.928711 128.751951,183.178953 129.220703,183.679443 C129.689455,184.179934 129.923828,184.952631 129.923828,185.997559 L129.923828,191 L128.480957,191 L128.480957,186.026855 C128.480957,185.32861 128.343019,184.833009 128.067139,184.540039 C127.791258,184.247069 127.37012,184.100586 126.803711,184.100586 C126.38867,184.100586 126.021242,184.200683 125.701416,184.400879 C125.38159,184.601075 125.126466,184.87451 124.936035,185.221191 L124.936035,191 L123.493164,191 L123.493164,183.075195 L124.782227,183.075195 Z M131.681641,186.964355 C131.681641,185.792475 131.99902,184.826908 132.633789,184.067627 C133.268558,183.308346 134.130366,182.928711 135.219238,182.928711 C136.317877,182.928711 137.185788,183.307125 137.822998,184.063965 C138.460208,184.820805 138.778809,185.787592 138.778809,186.964355 L138.778809,187.125488 C138.778809,188.307135 138.461429,189.273922 137.82666,190.025879 C137.191891,190.777836 136.327642,191.153809 135.233887,191.153809 C134.140131,191.153809 133.274661,190.776615 132.637451,190.022217 C132.000241,189.267818 131.681641,188.302252 131.681641,187.125488 L131.681641,186.964355 Z M133.124512,187.125488 C133.124512,187.965336 133.301512,188.658689 133.655518,189.205566 C134.009523,189.752444 134.535641,190.025879 135.233887,190.025879 C135.922367,190.025879 136.444822,189.752444 136.80127,189.205566 C137.157717,188.658689 137.335938,187.965336 137.335938,187.125488 L137.335938,186.964355 C137.335938,186.134273 137.156496,185.443362 136.797607,184.891602 C136.438719,184.339841 135.912601,184.063965 135.219238,184.063965 C134.530758,184.063965 134.009523,184.339841 133.655518,184.891602 C133.301512,185.443362 133.124512,186.134273 133.124512,186.964355 L133.124512,187.125488 Z M142.572754,188.114258 L142.741211,189.07373 L142.785156,189.07373 L142.990234,188.114258 L144.572266,183.075195 L145.729492,183.075195 L147.318848,188.114258 L147.545898,189.183594 L147.589844,189.183594 L147.802246,188.114258 L149.047363,183.075195 L150.48291,183.075195 L148.183105,191 L147.018555,191 L145.487793,186.17334 L145.158203,184.825684 L145.114258,184.833008 L144.799316,186.17334 L143.290527,191 L142.125977,191 L139.826172,183.075195 L141.261719,183.075195 L142.572754,188.114258 Z" id="12:16:12:16-copy-9" fill="#0E86FE"></path>
                    </g>
                </g>
            </g>
        </g>
    </g>
</svg>