<?xml version="1.0" encoding="UTF-8"?>
<svg width="385px" height="339px" viewBox="0 0 385 339" version="1.1" xmlns="http://www.w3.org/2000/svg" xmlns:xlink="http://www.w3.org/1999/xlink">
    <!-- Generator: Sketch 42 (36781) - http://www.bohemiancoding.com/sketch -->
    <title>Group 18</title>
    <desc>Created with Sketch.</desc>
    <defs>
        <rect id="path-1" x="0" y="0" width="385" height="339" rx="4"></rect>
        <rect id="path-3" x="0" y="289" width="385" height="50" rx="4"></rect>
        <polygon id="path-5" points="0.227437695 33.3229814 90.5701168 33.3229814 90.5701168 0.392715839 0.227437695 0.392715839"></polygon>
    </defs>
    <g id="template(outline)" stroke="none" stroke-width="1" fill="none" fill-rule="evenodd">
        <g id="card-temp" transform="translate(-819.000000, -700.000000)">
            <g id="Group-18" transform="translate(819.000000, 700.000000)">
                <g id="Group-11">
                    <g id="班表-copy">
                        <mask id="mask-2" fill="white">
                            <use xlink:href="#path-1"></use>
                        </mask>
                        <use id="Mask" fill="#FFFFFF" xlink:href="#path-1"></use>
                        <mask id="mask-4" fill="white">
                            <use xlink:href="#path-3"></use>
                        </mask>
                        <use id="Mask" fill="#FFFFFF" xlink:href="#path-3"></use>
                        <path d="M167.169922,319.303711 C166.865233,319.772463 166.33643,320.203123 165.583496,320.595703 C164.830563,320.988283 163.856451,321.18457 162.661133,321.18457 C161.131828,321.18457 159.867681,320.695317 158.868652,319.716797 C157.869624,318.738276 157.370117,317.472664 157.370117,315.919922 L157.370117,313.283203 C157.370117,311.730461 157.835933,310.464849 158.767578,309.486328 C159.699223,308.507808 160.900383,308.018555 162.371094,308.018555 C163.835945,308.018555 164.9873,308.378903 165.825195,309.099609 C166.66309,309.820316 167.09082,310.749018 167.108398,311.885742 L167.09082,311.938477 L165.438477,311.938477 C165.385742,311.194332 165.10303,310.582034 164.590332,310.101562 C164.077634,309.621091 163.337895,309.380859 162.371094,309.380859 C161.392573,309.380859 160.604495,309.747067 160.006836,310.479492 C159.409177,311.211918 159.110352,312.140619 159.110352,313.265625 L159.110352,315.919922 C159.110352,317.056646 159.444333,317.992672 160.112305,318.728027 C160.780277,319.463383 161.629878,319.831055 162.661133,319.831055 C163.387699,319.831055 163.98242,319.734376 164.445312,319.541016 C164.908205,319.347655 165.239257,319.127931 165.438477,318.881836 L165.438477,315.972656 L162.634766,315.972656 L162.634766,314.610352 L167.169922,314.610352 L167.169922,319.303711 Z M173.788086,321.18457 C172.463861,321.18457 171.410648,320.743657 170.628418,319.861816 C169.846187,318.979976 169.455078,317.835945 169.455078,316.429688 L169.455078,316.042969 C169.455078,314.689446 169.857906,313.562993 170.663574,312.663574 C171.469242,311.764156 172.422846,311.314453 173.524414,311.314453 C174.807624,311.314453 175.77734,311.701168 176.433594,312.474609 C177.089847,313.248051 177.417969,314.27929 177.417969,315.568359 L177.417969,316.649414 L171.248047,316.649414 L171.22168,316.693359 C171.239258,317.607426 171.470701,318.358884 171.916016,318.947754 C172.36133,319.536624 172.985348,319.831055 173.788086,319.831055 C174.374026,319.831055 174.888181,319.747559 175.330566,319.580566 C175.772951,319.413573 176.155272,319.183595 176.477539,318.890625 L177.154297,320.015625 C176.814451,320.349611 176.366214,320.627929 175.80957,320.850586 C175.252927,321.073243 174.579106,321.18457 173.788086,321.18457 Z M173.524414,312.676758 C172.944333,312.676758 172.449221,312.921384 172.039062,313.410645 C171.628904,313.899905 171.376954,314.513668 171.283203,315.251953 L171.300781,315.295898 L175.686523,315.295898 L175.686523,315.067383 C175.686523,314.387692 175.504885,313.819338 175.141602,313.362305 C174.778318,312.905271 174.239261,312.676758 173.524414,312.676758 Z M181.645508,309.196289 L181.645508,311.490234 L183.447266,311.490234 L183.447266,312.773438 L181.645508,312.773438 L181.645508,318.547852 C181.645508,318.993166 181.737792,319.30664 181.922363,319.488281 C182.106935,319.669923 182.351561,319.760742 182.65625,319.760742 C182.75586,319.760742 182.865722,319.749024 182.98584,319.725586 C183.105958,319.702148 183.21289,319.672852 183.306641,319.637695 L183.535156,320.824219 C183.406249,320.929688 183.217286,321.016113 182.968262,321.083496 C182.719237,321.150879 182.468751,321.18457 182.216797,321.18457 C181.513668,321.18457 180.954104,320.97217 180.538086,320.547363 C180.122068,320.122556 179.914062,319.456059 179.914062,318.547852 L179.914062,312.773438 L178.402344,312.773438 L178.402344,311.490234 L179.914062,311.490234 L179.914062,309.196289 L181.645508,309.196289 Z M197.351562,317.774414 C197.351562,317.188474 197.131838,316.697756 196.692383,316.302246 C196.252927,315.906736 195.473638,315.57422 194.354492,315.304688 C193.00097,314.98242 191.944828,314.507816 191.186035,313.880859 C190.427242,313.253903 190.047852,312.465825 190.047852,311.516602 C190.047852,310.520503 190.456539,309.68848 191.273926,309.020508 C192.091313,308.352536 193.150384,308.018555 194.451172,308.018555 C195.85157,308.018555 196.966304,308.40234 197.79541,309.169922 C198.624516,309.937504 199.024414,310.82812 198.995117,311.841797 L198.977539,311.894531 L197.325195,311.894531 C197.325195,311.144527 197.077639,310.538088 196.58252,310.075195 C196.0874,309.612302 195.376958,309.380859 194.451172,309.380859 C193.589839,309.380859 192.929202,309.575682 192.469238,309.965332 C192.009275,310.354982 191.779297,310.863278 191.779297,311.490234 C191.779297,312.046878 192.028318,312.511229 192.526367,312.883301 C193.024417,313.255373 193.833002,313.58203 194.952148,313.863281 C196.299811,314.197267 197.325192,314.68945 198.02832,315.339844 C198.731449,315.990238 199.083008,316.795894 199.083008,317.756836 C199.083008,318.788091 198.661137,319.617184 197.817383,320.244141 C196.973629,320.871097 195.872077,321.18457 194.512695,321.18457 C193.235345,321.18457 192.105962,320.838871 191.124512,320.147461 C190.143061,319.456051 189.666992,318.530279 189.696289,317.370117 L189.713867,317.317383 L191.366211,317.317383 C191.366211,318.137699 191.667966,318.761717 192.271484,319.189453 C192.875003,319.61719 193.622066,319.831055 194.512695,319.831055 C195.385747,319.831055 196.077146,319.646486 196.586914,319.277344 C197.096682,318.908201 197.351562,318.40723 197.351562,317.774414 Z M203.56543,309.196289 L203.56543,311.490234 L205.367188,311.490234 L205.367188,312.773438 L203.56543,312.773438 L203.56543,318.547852 C203.56543,318.993166 203.657714,319.30664 203.842285,319.488281 C204.026856,319.669923 204.271483,319.760742 204.576172,319.760742 C204.675782,319.760742 204.785644,319.749024 204.905762,319.725586 C205.02588,319.702148 205.132812,319.672852 205.226562,319.637695 L205.455078,320.824219 C205.326171,320.929688 205.137208,321.016113 204.888184,321.083496 C204.639159,321.150879 204.388673,321.18457 204.136719,321.18457 C203.43359,321.18457 202.874026,320.97217 202.458008,320.547363 C202.04199,320.122556 201.833984,319.456059 201.833984,318.547852 L201.833984,312.773438 L200.322266,312.773438 L200.322266,311.490234 L201.833984,311.490234 L201.833984,309.196289 L203.56543,309.196289 Z M213.347656,321 C213.289062,320.712889 213.243653,320.459474 213.211426,320.239746 C213.179199,320.020018 213.160156,319.798829 213.154297,319.576172 C212.83203,320.033205 212.411624,320.415526 211.893066,320.723145 C211.374509,321.030763 210.816409,321.18457 210.21875,321.18457 C209.228511,321.18457 208.474124,320.931155 207.955566,320.424316 C207.437009,319.917478 207.177734,319.218754 207.177734,318.328125 C207.177734,317.419917 207.545406,316.709475 208.280762,316.196777 C209.016117,315.684079 210.013666,315.427734 211.273438,315.427734 L213.154297,315.427734 L213.154297,314.487305 C213.154297,313.930661 212.984377,313.489748 212.644531,313.164551 C212.304686,312.839354 211.824222,312.676758 211.203125,312.676758 C210.646482,312.676758 210.193849,312.818846 209.845215,313.103027 C209.49658,313.387208 209.322266,313.728514 209.322266,314.126953 L207.669922,314.126953 L207.652344,314.074219 C207.617187,313.382809 207.943844,312.750003 208.632324,312.175781 C209.320804,311.60156 210.209955,311.314453 211.299805,311.314453 C212.377935,311.314453 213.245114,311.588376 213.901367,312.13623 C214.55762,312.684085 214.885742,313.473628 214.885742,314.504883 L214.885742,319.083984 C214.885742,319.42383 214.90332,319.751952 214.938477,320.068359 C214.973633,320.384767 215.038085,320.695311 215.131836,321 L213.347656,321 Z M210.473633,319.734375 C211.100589,319.734375 211.666013,319.573244 212.169922,319.250977 C212.673831,318.928709 213.001952,318.559572 213.154297,318.143555 L213.154297,316.59668 L211.211914,316.59668 C210.514645,316.59668 209.956545,316.772459 209.537598,317.124023 C209.11865,317.475588 208.90918,317.88867 208.90918,318.363281 C208.90918,318.785158 209.041014,319.119139 209.304688,319.365234 C209.568361,319.611329 209.958005,319.734375 210.473633,319.734375 Z M221.899414,313.019531 L221.011719,312.966797 C220.554685,312.966797 220.169435,313.075194 219.855957,313.291992 C219.542479,313.50879 219.300782,313.813475 219.130859,314.206055 L219.130859,321 L217.399414,321 L217.399414,311.490234 L218.946289,311.490234 L219.113281,312.878906 C219.382814,312.386716 219.71533,312.002931 220.11084,311.727539 C220.50635,311.452147 220.961911,311.314453 221.477539,311.314453 C221.606446,311.314453 221.729492,311.324707 221.84668,311.345215 C221.963868,311.365723 222.060546,311.387695 222.136719,311.411133 L221.899414,313.019531 Z M226.003906,309.196289 L226.003906,311.490234 L227.805664,311.490234 L227.805664,312.773438 L226.003906,312.773438 L226.003906,318.547852 C226.003906,318.993166 226.09619,319.30664 226.280762,319.488281 C226.465333,319.669923 226.709959,319.760742 227.014648,319.760742 C227.114258,319.760742 227.22412,319.749024 227.344238,319.725586 C227.464356,319.702148 227.571289,319.672852 227.665039,319.637695 L227.893555,320.824219 C227.764648,320.929688 227.575685,321.016113 227.32666,321.083496 C227.077635,321.150879 226.82715,321.18457 226.575195,321.18457 C225.872067,321.18457 225.312502,320.97217 224.896484,320.547363 C224.480467,320.122556 224.272461,319.456059 224.272461,318.547852 L224.272461,312.773438 L222.760742,312.773438 L222.760742,311.490234 L224.272461,311.490234 L224.272461,309.196289 L226.003906,309.196289 Z" id="12:16:12:16-copy-10" fill="#0E86FE" mask="url(#mask-4)"></path>
                    </g>
                    <path d="M0,4.00970053 C0,1.79520408 1.7913642,0 3.99931732,0 L381.000683,0 C383.209445,0 385,1.79227272 385,4.00970053 L385,289.5 L0,289.5 L0,4.00970053 Z" id="Rectangle-197-Copy" fill="#F7F9FE"></path>
                    <path d="M99.4130859,236 L97.3930664,236 L97.3930664,229.406738 L90.1435547,229.406738 L90.1435547,236 L88.1235352,236 L88.1235352,221.070312 L90.1435547,221.070312 L90.1435547,227.817383 L97.3930664,227.817383 L97.3930664,221.070312 L99.4130859,221.070312 L99.4130859,236 Z M107.329102,236.215332 C105.784172,236.215332 104.555424,235.700933 103.642822,234.672119 C102.73022,233.643305 102.273926,232.308602 102.273926,230.667969 L102.273926,230.216797 C102.273926,228.637687 102.743892,227.323492 103.683838,226.27417 C104.623784,225.224848 105.736322,224.700195 107.021484,224.700195 C108.518562,224.700195 109.649899,225.151363 110.415527,226.053711 C111.181156,226.956059 111.563965,228.159172 111.563965,229.663086 L111.563965,230.924316 L104.365723,230.924316 L104.334961,230.975586 C104.355469,232.041998 104.625486,232.918698 105.14502,233.605713 C105.664553,234.292728 106.392573,234.63623 107.329102,234.63623 C108.012699,234.63623 108.612546,234.538819 109.128662,234.343994 C109.644778,234.149169 110.090818,233.880861 110.466797,233.539062 L111.256348,234.851562 C110.859861,235.241213 110.336917,235.565917 109.6875,235.825684 C109.038083,236.085451 108.251958,236.215332 107.329102,236.215332 Z M107.021484,226.289551 C106.344723,226.289551 105.767092,226.574948 105.288574,227.145752 C104.810056,227.716556 104.516114,228.432613 104.406738,229.293945 L104.427246,229.345215 L109.543945,229.345215 L109.543945,229.078613 C109.543945,228.285641 109.332033,227.622561 108.908203,227.089355 C108.484373,226.55615 107.855473,226.289551 107.021484,226.289551 Z M116.01416,236 L113.994141,236 L113.994141,220.003906 L116.01416,220.003906 L116.01416,236 Z M121.305176,236 L119.285156,236 L119.285156,220.003906 L121.305176,220.003906 L121.305176,236 Z M123.94043,230.350098 C123.94043,228.709464 124.384761,227.357671 125.273438,226.294678 C126.162114,225.231684 127.368645,224.700195 128.893066,224.700195 C130.43116,224.700195 131.646236,225.229975 132.53833,226.289551 C133.430424,227.349126 133.876465,228.702628 133.876465,230.350098 L133.876465,230.575684 C133.876465,232.229989 133.432133,233.583491 132.543457,234.63623 C131.654781,235.68897 130.444832,236.215332 128.913574,236.215332 C127.382317,236.215332 126.170659,235.687261 125.278564,234.631104 C124.38647,233.574946 123.94043,232.223153 123.94043,230.575684 L123.94043,230.350098 Z M125.960449,230.575684 C125.960449,231.751471 126.208249,232.722164 126.703857,233.487793 C127.199465,234.253422 127.93603,234.63623 128.913574,234.63623 C129.877446,234.63623 130.608884,234.253422 131.10791,233.487793 C131.606936,232.722164 131.856445,231.751471 131.856445,230.575684 L131.856445,230.350098 C131.856445,229.187982 131.605227,228.220707 131.102783,227.448242 C130.600339,226.675777 129.863774,226.289551 128.893066,226.289551 C127.929194,226.289551 127.199465,226.675777 126.703857,227.448242 C126.208249,228.220707 125.960449,229.187982 125.960449,230.350098 L125.960449,230.575684 Z M138.111328,235.507812 L136.573242,238.645508 L135.373535,238.645508 L136.091309,235.405273 L136.091309,233.733887 L138.111328,233.733887 L138.111328,235.507812 Z M157.378418,236 L155.358398,236 L148.17041,224.454102 L148.108887,224.474609 L148.108887,236 L146.088867,236 L146.088867,221.070312 L148.108887,221.070312 L155.296875,232.595703 L155.358398,232.575195 L155.358398,221.070312 L157.378418,221.070312 L157.378418,236 Z M162.874512,236 L160.854492,236 L160.854492,224.905273 L162.874512,224.905273 L162.874512,236 Z M162.874512,222.064941 L160.854492,222.064941 L160.854492,220.003906 L162.874512,220.003906 L162.874512,222.064941 Z M170.493164,234.63623 C171.163089,234.63623 171.752683,234.429445 172.261963,234.015869 C172.771243,233.602293 173.025879,233.09473 173.025879,232.493164 L174.84082,232.493164 L174.861328,232.554688 C174.895508,233.511724 174.469975,234.36108 173.584717,235.102783 C172.699458,235.844486 171.668951,236.215332 170.493164,236.215332 C168.879875,236.215332 167.646,235.68897 166.791504,234.63623 C165.937007,233.583491 165.509766,232.26075 165.509766,230.667969 L165.509766,230.237305 C165.509766,228.658195 165.938716,227.340581 166.796631,226.284424 C167.654545,225.228266 168.886711,224.700195 170.493164,224.700195 C171.791999,224.700195 172.853267,225.083004 173.677002,225.848633 C174.500737,226.614262 174.898926,227.554194 174.871582,228.668457 L174.851074,228.72998 L173.025879,228.72998 C173.025879,228.053219 172.786623,227.477297 172.308105,227.002197 C171.829587,226.527097 171.224613,226.289551 170.493164,226.289551 C169.433588,226.289551 168.676516,226.67065 168.221924,227.432861 C167.767332,228.195072 167.540039,229.129877 167.540039,230.237305 L167.540039,230.667969 C167.540039,231.80274 167.765623,232.747799 168.216797,233.503174 C168.667971,234.258549 169.426752,234.63623 170.493164,234.63623 Z M181.731445,236.215332 C180.186516,236.215332 178.957768,235.700933 178.045166,234.672119 C177.132564,233.643305 176.67627,232.308602 176.67627,230.667969 L176.67627,230.216797 C176.67627,228.637687 177.146236,227.323492 178.086182,226.27417 C179.026128,225.224848 180.138665,224.700195 181.423828,224.700195 C182.920906,224.700195 184.052242,225.151363 184.817871,226.053711 C185.5835,226.956059 185.966309,228.159172 185.966309,229.663086 L185.966309,230.924316 L178.768066,230.924316 L178.737305,230.975586 C178.757813,232.041998 179.027829,232.918698 179.547363,233.605713 C180.066897,234.292728 180.794917,234.63623 181.731445,234.63623 C182.415042,234.63623 183.01489,234.538819 183.531006,234.343994 C184.047122,234.149169 184.493162,233.880861 184.869141,233.539062 L185.658691,234.851562 C185.262205,235.241213 184.739261,235.565917 184.089844,235.825684 C183.440426,236.085451 182.654301,236.215332 181.731445,236.215332 Z M181.423828,226.289551 C180.747067,226.289551 180.169436,226.574948 179.690918,227.145752 C179.2124,227.716556 178.918458,228.432613 178.809082,229.293945 L178.82959,229.345215 L183.946289,229.345215 L183.946289,229.078613 C183.946289,228.285641 183.734377,227.622561 183.310547,227.089355 C182.886717,226.55615 182.257817,226.289551 181.423828,226.289551 Z M196.117676,222.229004 L196.117676,224.905273 L198.219727,224.905273 L198.219727,226.402344 L196.117676,226.402344 L196.117676,233.13916 C196.117676,233.658694 196.225341,234.024413 196.440674,234.236328 C196.656007,234.448243 196.941404,234.554199 197.296875,234.554199 C197.413087,234.554199 197.541259,234.540527 197.681396,234.513184 C197.821534,234.48584 197.946289,234.45166 198.055664,234.410645 L198.322266,235.794922 C198.171874,235.917969 197.951417,236.018798 197.660889,236.097412 C197.37036,236.176026 197.078126,236.215332 196.78418,236.215332 C195.963863,236.215332 195.311038,235.967532 194.825684,235.471924 C194.34033,234.976316 194.097656,234.198736 194.097656,233.13916 L194.097656,226.402344 L192.333984,226.402344 L192.333984,224.905273 L194.097656,224.905273 L194.097656,222.229004 L196.117676,222.229004 Z M200.239746,230.350098 C200.239746,228.709464 200.684078,227.357671 201.572754,226.294678 C202.46143,225.231684 203.667961,224.700195 205.192383,224.700195 C206.730476,224.700195 207.945552,225.229975 208.837646,226.289551 C209.729741,227.349126 210.175781,228.702628 210.175781,230.350098 L210.175781,230.575684 C210.175781,232.229989 209.73145,233.583491 208.842773,234.63623 C207.954097,235.68897 206.744148,236.215332 205.212891,236.215332 C203.681633,236.215332 202.469975,235.687261 201.577881,234.631104 C200.685787,233.574946 200.239746,232.223153 200.239746,230.575684 L200.239746,230.350098 Z M202.259766,230.575684 C202.259766,231.751471 202.507566,232.722164 203.003174,233.487793 C203.498782,234.253422 204.235347,234.63623 205.212891,234.63623 C206.176763,234.63623 206.908201,234.253422 207.407227,233.487793 C207.906252,232.722164 208.155762,231.751471 208.155762,230.575684 L208.155762,230.350098 C208.155762,229.187982 207.904544,228.220707 207.4021,227.448242 C206.899656,226.675777 206.163091,226.289551 205.192383,226.289551 C204.228511,226.289551 203.498782,226.675777 203.003174,227.448242 C202.507566,228.220707 202.259766,229.187982 202.259766,230.350098 L202.259766,230.575684 Z M219.670898,224.905273 L219.814453,226.361328 C220.17676,225.834958 220.636472,225.426515 221.193604,225.135986 C221.750735,224.845458 222.398434,224.700195 223.136719,224.700195 C223.875004,224.700195 224.509031,224.871092 225.038818,225.212891 C225.568606,225.554689 225.966796,226.067379 226.233398,226.750977 C226.582033,226.122067 227.043454,225.623049 227.617676,225.253906 C228.191897,224.884764 228.861813,224.700195 229.627441,224.700195 C230.755377,224.700195 231.647458,225.088131 232.303711,225.864014 C232.959964,226.639896 233.288086,227.807121 233.288086,229.365723 L233.288086,236 L231.268066,236 L231.268066,229.345215 C231.268066,228.251459 231.08008,227.477297 230.704102,227.022705 C230.328123,226.568113 229.767582,226.34082 229.022461,226.34082 C228.332028,226.34082 227.773195,226.580076 227.345947,227.058594 C226.918699,227.537112 226.667481,228.142086 226.592285,228.873535 L226.592285,236 L224.562012,236 L224.562012,229.345215 C224.562012,228.306147 224.368898,227.545657 223.982666,227.063721 C223.596434,226.581785 223.041019,226.34082 222.316406,226.34082 C221.701169,226.34082 221.195314,226.467284 220.798828,226.720215 C220.402342,226.973146 220.098146,227.328611 219.88623,227.786621 L219.88623,236 L217.866211,236 L217.866211,224.905273 L219.670898,224.905273 Z M240.824707,236.215332 C239.279777,236.215332 238.05103,235.700933 237.138428,234.672119 C236.225826,233.643305 235.769531,232.308602 235.769531,230.667969 L235.769531,230.216797 C235.769531,228.637687 236.239497,227.323492 237.179443,226.27417 C238.119389,225.224848 239.231927,224.700195 240.51709,224.700195 C242.014168,224.700195 243.145504,225.151363 243.911133,226.053711 C244.676762,226.956059 245.05957,228.159172 245.05957,229.663086 L245.05957,230.924316 L237.861328,230.924316 L237.830566,230.975586 C237.851074,232.041998 238.121091,232.918698 238.640625,233.605713 C239.160159,234.292728 239.888179,234.63623 240.824707,234.63623 C241.508304,234.63623 242.108152,234.538819 242.624268,234.343994 C243.140383,234.149169 243.586424,233.880861 243.962402,233.539062 L244.751953,234.851562 C244.355467,235.241213 243.832523,235.565917 243.183105,235.825684 C242.533688,236.085451 241.747563,236.215332 240.824707,236.215332 Z M240.51709,226.289551 C239.840329,226.289551 239.262698,226.574948 238.78418,227.145752 C238.305662,227.716556 238.011719,228.432613 237.902344,229.293945 L237.922852,229.345215 L243.039551,229.345215 L243.039551,229.078613 C243.039551,228.285641 242.827639,227.622561 242.403809,227.089355 C241.979978,226.55615 241.351078,226.289551 240.51709,226.289551 Z M251.929688,236.215332 C250.384758,236.215332 249.15601,235.700933 248.243408,234.672119 C247.330806,233.643305 246.874512,232.308602 246.874512,230.667969 L246.874512,230.216797 C246.874512,228.637687 247.344478,227.323492 248.284424,226.27417 C249.22437,225.224848 250.336908,224.700195 251.62207,224.700195 C253.119148,224.700195 254.250484,225.151363 255.016113,226.053711 C255.781742,226.956059 256.164551,228.159172 256.164551,229.663086 L256.164551,230.924316 L248.966309,230.924316 L248.935547,230.975586 C248.956055,232.041998 249.226072,232.918698 249.745605,233.605713 C250.265139,234.292728 250.993159,234.63623 251.929688,234.63623 C252.613285,234.63623 253.213132,234.538819 253.729248,234.343994 C254.245364,234.149169 254.691404,233.880861 255.067383,233.539062 L255.856934,234.851562 C255.460447,235.241213 254.937503,235.565917 254.288086,235.825684 C253.638669,236.085451 252.852544,236.215332 251.929688,236.215332 Z M251.62207,226.289551 C250.945309,226.289551 250.367678,226.574948 249.88916,227.145752 C249.410642,227.716556 249.1167,228.432613 249.007324,229.293945 L249.027832,229.345215 L254.144531,229.345215 L254.144531,229.078613 C254.144531,228.285641 253.932619,227.622561 253.508789,227.089355 C253.084959,226.55615 252.456059,226.289551 251.62207,226.289551 Z M261.09668,222.229004 L261.09668,224.905273 L263.19873,224.905273 L263.19873,226.402344 L261.09668,226.402344 L261.09668,233.13916 C261.09668,233.658694 261.204345,234.024413 261.419678,234.236328 C261.635011,234.448243 261.920408,234.554199 262.275879,234.554199 C262.39209,234.554199 262.520263,234.540527 262.6604,234.513184 C262.800538,234.48584 262.925292,234.45166 263.034668,234.410645 L263.30127,235.794922 C263.150878,235.917969 262.930421,236.018798 262.639893,236.097412 C262.349364,236.176026 262.05713,236.215332 261.763184,236.215332 C260.942867,236.215332 260.290041,235.967532 259.804688,235.471924 C259.319334,234.976316 259.07666,234.198736 259.07666,233.13916 L259.07666,226.402344 L257.312988,226.402344 L257.312988,224.905273 L259.07666,224.905273 L259.07666,222.229004 L261.09668,222.229004 Z M274.303711,231.888184 L274.662598,233.282715 L274.724121,233.282715 L277.45166,224.905273 L279.697266,224.905273 L275.031738,237.702148 C274.751463,238.447269 274.349856,239.096677 273.826904,239.650391 C273.303952,240.204104 272.598149,240.480957 271.709473,240.480957 C271.545409,240.480957 271.336915,240.462158 271.083984,240.424561 C270.831053,240.386963 270.636231,240.351074 270.499512,240.316895 L270.70459,238.727539 C270.663574,238.720703 270.784911,238.727539 271.068604,238.748047 C271.352296,238.768555 271.531738,238.778809 271.606934,238.778809 C272.0376,238.778809 272.389647,238.587404 272.663086,238.20459 C272.936525,237.821775 273.165526,237.397952 273.350098,236.933105 L273.832031,235.774414 L269.709961,224.905273 L271.96582,224.905273 L274.303711,231.888184 Z M280.845703,230.350098 C280.845703,228.709464 281.290035,227.357671 282.178711,226.294678 C283.067387,225.231684 284.273918,224.700195 285.79834,224.700195 C287.336433,224.700195 288.551509,225.229975 289.443604,226.289551 C290.335698,227.349126 290.781738,228.702628 290.781738,230.350098 L290.781738,230.575684 C290.781738,232.229989 290.337407,233.583491 289.44873,234.63623 C288.560054,235.68897 287.350105,236.215332 285.818848,236.215332 C284.28759,236.215332 283.075932,235.687261 282.183838,234.631104 C281.291744,233.574946 280.845703,232.223153 280.845703,230.575684 L280.845703,230.350098 Z M282.865723,230.575684 C282.865723,231.751471 283.113523,232.722164 283.609131,233.487793 C284.104739,234.253422 284.841304,234.63623 285.818848,234.63623 C286.78272,234.63623 287.514158,234.253422 288.013184,233.487793 C288.51221,232.722164 288.761719,231.751471 288.761719,230.575684 L288.761719,230.350098 C288.761719,229.187982 288.510501,228.220707 288.008057,227.448242 C287.505613,226.675777 286.769048,226.289551 285.79834,226.289551 C284.834468,226.289551 284.104739,226.675777 283.609131,227.448242 C283.113523,228.220707 282.865723,229.187982 282.865723,230.350098 L282.865723,230.575684 Z M300.297363,234.359375 C299.948729,234.954105 299.500979,235.412108 298.954102,235.733398 C298.407224,236.054689 297.774906,236.215332 297.057129,236.215332 C295.847162,236.215332 294.903812,235.829105 294.227051,235.056641 C293.55029,234.284176 293.211914,233.081063 293.211914,231.447266 L293.211914,224.905273 L295.231934,224.905273 L295.231934,231.467773 C295.231934,232.650397 295.406248,233.463865 295.754883,233.908203 C296.103517,234.352541 296.646969,234.574707 297.385254,234.574707 C298.103031,234.574707 298.696043,234.429445 299.164307,234.138916 C299.632571,233.848387 299.986327,233.436526 300.225586,232.90332 L300.225586,224.905273 L302.245605,224.905273 L302.245605,236 L300.430664,236 L300.297363,234.359375 Z M122.563477,260 L121.120605,260 L115.986328,251.75293 L115.942383,251.767578 L115.942383,260 L114.499512,260 L114.499512,249.335938 L115.942383,249.335938 L121.07666,257.568359 L121.120605,257.553711 L121.120605,249.335938 L122.563477,249.335938 L122.563477,260 Z M124.592285,255.964355 C124.592285,254.792475 124.909665,253.826908 125.544434,253.067627 C126.179202,252.308346 127.04101,251.928711 128.129883,251.928711 C129.228521,251.928711 130.096432,252.307125 130.733643,253.063965 C131.370853,253.820805 131.689453,254.787592 131.689453,255.964355 L131.689453,256.125488 C131.689453,257.307135 131.372073,258.273922 130.737305,259.025879 C130.102536,259.777836 129.238287,260.153809 128.144531,260.153809 C127.050776,260.153809 126.185306,259.776615 125.548096,259.022217 C124.910885,258.267818 124.592285,257.302252 124.592285,256.125488 L124.592285,255.964355 Z M126.035156,256.125488 C126.035156,256.965336 126.212156,257.658689 126.566162,258.205566 C126.920168,258.752444 127.446286,259.025879 128.144531,259.025879 C128.833011,259.025879 129.355467,258.752444 129.711914,258.205566 C130.068361,257.658689 130.246582,256.965336 130.246582,256.125488 L130.246582,255.964355 C130.246582,255.134273 130.06714,254.443362 129.708252,253.891602 C129.349363,253.339841 128.823246,253.063965 128.129883,253.063965 C127.441403,253.063965 126.920168,253.339841 126.566162,253.891602 C126.212156,254.443362 126.035156,255.134273 126.035156,255.964355 L126.035156,256.125488 Z M135.483398,257.114258 L135.651855,258.07373 L135.695801,258.07373 L135.900879,257.114258 L137.48291,252.075195 L138.640137,252.075195 L140.229492,257.114258 L140.456543,258.183594 L140.500488,258.183594 L140.712891,257.114258 L141.958008,252.075195 L143.393555,252.075195 L141.09375,260 L139.929199,260 L138.398438,255.17334 L138.068848,253.825684 L138.024902,253.833008 L137.709961,255.17334 L136.201172,260 L135.036621,260 L132.736816,252.075195 L134.172363,252.075195 L135.483398,257.114258 Z M150.959473,257.062988 L151.21582,258.059082 L151.259766,258.059082 L153.208008,252.075195 L154.812012,252.075195 L151.479492,261.21582 C151.279296,261.74805 150.992434,262.211912 150.618896,262.607422 C150.245359,263.002932 149.741214,263.200684 149.106445,263.200684 C148.989257,263.200684 148.840333,263.187256 148.659668,263.1604 C148.479003,263.133545 148.339844,263.10791 148.242188,263.083496 L148.388672,261.948242 C148.359375,261.943359 148.446044,261.948242 148.648682,261.962891 C148.851319,261.977539 148.979492,261.984863 149.033203,261.984863 C149.340822,261.984863 149.592284,261.848146 149.787598,261.574707 C149.982911,261.301268 150.146484,260.998537 150.27832,260.666504 L150.622559,259.838867 L147.678223,252.075195 L149.289551,252.075195 L150.959473,257.062988 Z M155.632324,255.964355 C155.632324,254.792475 155.949704,253.826908 156.584473,253.067627 C157.219241,252.308346 158.081049,251.928711 159.169922,251.928711 C160.26856,251.928711 161.136471,252.307125 161.773682,253.063965 C162.410892,253.820805 162.729492,254.787592 162.729492,255.964355 L162.729492,256.125488 C162.729492,257.307135 162.412113,258.273922 161.777344,259.025879 C161.142575,259.777836 160.278326,260.153809 159.18457,260.153809 C158.090815,260.153809 157.225345,259.776615 156.588135,259.022217 C155.950925,258.267818 155.632324,257.302252 155.632324,256.125488 L155.632324,255.964355 Z M157.075195,256.125488 C157.075195,256.965336 157.252195,257.658689 157.606201,258.205566 C157.960207,258.752444 158.486325,259.025879 159.18457,259.025879 C159.87305,259.025879 160.395506,258.752444 160.751953,258.205566 C161.1084,257.658689 161.286621,256.965336 161.286621,256.125488 L161.286621,255.964355 C161.286621,255.134273 161.10718,254.443362 160.748291,253.891602 C160.389403,253.339841 159.863285,253.063965 159.169922,253.063965 C158.481442,253.063965 157.960207,253.339841 157.606201,253.891602 C157.252195,254.443362 157.075195,255.134273 157.075195,255.964355 L157.075195,256.125488 Z M169.526367,258.828125 C169.277343,259.252932 168.957521,259.580077 168.566895,259.80957 C168.176268,260.039064 167.724612,260.153809 167.211914,260.153809 C166.347652,260.153809 165.673831,259.877932 165.19043,259.326172 C164.707029,258.774411 164.465332,257.915045 164.465332,256.748047 L164.465332,252.075195 L165.908203,252.075195 L165.908203,256.762695 C165.908203,257.607426 166.032714,258.188475 166.281738,258.505859 C166.530763,258.823244 166.918943,258.981934 167.446289,258.981934 C167.958987,258.981934 168.382567,258.878175 168.717041,258.670654 C169.051515,258.463134 169.304198,258.168947 169.475098,257.788086 L169.475098,252.075195 L170.917969,252.075195 L170.917969,260 L169.621582,260 L169.526367,258.828125 Z M179.970703,259.025879 C180.449221,259.025879 180.87036,258.878175 181.234131,258.582764 C181.597902,258.287352 181.779785,257.924807 181.779785,257.495117 L183.076172,257.495117 L183.09082,257.539062 C183.115234,258.22266 182.811282,258.829343 182.178955,259.359131 C181.546628,259.888919 180.810551,260.153809 179.970703,260.153809 C178.818354,260.153809 177.937015,259.777836 177.32666,259.025879 C176.716306,258.273922 176.411133,257.329107 176.411133,256.191406 L176.411133,255.883789 C176.411133,254.755854 176.717526,253.814701 177.330322,253.060303 C177.943118,252.305904 178.823236,251.928711 179.970703,251.928711 C180.898442,251.928711 181.656491,252.202146 182.244873,252.749023 C182.833255,253.295901 183.117676,253.967281 183.098145,254.763184 L183.083496,254.807129 L181.779785,254.807129 C181.779785,254.323728 181.608888,253.912355 181.26709,253.572998 C180.925291,253.233641 180.493167,253.063965 179.970703,253.063965 C179.213863,253.063965 178.673097,253.336179 178.348389,253.880615 C178.02368,254.425052 177.861328,255.092769 177.861328,255.883789 L177.861328,256.191406 C177.861328,257.001957 178.022459,257.676999 178.344727,258.216553 C178.666994,258.756106 179.208981,259.025879 179.970703,259.025879 Z M189.580078,260 C189.53125,259.760741 189.493408,259.549561 189.466553,259.366455 C189.439697,259.183349 189.423828,258.999024 189.418945,258.813477 C189.150389,259.194338 188.800051,259.512938 188.36792,259.769287 C187.935789,260.025636 187.470706,260.153809 186.972656,260.153809 C186.147457,260.153809 185.518801,259.942629 185.08667,259.520264 C184.654539,259.097898 184.438477,258.515629 184.438477,257.773438 C184.438477,257.016598 184.74487,256.424563 185.357666,255.997314 C185.970462,255.570066 186.801753,255.356445 187.851562,255.356445 L189.418945,255.356445 L189.418945,254.572754 C189.418945,254.108884 189.277345,253.741456 188.994141,253.470459 C188.710936,253.199462 188.310549,253.063965 187.792969,253.063965 C187.329099,253.063965 186.951906,253.182372 186.661377,253.419189 C186.370848,253.656007 186.225586,253.940428 186.225586,254.272461 L184.848633,254.272461 L184.833984,254.228516 C184.804687,253.652341 185.076901,253.125002 185.650635,252.646484 C186.224368,252.167966 186.965327,251.928711 187.873535,251.928711 C188.771977,251.928711 189.494626,252.15698 190.041504,252.613525 C190.588382,253.070071 190.861816,253.728023 190.861816,254.587402 L190.861816,258.40332 C190.861816,258.686525 190.876465,258.95996 190.905762,259.223633 C190.935059,259.487306 190.988769,259.746092 191.066895,260 L189.580078,260 Z M187.185059,258.945312 C187.707522,258.945312 188.178709,258.811036 188.598633,258.54248 C189.018557,258.273924 189.291992,257.96631 189.418945,257.619629 L189.418945,256.330566 L187.800293,256.330566 C187.219235,256.330566 186.754152,256.477049 186.405029,256.77002 C186.055906,257.06299 185.881348,257.407225 185.881348,257.802734 C185.881348,258.154299 185.99121,258.432616 186.210938,258.637695 C186.430665,258.842774 186.755369,258.945312 187.185059,258.945312 Z M194.245605,252.075195 L194.348145,253.254395 C194.611818,252.834471 194.942625,252.508546 195.340576,252.276611 C195.738527,252.044677 196.191404,251.928711 196.699219,251.928711 C197.553715,251.928711 198.21533,252.178953 198.684082,252.679443 C199.152834,253.179934 199.387207,253.952631 199.387207,254.997559 L199.387207,260 L197.944336,260 L197.944336,255.026855 C197.944336,254.32861 197.806398,253.833009 197.530518,253.540039 C197.254637,253.247069 196.833499,253.100586 196.26709,253.100586 C195.852049,253.100586 195.484621,253.200683 195.164795,253.400879 C194.844969,253.601075 194.589845,253.87451 194.399414,254.221191 L194.399414,260 L192.956543,260 L192.956543,252.075195 L194.245605,252.075195 Z M209.816895,257.897949 C209.816895,257.580565 209.696046,257.319337 209.454346,257.114258 C209.212645,256.909179 208.754886,256.730958 208.081055,256.57959 C207.119136,256.369628 206.395266,256.085207 205.909424,255.726318 C205.423582,255.36743 205.180664,254.877933 205.180664,254.257812 C205.180664,253.613278 205.454099,253.063967 206.000977,252.609863 C206.547854,252.155759 207.260738,251.928711 208.139648,251.928711 C209.062505,251.928711 209.79614,252.165525 210.340576,252.63916 C210.885012,253.112795 211.14502,253.688961 211.120605,254.367676 L211.105957,254.411621 L209.729004,254.411621 C209.729004,254.06494 209.583742,253.753663 209.293213,253.477783 C209.002684,253.201903 208.618166,253.063965 208.139648,253.063965 C207.626951,253.063965 207.246095,253.176268 206.99707,253.400879 C206.748046,253.625489 206.623535,253.896483 206.623535,254.213867 C206.623535,254.526369 206.733397,254.772948 206.953125,254.953613 C207.172853,255.134278 207.619626,255.295409 208.293457,255.437012 C209.294439,255.651857 210.03906,255.943602 210.527344,256.312256 C211.015627,256.68091 211.259766,257.17529 211.259766,257.79541 C211.259766,258.498539 210.975345,259.067381 210.406494,259.501953 C209.837644,259.936526 209.094243,260.153809 208.17627,260.153809 C207.165522,260.153809 206.369632,259.897464 205.788574,259.384766 C205.207517,258.872068 204.93164,258.273929 204.960938,257.590332 L204.975586,257.546387 L206.352539,257.546387 C206.376953,258.059085 206.567381,258.433837 206.923828,258.670654 C207.280275,258.907472 207.697752,259.025879 208.17627,259.025879 C208.688967,259.025879 209.090575,258.92212 209.381104,258.7146 C209.671632,258.507079 209.816895,258.234865 209.816895,257.897949 Z M214.958496,250.163574 L214.958496,252.075195 L216.459961,252.075195 L216.459961,253.144531 L214.958496,253.144531 L214.958496,257.956543 C214.958496,258.327639 215.0354,258.588866 215.189209,258.740234 C215.343018,258.891602 215.546874,258.967285 215.800781,258.967285 C215.883789,258.967285 215.975341,258.95752 216.075439,258.937988 C216.175538,258.918457 216.264648,258.894043 216.342773,258.864746 L216.533203,259.853516 C216.425781,259.941407 216.268312,260.013427 216.060791,260.06958 C215.85327,260.125733 215.644532,260.153809 215.43457,260.153809 C214.84863,260.153809 214.382326,259.976808 214.035645,259.622803 C213.688963,259.268797 213.515625,258.713383 213.515625,257.956543 L213.515625,253.144531 L212.255859,253.144531 L212.255859,252.075195 L213.515625,252.075195 L213.515625,250.163574 L214.958496,250.163574 Z M223.110352,260 C223.061523,259.760741 223.023682,259.549561 222.996826,259.366455 C222.969971,259.183349 222.954102,258.999024 222.949219,258.813477 C222.680663,259.194338 222.330324,259.512938 221.898193,259.769287 C221.466062,260.025636 221.000979,260.153809 220.50293,260.153809 C219.67773,260.153809 219.049074,259.942629 218.616943,259.520264 C218.184812,259.097898 217.96875,258.515629 217.96875,257.773438 C217.96875,257.016598 218.275143,256.424563 218.887939,255.997314 C219.500735,255.570066 220.332026,255.356445 221.381836,255.356445 L222.949219,255.356445 L222.949219,254.572754 C222.949219,254.108884 222.807619,253.741456 222.524414,253.470459 C222.24121,253.199462 221.840823,253.063965 221.323242,253.063965 C220.859373,253.063965 220.482179,253.182372 220.19165,253.419189 C219.901122,253.656007 219.755859,253.940428 219.755859,254.272461 L218.378906,254.272461 L218.364258,254.228516 C218.334961,253.652341 218.607175,253.125002 219.180908,252.646484 C219.754642,252.167966 220.495601,251.928711 221.403809,251.928711 C222.302251,251.928711 223.0249,252.15698 223.571777,252.613525 C224.118655,253.070071 224.39209,253.728023 224.39209,254.587402 L224.39209,258.40332 C224.39209,258.686525 224.406738,258.95996 224.436035,259.223633 C224.465332,259.487306 224.519043,259.746092 224.597168,260 L223.110352,260 Z M220.715332,258.945312 C221.237796,258.945312 221.708982,258.811036 222.128906,258.54248 C222.54883,258.273924 222.822265,257.96631 222.949219,257.619629 L222.949219,256.330566 L221.330566,256.330566 C220.749509,256.330566 220.284426,256.477049 219.935303,256.77002 C219.58618,257.06299 219.411621,257.407225 219.411621,257.802734 C219.411621,258.154299 219.521483,258.432616 219.741211,258.637695 C219.960939,258.842774 220.285642,258.945312 220.715332,258.945312 Z M230.236816,253.349609 L229.49707,253.305664 C229.116209,253.305664 228.795167,253.395995 228.533936,253.57666 C228.272704,253.757325 228.07129,254.011229 227.929688,254.338379 L227.929688,260 L226.486816,260 L226.486816,252.075195 L227.775879,252.075195 L227.915039,253.232422 C228.13965,252.822264 228.416746,252.502443 228.746338,252.272949 C229.075929,252.043456 229.455564,251.928711 229.885254,251.928711 C229.992676,251.928711 230.095214,251.937256 230.192871,251.954346 C230.290528,251.971436 230.371093,251.989746 230.43457,252.009277 L230.236816,253.349609 Z M233.657227,250.163574 L233.657227,252.075195 L235.158691,252.075195 L235.158691,253.144531 L233.657227,253.144531 L233.657227,257.956543 C233.657227,258.327639 233.73413,258.588866 233.887939,258.740234 C234.041749,258.891602 234.245604,258.967285 234.499512,258.967285 C234.58252,258.967285 234.674072,258.95752 234.77417,258.937988 C234.874268,258.918457 234.963379,258.894043 235.041504,258.864746 L235.231934,259.853516 C235.124511,259.941407 234.967042,260.013427 234.759521,260.06958 C234.552001,260.125733 234.343263,260.153809 234.133301,260.153809 C233.54736,260.153809 233.081056,259.976808 232.734375,259.622803 C232.387694,259.268797 232.214355,258.713383 232.214355,257.956543 L232.214355,253.144531 L230.95459,253.144531 L230.95459,252.075195 L232.214355,252.075195 L232.214355,250.163574 L233.657227,250.163574 Z M245.698242,258.828125 C245.449218,259.252932 245.129396,259.580077 244.73877,259.80957 C244.348143,260.039064 243.896487,260.153809 243.383789,260.153809 C242.519527,260.153809 241.845706,259.877932 241.362305,259.326172 C240.878904,258.774411 240.637207,257.915045 240.637207,256.748047 L240.637207,252.075195 L242.080078,252.075195 L242.080078,256.762695 C242.080078,257.607426 242.204589,258.188475 242.453613,258.505859 C242.702638,258.823244 243.090818,258.981934 243.618164,258.981934 C244.130862,258.981934 244.554442,258.878175 244.888916,258.670654 C245.22339,258.463134 245.476073,258.168947 245.646973,257.788086 L245.646973,252.075195 L247.089844,252.075195 L247.089844,260 L245.793457,260 L245.698242,258.828125 Z M253.798828,257.897949 C253.798828,257.580565 253.67798,257.319337 253.436279,257.114258 C253.194579,256.909179 252.73682,256.730958 252.062988,256.57959 C251.101069,256.369628 250.3772,256.085207 249.891357,255.726318 C249.405515,255.36743 249.162598,254.877933 249.162598,254.257812 C249.162598,253.613278 249.436032,253.063967 249.98291,252.609863 C250.529788,252.155759 251.242671,251.928711 252.121582,251.928711 C253.044438,251.928711 253.778073,252.165525 254.32251,252.63916 C254.866946,253.112795 255.126953,253.688961 255.102539,254.367676 L255.087891,254.411621 L253.710937,254.411621 C253.710937,254.06494 253.565675,253.753663 253.275146,253.477783 C252.984618,253.201903 252.6001,253.063965 252.121582,253.063965 C251.608884,253.063965 251.228029,253.176268 250.979004,253.400879 C250.729979,253.625489 250.605469,253.896483 250.605469,254.213867 C250.605469,254.526369 250.715331,254.772948 250.935059,254.953613 C251.154786,255.134278 251.601559,255.295409 252.275391,255.437012 C253.276372,255.651857 254.020994,255.943602 254.509277,256.312256 C254.997561,256.68091 255.241699,257.17529 255.241699,257.79541 C255.241699,258.498539 254.957278,259.067381 254.388428,259.501953 C253.819577,259.936526 253.076176,260.153809 252.158203,260.153809 C251.147456,260.153809 250.351565,259.897464 249.770508,259.384766 C249.18945,258.872068 248.913574,258.273929 248.942871,257.590332 L248.95752,257.546387 L250.334473,257.546387 C250.358887,258.059085 250.549315,258.433837 250.905762,258.670654 C251.262209,258.907472 251.679685,259.025879 252.158203,259.025879 C252.670901,259.025879 253.072508,258.92212 253.363037,258.7146 C253.653566,258.507079 253.798828,258.234865 253.798828,257.897949 Z M258.596191,260 L257.15332,260 L257.15332,252.075195 L258.596191,252.075195 L258.596191,260 Z M258.596191,250.046387 L257.15332,250.046387 L257.15332,248.574219 L258.596191,248.574219 L258.596191,250.046387 Z M262.104492,252.075195 L262.207031,253.254395 C262.470704,252.834471 262.801512,252.508546 263.199463,252.276611 C263.597414,252.044677 264.05029,251.928711 264.558105,251.928711 C265.412602,251.928711 266.074216,252.178953 266.542969,252.679443 C267.011721,253.179934 267.246094,253.952631 267.246094,254.997559 L267.246094,260 L265.803223,260 L265.803223,255.026855 C265.803223,254.32861 265.665285,253.833009 265.389404,253.540039 C265.113524,253.247069 264.692386,253.100586 264.125977,253.100586 C263.710935,253.100586 263.343507,253.200683 263.023682,253.400879 C262.703856,253.601075 262.448731,253.87451 262.258301,254.221191 L262.258301,260 L260.81543,260 L260.81543,252.075195 L262.104492,252.075195 Z M269.025879,256.184082 C269.025879,254.909662 269.304196,253.88184 269.86084,253.100586 C270.417483,252.319332 271.186519,251.928711 272.167969,251.928711 C272.670901,251.928711 273.112791,252.030028 273.493652,252.232666 C273.874514,252.435304 274.191893,252.727049 274.445801,253.10791 L274.621582,252.075195 L275.771484,252.075195 L275.771484,260.043945 C275.771484,261.059575 275.476077,261.839597 274.885254,262.384033 C274.294431,262.92847 273.442388,263.200684 272.329102,263.200684 C271.94824,263.200684 271.536867,263.148194 271.094971,263.043213 C270.653074,262.938232 270.263674,262.795411 269.926758,262.614746 L270.292969,261.494141 C270.551759,261.640626 270.864256,261.759033 271.230469,261.849365 C271.596682,261.939698 271.958006,261.984863 272.314453,261.984863 C273.017582,261.984863 273.529051,261.824953 273.848877,261.505127 C274.168703,261.185301 274.328613,260.698245 274.328613,260.043945 L274.328613,259.150391 C274.069823,259.482424 273.759767,259.732665 273.398438,259.901123 C273.037108,260.069581 272.622073,260.153809 272.15332,260.153809 C271.181636,260.153809 270.417483,259.80225 269.86084,259.099121 C269.304196,258.395993 269.025879,257.475592 269.025879,256.337891 L269.025879,256.184082 Z M270.46875,256.337891 C270.46875,257.133793 270.637205,257.773435 270.974121,258.256836 C271.311037,258.740237 271.823727,258.981934 272.512207,258.981934 C272.94678,258.981934 273.310545,258.883058 273.603516,258.685303 C273.896486,258.487548 274.138183,258.20801 274.328613,257.84668 L274.328613,254.199219 C274.143065,253.862303 273.901369,253.594972 273.603516,253.397217 C273.305663,253.199462 272.946779,253.100586 272.526855,253.100586 C271.838375,253.100586 271.323244,253.388669 270.981445,253.964844 C270.639647,254.541019 270.46875,255.280757 270.46875,256.184082 L270.46875,256.337891 Z" id="Hello,-Nice-to-meet" fill="#7189B6"></path>
                    <g id="Group-9" transform="translate(85.000000, 22.000000)">
                        <g id="Group-7">
                            <path d="M195.611124,126.303163 C195.611124,126.092225 195.447061,125.928162 195.236123,125.928162 L194.486122,125.928162 C194.275185,125.928162 194.111122,126.092225 194.111122,126.303163 L194.111122,130.428168 L191.486119,130.428168 C191.275181,130.428168 191.111118,130.592231 191.111118,130.803168 L191.111118,131.553169 C191.111118,131.764107 191.275181,131.92817 191.486119,131.92817 L195.236123,131.92817 C195.447061,131.92817 195.611124,131.764107 195.611124,131.553169 L195.611124,126.303163 Z M200.486129,130.428168 C200.486129,133.943797 197.626751,136.803175 194.111122,136.803175 C190.595493,136.803175 187.736114,133.943797 187.736114,130.428168 C187.736114,126.912539 190.595493,124.05316 194.111122,124.05316 C197.626751,124.05316 200.486129,126.912539 200.486129,130.428168 Z M203.111133,130.428168 C203.111133,125.459412 199.079878,121.428157 194.111122,121.428157 C189.142366,121.428157 185.111111,125.459412 185.111111,130.428168 C185.111111,135.396924 189.142366,139.428179 194.111122,139.428179 C199.079878,139.428179 203.111133,135.396924 203.111133,130.428168 Z" id="" fill="#C4D2EB"></path>
                            <path d="M17.1964491,69.5572583 C17.1964491,69.7849372 17.1160918,69.9992231 16.9553774,70.1599376 L9.68304726,77.4322677 C9.52233278,77.5929822 9.29465394,77.6867323 9.06697509,77.6867323 C8.85268912,77.6867323 8.62501028,77.5929822 8.4642958,77.4322677 L3.61607574,72.5840476 C3.45536126,72.4233332 3.37500402,72.2090472 3.37500402,71.9813683 C3.37500402,71.7536895 3.45536126,71.5260107 3.61607574,71.3652962 L4.83482719,70.1599376 C4.99554167,69.9992231 5.20982764,69.905473 5.43750648,69.905473 C5.66518532,69.905473 5.87947129,69.9992231 6.04018577,70.1599376 L9.06697509,73.1867269 L14.5312673,67.7358276 C14.6919818,67.5751131 14.9062678,67.481363 15.1339466,67.481363 C15.3616255,67.481363 15.5759114,67.5751131 15.7366259,67.7358276 L16.9553774,68.9411861 C17.1160918,69.1019006 17.1964491,69.3295795 17.1964491,69.5572583 Z M20.5714531,71.7269038 C20.5714531,66.0483256 15.9643047,61.4411772 10.2857265,61.4411772 C4.60714835,61.4411772 0,66.0483256 0,71.7269038 C0,77.405482 4.60714835,82.0126303 10.2857265,82.0126303 C15.9643047,82.0126303 20.5714531,77.405482 20.5714531,71.7269038 Z" id="check-circle---fontawesome-copy-12" fill="#D8E3F6"></path>
                            <path d="M31.9814099,115.607327 C31.9814099,115.730653 31.9378831,115.846725 31.8508294,115.933778 L27.9116506,119.872957 C27.8245969,119.960011 27.7012709,120.010792 27.5779448,120.010792 C27.4618733,120.010792 27.3385472,119.960011 27.2514936,119.872957 L24.6253744,117.246838 C24.5383207,117.159784 24.4947938,117.043713 24.4947938,116.920387 C24.4947938,116.797061 24.5383207,116.673735 24.6253744,116.586681 L25.2855314,115.933778 C25.3725851,115.846725 25.4886566,115.795943 25.6119827,115.795943 C25.7353087,115.795943 25.8513803,115.846725 25.938434,115.933778 L27.5779448,117.573289 L30.5377698,114.620719 C30.6248235,114.533665 30.740895,114.482884 30.8642211,114.482884 C30.9875471,114.482884 31.1036187,114.533665 31.1906724,114.620719 L31.8508294,115.273621 C31.9378831,115.360675 31.9814099,115.484001 31.9814099,115.607327 Z M33.8095371,116.782552 C33.8095371,113.706655 31.3139984,111.211116 28.2381019,111.211116 C25.1622054,111.211116 22.6666667,113.706655 22.6666667,116.782552 C22.6666667,119.858448 25.1622054,122.353987 28.2381019,122.353987 C31.3139984,122.353987 33.8095371,119.858448 33.8095371,116.782552 Z" id="check-circle---fontawesome-copy-13" fill="#EEF2FC"></path>
                            <path d="M9.78571582,155.998423 L9.78571582,153.105562 L12.6785764,153.105562 L12.6785764,155.998423 L9.78571582,155.998423 Z M13.3214343,155.998423 L13.3214343,153.105562 L16.5357239,153.105562 L16.5357239,155.998423 L13.3214343,155.998423 Z M9.78571582,152.462705 L9.78571582,149.248415 L12.6785764,149.248415 L12.6785764,152.462705 L9.78571582,152.462705 Z M13.3214343,152.462705 L13.3214343,149.248415 L16.5357239,149.248415 L16.5357239,152.462705 L13.3214343,152.462705 Z M9.78571582,148.605557 L9.78571582,145.712696 L12.6785764,145.712696 L12.6785764,148.605557 L9.78571582,148.605557 Z M17.1785818,155.998423 L17.1785818,153.105562 L20.3928713,153.105562 L20.3928713,155.998423 L17.1785818,155.998423 Z M13.3214343,148.605557 L13.3214343,145.712696 L16.5357239,145.712696 L16.5357239,148.605557 L13.3214343,148.605557 Z M21.0357292,155.998423 L21.0357292,153.105562 L23.9285898,153.105562 L23.9285898,155.998423 L21.0357292,155.998423 Z M17.1785818,152.462705 L17.1785818,149.248415 L20.3928713,149.248415 L20.3928713,152.462705 L17.1785818,152.462705 Z M13.6428633,143.784123 C13.6428633,143.954882 13.4921935,144.105552 13.3214343,144.105552 L12.6785764,144.105552 C12.5078173,144.105552 12.3571475,143.954882 12.3571475,143.784123 L12.3571475,140.891262 C12.3571475,140.720503 12.5078173,140.569833 12.6785764,140.569833 L13.3214343,140.569833 C13.4921935,140.569833 13.6428633,140.720503 13.6428633,140.891262 L13.6428633,143.784123 Z M21.0357292,152.462705 L21.0357292,149.248415 L23.9285898,149.248415 L23.9285898,152.462705 L21.0357292,152.462705 Z M17.1785818,148.605557 L17.1785818,145.712696 L20.3928713,145.712696 L20.3928713,148.605557 L17.1785818,148.605557 Z M21.0357292,148.605557 L21.0357292,145.712696 L23.9285898,145.712696 L23.9285898,148.605557 L21.0357292,148.605557 Z M21.3571582,143.784123 C21.3571582,143.954882 21.2064884,144.105552 21.0357292,144.105552 L20.3928713,144.105552 C20.2221122,144.105552 20.0714424,143.954882 20.0714424,143.784123 L20.0714424,140.891262 C20.0714424,140.720503 20.2221122,140.569833 20.3928713,140.569833 L21.0357292,140.569833 C21.2064884,140.569833 21.3571582,140.720503 21.3571582,140.891262 L21.3571582,143.784123 Z M25.2143056,143.141265 C25.2143056,142.438139 24.6317157,141.855549 23.9285898,141.855549 L22.642874,141.855549 L22.642874,140.891262 C22.642874,140.007333 21.9196589,139.284117 21.0357292,139.284117 L20.3928713,139.284117 C19.5089417,139.284117 18.7857265,140.007333 18.7857265,140.891262 L18.7857265,141.855549 L14.9285791,141.855549 L14.9285791,140.891262 C14.9285791,140.007333 14.2053639,139.284117 13.3214343,139.284117 L12.6785764,139.284117 C11.7946468,139.284117 11.0714316,140.007333 11.0714316,140.891262 L11.0714316,141.855549 L9.78571582,141.855549 C9.08258998,141.855549 8.5,142.438139 8.5,143.141265 L8.5,155.998423 C8.5,156.701549 9.08258998,157.284139 9.78571582,157.284139 L23.9285898,157.284139 C24.6317157,157.284139 25.2143056,156.701549 25.2143056,155.998423 L25.2143056,143.141265 Z" id="calendar---fontawesome" fill="#EEF2FC"></path>
                            <path d="M68.8333411,13.1405794 C68.8333411,13.0099989 68.7317785,12.9084363 68.6011979,12.9084363 L68.1369117,12.9084363 C68.0063312,12.9084363 67.9047685,13.0099989 67.9047685,13.1405794 L67.9047685,15.6941539 L66.2797666,15.6941539 C66.1491861,15.6941539 66.0476235,15.7957165 66.0476235,15.926297 L66.0476235,16.3905833 C66.0476235,16.5211638 66.1491861,16.6227264 66.2797666,16.6227264 L68.6011979,16.6227264 C68.7317785,16.6227264 68.8333411,16.5211638 68.8333411,16.3905833 L68.8333411,13.1405794 Z M71.8512018,15.6941539 C71.8512018,17.8704958 70.0811104,19.6405872 67.9047685,19.6405872 C65.7284267,19.6405872 63.9583353,17.8704958 63.9583353,15.6941539 C63.9583353,13.517812 65.7284267,11.7477206 67.9047685,11.7477206 C70.0811104,11.7477206 71.8512018,13.517812 71.8512018,15.6941539 Z M73.4762038,15.6941539 C73.4762038,12.6182574 70.9806651,10.1227187 67.9047685,10.1227187 C64.828872,10.1227187 62.3333333,12.6182574 62.3333333,15.6941539 C62.3333333,18.7700504 64.828872,21.2655891 67.9047685,21.2655891 C70.9806651,21.2655891 73.4762038,18.7700504 73.4762038,15.6941539 Z" id="clock-o---fontawesome" fill="#D8E3F6"></path>
                            <path d="M215.692225,92.1487008 C215.692225,92.2910001 215.642002,92.4249288 215.541555,92.5253754 L210.996349,97.0705817 C210.895902,97.1710282 210.753603,97.229622 210.611304,97.229622 C210.477375,97.229622 210.335076,97.1710282 210.234629,97.0705817 L207.204492,94.0404441 C207.104045,93.9399976 207.053822,93.8060689 207.053822,93.6637696 C207.053822,93.5214703 207.104045,93.379171 207.204492,93.2787245 L207.966211,92.5253754 C208.066658,92.4249288 208.200587,92.366335 208.342886,92.366335 C208.485185,92.366335 208.619114,92.4249288 208.719561,92.5253754 L210.611304,94.4171187 L214.026487,91.0103066 C214.126933,90.90986 214.260862,90.8512662 214.403161,90.8512662 C214.54546,90.8512662 214.679389,90.90986 214.779836,91.0103066 L215.541555,91.7636557 C215.642002,91.8641023 215.692225,92.0064015 215.692225,92.1487008 Z M217.801603,93.5047292 C217.801603,89.9556178 214.922135,87.0761501 211.373024,87.0761501 C207.823912,87.0761501 204.944444,89.9556178 204.944444,93.5047292 C204.944444,97.0538406 207.823912,99.9333083 211.373024,99.9333083 C214.922135,99.9333083 217.801603,97.0538406 217.801603,93.5047292 Z" id="check-circle---fontawesome-copy-11" fill="#EEF2FC"></path>
                            <path d="M184.264891,46.0880214 C184.264891,46.2018608 184.224713,46.3090038 184.144355,46.3893611 L180.50819,50.0255261 C180.427833,50.1058834 180.313994,50.1527584 180.200154,50.1527584 C180.093011,50.1527584 179.979172,50.1058834 179.898815,50.0255261 L177.474705,47.6014161 C177.394347,47.5210588 177.354169,47.4139159 177.354169,47.3000764 C177.354169,47.186237 177.394347,47.0723976 177.474705,46.9920404 L178.08408,46.3893611 C178.164438,46.3090038 178.27158,46.2621288 178.38542,46.2621288 C178.499259,46.2621288 178.606402,46.3090038 178.68676,46.3893611 L180.200154,47.9027557 L182.9323,45.177306 C183.012658,45.0969488 183.119801,45.0500738 183.23364,45.0500738 C183.347479,45.0500738 183.454622,45.0969488 183.53498,45.177306 L184.144355,45.7799853 C184.224713,45.8603426 184.264891,45.974182 184.264891,46.0880214 Z M185.952393,47.1728441 C185.952393,44.333555 183.648819,42.0299809 180.80953,42.0299809 C177.970241,42.0299809 175.666667,44.333555 175.666667,47.1728441 C175.666667,50.0121332 177.970241,52.3157074 180.80953,52.3157074 C183.648819,52.3157074 185.952393,50.0121332 185.952393,47.1728441 Z" id="check-circle---fontawesome-copy-15" fill="#D8E3F6"></path>
                            <path d="M153.33334,15.1249978 C153.33334,15.3359355 153.169278,15.4999982 152.95834,15.4999982 L149.208336,15.4999982 C148.997398,15.4999982 148.833335,15.3359355 148.833335,15.1249978 L148.833335,12.8749951 C148.833335,12.6640573 148.997398,12.4999946 149.208336,12.4999946 L152.95834,12.4999946 C153.169278,12.4999946 153.33334,12.6640573 153.33334,12.8749951 L153.33334,15.1249978 Z M153.33334,10.6249924 C153.33334,10.8359302 153.169278,10.9999928 152.95834,10.9999928 L149.208336,10.9999928 C148.997398,10.9999928 148.833335,10.8359302 148.833335,10.6249924 L148.833335,8.37498972 C148.833335,8.16405197 148.997398,7.99998927 149.208336,7.99998927 L152.95834,7.99998927 C153.169278,7.99998927 153.33334,8.16405197 153.33334,8.37498972 L153.33334,10.6249924 Z M159.333348,15.1249978 C159.333348,15.3359355 159.169285,15.4999982 158.958347,15.4999982 L155.208343,15.4999982 C154.997405,15.4999982 154.833342,15.3359355 154.833342,15.1249978 L154.833342,12.8749951 C154.833342,12.6640573 154.997405,12.4999946 155.208343,12.4999946 L158.958347,12.4999946 C159.169285,12.4999946 159.333348,12.6640573 159.333348,12.8749951 L159.333348,15.1249978 Z M153.33334,6.12498704 C153.33334,6.33592479 153.169278,6.49998748 152.95834,6.49998748 L149.208336,6.49998748 C148.997398,6.49998748 148.833335,6.33592479 148.833335,6.12498704 L148.833335,3.87498435 C148.833335,3.6640466 148.997398,3.49998391 149.208336,3.49998391 L152.95834,3.49998391 C153.169278,3.49998391 153.33334,3.6640466 153.33334,3.87498435 L153.33334,6.12498704 Z M159.333348,10.6249924 C159.333348,10.8359302 159.169285,10.9999928 158.958347,10.9999928 L155.208343,10.9999928 C154.997405,10.9999928 154.833342,10.8359302 154.833342,10.6249924 L154.833342,8.37498972 C154.833342,8.16405197 154.997405,7.99998927 155.208343,7.99998927 L158.958347,7.99998927 C159.169285,7.99998927 159.333348,8.16405197 159.333348,8.37498972 L159.333348,10.6249924 Z M165.333355,15.1249978 C165.333355,15.3359355 165.169292,15.4999982 164.958354,15.4999982 L161.20835,15.4999982 C160.997412,15.4999982 160.833349,15.3359355 160.833349,15.1249978 L160.833349,12.8749951 C160.833349,12.6640573 160.997412,12.4999946 161.20835,12.4999946 L164.958354,12.4999946 C165.169292,12.4999946 165.333355,12.6640573 165.333355,12.8749951 L165.333355,15.1249978 Z M159.333348,6.12498704 C159.333348,6.33592479 159.169285,6.49998748 158.958347,6.49998748 L155.208343,6.49998748 C154.997405,6.49998748 154.833342,6.33592479 154.833342,6.12498704 L154.833342,3.87498435 C154.833342,3.6640466 154.997405,3.49998391 155.208343,3.49998391 L158.958347,3.49998391 C159.169285,3.49998391 159.333348,3.6640466 159.333348,3.87498435 L159.333348,6.12498704 Z M165.333355,10.6249924 C165.333355,10.8359302 165.169292,10.9999928 164.958354,10.9999928 L161.20835,10.9999928 C160.997412,10.9999928 160.833349,10.8359302 160.833349,10.6249924 L160.833349,8.37498972 C160.833349,8.16405197 160.997412,7.99998927 161.20835,7.99998927 L164.958354,7.99998927 C165.169292,7.99998927 165.333355,8.16405197 165.333355,8.37498972 L165.333355,10.6249924 Z M165.333355,6.12498704 C165.333355,6.33592479 165.169292,6.49998748 164.958354,6.49998748 L161.20835,6.49998748 C160.997412,6.49998748 160.833349,6.33592479 160.833349,6.12498704 L160.833349,3.87498435 C160.833349,3.6640466 160.997412,3.49998391 161.20835,3.49998391 L164.958354,3.49998391 C165.169292,3.49998391 165.333355,3.6640466 165.333355,3.87498435 L165.333355,6.12498704 Z M166.833357,2.37498257 C166.833357,1.34373134 165.989606,0.49998033 164.958354,0.49998033 L149.208336,0.49998033 C148.177084,0.49998033 147.333333,1.34373134 147.333333,2.37498257 L147.333333,15.1249978 C147.333333,16.156249 148.177084,17 149.208336,17 L164.958354,17 C165.989606,17 166.833357,16.156249 166.833357,15.1249978 L166.833357,2.37498257 Z" id="table---fontawesome" fill="#EEF2FC"></path>
                            <path d="M179.947421,96.6990823 C179.947421,136.601101 147.499944,168.947809 107.47362,168.947809 C67.4477477,168.947809 34.9998193,136.601101 34.9998193,96.6990823 C34.9998193,56.7970637 67.4477477,24.4503556 107.47362,24.4503556 C147.499944,24.4503556 179.947421,56.7970637 179.947421,96.6990823" id="Fill-1" fill="#E2EBFF"></path>
                            <path d="M96.8404221,77.0264099 L95.6375093,77.0264099 C92.3973692,77.0264099 89.7462632,74.3835373 89.7462632,71.1534596 L89.7462632,39.8185994 C89.7462632,36.5885217 92.3973692,33.9456491 95.6375093,33.9456491 L96.8404221,33.9456491 C100.080562,33.9456491 102.731668,36.5885217 102.731668,39.8185994 L102.731668,71.1534596 C102.731668,74.3835373 100.080562,77.0264099 96.8404221,77.0264099" id="Fill-4" fill="#FAC966"></path>
                            <path d="M96.2389206,73.0561568 C94.8783598,73.0561568 93.7292009,71.9101165 93.7292009,70.5542314 L93.7292009,40.4180978 C93.7292009,39.0617624 94.8783598,37.915722 96.2389206,37.915722 C97.5994813,37.915722 98.7486402,39.0617624 98.7486402,40.4180978 L98.7486402,70.5542314 C98.7486402,71.9101165 97.5994813,73.0561568 96.2389206,73.0561568" id="Fill-6" fill="#FFE6D3"></path>
                            <path d="M119.309911,77.0264099 L118.106998,77.0264099 C114.866858,77.0264099 112.215752,74.3835373 112.215752,71.1534596 L112.215752,39.8185994 C112.215752,36.5885217 114.866858,33.9456491 118.106998,33.9456491 L119.309911,33.9456491 C122.550051,33.9456491 125.201157,36.5885217 125.201157,39.8185994 L125.201157,71.1534596 C125.201157,74.3835373 122.550051,77.0264099 119.309911,77.0264099" id="Fill-8" fill="#FAC966"></path>
                            <path d="M118.708455,73.0561568 C117.347894,73.0561568 116.198735,71.9101165 116.198735,70.5542314 L116.198735,40.4180978 C116.198735,39.0617624 117.347894,37.915722 118.708455,37.915722 C120.069016,37.915722 121.218174,39.0617624 121.218174,40.4180978 L121.218174,70.5542314 C121.218174,71.9101165 120.069016,73.0561568 118.708455,73.0561568" id="Fill-10" fill="#FFE6D3"></path>
                            <path d="M107.49738,60.5141522 C82.5542181,60.5141522 62.3301059,80.6709534 62.3301059,105.538904 L62.3301059,120.261807 L62.3301059,150.575363 L152.672785,150.575363 L152.672785,120.261807 L152.672785,105.538904 C152.672785,80.6709534 132.448673,60.5141522 107.49738,60.5141522" id="Fill-12" fill="#FAC966"></path>
                            <g id="Group-16" transform="translate(62.102804, 135.624783)">
                                <mask id="mask-6" fill="white">
                                    <use xlink:href="#path-5"></use>
                                </mask>
                                <g id="Clip-15"></g>
                                <path d="M78.3463006,2.03950155 C76.1441978,-0.156212733 72.5734034,-0.156212733 70.3708489,2.03950155 C68.1687461,4.23476553 64.5975,4.23476553 62.3949455,2.03950155 C60.1928427,-0.156212733 56.6220483,-0.156212733 54.4194938,2.03950155 C52.2169393,4.23476553 48.6461449,4.23476553 46.4435903,2.03950155 C44.2414875,-0.156212733 40.6706931,-0.156212733 38.4681386,2.03950155 C36.2655841,4.23476553 32.6947897,4.23476553 30.4922352,2.03950155 C28.2901324,-0.156212733 24.719338,-0.156212733 22.5167835,2.03950155 C20.314229,4.23476553 16.7438863,4.23476553 14.5408801,2.03950155 C12.3387773,-0.156212733 8.76798287,-0.156212733 6.56542835,2.03950155 C4.8507243,3.74843012 2.30893302,4.12083696 0.227437695,3.16888043 L0.227437695,17.592778 C12.6116121,27.4361165 28.3005218,33.3230264 45.370771,33.3230264 C62.4667679,33.3230264 78.1769081,27.4185543 90.5701168,17.5481972 L90.5701168,0.405324534 C89.041067,0.335076087 87.4894315,0.875899068 86.322204,2.03950155 C84.1196495,4.23476553 80.5488551,4.23476553 78.3463006,2.03950155" id="Fill-14" fill="#FAA132" mask="url(#mask-6)"></path>
                            </g>
                            <path d="M101.019403,130.914399 L105.774139,130.914399 C106.47836,130.914399 107.049326,130.345207 107.049326,129.643172 L107.049326,117.90853 C107.049326,117.206495 106.47836,116.636852 105.774139,116.636852 L101.019403,116.636852 C100.315182,116.636852 99.7442165,117.206495 99.7442165,117.90853 L99.7442165,129.643172 C99.7442165,130.345207 100.315182,130.914399 101.019403,130.914399" id="Fill-17" fill="#FFFFFF"></path>
                            <path d="M109.228707,130.914399 L113.983442,130.914399 C114.687664,130.914399 115.258629,130.345207 115.258629,129.643172 L115.258629,117.90853 C115.258629,117.206495 114.687664,116.636852 113.983442,116.636852 L109.228707,116.636852 C108.524486,116.636852 107.95352,117.206495 107.95352,117.90853 L107.95352,129.643172 C107.95352,130.345207 108.524486,130.914399 109.228707,130.914399" id="Fill-19" fill="#FFFFFF"></path>
                            <path d="M89.7911184,99.8185186 C88.3935171,99.8185186 87.2588131,98.6886894 87.2588131,97.2940776 L87.2588131,89.9823851 C87.2588131,88.5886739 88.3935171,87.459295 89.7911184,87.459295 C91.1905265,87.459295 92.3234237,88.5886739 92.3234237,89.9823851 L92.3234237,97.2940776 C92.3234237,98.6886894 91.1905265,99.8185186 89.7911184,99.8185186" id="Fill-21" fill="#6E3521"></path>
                            <path d="M125.210779,99.8185186 C123.811822,99.8185186 122.679377,98.6886894 122.679377,97.2940776 L122.679377,89.9823851 C122.679377,88.5886739 123.811822,87.459295 125.210779,87.459295 C126.61109,87.459295 127.743988,88.5886739 127.743988,89.9823851 L127.743988,97.2940776 C127.743988,98.6886894 126.61109,99.8185186 125.210779,99.8185186" id="Fill-23" fill="#6E3521"></path>
                            <path d="M85.0825483,116.637078 L85.0825483,116.637078 C85.0825483,109.103382 91.2086854,102.99627 98.7658505,102.99627 L116.236769,102.99627 C123.793935,102.99627 129.920523,109.103382 129.920523,116.637078 L129.920523,116.637078" id="Fill-25" fill="#FFE6D3"></path>
                            <path d="M100.19986,126.155607 L92.3843146,126.155607 C88.3514174,126.155607 85.0823676,122.89671 85.0823676,118.876787 C85.0823676,114.856415 88.3514174,111.597517 92.3843146,111.597517 L100.19986,111.597517 C104.232305,111.597517 107.501355,114.856415 107.501355,118.876787 C107.501355,122.89671 104.232305,126.155607 100.19986,126.155607" id="Fill-27" fill="#FFE6D3"></path>
                            <polygon id="Fill-29" fill="#FFE6D3" points="85.0823676 118.876832 107.501355 118.876832 107.501355 115.237422 85.0823676 115.237422"></polygon>
                            <path d="M122.618757,126.155607 L114.803212,126.155607 C110.770315,126.155607 107.501265,122.89671 107.501265,118.876787 C107.501265,114.856415 110.770315,111.597517 114.803212,111.597517 L122.618757,111.597517 C126.651202,111.597517 129.920252,114.856415 129.920252,118.876787 C129.920252,122.89671 126.651202,126.155607 122.618757,126.155607" id="Fill-31" fill="#FFE6D3"></path>
                            <polygon id="Fill-32" fill="#FFE6D3" points="107.501355 118.876832 129.920343 118.876832 129.920343 115.237422 107.501355 115.237422"></polygon>
                            <path d="M111.507872,110.645516 L103.494928,110.645516 C100.40566,110.645516 97.878324,108.125578 97.878324,105.045904 C97.878324,101.96623 100.40566,99.4467422 103.494928,99.4467422 L111.507872,99.4467422 C114.59714,99.4467422 117.124928,101.96623 117.124928,105.045904 C117.124928,108.125578 114.59714,110.645516 111.507872,110.645516" id="Fill-33" fill="#FA8A38"></path>
                            <path id="Stroke-34" stroke="#FA8A38" stroke-width="4.05279503" stroke-linecap="round"></path>
                            <g id="Group-37" transform="translate(56.230530, 71.680683)" fill="#F6F0E7" opacity="0.3">
                                <path d="M41.1112492,20.4845373 C41.1112492,31.7130311 31.9803146,40.8151584 20.7172928,40.8151584 C9.45381931,40.8151584 0.323336449,31.7130311 0.323336449,20.4845373 C0.323336449,9.25604348 9.45381931,0.153916149 20.7172928,0.153916149 C31.9803146,0.153916149 41.1112492,9.25604348 41.1112492,20.4845373" id="Fill-35"></path>
                                <path d="M102.163115,20.4845373 C102.163115,31.7130311 93.0321807,40.8151584 81.7691589,40.8151584 C70.5056854,40.8151584 61.3752025,31.7130311 61.3752025,20.4845373 C61.3752025,9.25604348 70.5056854,0.153916149 81.7691589,0.153916149 C93.0321807,0.153916149 102.163115,9.25604348 102.163115,20.4845373" id="Fill-36"></path>
                            </g>
                            <path d="M96.835905,95.1425839 C102.710889,89.2858447 112.236621,89.2858447 118.111606,95.1425839" id="Stroke-38" stroke="#DB9B21" stroke-width="3.60248447"></path>
                            <path d="M97.3417788,92.1652205 C97.3417788,103.393714 88.2108442,112.495842 76.9478224,112.495842 C65.6843489,112.495842 56.553866,103.393714 56.553866,92.1652205 C56.553866,80.9367267 65.6843489,71.8345994 76.9478224,71.8345994 C88.2108442,71.8345994 97.3417788,80.9367267 97.3417788,92.1652205 L97.3417788,92.1652205 Z" id="Stroke-39" stroke="#DB9B21" stroke-width="3.60248447"></path>
                            <path d="M158.393645,92.1652205 C158.393645,103.393714 149.26271,112.495842 137.999688,112.495842 C126.736215,112.495842 117.605732,103.393714 117.605732,92.1652205 C117.605732,80.9367267 126.736215,71.8345994 137.999688,71.8345994 C149.26271,71.8345994 158.393645,80.9367267 158.393645,92.1652205 L158.393645,92.1652205 Z" id="Stroke-40" stroke="#DB9B21" stroke-width="3.60248447"></path>
                            <path d="M123.520603,136.922758 L113.373765,142.762835 C108.767643,145.413814 108.767643,152.041484 113.373765,154.692913 L123.520603,160.532991 C128.126724,163.183969 133.884263,159.870134 133.884263,154.567727 L133.884263,142.887571 C133.884263,137.585615 128.126724,134.27178 123.520603,136.922758" id="Fill-41" fill="#4C90FF"></path>
                            <path d="M91.4822882,136.922758 L101.629126,142.762835 C106.235248,145.413814 106.235248,152.041484 101.629126,154.692913 L91.4822882,160.532991 C86.8761667,163.183969 81.1186277,159.870134 81.1186277,154.567727 L81.1186277,142.887571 C81.1186277,137.585615 86.8761667,134.27178 91.4822882,136.922758" id="Fill-42" fill="#4C90FF"></path>
                            <path d="M84.8956293,140.471025 C86.3316262,140.471025 87.4956916,139.310124 87.4956916,137.878587 C87.4956916,137.193214 87.2269221,136.571335 86.7910187,136.107966 C85.0727009,136.426786 83.5129346,137.39 82.4654112,138.794068 C82.8367196,139.773494 83.7835109,140.471025 84.8956293,140.471025" id="Fill-43" fill="#4972FF"></path>
                            <path d="M84.8956293,143.010191 C83.4596324,143.010191 82.295567,144.170641 82.295567,145.602179 C82.295567,147.034166 83.4596324,148.194616 84.8956293,148.194616 C86.3316262,148.194616 87.4956916,147.034166 87.4956916,145.602179 C87.4956916,144.170641 86.3316262,143.010191 84.8956293,143.010191" id="Fill-44" fill="#4972FF"></path>
                            <path d="M84.8956293,150.733648 C83.4596324,150.733648 82.295567,151.894098 82.295567,153.325635 C82.295567,154.757623 83.4596324,155.918073 84.8956293,155.918073 C86.3316262,155.918073 87.4956916,154.757623 87.4956916,153.325635 C87.4956916,151.894098 86.3316262,150.733648 84.8956293,150.733648" id="Fill-45" fill="#4972FF"></path>
                            <path d="M84.8956293,158.457059 C84.1430748,158.457059 83.4673115,158.77768 82.9925607,159.286981 C84.1593364,160.514078 85.7574984,161.296717 87.4631682,161.440817 C87.4825919,161.312929 87.4956916,161.182789 87.4956916,161.049047 C87.4956916,159.617509 86.3316262,158.457059 84.8956293,158.457059" id="Fill-46" fill="#4972FF"></path>
                            <path d="M92.4308411,139.114194 C90.9948442,139.114194 89.8307788,140.274644 89.8307788,141.706182 C89.8307788,143.137719 90.9948442,144.29862 92.4308411,144.29862 C93.866838,144.29862 95.0309034,143.137719 95.0309034,141.706182 C95.0309034,140.274644 93.866838,139.114194 92.4308411,139.114194" id="Fill-47" fill="#4972FF"></path>
                            <path d="M92.4308411,146.837606 C90.9948442,146.837606 89.8307788,147.998056 89.8307788,149.429593 C89.8307788,150.861581 90.9948442,152.022031 92.4308411,152.022031 C93.866838,152.022031 95.0309034,150.861581 95.0309034,149.429593 C95.0309034,147.998056 93.866838,146.837606 92.4308411,146.837606" id="Fill-48" fill="#4972FF"></path>
                            <path d="M92.4308411,154.561062 C90.9948442,154.561062 89.8307788,155.721512 89.8307788,157.15305 C89.8307788,158.585037 90.9948442,159.745488 92.4308411,159.745488 C92.6042991,159.745488 92.7732399,159.727475 92.9372118,159.695503 L94.3799844,158.86513 C94.7838162,158.408065 95.0309034,157.810053 95.0309034,157.15305 C95.0309034,155.721512 93.866838,154.561062 92.4308411,154.561062" id="Fill-49" fill="#4972FF"></path>
                            <path d="M99.9661885,143.010191 C98.5301916,143.010191 97.3661262,144.170641 97.3661262,145.602179 C97.3661262,147.034166 98.5301916,148.194616 99.9661885,148.194616 C101.402185,148.194616 102.566251,147.034166 102.566251,145.602179 C102.566251,144.170641 101.402185,143.010191 99.9661885,143.010191" id="Fill-50" fill="#4972FF"></path>
                            <path d="M99.9661885,150.733648 C98.5301916,150.733648 97.3661262,151.894098 97.3661262,153.325635 C97.3661262,154.619377 98.3178863,155.688865 99.5605498,155.883399 L101.629397,154.692778 C101.681344,154.662607 101.72516,154.625682 101.775752,154.59461 C101.872871,154.678818 101.974506,154.758073 102.077497,154.835076 C102.383759,154.409983 102.566251,153.889424 102.566251,153.325635 C102.566251,151.894098 101.402185,150.733648 99.9661885,150.733648" id="Fill-51" fill="#4972FF"></path>
                            <path d="M115.036702,143.010191 C113.600706,143.010191 112.43664,144.170641 112.43664,145.602179 C112.43664,147.034166 113.600706,148.194616 115.036702,148.194616 C116.472699,148.194616 117.636765,147.034166 117.636765,145.602179 C117.636765,144.170641 116.472699,143.010191 115.036702,143.010191" id="Fill-52" fill="#4972FF"></path>
                            <path d="M117.636945,153.32577 C117.636945,151.894233 116.47288,150.733783 115.036883,150.733783 C113.600435,150.733783 112.436369,151.894233 112.436369,153.32577 C112.436369,153.889559 112.618861,154.409668 112.925575,154.835211 C113.028565,154.757758 113.130201,154.678953 113.226868,154.594295 C113.277911,154.625366 113.321727,154.662742 113.373674,154.692913 L115.442522,155.883084 C116.685185,155.68855 117.636945,154.619512 117.636945,153.32577" id="Fill-53" fill="#4972FF"></path>
                            <path d="M122.572005,139.114194 C121.136008,139.114194 119.971942,140.274644 119.971942,141.706182 C119.971942,143.137719 121.136008,144.29862 122.572005,144.29862 C124.008002,144.29862 125.172067,143.137719 125.172067,141.706182 C125.172067,140.274644 124.008002,139.114194 122.572005,139.114194" id="Fill-54" fill="#4972FF"></path>
                            <path d="M122.572005,146.837606 C121.136008,146.837606 119.971942,147.998056 119.971942,149.429593 C119.971942,150.861581 121.136008,152.022031 122.572005,152.022031 C124.008002,152.022031 125.172067,150.861581 125.172067,149.429593 C125.172067,147.998056 124.008002,146.837606 122.572005,146.837606" id="Fill-55" fill="#4972FF"></path>
                            <path d="M125.172248,157.153185 C125.172248,155.721648 124.008182,154.561197 122.572185,154.561197 C121.135737,154.561197 119.971671,155.721648 119.971671,157.153185 C119.971671,157.810188 120.218759,158.4082 120.623042,158.865266 L122.065815,159.695638 C122.229335,159.72761 122.398727,159.745172 122.572185,159.745172 C124.008182,159.745172 125.172248,158.584722 125.172248,157.153185" id="Fill-56" fill="#4972FF"></path>
                            <path d="M130.107352,140.471025 C131.21947,140.471025 132.166262,139.773494 132.53757,138.794068 C131.490047,137.39 129.93028,136.426786 128.211963,136.107966 C127.776059,136.571335 127.50729,137.193214 127.50729,137.878587 C127.50729,139.310124 128.671355,140.471025 130.107352,140.471025" id="Fill-57" fill="#4972FF"></path>
                            <path d="M130.107352,143.010191 C128.671355,143.010191 127.50729,144.170641 127.50729,145.602179 C127.50729,147.034166 128.671355,148.194616 130.107352,148.194616 C131.543349,148.194616 132.707414,147.034166 132.707414,145.602179 C132.707414,144.170641 131.543349,143.010191 130.107352,143.010191" id="Fill-58" fill="#4972FF"></path>
                            <path d="M130.107352,150.733648 C128.671355,150.733648 127.50729,151.894098 127.50729,153.325635 C127.50729,154.757623 128.671355,155.918073 130.107352,155.918073 C131.543349,155.918073 132.707414,154.757623 132.707414,153.325635 C132.707414,151.894098 131.543349,150.733648 130.107352,150.733648" id="Fill-59" fill="#4972FF"></path>
                            <path d="M130.107352,158.457059 C128.671355,158.457059 127.50729,159.617509 127.50729,161.049047 C127.50729,161.182789 127.520389,161.312929 127.539813,161.440817 C129.245031,161.296717 130.843645,160.514078 132.010421,159.286981 C131.53567,158.77768 130.859907,158.457059 130.107352,158.457059" id="Fill-60" fill="#4972FF"></path>
                            <path d="M110.836445,155.891685 L104.166445,155.891685 C101.856383,155.891685 99.9659626,154.007585 99.9659626,151.704247 L99.9659626,145.751141 C99.9659626,143.448253 101.856383,141.564154 104.166445,141.564154 L110.836445,141.564154 C113.146508,141.564154 115.036928,143.448253 115.036928,145.751141 L115.036928,151.704247 C115.036928,154.007585 113.146508,155.891685 110.836445,155.891685" id="Fill-61" fill="#5DBBFF"></path>
                        </g>
                    </g>
                </g>
            </g>
        </g>
    </g>
</svg>